{"header":{"PPQ":480,"timeSignature":[4,4],"bpm":120},"tracks":[{"name":"","notes":[],"controlChanges":{},"instrumentNumber":-1},{"name":"1","notes":[{"name":"E4","midi":64,"time":7.612500000000002,"velocity":0.16535433070866143,"duration":0.140625},{"name":"E4","midi":64,"time":8.1125,"velocity":0.1889763779527559,"duration":0.13229166666666714},{"name":"E4","midi":64,"time":8.641666666666667,"velocity":0.1732283464566929,"duration":0.14791666666666714},{"name":"E4","midi":64,"time":9.176041666666668,"velocity":0.1732283464566929,"duration":0.17708333333333393},{"name":"E4","midi":64,"time":9.692708333333336,"velocity":0.1889763779527559,"duration":0.2041666666666675},{"name":"E4","midi":64,"time":10.818750000000003,"velocity":0.1732283464566929,"duration":0.13124999999999964},{"name":"E4","midi":64,"time":11.28229166666667,"velocity":0.1968503937007874,"duration":0.1843749999999993},{"name":"E4","midi":64,"time":11.802083333333336,"velocity":0.2047244094488189,"duration":0.15208333333333357},{"name":"E4","midi":64,"time":12.309375000000003,"velocity":0.2125984251968504,"duration":0.14791666666666714},{"name":"E4","midi":64,"time":12.789583333333336,"velocity":0.2283464566929134,"duration":0.1708333333333325},{"name":"E4","midi":64,"time":13.309375000000003,"velocity":0.2125984251968504,"duration":0.16145833333333393},{"name":"E4","midi":64,"time":13.834375000000003,"velocity":0.2125984251968504,"duration":0.16354166666666714},{"name":"E4","midi":64,"time":14.561458333333338,"velocity":0.2755905511811024,"duration":0.16979166666666679},{"name":"E4","midi":64,"time":15.055208333333338,"velocity":0.25984251968503935,"duration":0.18229166666666607},{"name":"E4","midi":64,"time":15.83541666666667,"velocity":0.2283464566929134,"duration":0.17708333333333215},{"name":"E4","midi":64,"time":16.331250000000004,"velocity":0.25196850393700787,"duration":0.1750000000000007},{"name":"E4","midi":64,"time":16.844791666666673,"velocity":0.2440944881889764,"duration":0.15208333333333357},{"name":"E4","midi":64,"time":17.335416666666674,"velocity":0.23622047244094488,"duration":0.17604166666666643},{"name":"E4","midi":64,"time":17.854166666666675,"velocity":0.2047244094488189,"duration":0.189583333333335},{"name":"E4","midi":64,"time":18.84375000000001,"velocity":0.2440944881889764,"duration":0.14479166666666643},{"name":"E4","midi":64,"time":19.326041666666676,"velocity":0.2440944881889764,"duration":0.14687500000000142},{"name":"E4","midi":64,"time":19.810416666666676,"velocity":0.2283464566929134,"duration":0.154166666666665},{"name":"E4","midi":64,"time":20.300000000000008,"velocity":0.2440944881889764,"duration":0.140625},{"name":"E4","midi":64,"time":20.798958333333342,"velocity":0.1889763779527559,"duration":0.15208333333333357},{"name":"E4","midi":64,"time":21.310416666666676,"velocity":0.1968503937007874,"duration":0.1593750000000007},{"name":"E4","midi":64,"time":21.813541666666676,"velocity":0.2204724409448819,"duration":0.185416666666665},{"name":"E4","midi":64,"time":22.529166666666676,"velocity":0.30708661417322836,"duration":0.19479166666666714},{"name":"E4","midi":64,"time":23.048958333333342,"velocity":0.2440944881889764,"duration":0.15625},{"name":"E4","midi":64,"time":23.79375000000001,"velocity":0.2125984251968504,"duration":0.171875},{"name":"E4","midi":64,"time":24.276041666666675,"velocity":0.2204724409448819,"duration":0.18333333333333357},{"name":"E4","midi":64,"time":24.76145833333334,"velocity":0.2283464566929134,"duration":0.1999999999999993},{"name":"E4","midi":64,"time":25.28645833333334,"velocity":0.2047244094488189,"duration":0.15625},{"name":"E4","midi":64,"time":25.795833333333338,"velocity":0.1968503937007874,"duration":0.21145833333333286},{"name":"E4","midi":64,"time":26.821875000000002,"velocity":0.2204724409448819,"duration":0.1687499999999993},{"name":"E4","midi":64,"time":27.31354166666667,"velocity":0.2677165354330709,"duration":0.17708333333333215},{"name":"E4","midi":64,"time":27.815625,"velocity":0.2204724409448819,"duration":0.15520833333333428},{"name":"E4","midi":64,"time":28.289583333333336,"velocity":0.2204724409448819,"duration":0.15729166666666572},{"name":"E4","midi":64,"time":28.777083333333337,"velocity":0.2204724409448819,"duration":0.16250000000000142},{"name":"E4","midi":64,"time":29.294791666666672,"velocity":0.2047244094488189,"duration":0.140625},{"name":"E4","midi":64,"time":29.790625000000006,"velocity":0.1968503937007874,"duration":0.1531249999999993},{"name":"E4","midi":64,"time":30.498958333333338,"velocity":0.29133858267716534,"duration":0.19895833333333357},{"name":"E4","midi":64,"time":30.980208333333337,"velocity":0.2992125984251969,"duration":0.2624999999999993},{"name":"E4","midi":64,"time":31.739583333333336,"velocity":0.23622047244094488,"duration":0.15520833333333428},{"name":"E4","midi":64,"time":32.25208333333334,"velocity":0.2047244094488189,"duration":0.13229166666666714},{"name":"E4","midi":64,"time":32.73333333333334,"velocity":0.2283464566929134,"duration":0.14999999999999858},{"name":"E4","midi":64,"time":33.237500000000004,"velocity":0.2204724409448819,"duration":0.15312500000000284},{"name":"E4","midi":64,"time":33.743750000000006,"velocity":0.1889763779527559,"duration":0.18958333333333144},{"name":"E4","midi":64,"time":34.717708333333334,"velocity":0.2677165354330709,"duration":0.140625},{"name":"E4","midi":64,"time":35.223958333333336,"velocity":0.2283464566929134,"duration":0.15312500000000284},{"name":"E4","midi":64,"time":35.71354166666667,"velocity":0.2283464566929134,"duration":0.14791666666666714},{"name":"E4","midi":64,"time":36.18333333333334,"velocity":0.2283464566929134,"duration":0.18437500000000284},{"name":"E4","midi":64,"time":36.67708333333334,"velocity":0.1968503937007874,"duration":0.1458333333333357},{"name":"E4","midi":64,"time":37.15729166666668,"velocity":0.23622047244094488,"duration":0.18541666666666856},{"name":"E4","midi":64,"time":37.66145833333335,"velocity":0.1968503937007874,"duration":0.25},{"name":"E4","midi":64,"time":39.62708333333335,"velocity":0.2204724409448819,"duration":0.14479166666666998},{"name":"E4","midi":64,"time":40.09791666666669,"velocity":0.23622047244094488,"duration":0.19375000000000142},{"name":"E4","midi":64,"time":40.62291666666669,"velocity":0.1889763779527559,"duration":0.1666666666666643},{"name":"E4","midi":64,"time":41.072916666666686,"velocity":0.2204724409448819,"duration":0.21145833333333286},{"name":"E4","midi":64,"time":41.62708333333335,"velocity":0.2125984251968504,"duration":0.19375000000000142},{"name":"E4","midi":64,"time":42.590625000000024,"velocity":0.2440944881889764,"duration":0.19479166666666714},{"name":"E4","midi":64,"time":43.11562500000002,"velocity":0.2047244094488189,"duration":0.12604166666666572},{"name":"E4","midi":64,"time":43.59687500000002,"velocity":0.2047244094488189,"duration":0.1458333333333357},{"name":"E4","midi":64,"time":44.066666666666684,"velocity":0.2204724409448819,"duration":0.14270833333333144},{"name":"E4","midi":64,"time":44.55000000000002,"velocity":0.2047244094488189,"duration":0.19583333333333286},{"name":"E4","midi":64,"time":45.055208333333354,"velocity":0.2204724409448819,"duration":0.2083333333333357},{"name":"E4","midi":64,"time":45.577083333333356,"velocity":0.25984251968503935,"duration":0.3218749999999986},{"name":"E4","midi":64,"time":47.54895833333335,"velocity":0.25984251968503935,"duration":0.11770833333333286},{"name":"E4","midi":64,"time":48.06458333333335,"velocity":0.13385826771653545,"duration":0.09583333333333144},{"name":"E4","midi":64,"time":48.57604166666668,"velocity":0.1732283464566929,"duration":0.04270833333333002},{"name":"E4","midi":64,"time":49.06041666666668,"velocity":0.1968503937007874,"duration":0.06875000000000142},{"name":"E4","midi":64,"time":49.53020833333335,"velocity":0.29133858267716534,"duration":0.13437499999999858},{"name":"E4","midi":64,"time":50.54791666666668,"velocity":0.2125984251968504,"duration":0.11874999999999858},{"name":"E4","midi":64,"time":51.021875000000016,"velocity":0.2047244094488189,"duration":0.14374999999999716},{"name":"E4","midi":64,"time":51.47812500000001,"velocity":0.2125984251968504,"duration":0.18645833333333428},{"name":"E4","midi":64,"time":51.96562500000002,"velocity":0.2283464566929134,"duration":0.1458333333333357},{"name":"E4","midi":64,"time":52.479166666666686,"velocity":0.2440944881889764,"duration":0.140625},{"name":"E4","midi":64,"time":52.961458333333354,"velocity":0.23622047244094488,"duration":0.1302083333333357},{"name":"E4","midi":64,"time":53.496875000000024,"velocity":0.2283464566929134,"duration":0.22604166666666714},{"name":"E4","midi":64,"time":55.436458333333356,"velocity":0.2047244094488189,"duration":0.05416666666666714},{"name":"E4","midi":64,"time":55.93854166666669,"velocity":0.16535433070866143,"duration":0.08645833333333286},{"name":"E4","midi":64,"time":56.37291666666669,"velocity":0.2283464566929134,"duration":0.1822916666666643},{"name":"E4","midi":64,"time":56.90416666666669,"velocity":0.2204724409448819,"duration":0.10104166666666714},{"name":"E4","midi":64,"time":57.38645833333336,"velocity":0.1889763779527559,"duration":0.21770833333333428},{"name":"E4","midi":64,"time":58.43020833333336,"velocity":0.1732283464566929,"duration":0.18645833333333428},{"name":"E4","midi":64,"time":58.90833333333336,"velocity":0.2283464566929134,"duration":0.18437500000000284},{"name":"E4","midi":64,"time":59.422916666666694,"velocity":0.2125984251968504,"duration":0.15937499999999716},{"name":"E4","midi":64,"time":59.920833333333356,"velocity":0.1889763779527559,"duration":0.14999999999999858},{"name":"E4","midi":64,"time":60.42708333333336,"velocity":0.2125984251968504,"duration":0.14479166666666998},{"name":"E4","midi":64,"time":60.91041666666669,"velocity":0.2440944881889764,"duration":0.11562499999999432},{"name":"E4","midi":64,"time":61.43437500000002,"velocity":0.1968503937007874,"duration":0.125},{"name":"E4","midi":64,"time":63.40833333333335,"velocity":0.2125984251968504,"duration":0.13437499999999858},{"name":"E4","midi":64,"time":63.90729166666669,"velocity":0.2047244094488189,"duration":0.09166666666666856},{"name":"E4","midi":64,"time":64.40416666666668,"velocity":0.1889763779527559,"duration":0.1302083333333286},{"name":"E4","midi":64,"time":64.94479166666667,"velocity":0.12598425196850394,"duration":0.0625},{"name":"E4","midi":64,"time":65.41666666666667,"velocity":0.23622047244094488,"duration":0.19374999999999432},{"name":"E4","midi":64,"time":66.39479166666666,"velocity":0.2204724409448819,"duration":0.14166666666666572},{"name":"E4","midi":64,"time":66.878125,"velocity":0.23622047244094488,"duration":0.16562500000000568},{"name":"E4","midi":64,"time":67.38854166666667,"velocity":0.2047244094488189,"duration":0.15520833333333428},{"name":"E4","midi":64,"time":67.87395833333333,"velocity":0.1968503937007874,"duration":0.13333333333333997},{"name":"E4","midi":64,"time":68.34791666666668,"velocity":0.1889763779527559,"duration":0.13437500000000568},{"name":"E4","midi":64,"time":68.86666666666669,"velocity":0.1889763779527559,"duration":0.15208333333333712},{"name":"E4","midi":64,"time":69.40937500000003,"velocity":0.2047244094488189,"duration":0.055208333333339965},{"name":"F#4","midi":66,"time":71.31145833333336,"velocity":0.2204724409448819,"duration":0.15000000000000568},{"name":"F#4","midi":66,"time":71.77083333333337,"velocity":0.31496062992125984,"duration":0.39895833333333997},{"name":"E4","midi":64,"time":72.31041666666671,"velocity":0.2204724409448819,"duration":0.11041666666666572},{"name":"E4","midi":64,"time":72.81145833333338,"velocity":0.2125984251968504,"duration":0.5354166666666629},{"name":"F#4","midi":66,"time":73.28125000000004,"velocity":0.25984251968503935,"duration":0.1614583333333286},{"name":"F#4","midi":66,"time":73.75520833333337,"velocity":0.2755905511811024,"duration":0.4072916666666657},{"name":"E4","midi":64,"time":74.2541666666667,"velocity":0.2283464566929134,"duration":0.171875},{"name":"E4","midi":64,"time":74.7697916666667,"velocity":0.2047244094488189,"duration":0.5354166666666629},{"name":"F#4","midi":66,"time":75.2229166666667,"velocity":0.25984251968503935,"duration":0.1927083333333286},{"name":"F#4","midi":66,"time":75.71250000000003,"velocity":0.3228346456692913,"duration":0.4635416666666714},{"name":"E4","midi":64,"time":76.2604166666667,"velocity":0.23622047244094488,"duration":0.20520833333333144},{"name":"E4","midi":64,"time":76.6947916666667,"velocity":0.29133858267716534,"duration":0.5010416666666657},{"name":"F#4","midi":66,"time":77.16875000000003,"velocity":0.4251968503937008,"duration":0.08958333333333712},{"name":"F#4","midi":66,"time":79.05729166666671,"velocity":0.3464566929133858,"duration":0.17291666666666572},{"name":"F#4","midi":66,"time":79.54583333333338,"velocity":0.33070866141732286,"duration":0.46041666666667425},{"name":"E4","midi":64,"time":80.04375000000005,"velocity":0.25984251968503935,"duration":0.140625},{"name":"E4","midi":64,"time":80.52083333333339,"velocity":0.29133858267716534,"duration":0.5281250000000028},{"name":"F#4","midi":66,"time":81.00416666666672,"velocity":0.25196850393700787,"duration":0.21875},{"name":"F#4","midi":66,"time":81.46562500000006,"velocity":0.2755905511811024,"duration":0.5104166666666714},{"name":"E4","midi":64,"time":82.00312500000007,"velocity":0.2204724409448819,"duration":0.17291666666666572},{"name":"E4","midi":64,"time":82.46354166666673,"velocity":0.29133858267716534,"duration":0.5062499999999943},{"name":"F#4","midi":66,"time":82.91979166666673,"velocity":0.3228346456692913,"duration":0.2083333333333286},{"name":"F#4","midi":66,"time":83.42395833333339,"velocity":0.3464566929133858,"duration":0.44479166666666003},{"name":"E4","midi":64,"time":83.90520833333338,"velocity":0.25196850393700787,"duration":0.2083333333333428},{"name":"E4","midi":64,"time":84.36770833333338,"velocity":0.3858267716535433,"duration":0.5031249999999972},{"name":"F#4","midi":66,"time":84.82083333333338,"velocity":0.4251968503937008,"duration":0.06874999999999432},{"name":"B4","midi":71,"time":86.76041666666671,"velocity":0.2283464566929134,"duration":0.1302083333333286},{"name":"F#4","midi":66,"time":86.77395833333338,"velocity":0.25984251968503935,"duration":0.17395833333333144},{"name":"F#4","midi":66,"time":87.20729166666672,"velocity":0.30708661417322836,"duration":0.2395833333333428},{"name":"B4","midi":71,"time":87.23437500000006,"velocity":0.2992125984251969,"duration":0.22187500000001137},{"name":"B4","midi":71,"time":87.69166666666673,"velocity":0.18110236220472442,"duration":0.19687499999999147},{"name":"E4","midi":64,"time":87.70312500000007,"velocity":0.28346456692913385,"duration":0.14687499999999432},{"name":"B4","midi":71,"time":88.15833333333339,"velocity":0.2677165354330709,"duration":0.2510416666666657},{"name":"E4","midi":64,"time":88.18020833333338,"velocity":0.25196850393700787,"duration":0.21875},{"name":"F#4","midi":66,"time":88.6364583333334,"velocity":0.3543307086614173,"duration":0.1770833333333286},{"name":"B4","midi":71,"time":88.64166666666672,"velocity":0.2440944881889764,"duration":0.21041666666666003},{"name":"F#4","midi":66,"time":89.10000000000005,"velocity":0.4015748031496063,"duration":0.27812500000000284},{"name":"B4","midi":71,"time":89.13333333333338,"velocity":0.29133858267716534,"duration":0.23020833333333712},{"name":"B4","midi":71,"time":89.59791666666672,"velocity":0.28346456692913385,"duration":0.20937500000000853},{"name":"E4","midi":64,"time":89.60625000000006,"velocity":0.31496062992125984,"duration":0.17499999999999716},{"name":"B4","midi":71,"time":90.0833333333334,"velocity":0.33070866141732286,"duration":0.24375000000000568},{"name":"E4","midi":64,"time":90.09687500000007,"velocity":0.2677165354330709,"duration":0.23333333333333428},{"name":"F#4","midi":66,"time":90.56354166666674,"velocity":0.30708661417322836,"duration":0.14687499999999432},{"name":"B4","midi":71,"time":90.5645833333334,"velocity":0.1732283464566929,"duration":0.19583333333332575},{"name":"F#4","midi":66,"time":91.0239583333334,"velocity":0.3543307086614173,"duration":0.2552083333333428},{"name":"B4","midi":71,"time":91.0520833333334,"velocity":0.33070866141732286,"duration":0.21458333333333712},{"name":"B4","midi":71,"time":91.49479166666674,"velocity":0.31496062992125984,"duration":0.19374999999999432},{"name":"E4","midi":64,"time":91.5302083333334,"velocity":0.2755905511811024,"duration":0.12395833333333428},{"name":"B4","midi":71,"time":91.97812500000008,"velocity":0.3937007874015748,"duration":0.22083333333333144},{"name":"E4","midi":64,"time":92.01041666666674,"velocity":0.2755905511811024,"duration":0.18645833333333428},{"name":"B4","midi":71,"time":92.46041666666675,"velocity":0.3779527559055118,"duration":0.1260416666666515},{"name":"F#4","midi":66,"time":92.4677083333334,"velocity":0.4094488188976378,"duration":0.06979166666666003},{"name":"A4","midi":69,"time":94.2895833333334,"velocity":0.29133858267716534,"duration":0.19374999999999432},{"name":"F#4","midi":66,"time":94.31145833333339,"velocity":0.33858267716535434,"duration":0.13750000000000284},{"name":"F#4","midi":66,"time":94.76562500000006,"velocity":0.33858267716535434,"duration":0.26250000000000284},{"name":"A4","midi":69,"time":94.78333333333339,"velocity":0.3228346456692913,"duration":0.24895833333333428},{"name":"A4","midi":69,"time":95.28333333333339,"velocity":0.2204724409448819,"duration":0.21041666666667425},{"name":"E4","midi":64,"time":95.28437500000005,"velocity":0.33070866141732286,"duration":0.16979166666666856},{"name":"A4","midi":69,"time":95.73437500000006,"velocity":0.30708661417322836,"duration":0.24374999999999147},{"name":"E4","midi":64,"time":95.77187500000005,"velocity":0.23622047244094488,"duration":0.18958333333333144},{"name":"A4","midi":69,"time":96.21250000000005,"velocity":0.25984251968503935,"duration":0.20624999999999716},{"name":"F#4","midi":66,"time":96.22708333333338,"velocity":0.3700787401574803,"duration":0.10625000000000284},{"name":"A4","midi":69,"time":96.67083333333338,"velocity":0.3228346456692913,"duration":0.2552083333333286},{"name":"F#4","midi":66,"time":96.6916666666667,"velocity":0.3464566929133858,"duration":0.22499999999999432},{"name":"A4","midi":69,"time":97.1510416666667,"velocity":0.31496062992125984,"duration":0.1927083333333286},{"name":"E4","midi":64,"time":97.15833333333336,"velocity":0.30708661417322836,"duration":0.11770833333333997},{"name":"A4","midi":69,"time":97.64583333333336,"velocity":0.3228346456692913,"duration":0.23020833333333712},{"name":"E4","midi":64,"time":97.66770833333335,"velocity":0.2440944881889764,"duration":0.1979166666666714},{"name":"F#4","midi":66,"time":98.12812500000003,"velocity":0.33070866141732286,"duration":0.13333333333332575},{"name":"A4","midi":69,"time":98.14583333333336,"velocity":0.2440944881889764,"duration":0.14270833333333144},{"name":"A4","midi":69,"time":98.59895833333336,"velocity":0.3228346456692913,"duration":0.234375},{"name":"F#4","midi":66,"time":98.61145833333336,"velocity":0.3228346456692913,"duration":0.20208333333333428},{"name":"A4","midi":69,"time":99.09270833333336,"velocity":0.31496062992125984,"duration":0.17500000000001137},{"name":"E4","midi":64,"time":99.1041666666667,"velocity":0.28346456692913385,"duration":0.10833333333333428},{"name":"A4","midi":69,"time":99.55312500000004,"velocity":0.3543307086614173,"duration":0.21145833333332575},{"name":"E4","midi":64,"time":99.55937500000003,"velocity":0.30708661417322836,"duration":0.1822916666666714},{"name":"A4","midi":69,"time":100.01250000000003,"velocity":0.4015748031496063,"duration":0.09374999999998579},{"name":"F#4","midi":66,"time":100.01770833333336,"velocity":0.3858267716535433,"duration":0.04999999999999716},{"name":"B4","midi":71,"time":101.86458333333336,"velocity":0.28346456692913385,"duration":0.16354166666666003},{"name":"F#4","midi":66,"time":101.87187500000002,"velocity":0.4251968503937008,"duration":0.10729166666666856},{"name":"B4","midi":71,"time":102.33645833333335,"velocity":0.3779527559055118,"duration":0.2135416666666714},{"name":"F#4","midi":66,"time":102.35000000000002,"velocity":0.3700787401574803,"duration":0.171875},{"name":"E4","midi":64,"time":102.8291666666667,"velocity":0.2992125984251969,"duration":0.15625},{"name":"B4","midi":71,"time":102.83541666666669,"velocity":0.3464566929133858,"duration":0.16354166666667425},{"name":"B4","midi":71,"time":103.29895833333336,"velocity":0.3700787401574803,"duration":0.203125},{"name":"E4","midi":64,"time":103.31250000000003,"velocity":0.3228346456692913,"duration":0.19166666666666288},{"name":"F#4","midi":66,"time":103.77291666666669,"velocity":0.36220472440944884,"duration":0.12916666666666288},{"name":"B4","midi":71,"time":103.77708333333335,"velocity":0.3464566929133858,"duration":0.1197916666666714},{"name":"F#4","midi":66,"time":104.26458333333335,"velocity":0.3937007874015748,"duration":0.2552083333333286},{"name":"B4","midi":71,"time":104.26666666666668,"velocity":0.3464566929133858,"duration":0.22291666666666288},{"name":"B4","midi":71,"time":104.76458333333335,"velocity":0.2677165354330709,"duration":0.14895833333333997},{"name":"E4","midi":64,"time":104.77916666666668,"velocity":0.2440944881889764,"duration":0.10312500000000568},{"name":"B4","midi":71,"time":105.23645833333336,"velocity":0.3700787401574803,"duration":0.24791666666666856},{"name":"E4","midi":64,"time":105.2479166666667,"velocity":0.30708661417322836,"duration":0.203125},{"name":"B4","midi":71,"time":105.69895833333337,"velocity":0.36220472440944884,"duration":0.19687500000000568},{"name":"F#4","midi":66,"time":105.7104166666667,"velocity":0.33858267716535434,"duration":0.14270833333333144},{"name":"F#4","midi":66,"time":106.19687500000003,"velocity":0.4015748031496063,"duration":0.23645833333333144},{"name":"B4","midi":71,"time":106.2010416666667,"velocity":0.3700787401574803,"duration":0.23645833333333144},{"name":"B4","midi":71,"time":106.64479166666669,"velocity":0.2755905511811024,"duration":0.1822916666666714},{"name":"E4","midi":64,"time":106.67812500000002,"velocity":0.28346456692913385,"duration":0.109375},{"name":"B4","midi":71,"time":107.1072916666667,"velocity":0.4251968503937008,"duration":0.23645833333333144},{"name":"E4","midi":64,"time":107.1166666666667,"velocity":0.33070866141732286,"duration":0.21041666666666003},{"name":"B4","midi":71,"time":107.56875000000002,"velocity":0.3779527559055118,"duration":0.14479166666666288},{"name":"F#4","midi":66,"time":107.57083333333335,"velocity":0.4330708661417323,"duration":0.09062500000000284},{"name":"F#4","midi":66,"time":109.42812500000001,"velocity":0.3464566929133858,"duration":0.11354166666667709},{"name":"A4","midi":69,"time":109.45520833333335,"velocity":0.23622047244094488,"duration":0.13437500000000568},{"name":"A4","midi":69,"time":109.90729166666668,"velocity":0.3228346456692913,"duration":0.21979166666666572},{"name":"F#4","midi":66,"time":109.90729166666668,"velocity":0.30708661417322836,"duration":0.21666666666666856},{"name":"A4","midi":69,"time":110.38541666666669,"velocity":0.23622047244094488,"duration":0.15520833333333428},{"name":"E4","midi":64,"time":110.39270833333335,"velocity":0.28346456692913385,"duration":0.12291666666666856},{"name":"E4","midi":64,"time":110.87500000000001,"velocity":0.2440944881889764,"duration":0.234375},{"name":"A4","midi":69,"time":110.88020833333334,"velocity":0.2755905511811024,"duration":0.20104166666666856},{"name":"A4","midi":69,"time":111.33437500000001,"velocity":0.33858267716535434,"duration":0.19479166666666003},{"name":"F#4","midi":66,"time":111.33958333333334,"velocity":0.3228346456692913,"duration":0.15833333333333144},{"name":"F#4","midi":66,"time":111.80104166666666,"velocity":0.3937007874015748,"duration":0.22604166666667425},{"name":"A4","midi":69,"time":111.83125,"velocity":0.3228346456692913,"duration":0.19687500000000568},{"name":"E4","midi":64,"time":112.28125,"velocity":0.2992125984251969,"duration":0.13229166666666003},{"name":"A4","midi":69,"time":112.28541666666666,"velocity":0.25984251968503935,"duration":0.16458333333332575},{"name":"E4","midi":64,"time":112.74999999999999,"velocity":0.2440944881889764,"duration":0.1979166666666714},{"name":"A4","midi":69,"time":112.75312499999998,"velocity":0.28346456692913385,"duration":0.17083333333333428},{"name":"F#4","midi":66,"time":113.21979166666665,"velocity":0.3700787401574803,"duration":0.1197916666666714},{"name":"A4","midi":69,"time":113.23020833333332,"velocity":0.31496062992125984,"duration":0.1770833333333286},{"name":"F#4","midi":66,"time":113.68541666666665,"velocity":0.4409448818897638,"duration":0.22187499999999716},{"name":"A4","midi":69,"time":113.71458333333332,"velocity":0.2992125984251969,"duration":0.20520833333333144},{"name":"A4","midi":69,"time":114.13645833333332,"velocity":0.3228346456692913,"duration":0.1822916666666714},{"name":"E4","midi":64,"time":114.16666666666666,"velocity":0.2992125984251969,"duration":0.12187500000000284},{"name":"E4","midi":64,"time":114.62708333333333,"velocity":0.3858267716535433,"duration":0.2083333333333428},{"name":"A4","midi":69,"time":114.63541666666667,"velocity":0.36220472440944884,"duration":0.21875},{"name":"A4","midi":69,"time":115.09270833333333,"velocity":0.2677165354330709,"duration":0.21041666666666003},{"name":"F#4","midi":66,"time":115.10833333333333,"velocity":0.33070866141732286,"duration":0.11041666666666572},{"name":"E4","midi":64,"time":132.02708333333334,"velocity":0.29133858267716534,"duration":0.23854166666666288},{"name":"E4","midi":64,"time":132.96041666666667,"velocity":0.2677165354330709,"duration":0.18125000000000568},{"name":"E4","midi":64,"time":133.40208333333334,"velocity":0.2125984251968504,"duration":0.20416666666667993},{"name":"E4","midi":64,"time":133.83541666666667,"velocity":0.3228346456692913,"duration":0.18020833333332575},{"name":"E4","midi":64,"time":134.30520833333333,"velocity":0.33070866141732286,"duration":0.14791666666667425},{"name":"E4","midi":64,"time":134.7458333333333,"velocity":0.3228346456692913,"duration":0.2770833333333087},{"name":"E4","midi":64,"time":135.2322916666666,"velocity":0.2755905511811024,"duration":0.1875},{"name":"E4","midi":64,"time":135.65624999999994,"velocity":0.25984251968503935,"duration":0.14791666666667425},{"name":"E4","midi":64,"time":136.09999999999994,"velocity":0.2440944881889764,"duration":0.1510416666666572},{"name":"E4","midi":64,"time":136.5635416666666,"velocity":0.2440944881889764,"duration":0.21041666666667425},{"name":"E4","midi":64,"time":137.48437499999994,"velocity":0.29133858267716534,"duration":0.1510416666666572},{"name":"E4","midi":64,"time":137.91562499999992,"velocity":0.3858267716535433,"duration":0.15520833333332007},{"name":"E4","midi":64,"time":138.36666666666656,"velocity":0.3700787401574803,"duration":0.17083333333332007},{"name":"E4","midi":64,"time":138.7968749999999,"velocity":0.28346456692913385,"duration":0.24375000000000568},{"name":"E4","midi":64,"time":139.3020833333332,"velocity":0.15748031496062992,"duration":0.171875},{"name":"E4","midi":64,"time":139.71874999999986,"velocity":0.2047244094488189,"duration":0.18333333333333712},{"name":"E4","midi":64,"time":140.18437499999987,"velocity":0.2204724409448819,"duration":0.1979166666666572},{"name":"E4","midi":64,"time":140.69479166666653,"velocity":0.12598425196850394,"duration":0.12083333333333712},{"name":"E4","midi":64,"time":141.98229166666653,"velocity":0.3464566929133858,"duration":0.5666666666666345},{"name":"E4","midi":64,"time":160.6239583333331,"velocity":0.2047244094488189,"duration":0.15416666666666856},{"name":"E4","midi":64,"time":161.48437499999977,"velocity":0.25984251968503935,"duration":0.18958333333333144},{"name":"E4","midi":64,"time":161.92708333333312,"velocity":0.1732283464566929,"duration":0.19895833333333712},{"name":"E4","midi":64,"time":162.37916666666646,"velocity":0.2992125984251969,"duration":0.17291666666667993},{"name":"E4","midi":64,"time":162.83645833333316,"velocity":0.23622047244094488,"duration":0.17395833333333144},{"name":"E4","midi":64,"time":163.27291666666648,"velocity":0.3464566929133858,"duration":0.2541666666666629},{"name":"E4","midi":64,"time":163.7562499999998,"velocity":0.2204724409448819,"duration":0.20000000000001705},{"name":"E4","midi":64,"time":164.18749999999983,"velocity":0.2047244094488189,"duration":0.18020833333332575},{"name":"E4","midi":64,"time":164.66458333333316,"velocity":0.1732283464566929,"duration":0.1927083333333428},{"name":"E4","midi":64,"time":165.09374999999983,"velocity":0.1889763779527559,"duration":0.17812499999999432},{"name":"E4","midi":64,"time":165.56458333333316,"velocity":0.1889763779527559,"duration":0.12291666666666856},{"name":"E4","midi":64,"time":166.02187499999982,"velocity":0.1968503937007874,"duration":0.11979166666665719},{"name":"E4","midi":64,"time":166.82395833333317,"velocity":0.33858267716535434,"duration":0.6916666666666629},{"name":"E4","midi":64,"time":167.7479166666665,"velocity":0.28346456692913385,"duration":0.16354166666667425},{"name":"E4","midi":64,"time":168.19583333333318,"velocity":0.2204724409448819,"duration":0.17291666666667993},{"name":"E4","midi":64,"time":168.60104166666653,"velocity":0.36220472440944884,"duration":0.21458333333333712},{"name":"E4","midi":64,"time":169.0718749999999,"velocity":0.23622047244094488,"duration":0.23854166666666288},{"name":"E4","midi":64,"time":169.5395833333332,"velocity":0.25196850393700787,"duration":0.16458333333332575},{"name":"E4","midi":64,"time":169.9895833333332,"velocity":0.3228346456692913,"duration":0.20208333333332007},{"name":"E4","midi":64,"time":170.42812499999985,"velocity":0.3700787401574803,"duration":0.3645833333333428},{"name":"E4","midi":64,"time":170.89166666666654,"velocity":0.1968503937007874,"duration":0.18541666666666856},{"name":"E4","midi":64,"time":171.29791666666654,"velocity":0.28346456692913385,"duration":0.22708333333332575},{"name":"E4","midi":64,"time":171.77604166666654,"velocity":0.23622047244094488,"duration":0.13854166666666856},{"name":"E4","midi":64,"time":172.21041666666653,"velocity":0.3779527559055118,"duration":0.24687499999998863},{"name":"E4","midi":64,"time":172.63124999999985,"velocity":0.28346456692913385,"duration":0.16874999999998863},{"name":"E4","midi":64,"time":174.47083333333313,"velocity":0.31496062992125984,"duration":0.13645833333333712},{"name":"E4","midi":64,"time":174.8999999999998,"velocity":0.1968503937007874,"duration":0.11979166666665719},{"name":"E4","midi":64,"time":175.33020833333313,"velocity":0.2755905511811024,"duration":0.140625},{"name":"E4","midi":64,"time":175.7843749999998,"velocity":0.2047244094488189,"duration":0.11041666666667993},{"name":"E4","midi":64,"time":176.18854166666648,"velocity":0.2440944881889764,"duration":0.12291666666666856},{"name":"E4","midi":64,"time":176.65729166666648,"velocity":0.1889763779527559,"duration":0.11145833333333144},{"name":"E4","midi":64,"time":177.06145833333315,"velocity":0.2283464566929134,"duration":0.19895833333333712},{"name":"E4","midi":64,"time":177.50624999999982,"velocity":0.23622047244094488,"duration":0.20625000000001137},{"name":"E4","midi":64,"time":177.93124999999984,"velocity":0.2440944881889764,"duration":0.21562499999998863},{"name":"E4","midi":64,"time":178.39895833333316,"velocity":0.2204724409448819,"duration":0.14687499999999432},{"name":"E4","midi":64,"time":178.82083333333316,"velocity":0.2204724409448819,"duration":0.16458333333332575},{"name":"E4","midi":64,"time":179.26770833333316,"velocity":0.2125984251968504,"duration":0.13854166666666856},{"name":"E4","midi":64,"time":179.71145833333316,"velocity":0.2992125984251969,"duration":0.16354166666667425},{"name":"E4","midi":64,"time":180.13645833333317,"velocity":0.30708661417322836,"duration":0.15729166666667993},{"name":"E4","midi":64,"time":180.57499999999985,"velocity":0.3228346456692913,"duration":0.14375000000001137},{"name":"E4","midi":64,"time":181.01458333333318,"velocity":0.2755905511811024,"duration":0.25104166666667993},{"name":"E4","midi":64,"time":181.44791666666652,"velocity":0.3464566929133858,"duration":0.17708333333331439},{"name":"E4","midi":64,"time":181.8729166666665,"velocity":0.25196850393700787,"duration":0.17291666666667993},{"name":"E4","midi":64,"time":182.33229166666652,"velocity":0.23622047244094488,"duration":0.11145833333333144},{"name":"E4","midi":64,"time":182.77187499999985,"velocity":0.25196850393700787,"duration":0.09479166666667993},{"name":"E4","midi":64,"time":183.1958333333332,"velocity":0.25984251968503935,"duration":0.09375},{"name":"E4","midi":64,"time":183.63020833333323,"velocity":0.25984251968503935,"duration":0.125},{"name":"E4","midi":64,"time":184.04270833333322,"velocity":0.33858267716535434,"duration":0.14895833333332575},{"name":"E4","midi":64,"time":184.5083333333332,"velocity":0.2755905511811024,"duration":0.17291666666667993},{"name":"E4","midi":64,"time":184.90208333333322,"velocity":0.29133858267716534,"duration":0.22083333333333144},{"name":"E4","midi":64,"time":185.3437499999999,"velocity":0.28346456692913385,"duration":0.16874999999998863},{"name":"E4","midi":64,"time":185.76041666666654,"velocity":0.2677165354330709,"duration":0.11979166666665719},{"name":"E4","midi":64,"time":186.22916666666654,"velocity":0.2047244094488189,"duration":0.13749999999998863},{"name":"E4","midi":64,"time":186.5927083333332,"velocity":0.31496062992125984,"duration":0.14687499999999432},{"name":"E4","midi":64,"time":187.0833333333332,"velocity":0.3464566929133858,"duration":0.13229166666667425},{"name":"E4","midi":64,"time":187.5156249999999,"velocity":0.36220472440944884,"duration":0.11770833333332575},{"name":"E4","midi":64,"time":187.94895833333322,"velocity":0.36220472440944884,"duration":0.20416666666667993},{"name":"E4","midi":64,"time":188.38541666666654,"velocity":0.2992125984251969,"duration":0.18229166666668561},{"name":"E4","midi":64,"time":188.8374999999999,"velocity":0.2755905511811024,"duration":0.12708333333333144},{"name":"E4","midi":64,"time":189.26458333333323,"velocity":0.3228346456692913,"duration":0.11770833333332575},{"name":"E4","midi":64,"time":189.7312499999999,"velocity":0.23622047244094488,"duration":0.11666666666667425},{"name":"E4","midi":64,"time":190.1635416666666,"velocity":0.2992125984251969,"duration":0.10312500000000568},{"name":"E4","midi":64,"time":190.61770833333327,"velocity":0.2677165354330709,"duration":0.08645833333332575},{"name":"E4","midi":64,"time":191.0260416666666,"velocity":0.2992125984251969,"duration":0.12708333333333144},{"name":"E4","midi":64,"time":191.48333333333326,"velocity":0.25984251968503935,"duration":0.18645833333332007},{"name":"E4","midi":64,"time":191.85624999999993,"velocity":0.30708661417322836,"duration":0.18645833333332007},{"name":"E4","midi":64,"time":192.3197916666666,"velocity":0.2677165354330709,"duration":0.11145833333333144},{"name":"E4","midi":64,"time":192.75520833333326,"velocity":0.2992125984251969,"duration":0.08958333333333712},{"name":"E4","midi":64,"time":193.19895833333325,"velocity":0.31496062992125984,"duration":0.09687500000001137},{"name":"E4","midi":64,"time":193.61562499999994,"velocity":0.31496062992125984,"duration":0.10416666666665719},{"name":"E4","midi":64,"time":194.05937499999993,"velocity":0.28346456692913385,"duration":0.10104166666667425},{"name":"E4","midi":64,"time":194.48645833333327,"velocity":0.2992125984251969,"duration":0.11354166666666288},{"name":"E4","midi":64,"time":194.88645833333328,"velocity":0.36220472440944884,"duration":0.20416666666667993},{"name":"E4","midi":64,"time":195.32291666666663,"velocity":0.30708661417322836,"duration":0.18541666666666856},{"name":"E4","midi":64,"time":195.76249999999996,"velocity":0.2992125984251969,"duration":0.15312499999998863},{"name":"E4","midi":64,"time":196.15624999999994,"velocity":0.29133858267716534,"duration":0.15937500000001137},{"name":"E4","midi":64,"time":196.6333333333333,"velocity":0.29133858267716534,"duration":0.09687500000001137},{"name":"E4","midi":64,"time":197.04583333333332,"velocity":0.3543307086614173,"duration":0.13333333333332575},{"name":"E4","midi":64,"time":197.50104166666665,"velocity":0.30708661417322836,"duration":0.11041666666667993},{"name":"E4","midi":64,"time":197.89375,"velocity":0.3779527559055118,"duration":0.11979166666665719},{"name":"E4","midi":64,"time":198.34375,"velocity":0.3464566929133858,"duration":0.171875},{"name":"E4","midi":64,"time":198.77499999999998,"velocity":0.33070866141732286,"duration":0.16979166666666856},{"name":"E4","midi":64,"time":199.19479166666665,"velocity":0.3464566929133858,"duration":0.13645833333333712},{"name":"E4","midi":64,"time":199.62499999999997,"velocity":0.36220472440944884,"duration":0.09270833333332007},{"name":"E4","midi":64,"time":200.03749999999997,"velocity":0.3700787401574803,"duration":0.10208333333332575},{"name":"F#4","midi":66,"time":200.45937499999997,"velocity":0.4566929133858268,"duration":0.12812499999998295},{"name":"E4","midi":64,"time":200.46979166666662,"velocity":0.33858267716535434,"duration":0.10208333333332575},{"name":"F#4","midi":66,"time":200.88229166666662,"velocity":0.4251968503937008,"duration":0.13229166666667425},{"name":"E4","midi":64,"time":200.8958333333333,"velocity":0.28346456692913385,"duration":0.11666666666667425},{"name":"F#4","midi":66,"time":201.3145833333333,"velocity":0.4330708661417323,"duration":0.1416666666666515},{"name":"E4","midi":64,"time":201.33229166666663,"velocity":0.33070866141732286,"duration":0.12187499999998863},{"name":"F#4","midi":66,"time":201.74583333333328,"velocity":0.4645669291338583,"duration":0.22500000000002274},{"name":"E4","midi":64,"time":201.76249999999996,"velocity":0.3543307086614173,"duration":0.19583333333335418},{"name":"F#4","midi":66,"time":202.17083333333326,"velocity":0.44881889763779526,"duration":0.15833333333333144},{"name":"E4","midi":64,"time":202.17916666666662,"velocity":0.2992125984251969,"duration":0.16041666666663446},{"name":"F#4","midi":66,"time":202.61770833333324,"velocity":0.3464566929133858,"duration":0.12395833333334849},{"name":"E4","midi":64,"time":202.61979166666657,"velocity":0.25984251968503935,"duration":0.09895833333334281},{"name":"F#4","midi":66,"time":203.0416666666666,"velocity":0.4094488188976378,"duration":0.11770833333332575},{"name":"E4","midi":64,"time":203.04999999999993,"velocity":0.3228346456692913,"duration":0.09062499999998863},{"name":"F#4","midi":66,"time":203.4760416666666,"velocity":0.3937007874015748,"duration":0.16666666666668561},{"name":"E4","midi":64,"time":203.5166666666666,"velocity":0.25984251968503935,"duration":0.10833333333334849},{"name":"F#4","midi":66,"time":203.92083333333326,"velocity":0.36220472440944884,"duration":0.11979166666665719},{"name":"E4","midi":64,"time":203.95624999999993,"velocity":0.2677165354330709,"duration":0.07291666666665719},{"name":"F#4","midi":66,"time":204.3499999999999,"velocity":0.3464566929133858,"duration":0.11875000000000568},{"name":"E4","midi":64,"time":204.35729166666658,"velocity":0.25984251968503935,"duration":0.12083333333333712},{"name":"F#4","midi":66,"time":204.77499999999992,"velocity":0.4015748031496063,"duration":0.1510416666666572},{"name":"E4","midi":64,"time":204.79687499999991,"velocity":0.31496062992125984,"duration":0.14374999999998295},{"name":"F#4","midi":66,"time":205.2281249999999,"velocity":0.3700787401574803,"duration":0.17291666666667993},{"name":"E4","midi":64,"time":205.2437499999999,"velocity":0.2755905511811024,"duration":0.18958333333335986},{"name":"F#4","midi":66,"time":205.67187499999991,"velocity":0.3228346456692913,"duration":0.15937500000001137},{"name":"E4","midi":64,"time":205.68437499999993,"velocity":0.2125984251968504,"duration":0.13958333333332007},{"name":"F#4","midi":66,"time":206.1010416666666,"velocity":0.3937007874015748,"duration":0.14895833333332575},{"name":"E4","midi":64,"time":206.11874999999992,"velocity":0.30708661417322836,"duration":0.10416666666665719},{"name":"F#4","midi":66,"time":206.53124999999991,"velocity":0.44881889763779526,"duration":0.1416666666666515},{"name":"E4","midi":64,"time":206.54270833333325,"velocity":0.3464566929133858,"duration":0.11770833333332575},{"name":"F#4","midi":66,"time":206.97291666666658,"velocity":0.4409448818897638,"duration":0.15312499999998863},{"name":"E4","midi":64,"time":206.9874999999999,"velocity":0.30708661417322836,"duration":0.15625},{"name":"F#4","midi":66,"time":207.42083333333323,"velocity":0.4409448818897638,"duration":0.13124999999999432},{"name":"E4","midi":64,"time":207.4437499999999,"velocity":0.30708661417322836,"duration":0.09791666666666288},{"name":"F#4","midi":66,"time":207.8906249999999,"velocity":0.4566929133858268,"duration":0.13124999999999432},{"name":"E4","midi":64,"time":207.9458333333332,"velocity":0.2204724409448819,"duration":0.05937499999998863},{"name":"F#4","midi":66,"time":208.3062499999999,"velocity":0.4330708661417323,"duration":0.125},{"name":"E4","midi":64,"time":208.30833333333322,"velocity":0.33858267716535434,"duration":0.11458333333334281},{"name":"F#4","midi":66,"time":208.72395833333323,"velocity":0.36220472440944884,"duration":0.14583333333331439},{"name":"E4","midi":64,"time":208.73854166666655,"velocity":0.2755905511811024,"duration":0.18125000000000568},{"name":"F#4","midi":66,"time":209.16979166666655,"velocity":0.4251968503937008,"duration":0.1572916666666515},{"name":"E4","midi":64,"time":209.19583333333324,"velocity":0.2755905511811024,"duration":0.13437499999997726},{"name":"F#4","midi":66,"time":209.59479166666654,"velocity":0.4251968503937008,"duration":0.16354166666664582},{"name":"E4","midi":64,"time":209.6052083333332,"velocity":0.3228346456692913,"duration":0.16458333333332575},{"name":"F#4","midi":66,"time":210.02499999999986,"velocity":0.4409448818897638,"duration":0.15625},{"name":"E4","midi":64,"time":210.03437499999987,"velocity":0.3779527559055118,"duration":0.16562500000000568},{"name":"F#4","midi":66,"time":210.4687499999999,"velocity":0.4251968503937008,"duration":0.14687499999999432},{"name":"E4","midi":64,"time":210.47083333333322,"velocity":0.3464566929133858,"duration":0.16458333333332575},{"name":"F#4","midi":66,"time":210.8958333333332,"velocity":0.4251968503937008,"duration":0.14270833333333144},{"name":"E4","midi":64,"time":210.9020833333332,"velocity":0.33858267716535434,"duration":0.15937500000001137},{"name":"F#4","midi":66,"time":211.33437499999988,"velocity":0.44881889763779526,"duration":0.1416666666666515},{"name":"E4","midi":64,"time":211.34062499999987,"velocity":0.3464566929133858,"duration":0.13958333333332007},{"name":"E4","midi":64,"time":211.74999999999986,"velocity":0.3779527559055118,"duration":0.16562500000000568},{"name":"F#4","midi":66,"time":211.75937499999986,"velocity":0.4251968503937008,"duration":0.13124999999999432},{"name":"F#4","midi":66,"time":212.1895833333332,"velocity":0.4094488188976378,"duration":0.14166666666667993},{"name":"E4","midi":64,"time":212.20624999999987,"velocity":0.28346456692913385,"duration":0.14270833333333144},{"name":"F#4","midi":66,"time":212.60624999999985,"velocity":0.4015748031496063,"duration":0.1500000000000341},{"name":"E4","midi":64,"time":212.61562499999985,"velocity":0.2440944881889764,"duration":0.18333333333336554},{"name":"F#4","midi":66,"time":213.0468749999999,"velocity":0.47244094488188976,"duration":0.14062499999997158},{"name":"E4","midi":64,"time":213.05937499999987,"velocity":0.3464566929133858,"duration":0.11354166666666288},{"name":"F#4","midi":66,"time":213.46770833333318,"velocity":0.4566929133858268,"duration":0.1364583333333087},{"name":"E4","midi":64,"time":213.48020833333317,"velocity":0.3543307086614173,"duration":0.10208333333332575},{"name":"F#4","midi":66,"time":213.88749999999982,"velocity":0.4251968503937008,"duration":0.14270833333335986},{"name":"E4","midi":64,"time":213.89687499999982,"velocity":0.3464566929133858,"duration":0.13229166666667425},{"name":"F#4","midi":66,"time":214.31874999999985,"velocity":0.4409448818897638,"duration":0.1395833333333485},{"name":"E4","midi":64,"time":214.32604166666653,"velocity":0.3858267716535433,"duration":0.13437500000000568},{"name":"F#4","midi":66,"time":214.74062499999985,"velocity":0.4566929133858268,"duration":0.15000000000000568},{"name":"E4","midi":64,"time":214.75416666666652,"velocity":0.3228346456692913,"duration":0.13854166666666856},{"name":"F#4","midi":66,"time":215.16874999999985,"velocity":0.5118110236220472,"duration":0.1510416666666572},{"name":"E4","midi":64,"time":215.18333333333317,"velocity":0.4015748031496063,"duration":0.13437500000000568},{"name":"G#4","midi":68,"time":215.5979166666665,"velocity":0.4251968503937008,"duration":0.20520833333335986},{"name":"F#4","midi":66,"time":215.60937499999983,"velocity":0.3858267716535433,"duration":0.2218750000000398},{"name":"E4","midi":64,"time":215.6166666666665,"velocity":0.31496062992125984,"duration":0.21354166666668561},{"name":"F#4","midi":66,"time":216.01041666666654,"velocity":0.4094488188976378,"duration":0.21666666666666856},{"name":"G#4","midi":68,"time":216.01145833333322,"velocity":0.44881889763779526,"duration":0.18645833333332007},{"name":"E4","midi":64,"time":216.01666666666657,"velocity":0.33858267716535434,"duration":0.19999999999998863},{"name":"F#4","midi":66,"time":216.43958333333322,"velocity":0.33858267716535434,"duration":0.16875000000004547},{"name":"E4","midi":64,"time":216.44479166666656,"velocity":0.3228346456692913,"duration":0.1760416666666913},{"name":"G#4","midi":68,"time":216.44583333333324,"velocity":0.3700787401574803,"duration":0.15729166666667993},{"name":"E4","midi":64,"time":216.8822916666666,"velocity":0.30708661417322836,"duration":0.14895833333335418},{"name":"F#4","midi":66,"time":216.88645833333325,"velocity":0.3779527559055118,"duration":0.1708333333333485},{"name":"G#4","midi":68,"time":216.88749999999993,"velocity":0.3700787401574803,"duration":0.14166666666667993},{"name":"E4","midi":64,"time":217.29583333333326,"velocity":0.36220472440944884,"duration":0.16145833333337123},{"name":"G#4","midi":68,"time":217.31249999999994,"velocity":0.31496062992125984,"duration":0.18333333333336554},{"name":"F#4","midi":66,"time":217.31562499999995,"velocity":0.3779527559055118,"duration":0.17812500000002274},{"name":"F#4","midi":66,"time":217.73854166666663,"velocity":0.3937007874015748,"duration":0.16770833333333712},{"name":"G#4","midi":68,"time":217.74062499999997,"velocity":0.3464566929133858,"duration":0.1354166666666572},{"name":"E4","midi":64,"time":217.74687499999996,"velocity":0.33070866141732286,"duration":0.13437500000000568},{"name":"E4","midi":64,"time":218.15937499999998,"velocity":0.3464566929133858,"duration":0.1552083333333485},{"name":"G#4","midi":68,"time":218.16458333333333,"velocity":0.3543307086614173,"duration":0.13229166666667425},{"name":"F#4","midi":66,"time":218.16979166666667,"velocity":0.3937007874015748,"duration":0.16458333333332575},{"name":"E4","midi":64,"time":218.59375,"velocity":0.3464566929133858,"duration":0.1864583333333485},{"name":"F#4","midi":66,"time":218.59895833333334,"velocity":0.4330708661417323,"duration":0.16875000000001705},{"name":"G#4","midi":68,"time":218.60000000000002,"velocity":0.4251968503937008,"duration":0.15937500000001137},{"name":"F#4","midi":66,"time":219.02708333333334,"velocity":0.4094488188976378,"duration":0.1979166666666572},{"name":"G#4","midi":68,"time":219.03125,"velocity":0.4094488188976378,"duration":0.1572916666666515},{"name":"E4","midi":64,"time":219.03333333333333,"velocity":0.33070866141732286,"duration":0.18020833333332575},{"name":"F#4","midi":66,"time":219.44062499999995,"velocity":0.3858267716535433,"duration":0.19375000000002274},{"name":"G#4","midi":68,"time":219.4520833333333,"velocity":0.3779527559055118,"duration":0.15416666666666856},{"name":"E4","midi":64,"time":219.45416666666662,"velocity":0.29133858267716534,"duration":0.17291666666667993},{"name":"E4","midi":64,"time":219.8770833333333,"velocity":0.30708661417322836,"duration":0.2041666666666515},{"name":"F#4","midi":66,"time":219.88124999999997,"velocity":0.4094488188976378,"duration":0.20729166666666288},{"name":"G#4","midi":68,"time":219.8833333333333,"velocity":0.3858267716535433,"duration":0.19166666666666288},{"name":"F#4","midi":66,"time":220.31249999999997,"velocity":0.36220472440944884,"duration":0.15937500000001137},{"name":"G#4","midi":68,"time":220.32187499999998,"velocity":0.3858267716535433,"duration":0.15104166666668561},{"name":"E4","midi":64,"time":220.325,"velocity":0.3464566929133858,"duration":0.14479166666666288},{"name":"F#4","midi":66,"time":220.75416666666666,"velocity":0.41732283464566927,"duration":0.15104166666668561},{"name":"G#4","midi":68,"time":220.759375,"velocity":0.3779527559055118,"duration":0.1395833333333485},{"name":"E4","midi":64,"time":220.76875,"velocity":0.3228346456692913,"duration":0.12604166666667993},{"name":"G#4","midi":68,"time":221.17083333333335,"velocity":0.4015748031496063,"duration":0.15104166666668561},{"name":"E4","midi":64,"time":221.17187500000003,"velocity":0.36220472440944884,"duration":0.18229166666668561},{"name":"F#4","midi":66,"time":221.17395833333336,"velocity":0.4251968503937008,"duration":0.15729166666667993},{"name":"E4","midi":64,"time":221.58125000000004,"velocity":0.33858267716535434,"duration":0.20625000000001137},{"name":"F#4","midi":66,"time":221.60000000000005,"velocity":0.3779527559055118,"duration":0.19479166666667425},{"name":"G#4","midi":68,"time":221.60208333333338,"velocity":0.3937007874015748,"duration":0.14687499999999432},{"name":"F#4","midi":66,"time":222.05000000000007,"velocity":0.4409448818897638,"duration":0.15416666666666856},{"name":"G#4","midi":68,"time":222.05104166666675,"velocity":0.44881889763779526,"duration":0.15312499999998863},{"name":"E4","midi":64,"time":222.05312500000008,"velocity":0.36220472440944884,"duration":0.17395833333333144},{"name":"F#4","midi":66,"time":222.4520833333334,"velocity":0.4330708661417323,"duration":0.25},{"name":"E4","midi":64,"time":222.45416666666674,"velocity":0.3464566929133858,"duration":0.23750000000001137},{"name":"A4","midi":69,"time":222.45729166666675,"velocity":0.4409448818897638,"duration":0.24687499999998863},{"name":"A4","midi":69,"time":222.87812500000004,"velocity":0.3937007874015748,"duration":0.2229166666666913},{"name":"F#4","midi":66,"time":222.88020833333337,"velocity":0.36220472440944884,"duration":0.24062500000002274},{"name":"E4","midi":64,"time":222.88437500000003,"velocity":0.3937007874015748,"duration":0.20000000000001705},{"name":"A4","midi":69,"time":223.30520833333338,"velocity":0.3779527559055118,"duration":0.21354166666668561},{"name":"E4","midi":64,"time":223.3072916666667,"velocity":0.3937007874015748,"duration":0.18854166666667993},{"name":"F#4","midi":66,"time":223.31250000000006,"velocity":0.4881889763779528,"duration":0.2020833333333485},{"name":"A4","midi":69,"time":223.72500000000008,"velocity":0.3464566929133858,"duration":0.13333333333332575},{"name":"E4","midi":64,"time":223.73020833333342,"velocity":0.3464566929133858,"duration":0.14895833333332575},{"name":"F#4","midi":66,"time":223.73229166666675,"velocity":0.44881889763779526,"duration":0.11979166666665719},{"name":"F#4","midi":66,"time":224.15729166666674,"velocity":0.4094488188976378,"duration":0.13229166666667425},{"name":"A4","midi":69,"time":224.15937500000007,"velocity":0.4881889763779528,"duration":0.15208333333333712},{"name":"E4","midi":64,"time":224.16041666666675,"velocity":0.3779527559055118,"duration":0.10729166666666856},{"name":"A4","midi":69,"time":224.5864583333334,"velocity":0.44881889763779526,"duration":0.17083333333332007},{"name":"E4","midi":64,"time":224.60625000000007,"velocity":0.36220472440944884,"duration":0.13645833333333712},{"name":"F#4","midi":66,"time":224.60625000000007,"velocity":0.4094488188976378,"duration":0.14895833333332575},{"name":"E4","midi":64,"time":225.02187500000005,"velocity":0.4094488188976378,"duration":0.16979166666666856},{"name":"A4","midi":69,"time":225.02291666666673,"velocity":0.4251968503937008,"duration":0.203125},{"name":"F#4","midi":66,"time":225.02500000000006,"velocity":0.4251968503937008,"duration":0.16979166666666856},{"name":"A4","midi":69,"time":225.42187500000006,"velocity":0.44881889763779526,"duration":0.20520833333333144},{"name":"F#4","midi":66,"time":225.43125000000006,"velocity":0.4566929133858268,"duration":0.16354166666667425},{"name":"E4","midi":64,"time":225.43437500000007,"velocity":0.3937007874015748,"duration":0.1729166666666515},{"name":"G#4","midi":68,"time":225.83229166666672,"velocity":0.4645669291338583,"duration":0.21145833333335418},{"name":"E4","midi":64,"time":225.8395833333334,"velocity":0.36220472440944884,"duration":0.21458333333333712},{"name":"F#4","midi":66,"time":225.84166666666673,"velocity":0.4094488188976378,"duration":0.21458333333333712},{"name":"G#4","midi":68,"time":226.25625000000008,"velocity":0.4094488188976378,"duration":0.16875000000001705},{"name":"F#4","midi":66,"time":226.26145833333342,"velocity":0.3700787401574803,"duration":0.18437500000001705},{"name":"E4","midi":64,"time":226.26354166666675,"velocity":0.36220472440944884,"duration":0.1916666666666913},{"name":"E4","midi":64,"time":226.68958333333345,"velocity":0.4094488188976378,"duration":0.17500000000001137},{"name":"F#4","midi":66,"time":226.70208333333343,"velocity":0.4330708661417323,"duration":0.18333333333336554},{"name":"G#4","midi":68,"time":226.70520833333345,"velocity":0.4566929133858268,"duration":0.16354166666667425},{"name":"G#4","midi":68,"time":227.11875000000012,"velocity":0.47244094488188976,"duration":0.16041666666666288},{"name":"F#4","midi":66,"time":227.12395833333346,"velocity":0.4094488188976378,"duration":0.15833333333333144},{"name":"E4","midi":64,"time":227.13645833333345,"velocity":0.3779527559055118,"duration":0.1770833333333428},{"name":"G#4","midi":68,"time":227.5312500000001,"velocity":0.4094488188976378,"duration":0.17916666666667425},{"name":"E4","midi":64,"time":227.53541666666678,"velocity":0.3858267716535433,"duration":0.18437500000001705},{"name":"F#4","midi":66,"time":227.54895833333345,"velocity":0.4251968503937008,"duration":0.15416666666666856},{"name":"G#4","midi":68,"time":227.94583333333347,"velocity":0.4566929133858268,"duration":0.16874999999998863},{"name":"E4","midi":64,"time":227.96250000000012,"velocity":0.4330708661417323,"duration":0.1552083333333485},{"name":"F#4","midi":66,"time":227.96562500000013,"velocity":0.4409448818897638,"duration":0.1552083333333485},{"name":"G#4","midi":68,"time":228.37083333333348,"velocity":0.49606299212598426,"duration":0.17604166666666288},{"name":"F#4","midi":66,"time":228.38020833333348,"velocity":0.4566929133858268,"duration":0.1572916666666515},{"name":"E4","midi":64,"time":228.38437500000015,"velocity":0.4094488188976378,"duration":0.15520833333332007},{"name":"G#4","midi":68,"time":228.79270833333348,"velocity":0.5118110236220472,"duration":0.19895833333333712},{"name":"F#4","midi":66,"time":228.80208333333348,"velocity":0.48031496062992124,"duration":0.16979166666666856},{"name":"E4","midi":64,"time":228.80729166666683,"velocity":0.48031496062992124,"duration":0.15833333333333144},{"name":"B4","midi":71,"time":229.21562500000016,"velocity":0.4330708661417323,"duration":0.25729166666667425},{"name":"G#4","midi":68,"time":229.21979166666682,"velocity":0.4330708661417323,"duration":0.24166666666667425},{"name":"F#4","midi":66,"time":229.22604166666682,"velocity":0.3937007874015748,"duration":0.24479166666668561},{"name":"E4","midi":64,"time":229.22812500000015,"velocity":0.36220472440944884,"duration":0.24270833333335418},{"name":"B4","midi":71,"time":229.6364583333335,"velocity":0.4015748031496063,"duration":0.19479166666670267},{"name":"F#4","midi":66,"time":229.64062500000017,"velocity":0.4566929133858268,"duration":0.18437500000004547},{"name":"E4","midi":64,"time":229.6427083333335,"velocity":0.3779527559055118,"duration":0.1812500000000341},{"name":"G#4","midi":68,"time":229.6458333333335,"velocity":0.49606299212598426,"duration":0.17500000000001137},{"name":"B4","midi":71,"time":230.0447916666669,"velocity":0.4094488188976378,"duration":0.20520833333335986},{"name":"E4","midi":64,"time":230.0479166666669,"velocity":0.4094488188976378,"duration":0.1875},{"name":"G#4","midi":68,"time":230.05208333333357,"velocity":0.4645669291338583,"duration":0.19062500000001137},{"name":"F#4","midi":66,"time":230.05520833333358,"velocity":0.4251968503937008,"duration":0.18333333333333712},{"name":"B4","midi":71,"time":230.46250000000026,"velocity":0.3937007874015748,"duration":0.21562500000001705},{"name":"G#4","midi":68,"time":230.4645833333336,"velocity":0.4330708661417323,"duration":0.1927083333333428},{"name":"E4","midi":64,"time":230.4677083333336,"velocity":0.4094488188976378,"duration":0.19895833333333712},{"name":"F#4","midi":66,"time":230.47083333333362,"velocity":0.4094488188976378,"duration":0.19270833333331439},{"name":"B4","midi":71,"time":230.89166666666694,"velocity":0.3858267716535433,"duration":0.20104166666666856},{"name":"G#4","midi":68,"time":230.89791666666693,"velocity":0.4409448818897638,"duration":0.18541666666666856},{"name":"E4","midi":64,"time":230.9020833333336,"velocity":0.3779527559055118,"duration":0.19375000000002274},{"name":"F#4","midi":66,"time":230.90312500000027,"velocity":0.4094488188976378,"duration":0.18333333333333712},{"name":"E4","midi":64,"time":231.32395833333362,"velocity":0.36220472440944884,"duration":0.18750000000002842},{"name":"B4","midi":71,"time":231.32916666666696,"velocity":0.3779527559055118,"duration":0.2333333333333769},{"name":"G#4","midi":68,"time":231.33229166666698,"velocity":0.48031496062992124,"duration":0.1916666666666913},{"name":"F#4","midi":66,"time":231.33750000000032,"velocity":0.4094488188976378,"duration":0.18333333333333712},{"name":"B4","midi":71,"time":231.76145833333368,"velocity":0.3858267716535433,"duration":0.2114583333333826},{"name":"E4","midi":64,"time":231.76250000000036,"velocity":0.4015748031496063,"duration":0.1864583333333485},{"name":"G#4","midi":68,"time":231.76562500000037,"velocity":0.4251968503937008,"duration":0.1875},{"name":"F#4","midi":66,"time":231.76875000000038,"velocity":0.4094488188976378,"duration":0.1875},{"name":"B4","midi":71,"time":232.1968750000004,"velocity":0.4330708661417323,"duration":0.18437499999998863},{"name":"G#4","midi":68,"time":232.2093750000004,"velocity":0.49606299212598426,"duration":0.18541666666666856},{"name":"E4","midi":64,"time":232.21145833333372,"velocity":0.3937007874015748,"duration":0.18020833333332575},{"name":"F#4","midi":66,"time":232.2125000000004,"velocity":0.4645669291338583,"duration":0.17708333333331439},{"name":"C#5","midi":73,"time":232.6156250000004,"velocity":0.5433070866141733,"duration":0.25833333333329733},{"name":"G#4","midi":68,"time":232.62395833333372,"velocity":0.4645669291338583,"duration":0.2708333333333144},{"name":"F#4","midi":66,"time":232.63229166666704,"velocity":0.3858267716535433,"duration":0.2541666666666629},{"name":"E4","midi":64,"time":232.64687500000036,"velocity":0.2677165354330709,"duration":0.234375},{"name":"E4","midi":64,"time":233.02083333333368,"velocity":0.4881889763779528,"duration":0.20520833333333144},{"name":"C#5","midi":73,"time":233.035416666667,"velocity":0.5039370078740157,"duration":0.2083333333333428},{"name":"F#4","midi":66,"time":233.035416666667,"velocity":0.4330708661417323,"duration":0.21250000000000568},{"name":"G#4","midi":68,"time":233.04375000000033,"velocity":0.44881889763779526,"duration":0.20520833333335986},{"name":"C#5","midi":73,"time":233.43854166666702,"velocity":0.47244094488188976,"duration":0.2125000000000341},{"name":"F#4","midi":66,"time":233.44270833333368,"velocity":0.4251968503937008,"duration":0.20833333333337123},{"name":"G#4","midi":68,"time":233.44375000000036,"velocity":0.49606299212598426,"duration":0.2125000000000341},{"name":"E4","midi":64,"time":233.44687500000038,"velocity":0.4251968503937008,"duration":0.18333333333333712},{"name":"C#5","midi":73,"time":233.8500000000004,"velocity":0.49606299212598426,"duration":0.19791666666668561},{"name":"E4","midi":64,"time":233.8593750000004,"velocity":0.4330708661417323,"duration":0.19479166666667425},{"name":"G#4","midi":68,"time":233.86041666666708,"velocity":0.48031496062992124,"duration":0.20729166666666288},{"name":"F#4","midi":66,"time":233.86458333333374,"velocity":0.4409448818897638,"duration":0.20104166666666856},{"name":"C#5","midi":73,"time":234.2750000000004,"velocity":0.5196850393700787,"duration":0.20416666666667993},{"name":"F#4","midi":66,"time":234.27916666666707,"velocity":0.4566929133858268,"duration":0.21562500000001705},{"name":"E4","midi":64,"time":234.28229166666708,"velocity":0.4094488188976378,"duration":0.19687500000000568},{"name":"G#4","midi":68,"time":234.2843750000004,"velocity":0.4645669291338583,"duration":0.20729166666666288},{"name":"C#5","midi":73,"time":234.7010416666671,"velocity":0.5039370078740157,"duration":0.1927083333333428},{"name":"E4","midi":64,"time":234.70937500000042,"velocity":0.4566929133858268,"duration":0.171875},{"name":"G#4","midi":68,"time":234.71250000000043,"velocity":0.44881889763779526,"duration":0.1729166666666515},{"name":"F#4","midi":66,"time":234.71458333333376,"velocity":0.4409448818897638,"duration":0.17812499999999432},{"name":"C#5","midi":73,"time":235.09583333333376,"velocity":0.49606299212598426,"duration":0.20104166666664014},{"name":"E4","midi":64,"time":235.10000000000042,"velocity":0.47244094488188976,"duration":0.19270833333331439},{"name":"F#4","midi":66,"time":235.10833333333375,"velocity":0.47244094488188976,"duration":0.20624999999998295},{"name":"G#4","midi":68,"time":235.11041666666708,"velocity":0.4881889763779528,"duration":0.18958333333333144},{"name":"C#5","midi":73,"time":235.51354166666707,"velocity":0.4881889763779528,"duration":0.16875000000001705},{"name":"F#4","midi":66,"time":235.51458333333375,"velocity":0.47244094488188976,"duration":0.1395833333333485},{"name":"E4","midi":64,"time":235.5197916666671,"velocity":0.47244094488188976,"duration":0.2041666666666515},{"name":"G#4","midi":68,"time":235.52083333333377,"velocity":0.48031496062992124,"duration":0.13749999999998863},{"name":"A4","midi":69,"time":235.92708333333374,"velocity":0.4645669291338583,"duration":0.2645833333333485},{"name":"C#5","midi":73,"time":235.93020833333375,"velocity":0.5039370078740157,"duration":0.2697916666666629},{"name":"E4","midi":64,"time":235.93125000000043,"velocity":0.3937007874015748,"duration":0.2447916666666572},{"name":"G#4","midi":68,"time":235.93125000000043,"velocity":0.47244094488188976,"duration":0.2604166666666572},{"name":"C#5","midi":73,"time":236.32708333333375,"velocity":0.3858267716535433,"duration":0.2531250000000398},{"name":"E4","midi":64,"time":236.33750000000043,"velocity":0.4094488188976378,"duration":0.19479166666667425},{"name":"A4","midi":69,"time":236.34062500000044,"velocity":0.44881889763779526,"duration":0.19479166666667425},{"name":"G#4","midi":68,"time":236.3458333333338,"velocity":0.41732283464566927,"duration":0.1875},{"name":"E4","midi":64,"time":236.75000000000045,"velocity":0.49606299212598426,"duration":0.20729166666666288},{"name":"A4","midi":69,"time":236.7520833333338,"velocity":0.4330708661417323,"duration":0.2083333333333428},{"name":"G#4","midi":68,"time":236.75833333333378,"velocity":0.47244094488188976,"duration":0.19166666666666288},{"name":"C#5","midi":73,"time":236.7604166666671,"velocity":0.5433070866141733,"duration":0.20520833333335986},{"name":"A4","midi":69,"time":237.16562500000046,"velocity":0.49606299212598426,"duration":0.203125},{"name":"E4","midi":64,"time":237.16875000000047,"velocity":0.47244094488188976,"duration":0.2041666666666515},{"name":"G#4","midi":68,"time":237.1708333333338,"velocity":0.49606299212598426,"duration":0.19062499999998295},{"name":"C#5","midi":73,"time":237.17500000000047,"velocity":0.5275590551181102,"duration":0.19999999999998863},{"name":"C#5","midi":73,"time":237.59479166666713,"velocity":0.4566929133858268,"duration":0.23541666666667993},{"name":"A4","midi":69,"time":237.60625000000047,"velocity":0.44881889763779526,"duration":0.19791666666668561},{"name":"E4","midi":64,"time":237.60729166666715,"velocity":0.44881889763779526,"duration":0.20729166666666288},{"name":"G#4","midi":68,"time":237.61145833333381,"velocity":0.4645669291338583,"duration":0.19687500000000568},{"name":"A4","midi":69,"time":238.03750000000048,"velocity":0.4645669291338583,"duration":0.18437500000001705},{"name":"C#5","midi":73,"time":238.03854166666716,"velocity":0.47244094488188976,"duration":0.22187500000001137},{"name":"E4","midi":64,"time":238.04166666666717,"velocity":0.4330708661417323,"duration":0.18645833333332007},{"name":"G#4","midi":68,"time":238.04166666666717,"velocity":0.44881889763779526,"duration":0.17083333333332007},{"name":"E4","midi":64,"time":238.46041666666716,"velocity":0.44881889763779526,"duration":0.19687500000000568},{"name":"C#5","midi":73,"time":238.4625000000005,"velocity":0.4566929133858268,"duration":0.19687500000000568},{"name":"A4","midi":69,"time":238.46458333333382,"velocity":0.4566929133858268,"duration":0.1864583333333485},{"name":"G#4","midi":68,"time":238.47083333333381,"velocity":0.47244094488188976,"duration":0.17916666666667425},{"name":"A4","midi":69,"time":238.86458333333383,"velocity":0.49606299212598426,"duration":0.18750000000002842},{"name":"C#5","midi":73,"time":238.86458333333383,"velocity":0.4881889763779528,"duration":0.23541666666670835},{"name":"E4","midi":64,"time":238.8718750000005,"velocity":0.4881889763779528,"duration":0.18958333333335986},{"name":"G#4","midi":68,"time":238.87291666666718,"velocity":0.47244094488188976,"duration":0.17604166666666288},{"name":"C#5","midi":73,"time":239.27708333333388,"velocity":0.5039370078740157,"duration":0.27395833333329733},{"name":"A4","midi":69,"time":239.2791666666672,"velocity":0.48031496062992124,"duration":0.26458333333329165},{"name":"E4","midi":64,"time":239.28125000000054,"velocity":0.4645669291338583,"duration":0.24166666666664582},{"name":"G#4","midi":68,"time":239.28437500000055,"velocity":0.48031496062992124,"duration":0.2572916666666174},{"name":"B4","midi":71,"time":239.29062500000055,"velocity":0.5039370078740157,"duration":0.23854166666663446},{"name":"C#5","midi":73,"time":239.67395833333381,"velocity":0.3228346456692913,"duration":0.2739583333333542},{"name":"A4","midi":69,"time":239.69375000000048,"velocity":0.4645669291338583,"duration":0.20104166666666856},{"name":"G#4","midi":68,"time":239.69791666666714,"velocity":0.4094488188976378,"duration":0.2020833333333485},{"name":"E4","midi":64,"time":239.69895833333382,"velocity":0.44881889763779526,"duration":0.20416666666667993},{"name":"B4","midi":71,"time":239.70104166666715,"velocity":0.4409448818897638,"duration":0.20104166666666856},{"name":"A4","midi":69,"time":240.1031250000005,"velocity":0.47244094488188976,"duration":0.1958333333333826},{"name":"G#4","midi":68,"time":240.1125000000005,"velocity":0.48031496062992124,"duration":0.18437500000004547},{"name":"C#5","midi":73,"time":240.1156250000005,"velocity":0.5354330708661418,"duration":0.19375000000005116},{"name":"E4","midi":64,"time":240.1166666666672,"velocity":0.4645669291338583,"duration":0.18333333333336554},{"name":"B4","midi":71,"time":240.11875000000052,"velocity":0.4330708661417323,"duration":0.17291666666667993},{"name":"C#5","midi":73,"time":240.52500000000055,"velocity":0.48031496062992124,"duration":0.21458333333333712},{"name":"A4","midi":69,"time":240.52708333333388,"velocity":0.4881889763779528,"duration":0.1979166666666572},{"name":"G#4","midi":68,"time":240.53437500000055,"velocity":0.4881889763779528,"duration":0.19479166666664582},{"name":"E4","midi":64,"time":240.53645833333388,"velocity":0.4566929133858268,"duration":0.19583333333332575},{"name":"B4","midi":71,"time":240.53854166666721,"velocity":0.4881889763779528,"duration":0.19479166666667425},{"name":"E4","midi":64,"time":240.93437500000056,"velocity":0.4566929133858268,"duration":0.17812499999999432},{"name":"A4","midi":69,"time":240.93750000000057,"velocity":0.47244094488188976,"duration":0.18958333333330302},{"name":"C#5","midi":73,"time":240.93750000000057,"velocity":0.5590551181102362,"duration":0.20729166666663446},{"name":"G#4","midi":68,"time":240.94375000000056,"velocity":0.49606299212598426,"duration":0.18124999999997726},{"name":"B4","midi":71,"time":240.95000000000056,"velocity":0.47244094488188976,"duration":0.17083333333332007},{"name":"C#5","midi":73,"time":241.35104166666721,"velocity":0.48031496062992124,"duration":0.2395833333333428},{"name":"A4","midi":69,"time":241.35312500000055,"velocity":0.48031496062992124,"duration":0.1875},{"name":"G#4","midi":68,"time":241.35520833333388,"velocity":0.4566929133858268,"duration":0.1916666666666913},{"name":"E4","midi":64,"time":241.35937500000054,"velocity":0.4566929133858268,"duration":0.1864583333333485},{"name":"B4","midi":71,"time":241.36250000000055,"velocity":0.4566929133858268,"duration":0.18125000000000568},{"name":"C#5","midi":73,"time":241.77500000000055,"velocity":0.4881889763779528,"duration":0.23958333333337123},{"name":"E4","midi":64,"time":241.78229166666722,"velocity":0.4881889763779528,"duration":0.19791666666668561},{"name":"A4","midi":69,"time":241.7895833333339,"velocity":0.47244094488188976,"duration":0.18125000000000568},{"name":"G#4","midi":68,"time":241.7927083333339,"velocity":0.4881889763779528,"duration":0.1822916666666572},{"name":"B4","midi":71,"time":241.79687500000057,"velocity":0.4645669291338583,"duration":0.17604166666666288},{"name":"E4","midi":64,"time":242.18854166666725,"velocity":0.5118110236220472,"duration":0.2062500000000398},{"name":"C#5","midi":73,"time":242.19062500000058,"velocity":0.48031496062992124,"duration":0.15416666666669698},{"name":"G#4","midi":68,"time":242.1937500000006,"velocity":0.5196850393700787,"duration":0.18333333333336554},{"name":"B4","midi":71,"time":242.19895833333393,"velocity":0.49606299212598426,"duration":0.1760416666666913},{"name":"A4","midi":69,"time":242.20104166666727,"velocity":0.4881889763779528,"duration":0.17291666666667993},{"name":"E4","midi":64,"time":242.60937500000063,"velocity":0.4881889763779528,"duration":0.25208333333333144},{"name":"F#4","midi":66,"time":242.62500000000063,"velocity":0.47244094488188976,"duration":0.21666666666666856},{"name":"B4","midi":71,"time":242.62708333333396,"velocity":0.48031496062992124,"duration":0.2177083333333485},{"name":"G#4","midi":68,"time":242.62812500000064,"velocity":0.5196850393700787,"duration":0.21562499999998863},{"name":"A4","midi":69,"time":242.63750000000064,"velocity":0.49606299212598426,"duration":0.2135416666666572},{"name":"E4","midi":64,"time":243.0229166666673,"velocity":0.4094488188976378,"duration":0.2177083333333485},{"name":"B4","midi":71,"time":243.02395833333398,"velocity":0.4409448818897638,"duration":0.20937499999999432},{"name":"A4","midi":69,"time":243.0260416666673,"velocity":0.48031496062992124,"duration":0.20937499999999432},{"name":"F#4","midi":66,"time":243.03020833333397,"velocity":0.4330708661417323,"duration":0.20729166666666288},{"name":"G#4","midi":68,"time":243.0322916666673,"velocity":0.4645669291338583,"duration":0.20104166666666856},{"name":"G#4","midi":68,"time":243.4166666666673,"velocity":0.49606299212598426,"duration":0.21666666666666856},{"name":"E4","midi":64,"time":243.4229166666673,"velocity":0.4330708661417323,"duration":0.21875},{"name":"F#4","midi":66,"time":243.4291666666673,"velocity":0.4094488188976378,"duration":0.21354166666668561},{"name":"B4","midi":71,"time":243.4322916666673,"velocity":0.4881889763779528,"duration":0.20520833333333144},{"name":"B4","midi":71,"time":243.87708333333399,"velocity":0.44881889763779526,"duration":0.20000000000001705},{"name":"G#4","midi":68,"time":243.87916666666732,"velocity":0.5118110236220472,"duration":0.1916666666666913},{"name":"F#4","midi":66,"time":243.880208333334,"velocity":0.44881889763779526,"duration":0.18958333333333144},{"name":"E4","midi":64,"time":243.88229166666733,"velocity":0.3779527559055118,"duration":0.1822916666666572},{"name":"E4","midi":64,"time":244.28750000000068,"velocity":0.4015748031496063,"duration":0.21250000000000568},{"name":"B4","midi":71,"time":244.28750000000068,"velocity":0.4094488188976378,"duration":0.20937499999999432},{"name":"F#4","midi":66,"time":244.29270833333402,"velocity":0.4251968503937008,"duration":0.19999999999998863},{"name":"G#4","midi":68,"time":244.29479166666735,"velocity":0.4645669291338583,"duration":0.20729166666666288},{"name":"E4","midi":64,"time":244.71041666666736,"velocity":0.4566929133858268,"duration":0.19583333333335418},{"name":"B4","midi":71,"time":244.71145833333404,"velocity":0.4409448818897638,"duration":0.19583333333335418},{"name":"F#4","midi":66,"time":244.7156250000007,"velocity":0.4645669291338583,"duration":0.17916666666667425},{"name":"G#4","midi":68,"time":244.71666666666738,"velocity":0.47244094488188976,"duration":0.18437499999998863},{"name":"E4","midi":64,"time":245.1291666666674,"velocity":0.4330708661417323,"duration":0.20729166666666288},{"name":"B4","midi":71,"time":245.13125000000073,"velocity":0.4015748031496063,"duration":0.19374999999999432},{"name":"F#4","midi":66,"time":245.14270833333407,"velocity":0.44881889763779526,"duration":0.19583333333332575},{"name":"G#4","midi":68,"time":245.1447916666674,"velocity":0.48031496062992124,"duration":0.19479166666667425},{"name":"E4","midi":64,"time":245.55937500000076,"velocity":0.4566929133858268,"duration":0.1395833333333485},{"name":"B4","midi":71,"time":245.5708333333341,"velocity":0.4330708661417323,"duration":0.12187500000001705},{"name":"G#4","midi":68,"time":245.57291666666742,"velocity":0.49606299212598426,"duration":0.1614583333333428},{"name":"F#4","midi":66,"time":245.57604166666744,"velocity":0.4409448818897638,"duration":0.1458333333333428},{"name":"G#4","midi":68,"time":245.99166666666744,"velocity":0.5669291338582677,"duration":0.2843750000000398},{"name":"F#4","midi":66,"time":245.99270833333412,"velocity":0.49606299212598426,"duration":0.2687500000000398},{"name":"C#5","midi":73,"time":245.99687500000078,"velocity":0.5433070866141733,"duration":0.2593750000000341},{"name":"E4","midi":64,"time":246.0156250000008,"velocity":0.33858267716535434,"duration":0.22916666666668561},{"name":"C#5","midi":73,"time":246.41666666666745,"velocity":0.5433070866141733,"duration":0.1927083333333428},{"name":"E4","midi":64,"time":246.41875000000078,"velocity":0.4409448818897638,"duration":0.1864583333333485},{"name":"F#4","midi":66,"time":246.42604166666746,"velocity":0.47244094488188976,"duration":0.19583333333332575},{"name":"G#4","midi":68,"time":246.42916666666747,"velocity":0.5433070866141733,"duration":0.19270833333331439},{"name":"E4","midi":64,"time":246.82604166666746,"velocity":0.44881889763779526,"duration":0.1770833333333428},{"name":"C#5","midi":73,"time":246.8281250000008,"velocity":0.5039370078740157,"duration":0.19062500000001137},{"name":"F#4","midi":66,"time":246.83229166666746,"velocity":0.4645669291338583,"duration":0.18437500000001705},{"name":"G#4","midi":68,"time":246.83333333333414,"velocity":0.4881889763779528,"duration":0.1875},{"name":"E4","midi":64,"time":247.25416666666746,"velocity":0.44881889763779526,"duration":0.18750000000002842},{"name":"C#5","midi":73,"time":247.2562500000008,"velocity":0.5196850393700787,"duration":0.1812500000000341},{"name":"F#4","midi":66,"time":247.25729166666747,"velocity":0.47244094488188976,"duration":0.19062500000001137},{"name":"G#4","midi":68,"time":247.26041666666748,"velocity":0.49606299212598426,"duration":0.18958333333333144},{"name":"E4","midi":64,"time":247.67187500000082,"velocity":0.41732283464566927,"duration":0.19895833333333712},{"name":"C#5","midi":73,"time":247.67395833333416,"velocity":0.5118110236220472,"duration":0.19479166666667425},{"name":"F#4","midi":66,"time":247.68333333333416,"velocity":0.4409448818897638,"duration":0.19479166666667425},{"name":"G#4","midi":68,"time":247.68645833333417,"velocity":0.47244094488188976,"duration":0.19583333333332575},{"name":"E4","midi":64,"time":248.09375000000082,"velocity":0.4566929133858268,"duration":0.16875000000001705},{"name":"C#5","midi":73,"time":248.09583333333416,"velocity":0.5196850393700787,"duration":0.17395833333335986},{"name":"F#4","midi":66,"time":248.10520833333416,"velocity":0.4094488188976378,"duration":0.16770833333336554},{"name":"G#4","midi":68,"time":248.10833333333417,"velocity":0.4645669291338583,"duration":0.16770833333336554},{"name":"C#5","midi":73,"time":248.52708333333422,"velocity":0.5748031496062992,"duration":0.16770833333333712},{"name":"E4","midi":64,"time":248.5281250000009,"velocity":0.4566929133858268,"duration":0.16458333333332575},{"name":"F#4","midi":66,"time":248.53229166666756,"velocity":0.47244094488188976,"duration":0.17083333333332007},{"name":"G#4","midi":68,"time":248.54479166666755,"velocity":0.48031496062992124,"duration":0.15416666666666856},{"name":"C#5","midi":73,"time":248.93333333333422,"velocity":0.5511811023622047,"duration":0.18229166666668561},{"name":"E4","midi":64,"time":248.93750000000088,"velocity":0.49606299212598426,"duration":0.15833333333335986},{"name":"F#4","midi":66,"time":248.94895833333422,"velocity":0.4881889763779528,"duration":0.13229166666667425},{"name":"G#4","midi":68,"time":248.9500000000009,"velocity":0.5275590551181102,"duration":0.13437500000000568},{"name":"E4","midi":64,"time":249.32083333333424,"velocity":0.4094488188976378,"duration":0.2552083333333144},{"name":"A4","midi":69,"time":249.32395833333425,"velocity":0.4881889763779528,"duration":0.2729166666666458},{"name":"C#5","midi":73,"time":249.32500000000093,"velocity":0.44881889763779526,"duration":0.2718749999999659},{"name":"G#4","midi":68,"time":249.33958333333425,"velocity":0.47244094488188976,"duration":0.2552083333333144},{"name":"C#5","midi":73,"time":249.74687500000087,"velocity":0.49606299212598426,"duration":0.18645833333332007},{"name":"E4","midi":64,"time":249.75104166666753,"velocity":0.4645669291338583,"duration":0.18020833333332575},{"name":"A4","midi":69,"time":249.7520833333342,"velocity":0.49606299212598426,"duration":0.18958333333330302},{"name":"G#4","midi":68,"time":249.7583333333342,"velocity":0.4566929133858268,"duration":0.19062499999998295},{"name":"A4","midi":69,"time":250.14791666666753,"velocity":0.49606299212598426,"duration":0.20937500000002274},{"name":"E4","midi":64,"time":250.15000000000086,"velocity":0.4645669291338583,"duration":0.2072916666666913},{"name":"C#5","midi":73,"time":250.1520833333342,"velocity":0.4881889763779528,"duration":0.20833333333337123},{"name":"G#4","midi":68,"time":250.15729166666753,"velocity":0.49606299212598426,"duration":0.20312500000002842},{"name":"E4","midi":64,"time":250.58333333333422,"velocity":0.44881889763779526,"duration":0.20625000000001137},{"name":"A4","midi":69,"time":250.58541666666756,"velocity":0.4881889763779528,"duration":0.20104166666666856},{"name":"C#5","midi":73,"time":250.5875000000009,"velocity":0.49606299212598426,"duration":0.20937500000002274},{"name":"G#4","midi":68,"time":250.58958333333422,"velocity":0.4645669291338583,"duration":0.20520833333335986},{"name":"A4","midi":69,"time":250.99895833333423,"velocity":0.4881889763779528,"duration":0.23124999999998863},{"name":"C#5","midi":73,"time":251.00104166666756,"velocity":0.5118110236220472,"duration":0.23958333333331439},{"name":"E4","midi":64,"time":251.00729166666756,"velocity":0.44881889763779526,"duration":0.22083333333333144},{"name":"G#4","midi":68,"time":251.0093750000009,"velocity":0.48031496062992124,"duration":0.22708333333332575},{"name":"A4","midi":69,"time":251.42916666666756,"velocity":0.4881889763779528,"duration":0.19895833333336554},{"name":"C#5","midi":73,"time":251.43229166666757,"velocity":0.5118110236220472,"duration":0.19791666666668561},{"name":"E4","midi":64,"time":251.4375000000009,"velocity":0.44881889763779526,"duration":0.18541666666666856},{"name":"G#4","midi":68,"time":251.4385416666676,"velocity":0.5039370078740157,"duration":0.19374999999999432},{"name":"C#5","midi":73,"time":251.8500000000009,"velocity":0.49606299212598426,"duration":0.21041666666667425},{"name":"A4","midi":69,"time":251.85520833333425,"velocity":0.49606299212598426,"duration":0.19479166666667425},{"name":"E4","midi":64,"time":251.85729166666758,"velocity":0.49606299212598426,"duration":0.19895833333333712},{"name":"G#4","midi":68,"time":251.86250000000092,"velocity":0.44881889763779526,"duration":0.18645833333332007},{"name":"C#5","midi":73,"time":252.26458333333426,"velocity":0.49606299212598426,"duration":0.20833333333337123},{"name":"G#4","midi":68,"time":252.26875000000092,"velocity":0.48031496062992124,"duration":0.18020833333335418},{"name":"A4","midi":69,"time":252.27187500000093,"velocity":0.5039370078740157,"duration":0.18229166666668561},{"name":"E4","midi":64,"time":252.27187500000093,"velocity":0.49606299212598426,"duration":0.18125000000000568},{"name":"C#5","midi":73,"time":252.6458333333343,"velocity":0.4881889763779528,"duration":0.2739583333333826},{"name":"E4","midi":64,"time":252.65625000000097,"velocity":0.4330708661417323,"duration":0.25729166666670267},{"name":"A4","midi":69,"time":252.6614583333343,"velocity":0.44881889763779526,"duration":0.26666666666670835},{"name":"G#4","midi":68,"time":252.66458333333432,"velocity":0.47244094488188976,"duration":0.2656250000000284},{"name":"B4","midi":71,"time":252.665625000001,"velocity":0.5275590551181102,"duration":0.2489583333333485},{"name":"C#5","midi":73,"time":253.078125000001,"velocity":0.4645669291338583,"duration":0.1968750000000341},{"name":"E4","midi":64,"time":253.093750000001,"velocity":0.4566929133858268,"duration":0.16979166666669698},{"name":"A4","midi":69,"time":253.096875000001,"velocity":0.47244094488188976,"duration":0.16770833333336554},{"name":"G#4","midi":68,"time":253.0979166666677,"velocity":0.4094488188976378,"duration":0.17500000000001137},{"name":"B4","midi":71,"time":253.10000000000102,"velocity":0.4409448818897638,"duration":0.15625},{"name":"C#5","midi":73,"time":253.48437500000102,"velocity":0.4251968503937008,"duration":0.19895833333333712},{"name":"E4","midi":64,"time":253.49479166666768,"velocity":0.4330708661417323,"duration":0.17395833333333144},{"name":"A4","midi":69,"time":253.50729166666767,"velocity":0.4645669291338583,"duration":0.16875000000001705},{"name":"B4","midi":71,"time":253.509375000001,"velocity":0.4330708661417323,"duration":0.16250000000002274},{"name":"G#4","midi":68,"time":253.51145833333433,"velocity":0.44881889763779526,"duration":0.16979166666669698},{"name":"E4","midi":64,"time":253.9260416666677,"velocity":0.5118110236220472,"duration":0.16770833333336554},{"name":"A4","midi":69,"time":253.93125000000103,"velocity":0.49606299212598426,"duration":0.15104166666668561},{"name":"C#5","midi":73,"time":253.93333333333436,"velocity":0.48031496062992124,"duration":0.17187500000002842},{"name":"G#4","midi":68,"time":253.93437500000104,"velocity":0.48031496062992124,"duration":0.15104166666668561},{"name":"B4","midi":71,"time":253.9385416666677,"velocity":0.48031496062992124,"duration":0.13645833333333712},{"name":"C#5","midi":73,"time":254.33229166666771,"velocity":0.44881889763779526,"duration":0.1864583333333485},{"name":"E4","midi":64,"time":254.33437500000105,"velocity":0.49606299212598426,"duration":0.17395833333335986},{"name":"A4","midi":69,"time":254.34270833333437,"velocity":0.4881889763779528,"duration":0.15833333333335986},{"name":"G#4","midi":68,"time":254.34791666666771,"velocity":0.47244094488188976,"duration":0.15625000000002842},{"name":"B4","midi":71,"time":254.35000000000105,"velocity":0.5039370078740157,"duration":0.14791666666667425},{"name":"E4","midi":64,"time":254.75208333333438,"velocity":0.5039370078740157,"duration":0.16666666666668561},{"name":"C#5","midi":73,"time":254.7552083333344,"velocity":0.48031496062992124,"duration":0.15833333333333144},{"name":"A4","midi":69,"time":254.7583333333344,"velocity":0.5275590551181102,"duration":0.18541666666666856},{"name":"G#4","midi":68,"time":254.76041666666774,"velocity":0.5118110236220472,"duration":0.1822916666666572},{"name":"B4","midi":71,"time":254.76875000000106,"velocity":0.5039370078740157,"duration":0.1614583333333428},{"name":"E4","midi":64,"time":255.15937500000106,"velocity":0.5118110236220472,"duration":0.19479166666667425},{"name":"E4","midi":64,"time":255.56666666666774,"velocity":0.5354330708661418,"duration":0.14270833333333144},{"name":"E4","midi":64,"time":255.9770833333344,"velocity":0.5354330708661418,"duration":0.40312499999998863},{"name":"B4","midi":71,"time":256.38229166666775,"velocity":0.47244094488188976,"duration":0.2041666666666515},{"name":"F#4","midi":66,"time":256.38958333333443,"velocity":0.5433070866141733,"duration":0.21562499999998863},{"name":"B4","midi":71,"time":256.8177083333344,"velocity":0.5039370078740157,"duration":0.16666666666668561},{"name":"E4","midi":64,"time":256.82187500000106,"velocity":0.4330708661417323,"duration":0.18541666666669698},{"name":"F#4","midi":66,"time":257.2250000000011,"velocity":0.44881889763779526,"duration":0.22187500000001137},{"name":"B4","midi":71,"time":257.22916666666777,"velocity":0.44881889763779526,"duration":0.18333333333333712},{"name":"B4","midi":71,"time":257.64583333333445,"velocity":0.47244094488188976,"duration":0.20833333333331439},{"name":"E4","midi":64,"time":257.6572916666678,"velocity":0.41732283464566927,"duration":0.21562499999998863},{"name":"F#4","midi":66,"time":258.08854166666777,"velocity":0.47244094488188976,"duration":0.12916666666666288},{"name":"B4","midi":71,"time":258.0895833333344,"velocity":0.4881889763779528,"duration":0.12812500000001137},{"name":"E4","midi":64,"time":258.50416666666774,"velocity":0.47244094488188976,"duration":0.1552083333333485},{"name":"E4","midi":64,"time":258.95208333333443,"velocity":0.3779527559055118,"duration":0.06666666666666288},{"name":"E4","midi":64,"time":259.35625000000107,"velocity":0.3937007874015748,"duration":0.36250000000001137},{"name":"F#4","midi":66,"time":259.7593750000011,"velocity":0.48031496062992124,"duration":0.2020833333333485},{"name":"A4","midi":69,"time":259.7614583333345,"velocity":0.4645669291338583,"duration":0.17708333333331439},{"name":"A4","midi":69,"time":260.1791666666678,"velocity":0.5511811023622047,"duration":0.24791666666664014},{"name":"E4","midi":64,"time":260.1885416666678,"velocity":0.4409448818897638,"duration":0.23124999999998863},{"name":"A4","midi":69,"time":260.5979166666678,"velocity":0.4566929133858268,"duration":0.22187500000001137},{"name":"F#4","midi":66,"time":260.59895833333445,"velocity":0.4881889763779528,"duration":0.24062500000002274},{"name":"A4","midi":69,"time":261.01875000000115,"velocity":0.48031496062992124,"duration":0.19375000000002274},{"name":"E4","midi":64,"time":261.02187500000116,"velocity":0.4645669291338583,"duration":0.21354166666668561},{"name":"A4","midi":69,"time":261.4343750000012,"velocity":0.5354330708661418,"duration":0.1552083333333485},{"name":"F#4","midi":66,"time":261.43645833333454,"velocity":0.5275590551181102,"duration":0.15625},{"name":"E4","midi":64,"time":261.8572916666679,"velocity":0.49606299212598426,"duration":0.19999999999998863},{"name":"E4","midi":64,"time":262.2875000000012,"velocity":0.3858267716535433,"duration":0.09791666666666288},{"name":"E4","midi":64,"time":262.66354166666787,"velocity":0.4330708661417323,"duration":0.4416666666667197},{"name":"B4","midi":71,"time":263.06145833333454,"velocity":0.49606299212598426,"duration":0.1812500000000341},{"name":"F#4","midi":66,"time":263.06770833333456,"velocity":0.5275590551181102,"duration":0.20104166666669698},{"name":"B4","midi":71,"time":263.48750000000126,"velocity":0.5196850393700787,"duration":0.20937500000002274},{"name":"E4","midi":64,"time":263.49791666666795,"velocity":0.4330708661417323,"duration":0.21249999999997726},{"name":"F#4","midi":66,"time":263.91145833333456,"velocity":0.47244094488188976,"duration":0.21875},{"name":"B4","midi":71,"time":263.9229166666679,"velocity":0.4645669291338583,"duration":0.2020833333333485},{"name":"B4","midi":71,"time":264.3156250000012,"velocity":0.5354330708661418,"duration":0.19999999999998863},{"name":"E4","midi":64,"time":264.33541666666787,"velocity":0.44881889763779526,"duration":0.21249999999997726},{"name":"B4","midi":71,"time":264.74583333333453,"velocity":0.5354330708661418,"duration":0.15208333333328028},{"name":"F#4","midi":66,"time":264.7552083333345,"velocity":0.4881889763779528,"duration":0.13437499999997726},{"name":"E4","midi":64,"time":265.1604166666678,"velocity":0.5196850393700787,"duration":0.18333333333333712},{"name":"E4","midi":64,"time":265.59375000000114,"velocity":0.3937007874015748,"duration":0.08125000000001137},{"name":"E4","midi":64,"time":265.9677083333345,"velocity":0.4330708661417323,"duration":0.3989583333332689},{"name":"A4","midi":69,"time":266.3812500000011,"velocity":0.47244094488188976,"duration":0.19270833333331439},{"name":"F#4","midi":66,"time":266.3812500000011,"velocity":0.4881889763779528,"duration":0.23124999999998863},{"name":"A4","midi":69,"time":266.79166666666777,"velocity":0.5511811023622047,"duration":0.2114583333333826},{"name":"E4","midi":64,"time":266.8093750000011,"velocity":0.44881889763779526,"duration":0.23958333333337123},{"name":"A4","midi":69,"time":267.22291666666786,"velocity":0.48031496062992124,"duration":0.21354166666668561},{"name":"F#4","midi":66,"time":267.2270833333345,"velocity":0.5275590551181102,"duration":0.22604166666667425},{"name":"E4","midi":64,"time":267.6510416666679,"velocity":0.5275590551181102,"duration":0.19895833333333712},{"name":"A4","midi":69,"time":267.65833333333455,"velocity":0.5275590551181102,"duration":0.1708333333333485},{"name":"A4","midi":69,"time":268.0625000000012,"velocity":0.5433070866141733,"duration":0.15833333333330302},{"name":"F#4","midi":66,"time":268.06666666666786,"velocity":0.5590551181102362,"duration":0.15312499999998863},{"name":"E4","midi":64,"time":268.4927083333345,"velocity":0.44881889763779526,"duration":0.17708333333331439},{"name":"E4","midi":64,"time":268.8906250000012,"velocity":0.5275590551181102,"duration":0.13229166666667425},{"name":"E4","midi":64,"time":269.2895833333345,"velocity":0.5118110236220472,"duration":0.3958333333333144},{"name":"B4","midi":71,"time":269.7083333333345,"velocity":0.48031496062992124,"duration":0.17708333333337123},{"name":"F#4","midi":66,"time":269.71041666666787,"velocity":0.5354330708661418,"duration":0.17395833333335986},{"name":"B4","midi":71,"time":270.0760416666679,"velocity":0.47244094488188976,"duration":0.2437500000000341},{"name":"E4","midi":64,"time":270.10625000000124,"velocity":0.3858267716535433,"duration":0.23125000000004547},{"name":"F#4","midi":66,"time":270.5302083333346,"velocity":0.5354330708661418,"duration":0.2270833333333826},{"name":"B4","midi":71,"time":270.53229166666796,"velocity":0.5196850393700787,"duration":0.21041666666667425},{"name":"B4","midi":71,"time":270.9583333333346,"velocity":0.5354330708661418,"duration":0.22291666666666288},{"name":"E4","midi":64,"time":270.98229166666795,"velocity":0.4094488188976378,"duration":0.22500000000002274},{"name":"B4","midi":71,"time":271.40729166666796,"velocity":0.49606299212598426,"duration":0.12916666666671972},{"name":"F#4","midi":66,"time":271.413541666668,"velocity":0.5039370078740157,"duration":0.10833333333334849},{"name":"E4","midi":64,"time":271.82708333333466,"velocity":0.4645669291338583,"duration":0.16770833333333712},{"name":"E4","midi":64,"time":272.25833333333463,"velocity":0.3937007874015748,"duration":0.03750000000002274},{"name":"E4","midi":64,"time":272.63437500000134,"velocity":0.4881889763779528,"duration":0.3687499999999204},{"name":"A4","midi":69,"time":273.0395833333346,"velocity":0.5039370078740157,"duration":0.17500000000001137},{"name":"F#4","midi":66,"time":273.0583333333346,"velocity":0.5118110236220472,"duration":0.16874999999998863},{"name":"A4","midi":69,"time":273.47395833333456,"velocity":0.5354330708661418,"duration":0.16458333333332575},{"name":"E4","midi":64,"time":273.48437500000125,"velocity":0.4566929133858268,"duration":0.1572916666666515},{"name":"F#4","midi":66,"time":273.88958333333454,"velocity":0.5196850393700787,"duration":0.16458333333332575},{"name":"A4","midi":69,"time":273.8968750000012,"velocity":0.5433070866141733,"duration":0.14999999999997726},{"name":"A4","midi":69,"time":274.3125000000012,"velocity":0.6062992125984252,"duration":0.2281250000000341},{"name":"E4","midi":64,"time":274.33020833333455,"velocity":0.4645669291338583,"duration":0.2333333333333485},{"name":"F#4","midi":66,"time":274.7593750000012,"velocity":0.5354330708661418,"duration":0.1395833333333485},{"name":"A4","midi":69,"time":274.7593750000012,"velocity":0.5511811023622047,"duration":0.1395833333333485},{"name":"E4","midi":64,"time":275.1958333333346,"velocity":0.48031496062992124,"duration":0.1729166666666515},{"name":"E4","midi":64,"time":275.6072916666679,"velocity":0.4330708661417323,"duration":0.09687500000001137},{"name":"E4","midi":64,"time":275.9947916666679,"velocity":0.4645669291338583,"duration":0.3677083333332689},{"name":"F#4","midi":66,"time":276.3875000000011,"velocity":0.49606299212598426,"duration":0.19791666666668561},{"name":"B4","midi":71,"time":276.39062500000114,"velocity":0.4566929133858268,"duration":0.1885416666666515},{"name":"B4","midi":71,"time":276.8135416666678,"velocity":0.5748031496062992,"duration":0.21458333333333712},{"name":"E4","midi":64,"time":276.8260416666678,"velocity":0.4015748031496063,"duration":0.21458333333333712},{"name":"F#4","midi":66,"time":277.2406250000011,"velocity":0.5511811023622047,"duration":0.18333333333333712},{"name":"B4","midi":71,"time":277.24895833333443,"velocity":0.5039370078740157,"duration":0.16458333333332575},{"name":"B4","midi":71,"time":277.67083333333443,"velocity":0.5826771653543307,"duration":0.20937500000002274},{"name":"E4","midi":64,"time":277.6854166666678,"velocity":0.4251968503937008,"duration":0.203125},{"name":"F#4","midi":66,"time":278.09270833333443,"velocity":0.5118110236220472,"duration":0.13020833333337123},{"name":"B4","midi":71,"time":278.09895833333445,"velocity":0.5196850393700787,"duration":0.13229166666667425},{"name":"E4","midi":64,"time":278.5145833333345,"velocity":0.49606299212598426,"duration":0.19479166666667425},{"name":"E4","midi":64,"time":278.9427083333345,"velocity":0.4409448818897638,"duration":0.06875000000002274},{"name":"E4","midi":64,"time":279.33750000000117,"velocity":0.4881889763779528,"duration":0.3635416666666629},{"name":"A4","midi":69,"time":279.73229166666783,"velocity":0.44881889763779526,"duration":0.18229166666662877},{"name":"F#4","midi":66,"time":279.73229166666783,"velocity":0.5118110236220472,"duration":0.20833333333331439},{"name":"A4","midi":69,"time":280.18541666666783,"velocity":0.6377952755905512,"duration":0.17291666666670835},{"name":"E4","midi":64,"time":280.1958333333345,"velocity":0.5039370078740157,"duration":0.17291666666670835},{"name":"F#4","midi":66,"time":280.5885416666679,"velocity":0.5275590551181102,"duration":0.22187500000001137},{"name":"A4","midi":69,"time":280.5916666666679,"velocity":0.5590551181102362,"duration":0.1885416666666515},{"name":"A4","midi":69,"time":281.00729166666787,"velocity":0.6220472440944882,"duration":0.16666666666662877},{"name":"E4","midi":64,"time":281.0125000000012,"velocity":0.5433070866141733,"duration":0.2041666666666515},{"name":"F#4","midi":66,"time":281.41979166666783,"velocity":0.5354330708661418,"duration":0.1395833333333485},{"name":"A4","midi":69,"time":281.4218750000012,"velocity":0.6299212598425197,"duration":0.14791666666667425},{"name":"E4","midi":64,"time":281.82708333333454,"velocity":0.5275590551181102,"duration":0.18437499999998863},{"name":"E4","midi":64,"time":282.2375000000012,"velocity":0.5275590551181102,"duration":0.07604166666664014},{"name":"E4","midi":64,"time":282.63645833333453,"velocity":0.49606299212598426,"duration":0.3791666666665492},{"name":"F#4","midi":66,"time":283.0270833333344,"velocity":0.4645669291338583,"duration":0.13645833333333712},{"name":"B4","midi":71,"time":283.03020833333443,"velocity":0.4015748031496063,"duration":0.13645833333333712},{"name":"B4","midi":71,"time":283.4437500000011,"velocity":0.41732283464566927,"duration":0.15520833333329165},{"name":"E4","midi":64,"time":283.4531250000011,"velocity":0.36220472440944884,"duration":0.16458333333332575},{"name":"F#4","midi":66,"time":283.85416666666777,"velocity":0.3543307086614173,"duration":0.19479166666667425},{"name":"B4","midi":71,"time":283.8604166666678,"velocity":0.30708661417322836,"duration":0.13854166666664014},{"name":"B4","midi":71,"time":284.2510416666678,"velocity":0.33858267716535434,"duration":0.2041666666666515},{"name":"E4","midi":64,"time":284.26458333333443,"velocity":0.28346456692913385,"duration":0.19270833333337123},{"name":"B4","midi":71,"time":284.6708333333345,"velocity":0.29133858267716534,"duration":0.14791666666667425},{"name":"F#4","midi":66,"time":284.6791666666678,"velocity":0.3543307086614173,"duration":0.1395833333333485},{"name":"E4","midi":64,"time":285.1531250000012,"velocity":0.25984251968503935,"duration":0.13125000000002274},{"name":"E4","midi":64,"time":285.5656250000012,"velocity":0.2047244094488189,"duration":0.07499999999998863},{"name":"E4","midi":64,"time":285.9760416666678,"velocity":0.2755905511811024,"duration":0.3583333333332348},{"name":"F#4","midi":66,"time":286.37812500000103,"velocity":0.2992125984251969,"duration":0.12708333333330302},{"name":"A4","midi":69,"time":286.41250000000105,"velocity":0.1732283464566929,"duration":0.08333333333331439},{"name":"A4","midi":69,"time":286.7958333333343,"velocity":0.33858267716535434,"duration":0.18541666666664014},{"name":"E4","midi":64,"time":286.81250000000097,"velocity":0.2755905511811024,"duration":0.12291666666664014},{"name":"F#4","midi":66,"time":287.20729166666763,"velocity":0.3700787401574803,"duration":0.17708333333337123},{"name":"A4","midi":69,"time":287.21041666666764,"velocity":0.2283464566929134,"duration":0.1864583333333485},{"name":"A4","midi":69,"time":287.6083333333343,"velocity":0.31496062992125984,"duration":0.21875},{"name":"E4","midi":64,"time":287.61458333333434,"velocity":0.30708661417322836,"duration":0.21770833333329165},{"name":"A4","midi":69,"time":288.0239583333343,"velocity":0.2755905511811024,"duration":0.11458333333331439},{"name":"F#4","midi":66,"time":288.0364583333343,"velocity":0.3464566929133858,"duration":0.06979166666667425},{"name":"E4","midi":64,"time":288.46041666666764,"velocity":0.31496062992125984,"duration":0.18229166666668561},{"name":"E4","midi":64,"time":288.8395833333343,"velocity":0.29133858267716534,"duration":0.1552083333333485},{"name":"E4","midi":64,"time":289.29166666666765,"velocity":0.30708661417322836,"duration":0.4124999999999659},{"name":"B4","midi":71,"time":289.69895833333425,"velocity":0.2677165354330709,"duration":0.13541666666674246},{"name":"F#4","midi":66,"time":289.70208333333426,"velocity":0.3464566929133858,"duration":0.13020833333337123},{"name":"E4","midi":64,"time":290.14583333333434,"velocity":0.23622047244094488,"duration":0.15208333333333712},{"name":"B4","midi":71,"time":290.14895833333435,"velocity":0.31496062992125984,"duration":0.1781249999999659},{"name":"B4","midi":71,"time":290.540625000001,"velocity":0.23622047244094488,"duration":0.20729166666666288},{"name":"F#4","midi":66,"time":290.55208333333434,"velocity":0.3779527559055118,"duration":0.15937500000001137},{"name":"B4","midi":71,"time":290.956250000001,"velocity":0.28346456692913385,"duration":0.17708333333331439},{"name":"E4","midi":64,"time":290.9770833333343,"velocity":0.2440944881889764,"duration":0.18124999999997726},{"name":"B4","midi":71,"time":291.3989583333343,"velocity":0.3228346456692913,"duration":0.1395833333333485},{"name":"F#4","midi":66,"time":291.4020833333343,"velocity":0.31496062992125984,"duration":0.12395833333334849},{"name":"E4","midi":64,"time":291.87916666666763,"velocity":0.23622047244094488,"duration":0.12812500000001137},{"name":"E4","midi":64,"time":292.271875000001,"velocity":0.2440944881889764,"duration":0.09583333333335986},{"name":"E4","midi":64,"time":292.7177083333344,"velocity":0.2992125984251969,"duration":0.4020833333332803},{"name":"A4","midi":69,"time":293.1208333333343,"velocity":0.2992125984251969,"duration":0.1812500000000341},{"name":"F#4","midi":66,"time":293.13750000000095,"velocity":0.33858267716535434,"duration":0.10000000000002274},{"name":"A4","midi":69,"time":293.550000000001,"velocity":0.33070866141732286,"duration":0.19791666666668561},{"name":"E4","midi":64,"time":293.5770833333343,"velocity":0.23622047244094488,"duration":0.13125000000002274},{"name":"A4","midi":69,"time":293.9572916666677,"velocity":0.28346456692913385,"duration":0.22916666666668561},{"name":"F#4","midi":66,"time":293.96458333333436,"velocity":0.3464566929133858,"duration":0.20520833333335986},{"name":"A4","midi":69,"time":294.3885416666677,"velocity":0.29133858267716534,"duration":0.22916666666662877},{"name":"E4","midi":64,"time":294.4041666666677,"velocity":0.2440944881889764,"duration":0.17708333333331439},{"name":"E4","midi":64,"time":294.868750000001,"velocity":0.2440944881889764,"duration":0.08854166666668561},{"name":"E4","midi":64,"time":295.29479166666766,"velocity":0.28346456692913385,"duration":0.15416666666664014},{"name":"E4","midi":64,"time":295.7520833333343,"velocity":0.2755905511811024,"duration":0.1416666666666515},{"name":"E4","midi":64,"time":296.2854166666677,"velocity":0.36220472440944884,"duration":0.8979166666665606},{"name":"E1","midi":28,"time":325.44895833333396,"velocity":0.4094488188976378,"duration":0.06145833333334849},{"name":"D1","midi":26,"time":329.3937500000006,"velocity":0.3779527559055118,"duration":0.13020833333325754},{"name":"C1","midi":24,"time":332.9687500000005,"velocity":0.4015748031496063,"duration":0.16250000000002274},{"name":"D1","midi":26,"time":336.5364583333338,"velocity":0.4251968503937008,"duration":0.12916666666666288},{"name":"E1","midi":28,"time":340.35729166666715,"velocity":0.3543307086614173,"duration":0.18749999999994316},{"name":"D1","midi":26,"time":344.2322916666671,"velocity":0.36220472440944884,"duration":0.12291666666669698},{"name":"C1","midi":24,"time":348.05104166666706,"velocity":0.2992125984251969,"duration":0.09270833333329165},{"name":"D1","midi":26,"time":351.857291666667,"velocity":0.28346456692913385,"duration":0.16145833333331439},{"name":"B6","midi":95,"time":354.97395833333366,"velocity":0.2677165354330709,"duration":0.2177083333333485},{"name":"B5","midi":83,"time":354.98125000000033,"velocity":0.25984251968503935,"duration":0.1875},{"name":"B6","midi":95,"time":355.435416666667,"velocity":0.36220472440944884,"duration":0.21041666666667425},{"name":"B5","midi":83,"time":355.45312500000034,"velocity":0.33070866141732286,"duration":0.1729166666666515},{"name":"B6","midi":95,"time":355.89895833333367,"velocity":0.4094488188976378,"duration":0.20520833333335986},{"name":"B5","midi":83,"time":355.92187500000034,"velocity":0.33858267716535434,"duration":0.17604166666666288},{"name":"B6","midi":95,"time":356.332291666667,"velocity":0.4251968503937008,"duration":0.18124999999997726},{"name":"B5","midi":83,"time":356.3687500000003,"velocity":0.25984251968503935,"duration":0.13645833333333712},{"name":"B6","midi":95,"time":356.76041666666697,"velocity":0.48031496062992124,"duration":0.20729166666660603},{"name":"B5","midi":83,"time":356.7739583333336,"velocity":0.3937007874015748,"duration":0.17708333333331439},{"name":"B6","midi":95,"time":357.2020833333336,"velocity":0.5590551181102362,"duration":0.2177083333333485},{"name":"B5","midi":83,"time":357.2166666666669,"velocity":0.4409448818897638,"duration":0.19687499999997726},{"name":"B5","midi":83,"time":357.63437500000026,"velocity":0.47244094488188976,"duration":0.17500000000001137},{"name":"B5","midi":83,"time":358.0645833333336,"velocity":0.3937007874015748,"duration":0.13333333333332575},{"name":"B5","midi":83,"time":358.49375000000026,"velocity":0.3937007874015748,"duration":0.13333333333332575},{"name":"B5","midi":83,"time":358.9708333333336,"velocity":0.28346456692913385,"duration":0.09791666666666288},{"name":"B5","midi":83,"time":359.46979166666694,"velocity":0.10236220472440945,"duration":0.13437499999997726},{"name":"B4","midi":71,"time":359.4718750000003,"velocity":0.1889763779527559,"duration":0.15729166666659467},{"name":"B4","midi":71,"time":359.9187500000002,"velocity":0.23622047244094488,"duration":0.1343750000000341},{"name":"B5","midi":83,"time":359.93333333333356,"velocity":0.1968503937007874,"duration":0.1395833333333485},{"name":"B5","midi":83,"time":360.3437500000002,"velocity":0.36220472440944884,"duration":0.17708333333331439},{"name":"B4","midi":71,"time":360.3510416666669,"velocity":0.3464566929133858,"duration":0.21770833333329165},{"name":"B5","midi":83,"time":360.76770833333353,"velocity":0.4251968503937008,"duration":0.27812499999998863},{"name":"B4","midi":71,"time":360.77291666666684,"velocity":0.3464566929133858,"duration":0.2333333333333485},{"name":"B4","midi":71,"time":361.2020833333335,"velocity":0.31496062992125984,"duration":0.2541666666666629},{"name":"B4","midi":71,"time":361.6468750000002,"velocity":0.3937007874015748,"duration":0.16874999999998863},{"name":"B4","midi":71,"time":362.08854166666686,"velocity":0.3700787401574803,"duration":0.16041666666666288},{"name":"B4","midi":71,"time":362.52083333333354,"velocity":0.29133858267716534,"duration":0.19270833333331439},{"name":"B4","midi":71,"time":362.95833333333354,"velocity":0.29133858267716534,"duration":0.19791666666668561},{"name":"B4","midi":71,"time":363.4083333333336,"velocity":0.25196850393700787,"duration":0.11458333333331439},{"name":"B4","midi":71,"time":363.83333333333354,"velocity":0.25984251968503935,"duration":0.19062500000001137},{"name":"B4","midi":71,"time":364.2760416666669,"velocity":0.23622047244094488,"duration":0.12291666666664014},{"name":"B4","midi":71,"time":364.7250000000002,"velocity":0.2283464566929134,"duration":0.14583333333331439},{"name":"B4","midi":71,"time":365.18541666666687,"velocity":0.2047244094488189,"duration":0.10104166666667425},{"name":"B4","midi":71,"time":366.0531250000002,"velocity":0.2440944881889764,"duration":0.12812500000001137},{"name":"B4","midi":71,"time":366.5093750000002,"velocity":0.2204724409448819,"duration":0.09791666666666288},{"name":"B4","midi":71,"time":366.97916666666686,"velocity":0.25984251968503935,"duration":0.13541666666668561},{"name":"B4","midi":71,"time":367.4385416666669,"velocity":0.2992125984251969,"duration":0.08437500000002274},{"name":"B4","midi":71,"time":367.86250000000024,"velocity":0.31496062992125984,"duration":0.16979166666664014},{"name":"B4","midi":71,"time":368.3635416666669,"velocity":0.2440944881889764,"duration":0.13645833333333712},{"name":"B4","midi":71,"time":368.84687500000024,"velocity":0.1732283464566929,"duration":0.140625},{"name":"B4","midi":71,"time":369.3145833333336,"velocity":0.2677165354330709,"duration":0.16145833333331439},{"name":"B4","midi":71,"time":369.81562500000024,"velocity":0.23622047244094488,"duration":0.18124999999997726},{"name":"B4","midi":71,"time":370.36250000000024,"velocity":0.1732283464566929,"duration":0.15208333333333712},{"name":"B4","midi":71,"time":370.8583333333336,"velocity":0.2283464566929134,"duration":0.19062500000001137},{"name":"B4","midi":71,"time":371.39479166666695,"velocity":0.1968503937007874,"duration":0.16562499999997726},{"name":"B4","midi":71,"time":371.90937500000024,"velocity":0.2204724409448819,"duration":0.18020833333332575},{"name":"B4","midi":71,"time":372.4416666666669,"velocity":0.1889763779527559,"duration":0.171875},{"name":"B4","midi":71,"time":372.96145833333355,"velocity":0.2047244094488189,"duration":0.19062500000001137},{"name":"B4","midi":71,"time":373.5197916666669,"velocity":0.1732283464566929,"duration":0.18229166666668561},{"name":"B4","midi":71,"time":374.10312500000026,"velocity":0.2283464566929134,"duration":0.1875},{"name":"E4","midi":64,"time":374.7645833333336,"velocity":0.23622047244094488,"duration":0.1885416666666515},{"name":"E4","midi":64,"time":375.32083333333355,"velocity":0.25984251968503935,"duration":0.21249999999997726},{"name":"E4","midi":64,"time":375.84895833333354,"velocity":0.2125984251968504,"duration":0.1395833333333485},{"name":"E4","midi":64,"time":376.3593750000002,"velocity":0.1968503937007874,"duration":0.21354166666668561},{"name":"E4","midi":64,"time":376.9010416666669,"velocity":0.28346456692913385,"duration":0.21354166666668561},{"name":"E4","midi":64,"time":377.9343750000003,"velocity":0.23622047244094488,"duration":0.1260416666666515},{"name":"E4","midi":64,"time":378.41562500000026,"velocity":0.23622047244094488,"duration":0.19583333333332575},{"name":"E4","midi":64,"time":378.90000000000026,"velocity":0.23622047244094488,"duration":0.16874999999998863},{"name":"E4","midi":64,"time":379.3979166666669,"velocity":0.2125984251968504,"duration":0.19375000000002274},{"name":"E4","midi":64,"time":379.8958333333336,"velocity":0.2677165354330709,"duration":0.19583333333332575},{"name":"E4","midi":64,"time":380.4083333333336,"velocity":0.2440944881889764,"duration":0.19166666666666288},{"name":"E4","midi":64,"time":380.91770833333356,"velocity":0.2755905511811024,"duration":0.20625000000001137},{"name":"E4","midi":64,"time":381.68020833333355,"velocity":0.29133858267716534,"duration":0.17395833333335986},{"name":"E4","midi":64,"time":382.1770833333336,"velocity":0.2992125984251969,"duration":0.22291666666666288},{"name":"E4","midi":64,"time":382.9322916666669,"velocity":0.2440944881889764,"duration":0.16874999999998863},{"name":"E4","midi":64,"time":383.4239583333336,"velocity":0.2755905511811024,"duration":0.18958333333335986},{"name":"E4","midi":64,"time":383.90520833333363,"velocity":0.25196850393700787,"duration":0.1875},{"name":"E4","midi":64,"time":384.4125000000003,"velocity":0.25196850393700787,"duration":0.17395833333335986},{"name":"E4","midi":64,"time":384.89895833333367,"velocity":0.25196850393700787,"duration":0.29479166666664014},{"name":"E4","midi":64,"time":385.92604166666695,"velocity":0.2440944881889764,"duration":0.15833333333335986},{"name":"E4","midi":64,"time":386.42083333333363,"velocity":0.25984251968503935,"duration":0.19166666666666288},{"name":"E4","midi":64,"time":386.8989583333336,"velocity":0.25984251968503935,"duration":0.16666666666668561},{"name":"E4","midi":64,"time":387.4093750000003,"velocity":0.2204724409448819,"duration":0.07499999999998863},{"name":"E4","midi":64,"time":387.9020833333336,"velocity":0.23622047244094488,"duration":0.140625},{"name":"E4","midi":64,"time":388.372916666667,"velocity":0.2677165354330709,"duration":0.13020833333331439},{"name":"E4","midi":64,"time":388.88541666666697,"velocity":0.30708661417322836,"duration":0.21875},{"name":"E4","midi":64,"time":390.8875000000003,"velocity":0.25984251968503935,"duration":0.20729166666666288},{"name":"E4","midi":64,"time":391.35312500000026,"velocity":0.2440944881889764,"duration":0.21041666666667425},{"name":"E4","midi":64,"time":391.85104166666696,"velocity":0.2047244094488189,"duration":0.19270833333331439},{"name":"E4","midi":64,"time":392.3052083333336,"velocity":0.2440944881889764,"duration":0.24166666666667425},{"name":"E4","midi":64,"time":392.8656250000003,"velocity":0.23622047244094488,"duration":0.2552083333333144},{"name":"E4","midi":64,"time":393.89687500000025,"velocity":0.2440944881889764,"duration":0.21249999999997726},{"name":"E4","midi":64,"time":394.3895833333336,"velocity":0.2677165354330709,"duration":0.20104166666664014},{"name":"E4","midi":64,"time":394.9229166666669,"velocity":0.2047244094488189,"duration":0.16041666666666288},{"name":"E4","midi":64,"time":395.41979166666687,"velocity":0.1889763779527559,"duration":0.17708333333331439},{"name":"E4","midi":64,"time":395.8833333333335,"velocity":0.2440944881889764,"duration":0.19583333333332575},{"name":"E4","midi":64,"time":396.38437500000015,"velocity":0.2125984251968504,"duration":0.21249999999997726},{"name":"E4","midi":64,"time":396.9343750000001,"velocity":0.25984251968503935,"duration":0.19687499999997726}],"controlChanges":{"64":[{"number":64,"time":1.75,"value":0.10236220472440945},{"number":64,"time":1.7614583333333333,"value":0.2047244094488189},{"number":64,"time":2.1375,"value":0.10236220472440945},{"number":64,"time":2.4093750000000003,"value":0},{"number":64,"time":3.8031250000000005,"value":0.10236220472440945},{"number":64,"time":3.8166666666666673,"value":0.2047244094488189},{"number":64,"time":3.8885416666666672,"value":0.33070866141732286},{"number":64,"time":3.970833333333334,"value":0.44881889763779526},{"number":64,"time":4.0114583333333345,"value":0.48031496062992124},{"number":64,"time":4.059375000000001,"value":0.5118110236220472},{"number":64,"time":4.139583333333334,"value":0.5433070866141733},{"number":64,"time":4.1833333333333345,"value":0.5748031496062992},{"number":64,"time":4.2354166666666675,"value":0.6062992125984252},{"number":64,"time":4.290625000000001,"value":0.6377952755905512},{"number":64,"time":4.331250000000002,"value":0.7559055118110236},{"number":64,"time":4.359375000000002,"value":0.8503937007874016},{"number":64,"time":4.421875000000002,"value":1},{"number":64,"time":6.952083333333335,"value":0},{"number":64,"time":77.60000000000004,"value":0},{"number":64,"time":77.60000000000004,"value":0.8661417322834646},{"number":64,"time":78.80000000000004,"value":0.8661417322834646},{"number":64,"time":78.82708333333338,"value":0.7559055118110236},{"number":64,"time":78.83958333333338,"value":0.6614173228346457},{"number":64,"time":78.84791666666672,"value":0.6299212598425197},{"number":64,"time":78.93541666666673,"value":0.7322834645669292},{"number":64,"time":78.94791666666673,"value":0.8267716535433071},{"number":64,"time":78.98333333333339,"value":0.937007874015748},{"number":64,"time":78.99062500000005,"value":1},{"number":64,"time":93.97916666666673,"value":0.8661417322834646},{"number":64,"time":94.01562500000006,"value":0.7322834645669292},{"number":64,"time":94.03125000000006,"value":0.6535433070866141},{"number":64,"time":94.12291666666673,"value":0.7559055118110236},{"number":64,"time":94.14687500000007,"value":0.8503937007874016},{"number":64,"time":101.40729166666668,"value":1},{"number":64,"time":101.48333333333335,"value":0.8661417322834646},{"number":64,"time":101.52708333333335,"value":0.7322834645669292},{"number":64,"time":101.54270833333335,"value":0.6535433070866141},{"number":64,"time":101.65104166666669,"value":0.7559055118110236},{"number":64,"time":101.69479166666669,"value":0.8503937007874016},{"number":64,"time":109.12395833333335,"value":0.7559055118110236},{"number":64,"time":109.14375000000001,"value":0.6535433070866141},{"number":64,"time":109.24791666666668,"value":0.7559055118110236},{"number":64,"time":109.31145833333335,"value":0.8503937007874016},{"number":64,"time":116.71249999999999,"value":0},{"number":64,"time":116.75520833333333,"value":0.7322834645669292},{"number":64,"time":116.76770833333333,"value":0.6456692913385826},{"number":64,"time":116.77499999999999,"value":0.6141732283464567},{"number":64,"time":116.78854166666666,"value":0.5826771653543307},{"number":64,"time":116.8,"value":0.5511811023622047},{"number":64,"time":116.81666666666666,"value":0.5118110236220472},{"number":64,"time":116.89479166666666,"value":0.5433070866141733},{"number":64,"time":116.92395833333333,"value":0.5748031496062992},{"number":64,"time":116.95520833333333,"value":0.6062992125984252},{"number":64,"time":116.97916666666667,"value":0.6377952755905512},{"number":64,"time":117.046875,"value":0.7322834645669292},{"number":64,"time":119.94583333333333,"value":0.8267716535433071},{"number":64,"time":120.43020833333333,"value":0.7322834645669292},{"number":64,"time":120.43854166666667,"value":0.6535433070866141},{"number":64,"time":120.44583333333333,"value":0.6141732283464567},{"number":64,"time":120.45833333333333,"value":0.5748031496062992},{"number":64,"time":120.46666666666667,"value":0.5433070866141733},{"number":64,"time":120.47395833333333,"value":0.5118110236220472},{"number":64,"time":120.48645833333333,"value":0.48031496062992124},{"number":64,"time":120.56979166666666,"value":0.5196850393700787},{"number":64,"time":120.58645833333333,"value":0.5511811023622047},{"number":64,"time":120.61041666666667,"value":0.5905511811023622},{"number":64,"time":120.62916666666666,"value":0.6220472440944882},{"number":64,"time":120.64166666666667,"value":0.6535433070866141},{"number":64,"time":120.71770833333333,"value":0.7559055118110236},{"number":64,"time":121.93229166666667,"value":0.8503937007874016},{"number":64,"time":124.11979166666667,"value":0.7322834645669292},{"number":64,"time":124.13333333333334,"value":0.6377952755905512},{"number":64,"time":124.13958333333333,"value":0.6062992125984252},{"number":64,"time":124.15208333333334,"value":0.5669291338582677},{"number":64,"time":124.16354166666667,"value":0.5275590551181102},{"number":64,"time":124.17187500000001,"value":0.49606299212598426},{"number":64,"time":124.25625000000001,"value":0.5354330708661418},{"number":64,"time":124.28020833333335,"value":0.5669291338582677},{"number":64,"time":124.30000000000001,"value":0.5984251968503937},{"number":64,"time":124.31562500000001,"value":0.6299212598425197},{"number":64,"time":124.35208333333334,"value":0.7322834645669292},{"number":64,"time":124.48750000000001,"value":0.8267716535433071},{"number":64,"time":127.71770833333333,"value":0.7322834645669292},{"number":64,"time":127.72604166666667,"value":0.6535433070866141},{"number":64,"time":127.73333333333333,"value":0.6220472440944882},{"number":64,"time":127.746875,"value":0.5826771653543307},{"number":64,"time":127.75729166666667,"value":0.5511811023622047},{"number":64,"time":127.77395833333334,"value":0.5196850393700787},{"number":64,"time":127.85104166666667,"value":0.5511811023622047},{"number":64,"time":127.87916666666668,"value":0.5826771653543307},{"number":64,"time":127.89895833333334,"value":0.6141732283464567},{"number":64,"time":127.915625,"value":0.6535433070866141},{"number":64,"time":127.94166666666668,"value":0.7559055118110236},{"number":64,"time":128.06145833333335,"value":0.8503937007874016},{"number":64,"time":131.36458333333334,"value":0.7559055118110236},{"number":64,"time":131.37291666666667,"value":0.6614173228346457},{"number":64,"time":131.38125,"value":0.6299212598425197},{"number":64,"time":131.38854166666667,"value":0.5984251968503937},{"number":64,"time":131.396875,"value":0.5669291338582677},{"number":64,"time":131.40729166666665,"value":0.5275590551181102},{"number":64,"time":131.41666666666666,"value":0.49606299212598426},{"number":64,"time":131.496875,"value":0.5354330708661418},{"number":64,"time":131.51979166666666,"value":0.5669291338582677},{"number":64,"time":131.53541666666666,"value":0.5984251968503937},{"number":64,"time":131.55208333333334,"value":0.6299212598425197},{"number":64,"time":131.57708333333335,"value":0.7322834645669292},{"number":64,"time":131.69270833333334,"value":0.8267716535433071},{"number":64,"time":134.9864583333333,"value":0.7322834645669292},{"number":64,"time":134.99479166666663,"value":0.6535433070866141},{"number":64,"time":135.0020833333333,"value":0.6141732283464567},{"number":64,"time":135.01041666666663,"value":0.5826771653543307},{"number":64,"time":135.01874999999995,"value":0.5433070866141733},{"number":64,"time":135.02604166666663,"value":0.5039370078740157},{"number":64,"time":135.03437499999995,"value":0.47244094488188976},{"number":64,"time":135.11874999999995,"value":0.5039370078740157},{"number":64,"time":135.1302083333333,"value":0.5354330708661418},{"number":64,"time":135.14687499999997,"value":0.5669291338582677},{"number":64,"time":135.16666666666663,"value":0.5984251968503937},{"number":64,"time":135.17812499999997,"value":0.6299212598425197},{"number":64,"time":135.2020833333333,"value":0.7322834645669292},{"number":64,"time":135.27812499999993,"value":0.8267716535433071},{"number":64,"time":138.6333333333332,"value":0.7322834645669292},{"number":64,"time":138.6458333333332,"value":0.6456692913385826},{"number":64,"time":138.6520833333332,"value":0.6141732283464567},{"number":64,"time":138.66458333333318,"value":0.5826771653543307},{"number":64,"time":138.67604166666652,"value":0.5511811023622047},{"number":64,"time":138.74166666666653,"value":0.5196850393700787},{"number":64,"time":138.7645833333332,"value":0.5511811023622047},{"number":64,"time":138.81354166666657,"value":0.5826771653543307},{"number":64,"time":138.8406249999999,"value":0.6141732283464567},{"number":64,"time":138.8687499999999,"value":0.6456692913385826},{"number":64,"time":138.9374999999999,"value":0.7559055118110236},{"number":64,"time":139.08437499999988,"value":0.8503937007874016},{"number":64,"time":142.25937499999986,"value":0.7559055118110236},{"number":64,"time":142.26666666666654,"value":0.6614173228346457},{"number":64,"time":142.27604166666654,"value":0.6299212598425197},{"number":64,"time":142.28229166666654,"value":0.5984251968503937},{"number":64,"time":142.29479166666653,"value":0.5590551181102362},{"number":64,"time":142.30729166666652,"value":0.5196850393700787},{"number":64,"time":142.32291666666652,"value":0.4881889763779528},{"number":64,"time":142.39374999999984,"value":0.5196850393700787},{"number":64,"time":142.41562499999984,"value":0.5511811023622047},{"number":64,"time":142.43958333333316,"value":0.5826771653543307},{"number":64,"time":142.4635416666665,"value":0.6141732283464567},{"number":64,"time":142.48333333333315,"value":0.6535433070866141},{"number":64,"time":142.5697916666665,"value":0.7559055118110236},{"number":64,"time":142.83124999999984,"value":0.8503937007874016},{"number":64,"time":145.72499999999985,"value":1},{"number":64,"time":145.80104166666652,"value":0.8503937007874016},{"number":64,"time":145.82083333333318,"value":0.7322834645669292},{"number":64,"time":145.83333333333317,"value":0.6456692913385826},{"number":64,"time":145.84062499999985,"value":0.6062992125984252},{"number":64,"time":145.84895833333317,"value":0.5748031496062992},{"number":64,"time":145.86145833333316,"value":0.5275590551181102},{"number":64,"time":145.8729166666665,"value":0.49606299212598426},{"number":64,"time":145.95312499999983,"value":0.5354330708661418},{"number":64,"time":145.97708333333316,"value":0.5669291338582677},{"number":64,"time":145.99687499999982,"value":0.5984251968503937},{"number":64,"time":146.01770833333316,"value":0.6299212598425197},{"number":64,"time":146.56458333333316,"value":0.7322834645669292},{"number":64,"time":147.7437499999998,"value":0.8267716535433071},{"number":64,"time":149.3593749999998,"value":0.7322834645669292},{"number":64,"time":149.37083333333314,"value":0.6456692913385826},{"number":64,"time":149.38020833333314,"value":0.6062992125984252},{"number":64,"time":149.38645833333314,"value":0.5748031496062992},{"number":64,"time":149.39895833333313,"value":0.5354330708661418},{"number":64,"time":149.41041666666646,"value":0.49606299212598426},{"number":64,"time":149.49479166666646,"value":0.5354330708661418},{"number":64,"time":149.51979166666646,"value":0.5669291338582677},{"number":64,"time":149.53958333333313,"value":0.5984251968503937},{"number":64,"time":149.5593749999998,"value":0.6377952755905512},{"number":64,"time":149.62708333333313,"value":0.7322834645669292},{"number":64,"time":149.8343749999998,"value":0.8267716535433071},{"number":64,"time":152.93229166666646,"value":0.7322834645669292},{"number":64,"time":152.94583333333313,"value":0.6377952755905512},{"number":64,"time":152.9531249999998,"value":0.6062992125984252},{"number":64,"time":152.96041666666648,"value":0.5748031496062992},{"number":64,"time":152.9687499999998,"value":0.5433070866141733},{"number":64,"time":152.9781249999998,"value":0.5118110236220472},{"number":64,"time":152.98958333333314,"value":0.48031496062992124},{"number":64,"time":153.0656249999998,"value":0.5196850393700787},{"number":64,"time":153.0812499999998,"value":0.5511811023622047},{"number":64,"time":153.10624999999982,"value":0.5826771653543307},{"number":64,"time":153.12499999999983,"value":0.6141732283464567},{"number":64,"time":153.14062499999983,"value":0.6535433070866141},{"number":64,"time":153.1979166666665,"value":0.7559055118110236},{"number":64,"time":153.3322916666665,"value":0.8503937007874016},{"number":64,"time":156.39062499999983,"value":0.7559055118110236},{"number":64,"time":156.39895833333316,"value":0.6614173228346457},{"number":64,"time":156.40729166666648,"value":0.6299212598425197},{"number":64,"time":156.41458333333316,"value":0.5984251968503937},{"number":64,"time":156.4260416666665,"value":0.5590551181102362},{"number":64,"time":156.43437499999982,"value":0.5275590551181102},{"number":64,"time":156.4468749999998,"value":0.49606299212598426},{"number":64,"time":156.53020833333315,"value":0.5354330708661418},{"number":64,"time":156.55833333333314,"value":0.5669291338582677},{"number":64,"time":156.58229166666646,"value":0.5984251968503937},{"number":64,"time":156.6062499999998,"value":0.6377952755905512},{"number":64,"time":156.67916666666645,"value":0.7322834645669292},{"number":64,"time":157.01874999999978,"value":0.8267716535433071},{"number":64,"time":159.8968749999998,"value":0.7322834645669292},{"number":64,"time":159.90520833333312,"value":0.6535433070866141},{"number":64,"time":159.91458333333313,"value":0.6220472440944882},{"number":64,"time":159.9218749999998,"value":0.5905511811023622},{"number":64,"time":159.93333333333314,"value":0.5511811023622047},{"number":64,"time":159.94583333333313,"value":0.5118110236220472},{"number":64,"time":159.9531249999998,"value":0.48031496062992124},{"number":64,"time":160.04583333333312,"value":0.5118110236220472},{"number":64,"time":160.06562499999978,"value":0.5511811023622047},{"number":64,"time":160.09374999999977,"value":0.5826771653543307},{"number":64,"time":160.1177083333331,"value":0.6141732283464567},{"number":64,"time":160.1489583333331,"value":0.6456692913385826},{"number":64,"time":160.2520833333331,"value":0.7559055118110236},{"number":64,"time":160.4520833333331,"value":0.8503937007874016},{"number":64,"time":163.5156249999998,"value":0.7559055118110236},{"number":64,"time":163.52916666666647,"value":0.6535433070866141},{"number":64,"time":163.53541666666646,"value":0.6220472440944882},{"number":64,"time":163.54791666666645,"value":0.5826771653543307},{"number":64,"time":163.5593749999998,"value":0.5511811023622047},{"number":64,"time":163.61979166666646,"value":0.5196850393700787},{"number":64,"time":163.63958333333312,"value":0.5511811023622047},{"number":64,"time":163.66666666666646,"value":0.5826771653543307},{"number":64,"time":163.6937499999998,"value":0.6220472440944882},{"number":64,"time":163.71458333333314,"value":0.6535433070866141},{"number":64,"time":163.78333333333313,"value":0.7559055118110236},{"number":64,"time":164.03020833333315,"value":0.8503937007874016},{"number":64,"time":167.0541666666665,"value":0.7322834645669292},{"number":64,"time":167.06562499999984,"value":0.6377952755905512},{"number":64,"time":167.07291666666652,"value":0.6062992125984252},{"number":64,"time":167.0854166666665,"value":0.5748031496062992},{"number":64,"time":167.09687499999984,"value":0.5433070866141733},{"number":64,"time":167.10937499999983,"value":0.5118110236220472},{"number":64,"time":167.19270833333317,"value":0.5511811023622047},{"number":64,"time":167.22083333333316,"value":0.5826771653543307},{"number":64,"time":167.24999999999983,"value":0.6220472440944882},{"number":64,"time":167.26874999999984,"value":0.6535433070866141},{"number":64,"time":167.35312499999984,"value":0.7559055118110236},{"number":64,"time":167.83333333333317,"value":0.8503937007874016},{"number":64,"time":170.63229166666653,"value":0.7322834645669292},{"number":64,"time":170.64374999999987,"value":0.6456692913385826},{"number":64,"time":170.6520833333332,"value":0.6141732283464567},{"number":64,"time":170.66354166666653,"value":0.5826771653543307},{"number":64,"time":170.67604166666652,"value":0.5511811023622047},{"number":64,"time":170.72812499999986,"value":0.5196850393700787},{"number":64,"time":170.74791666666653,"value":0.5511811023622047},{"number":64,"time":170.77604166666652,"value":0.5826771653543307},{"number":64,"time":170.79999999999987,"value":0.6220472440944882},{"number":64,"time":170.81562499999987,"value":0.6535433070866141},{"number":64,"time":170.8520833333332,"value":0.7559055118110236},{"number":64,"time":171.0239583333332,"value":0.8503937007874016},{"number":64,"time":174.19999999999985,"value":0},{"number":64,"time":174.21770833333318,"value":0.7559055118110236},{"number":64,"time":174.23124999999985,"value":0.6535433070866141},{"number":64,"time":174.23854166666652,"value":0.6141732283464567},{"number":64,"time":174.24999999999986,"value":0.5826771653543307},{"number":64,"time":174.26458333333318,"value":0.5511811023622047},{"number":64,"time":174.3416666666665,"value":0.5905511811023622},{"number":64,"time":174.3572916666665,"value":0.6220472440944882},{"number":64,"time":174.3697916666665,"value":0.6535433070866141},{"number":64,"time":174.3854166666665,"value":0.7559055118110236},{"number":64,"time":174.42916666666648,"value":0.8503937007874016},{"number":64,"time":177.77187499999982,"value":0.7559055118110236},{"number":64,"time":177.78333333333316,"value":0.6535433070866141},{"number":64,"time":177.7916666666665,"value":0.6141732283464567},{"number":64,"time":177.80312499999982,"value":0.5748031496062992},{"number":64,"time":177.81145833333315,"value":0.5433070866141733},{"number":64,"time":177.81979166666648,"value":0.5118110236220472},{"number":64,"time":177.8281249999998,"value":0.48031496062992124},{"number":64,"time":177.91145833333314,"value":0.5118110236220472},{"number":64,"time":177.92812499999982,"value":0.5433070866141733},{"number":64,"time":177.94791666666652,"value":0.5826771653543307},{"number":64,"time":177.96770833333318,"value":0.6220472440944882},{"number":64,"time":177.98020833333317,"value":0.6535433070866141},{"number":64,"time":178.0072916666665,"value":0.7559055118110236},{"number":64,"time":181.08645833333318,"value":0.8503937007874016},{"number":64,"time":181.22291666666652,"value":0.7322834645669292},{"number":64,"time":181.23437499999986,"value":0.6456692913385826},{"number":64,"time":181.24270833333318,"value":0.6141732283464567},{"number":64,"time":181.24999999999986,"value":0.5826771653543307},{"number":64,"time":181.25833333333318,"value":0.5433070866141733},{"number":64,"time":181.2677083333332,"value":0.4881889763779528},{"number":64,"time":181.27395833333318,"value":0.4015748031496063},{"number":64,"time":181.29062499999986,"value":0.2755905511811024},{"number":64,"time":181.39479166666652,"value":0.3779527559055118},{"number":64,"time":181.40624999999986,"value":0.47244094488188976},{"number":64,"time":181.41458333333318,"value":0.5039370078740157},{"number":64,"time":181.42604166666652,"value":0.5354330708661418},{"number":64,"time":181.44999999999985,"value":0.5669291338582677},{"number":64,"time":181.47812499999984,"value":0.5984251968503937},{"number":64,"time":181.50624999999982,"value":0.6299212598425197},{"number":64,"time":181.57083333333316,"value":0.7322834645669292},{"number":64,"time":181.8979166666665,"value":0.8267716535433071},{"number":64,"time":184.74895833333323,"value":0.7322834645669292},{"number":64,"time":184.7624999999999,"value":0.6377952755905512},{"number":64,"time":184.76979166666658,"value":0.6062992125984252},{"number":64,"time":184.78124999999991,"value":0.5748031496062992},{"number":64,"time":184.7937499999999,"value":0.5433070866141733},{"number":64,"time":184.80416666666656,"value":0.5118110236220472},{"number":64,"time":184.87708333333322,"value":0.5511811023622047},{"number":64,"time":184.8999999999999,"value":0.5826771653543307},{"number":64,"time":184.92916666666656,"value":0.6220472440944882},{"number":64,"time":184.94895833333322,"value":0.6535433070866141},{"number":64,"time":185.04895833333322,"value":0.7559055118110236},{"number":64,"time":187.3437499999999,"value":0.8503937007874016},{"number":64,"time":188.21874999999991,"value":0.7559055118110236},{"number":64,"time":188.2312499999999,"value":0.6614173228346457},{"number":64,"time":188.23958333333323,"value":0.6299212598425197},{"number":64,"time":188.24583333333322,"value":0.5984251968503937},{"number":64,"time":188.2593749999999,"value":0.5669291338582677},{"number":64,"time":188.26979166666655,"value":0.5275590551181102},{"number":64,"time":188.28229166666654,"value":0.49606299212598426},{"number":64,"time":188.3583333333332,"value":0.5354330708661418},{"number":64,"time":188.38229166666653,"value":0.5669291338582677},{"number":64,"time":188.40729166666654,"value":0.5984251968503937},{"number":64,"time":188.42604166666655,"value":0.6377952755905512},{"number":64,"time":188.49791666666655,"value":0.7322834645669292},{"number":64,"time":191.46874999999994,"value":0.8267716535433071},{"number":64,"time":191.7249999999999,"value":0.7322834645669292},{"number":64,"time":191.7374999999999,"value":0.6456692913385826},{"number":64,"time":191.74479166666657,"value":0.6141732283464567},{"number":64,"time":191.75729166666656,"value":0.5826771653543307},{"number":64,"time":191.7687499999999,"value":0.5511811023622047},{"number":64,"time":191.80104166666658,"value":0.5196850393700787},{"number":64,"time":191.85312499999992,"value":0.5511811023622047},{"number":64,"time":191.88124999999994,"value":0.5826771653543307},{"number":64,"time":191.90520833333326,"value":0.6220472440944882},{"number":64,"time":191.92499999999993,"value":0.6535433070866141},{"number":64,"time":192.01354166666658,"value":0.7559055118110236},{"number":64,"time":193.02083333333326,"value":0.8503937007874016},{"number":64,"time":195.16666666666663,"value":0.7322834645669292},{"number":64,"time":195.1802083333333,"value":0.6456692913385826},{"number":64,"time":195.18749999999997,"value":0.6141732283464567},{"number":64,"time":195.1989583333333,"value":0.5748031496062992},{"number":64,"time":195.2114583333333,"value":0.5433070866141733},{"number":64,"time":195.2239583333333,"value":0.5118110236220472},{"number":64,"time":195.2395833333333,"value":0.48031496062992124},{"number":64,"time":195.29999999999995,"value":0.5118110236220472},{"number":64,"time":195.31979166666662,"value":0.5433070866141733},{"number":64,"time":195.34791666666663,"value":0.5826771653543307},{"number":64,"time":195.37187499999996,"value":0.6141732283464567},{"number":64,"time":195.39062499999997,"value":0.6535433070866141},{"number":64,"time":195.4833333333333,"value":0.7559055118110236},{"number":64,"time":195.81979166666662,"value":0.8503937007874016},{"number":64,"time":198.58229166666666,"value":0.7559055118110236},{"number":64,"time":198.59375,"value":0.6535433070866141},{"number":64,"time":198.60208333333333,"value":0.6220472440944882},{"number":64,"time":198.61354166666666,"value":0.5826771653543307},{"number":64,"time":198.62604166666665,"value":0.5511811023622047},{"number":64,"time":198.64583333333331,"value":0.5196850393700787},{"number":64,"time":198.709375,"value":0.5511811023622047},{"number":64,"time":198.73749999999998,"value":0.5826771653543307},{"number":64,"time":198.75729166666665,"value":0.6141732283464567},{"number":64,"time":198.76979166666663,"value":0.6456692913385826},{"number":64,"time":198.80208333333331,"value":0.7795275590551181},{"number":64,"time":201.7677083333333,"value":0.889763779527559},{"number":64,"time":201.9958333333333,"value":0.7795275590551181},{"number":64,"time":202.0083333333333,"value":0.6850393700787402},{"number":64,"time":202.0114583333333,"value":0.6535433070866141},{"number":64,"time":202.01979166666663,"value":0.6141732283464567},{"number":64,"time":202.03124999999997,"value":0.5748031496062992},{"number":64,"time":202.04374999999996,"value":0.5433070866141733},{"number":64,"time":202.05624999999995,"value":0.5118110236220472},{"number":64,"time":202.13124999999994,"value":0.5433070866141733},{"number":64,"time":202.15520833333326,"value":0.5826771653543307},{"number":64,"time":202.1760416666666,"value":0.6141732283464567},{"number":64,"time":202.18749999999994,"value":0.6456692913385826},{"number":64,"time":202.22708333333327,"value":0.7559055118110236},{"number":64,"time":203.59999999999994,"value":0.8503937007874016},{"number":64,"time":205.5166666666666,"value":0.7322834645669292},{"number":64,"time":205.52708333333325,"value":0.6456692913385826},{"number":64,"time":205.53437499999993,"value":0.6062992125984252},{"number":64,"time":205.54687499999991,"value":0.5748031496062992},{"number":64,"time":205.55833333333325,"value":0.5433070866141733},{"number":64,"time":205.57083333333324,"value":0.5118110236220472},{"number":64,"time":205.64999999999992,"value":0.5511811023622047},{"number":64,"time":205.67499999999993,"value":0.5826771653543307},{"number":64,"time":205.69062499999993,"value":0.6141732283464567},{"number":64,"time":205.70208333333326,"value":0.6456692913385826},{"number":64,"time":205.7260416666666,"value":0.7559055118110236},{"number":64,"time":205.84270833333326,"value":0.8503937007874016},{"number":64,"time":208.8364583333332,"value":1},{"number":64,"time":209.04479166666655,"value":0.8661417322834646},{"number":64,"time":209.06874999999988,"value":0.7559055118110236},{"number":64,"time":209.07604166666655,"value":0.6614173228346457},{"number":64,"time":209.08541666666656,"value":0.6220472440944882},{"number":64,"time":209.09583333333322,"value":0.5826771653543307},{"number":64,"time":209.1083333333332,"value":0.5511811023622047},{"number":64,"time":209.11979166666654,"value":0.5196850393700787},{"number":64,"time":209.1406249999999,"value":0.4881889763779528},{"number":64,"time":209.18854166666657,"value":0.5196850393700787},{"number":64,"time":209.20833333333323,"value":0.5511811023622047},{"number":64,"time":209.23229166666655,"value":0.5826771653543307},{"number":64,"time":209.25624999999988,"value":0.6141732283464567},{"number":64,"time":209.27187499999988,"value":0.6456692913385826},{"number":64,"time":209.34479166666654,"value":0.7559055118110236},{"number":64,"time":209.50416666666655,"value":0.8503937007874016},{"number":64,"time":212.27916666666653,"value":1},{"number":64,"time":212.45104166666653,"value":0.8661417322834646},{"number":64,"time":212.4708333333332,"value":0.7559055118110236},{"number":64,"time":212.47916666666652,"value":0.6614173228346457},{"number":64,"time":212.48854166666652,"value":0.6299212598425197},{"number":64,"time":212.49479166666652,"value":0.5984251968503937},{"number":64,"time":212.5072916666665,"value":0.5669291338582677},{"number":64,"time":212.5197916666665,"value":0.5354330708661418},{"number":64,"time":212.54687499999983,"value":0.5039370078740157},{"number":64,"time":212.5791666666665,"value":0.5354330708661418},{"number":64,"time":212.60312499999984,"value":0.5669291338582677},{"number":64,"time":212.62291666666653,"value":0.5984251968503937},{"number":64,"time":212.6395833333332,"value":0.6377952755905512},{"number":64,"time":212.65833333333322,"value":0.7322834645669292},{"number":64,"time":212.7020833333332,"value":0.8267716535433071},{"number":64,"time":215.66145833333317,"value":0.937007874015748},{"number":64,"time":215.67812499999985,"value":1},{"number":64,"time":215.83541666666653,"value":0.8661417322834646},{"number":64,"time":215.85729166666653,"value":0.7559055118110236},{"number":64,"time":215.8645833333332,"value":0.6614173228346457},{"number":64,"time":215.8739583333332,"value":0.6299212598425197},{"number":64,"time":215.88124999999988,"value":0.5984251968503937},{"number":64,"time":215.88854166666655,"value":0.5669291338582677},{"number":64,"time":215.90104166666654,"value":0.5275590551181102},{"number":64,"time":215.91249999999988,"value":0.49606299212598426},{"number":64,"time":215.98124999999987,"value":0.5354330708661418},{"number":64,"time":216.00104166666654,"value":0.5669291338582677},{"number":64,"time":216.01354166666655,"value":0.5984251968503937},{"number":64,"time":216.02916666666655,"value":0.6377952755905512},{"number":64,"time":216.04479166666655,"value":0.7322834645669292},{"number":64,"time":216.06874999999988,"value":0.8267716535433071},{"number":64,"time":219.11041666666665,"value":0.937007874015748},{"number":64,"time":219.14270833333333,"value":1},{"number":64,"time":219.31458333333333,"value":0.8661417322834646},{"number":64,"time":219.34270833333332,"value":0.7322834645669292},{"number":64,"time":219.35104166666665,"value":0.6535433070866141},{"number":64,"time":219.35937499999997,"value":0.6141732283464567},{"number":64,"time":219.3708333333333,"value":0.5826771653543307},{"number":64,"time":219.3833333333333,"value":0.5511811023622047},{"number":64,"time":219.40312499999996,"value":0.5196850393700787},{"number":64,"time":219.44687499999995,"value":0.5511811023622047},{"number":64,"time":219.47499999999997,"value":0.5905511811023622},{"number":64,"time":219.49062499999997,"value":0.6220472440944882},{"number":64,"time":219.5145833333333,"value":0.7559055118110236},{"number":64,"time":219.5552083333333,"value":0.8503937007874016},{"number":64,"time":222.54166666666674,"value":1},{"number":64,"time":222.74166666666673,"value":0.8661417322834646},{"number":64,"time":222.76562500000006,"value":0.7559055118110236},{"number":64,"time":222.77395833333338,"value":0.6614173228346457},{"number":64,"time":222.7822916666667,"value":0.6299212598425197},{"number":64,"time":222.78958333333338,"value":0.5984251968503937},{"number":64,"time":222.80208333333337,"value":0.5669291338582677},{"number":64,"time":222.8135416666667,"value":0.5275590551181102},{"number":64,"time":222.89375000000004,"value":0.5590551181102362},{"number":64,"time":222.90937500000004,"value":0.5905511811023622},{"number":64,"time":222.92604166666672,"value":0.6220472440944882},{"number":64,"time":222.95000000000005,"value":0.7322834645669292},{"number":64,"time":222.9854166666667,"value":0.8267716535433071},{"number":64,"time":225.60937500000006,"value":0.937007874015748},{"number":64,"time":225.84479166666674,"value":1},{"number":64,"time":226.10416666666674,"value":0.8503937007874016},{"number":64,"time":226.12083333333342,"value":0.7322834645669292},{"number":64,"time":226.12916666666675,"value":0.6456692913385826},{"number":64,"time":226.13645833333342,"value":0.6062992125984252},{"number":64,"time":226.14479166666675,"value":0.5748031496062992},{"number":64,"time":226.15312500000007,"value":0.5354330708661418},{"number":64,"time":226.16041666666675,"value":0.49606299212598426},{"number":64,"time":226.2489583333334,"value":0.5354330708661418},{"number":64,"time":226.26562500000009,"value":0.5669291338582677},{"number":64,"time":226.27604166666674,"value":0.5984251968503937},{"number":64,"time":226.29270833333342,"value":0.6377952755905512},{"number":64,"time":226.31250000000009,"value":0.7559055118110236},{"number":64,"time":226.3687500000001,"value":0.8503937007874016},{"number":64,"time":227.95833333333346,"value":1},{"number":64,"time":229.44062500000015,"value":0.8503937007874016},{"number":64,"time":229.45729166666683,"value":0.7559055118110236},{"number":64,"time":229.46666666666684,"value":0.6614173228346457},{"number":64,"time":229.47500000000016,"value":0.6220472440944882},{"number":64,"time":229.48125000000016,"value":0.5905511811023622},{"number":64,"time":229.4927083333335,"value":0.5511811023622047},{"number":64,"time":229.5083333333335,"value":0.5118110236220472},{"number":64,"time":229.57187500000018,"value":0.5433070866141733},{"number":64,"time":229.59270833333352,"value":0.5748031496062992},{"number":64,"time":229.60416666666686,"value":0.6062992125984252},{"number":64,"time":229.61666666666684,"value":0.6456692913385826},{"number":64,"time":229.63229166666684,"value":0.7559055118110236},{"number":64,"time":229.6531250000002,"value":0.8503937007874016},{"number":64,"time":229.84062500000022,"value":1},{"number":64,"time":232.82291666666703,"value":0.8503937007874016},{"number":64,"time":232.84375000000037,"value":0.7322834645669292},{"number":64,"time":232.85104166666704,"value":0.6535433070866141},{"number":64,"time":232.85937500000037,"value":0.6220472440944882},{"number":64,"time":232.87187500000036,"value":0.5826771653543307},{"number":64,"time":232.88854166666704,"value":0.5511811023622047},{"number":64,"time":232.90729166666702,"value":0.5196850393700787},{"number":64,"time":232.951041666667,"value":0.5511811023622047},{"number":64,"time":232.97083333333367,"value":0.5826771653543307},{"number":64,"time":232.99166666666702,"value":0.6141732283464567},{"number":64,"time":233.00312500000035,"value":0.6456692913385826},{"number":64,"time":233.02291666666702,"value":0.7559055118110236},{"number":64,"time":233.066666666667,"value":0.8503937007874016},{"number":64,"time":234.07916666666708,"value":1},{"number":64,"time":236.1104166666671,"value":0.8661417322834646},{"number":64,"time":236.13020833333377,"value":0.7559055118110236},{"number":64,"time":236.1385416666671,"value":0.6614173228346457},{"number":64,"time":236.14583333333377,"value":0.6220472440944882},{"number":64,"time":236.1541666666671,"value":0.5905511811023622},{"number":64,"time":236.16250000000042,"value":0.5590551181102362},{"number":64,"time":236.1697916666671,"value":0.5275590551181102},{"number":64,"time":236.18229166666708,"value":0.49606299212598426},{"number":64,"time":236.24583333333374,"value":0.5354330708661418},{"number":64,"time":236.26250000000041,"value":0.5669291338582677},{"number":64,"time":236.27812500000041,"value":0.5984251968503937},{"number":64,"time":236.2906250000004,"value":0.6377952755905512},{"number":64,"time":236.3062500000004,"value":0.7559055118110236},{"number":64,"time":236.33437500000042,"value":0.8503937007874016},{"number":64,"time":237.36562500000045,"value":1},{"number":64,"time":239.44375000000053,"value":0.8661417322834646},{"number":64,"time":239.4635416666672,"value":0.7559055118110236},{"number":64,"time":239.47187500000052,"value":0.6614173228346457},{"number":64,"time":239.48125000000053,"value":0.6299212598425197},{"number":64,"time":239.48750000000052,"value":0.5984251968503937},{"number":64,"time":239.5000000000005,"value":0.5669291338582677},{"number":64,"time":239.5156250000005,"value":0.5275590551181102},{"number":64,"time":239.57604166666718,"value":0.5590551181102362},{"number":64,"time":239.59583333333384,"value":0.5905511811023622},{"number":64,"time":239.60833333333383,"value":0.6220472440944882},{"number":64,"time":239.6281250000005,"value":0.7559055118110236},{"number":64,"time":239.65208333333382,"value":0.8503937007874016},{"number":64,"time":239.7437500000005,"value":1},{"number":64,"time":242.79062500000063,"value":0.8661417322834646},{"number":64,"time":242.8104166666673,"value":0.7559055118110236},{"number":64,"time":242.81875000000062,"value":0.6614173228346457},{"number":64,"time":242.82812500000063,"value":0.6220472440944882},{"number":64,"time":242.83437500000062,"value":0.5905511811023622},{"number":64,"time":242.84895833333397,"value":0.5511811023622047},{"number":64,"time":242.85937500000063,"value":0.5118110236220472},{"number":64,"time":242.92187500000063,"value":0.5433070866141733},{"number":64,"time":242.93750000000063,"value":0.5748031496062992},{"number":64,"time":242.95520833333396,"value":0.6141732283464567},{"number":64,"time":242.96250000000063,"value":0.6456692913385826},{"number":64,"time":242.97812500000063,"value":0.7559055118110236},{"number":64,"time":243.00208333333396,"value":0.8503937007874016},{"number":64,"time":243.13437500000063,"value":1},{"number":64,"time":246.20520833333413,"value":0.8503937007874016},{"number":64,"time":246.2250000000008,"value":0.7559055118110236},{"number":64,"time":246.24166666666747,"value":0.6535433070866141},{"number":64,"time":246.25937500000083,"value":0.6220472440944882},{"number":64,"time":246.34479166666748,"value":0.6535433070866141},{"number":64,"time":246.37291666666746,"value":0.7559055118110236},{"number":64,"time":246.40833333333413,"value":0.8503937007874016},{"number":64,"time":247.2125000000008,"value":1},{"number":64,"time":249.43541666666758,"value":0.8661417322834646},{"number":64,"time":249.45520833333424,"value":0.7559055118110236},{"number":64,"time":249.46354166666757,"value":0.6614173228346457},{"number":64,"time":249.4718750000009,"value":0.6141732283464567},{"number":64,"time":249.47916666666757,"value":0.5826771653543307},{"number":64,"time":249.4875000000009,"value":0.5511811023622047},{"number":64,"time":249.49583333333422,"value":0.5196850393700787},{"number":64,"time":249.5031250000009,"value":0.48031496062992124},{"number":64,"time":249.57916666666756,"value":0.5196850393700787},{"number":64,"time":249.5906250000009,"value":0.5511811023622047},{"number":64,"time":249.60729166666755,"value":0.5826771653543307},{"number":64,"time":249.62291666666755,"value":0.6220472440944882},{"number":64,"time":249.6427083333342,"value":0.7322834645669292},{"number":64,"time":249.66250000000088,"value":0.8267716535433071},{"number":64,"time":249.8583333333342,"value":0.937007874015748},{"number":64,"time":250.33854166666754,"value":1},{"number":64,"time":252.793750000001,"value":0.8661417322834646},{"number":64,"time":252.81354166666767,"value":0.7086614173228346},{"number":64,"time":252.821875000001,"value":0.6456692913385826},{"number":64,"time":252.82916666666767,"value":0.6062992125984252},{"number":64,"time":252.837500000001,"value":0.5748031496062992},{"number":64,"time":252.84583333333433,"value":0.5433070866141733},{"number":64,"time":252.853125000001,"value":0.5118110236220472},{"number":64,"time":252.9260416666677,"value":0.5433070866141733},{"number":64,"time":252.93750000000102,"value":0.5748031496062992},{"number":64,"time":252.95312500000102,"value":0.6141732283464567},{"number":64,"time":252.96145833333435,"value":0.6456692913385826},{"number":64,"time":252.9729166666677,"value":0.7559055118110236},{"number":64,"time":252.98541666666767,"value":0.8503937007874016},{"number":64,"time":253.153125000001,"value":1},{"number":64,"time":255.9708333333344,"value":0.937007874015748},{"number":64,"time":256.01041666666777,"value":1},{"number":64,"time":256.1385416666678,"value":0.8661417322834646},{"number":64,"time":256.1593750000011,"value":0.7559055118110236},{"number":64,"time":256.16666666666777,"value":0.6614173228346457},{"number":64,"time":256.1750000000011,"value":0.6141732283464567},{"number":64,"time":256.1833333333344,"value":0.5748031496062992},{"number":64,"time":256.1906250000011,"value":0.5433070866141733},{"number":64,"time":256.1989583333344,"value":0.49606299212598426},{"number":64,"time":256.23854166666774,"value":0.4015748031496063},{"number":64,"time":256.2552083333344,"value":0.47244094488188976},{"number":64,"time":256.26666666666773,"value":0.5039370078740157},{"number":64,"time":256.27500000000106,"value":0.5354330708661418},{"number":64,"time":256.2864583333344,"value":0.5669291338582677},{"number":64,"time":256.2989583333344,"value":0.6062992125984252},{"number":64,"time":256.3072916666677,"value":0.6456692913385826},{"number":64,"time":256.31875000000105,"value":0.7795275590551181},{"number":64,"time":256.33125000000103,"value":0.889763779527559},{"number":64,"time":259.4531250000011,"value":0.7795275590551181},{"number":64,"time":259.46041666666775,"value":0.6614173228346457},{"number":64,"time":259.4687500000011,"value":0.6141732283464567},{"number":64,"time":259.4770833333344,"value":0.5748031496062992},{"number":64,"time":259.4843750000011,"value":0.5433070866141733},{"number":64,"time":259.4927083333344,"value":0.49606299212598426},{"number":64,"time":259.50416666666774,"value":0.4015748031496063},{"number":64,"time":259.5843750000011,"value":0.47244094488188976},{"number":64,"time":259.59270833333443,"value":0.5039370078740157},{"number":64,"time":259.60416666666777,"value":0.5433070866141733},{"number":64,"time":259.6208333333344,"value":0.5748031496062992},{"number":64,"time":259.63229166666775,"value":0.6062992125984252},{"number":64,"time":259.64479166666774,"value":0.6456692913385826},{"number":64,"time":259.66041666666774,"value":0.7559055118110236},{"number":64,"time":259.72916666666777,"value":0.8503937007874016},{"number":64,"time":262.6666666666679,"value":1},{"number":64,"time":262.7822916666679,"value":0.8661417322834646},{"number":64,"time":262.80208333333456,"value":0.7322834645669292},{"number":64,"time":262.8104166666679,"value":0.6456692913385826},{"number":64,"time":262.8187500000012,"value":0.5984251968503937},{"number":64,"time":262.82708333333454,"value":0.5669291338582677},{"number":64,"time":262.83541666666787,"value":0.5118110236220472},{"number":64,"time":262.8468750000012,"value":0.4015748031496063},{"number":64,"time":262.8625000000012,"value":0.2992125984251969},{"number":64,"time":262.92708333333456,"value":0.4015748031496063},{"number":64,"time":262.93437500000124,"value":0.48031496062992124},{"number":64,"time":262.94270833333456,"value":0.5118110236220472},{"number":64,"time":262.9510416666679,"value":0.5433070866141733},{"number":64,"time":262.9625000000012,"value":0.5748031496062992},{"number":64,"time":262.9750000000012,"value":0.6062992125984252},{"number":64,"time":262.98333333333454,"value":0.6456692913385826},{"number":64,"time":262.99895833333454,"value":0.7559055118110236},{"number":64,"time":263.0156250000012,"value":0.8503937007874016},{"number":64,"time":263.13020833333456,"value":1},{"number":64,"time":266.09375000000114,"value":0.8661417322834646},{"number":64,"time":266.1135416666678,"value":0.7086614173228346},{"number":64,"time":266.1229166666678,"value":0.6377952755905512},{"number":64,"time":266.1291666666678,"value":0.5905511811023622},{"number":64,"time":266.1375000000011,"value":0.5590551181102362},{"number":64,"time":266.14583333333445,"value":0.5039370078740157},{"number":64,"time":266.1572916666678,"value":0.4015748031496063},{"number":64,"time":266.25000000000114,"value":0.48031496062992124},{"number":64,"time":266.2572916666678,"value":0.5118110236220472},{"number":64,"time":266.2697916666678,"value":0.5511811023622047},{"number":64,"time":266.2854166666678,"value":0.5905511811023622},{"number":64,"time":266.2979166666678,"value":0.6220472440944882},{"number":64,"time":266.31770833333445,"value":0.7322834645669292},{"number":64,"time":266.3375000000011,"value":0.8267716535433071},{"number":64,"time":268.1843750000012,"value":0.937007874015748},{"number":64,"time":268.9343750000012,"value":1},{"number":64,"time":269.41041666666786,"value":0},{"number":64,"time":269.4187500000012,"value":0.8661417322834646},{"number":64,"time":269.43854166666785,"value":0.7086614173228346},{"number":64,"time":269.44687500000117,"value":0.6377952755905512},{"number":64,"time":269.45416666666785,"value":0.5984251968503937},{"number":64,"time":269.46250000000117,"value":0.5590551181102362},{"number":64,"time":269.46979166666785,"value":0.5118110236220472},{"number":64,"time":269.47812500000117,"value":0.47244094488188976},{"number":64,"time":269.4864583333345,"value":0.3779527559055118},{"number":64,"time":269.56666666666786,"value":0.47244094488188976},{"number":64,"time":269.5781250000012,"value":0.5118110236220472},{"number":64,"time":269.5864583333345,"value":0.5433070866141733},{"number":64,"time":269.6020833333345,"value":0.5748031496062992},{"number":64,"time":269.6145833333345,"value":0.6062992125984252},{"number":64,"time":269.6218750000012,"value":0.6377952755905512},{"number":64,"time":269.63437500000117,"value":0.7322834645669292},{"number":64,"time":269.65000000000117,"value":0.8267716535433071},{"number":64,"time":269.7906250000012,"value":0.937007874015748},{"number":64,"time":270.36250000000126,"value":1},{"number":64,"time":272.73333333333466,"value":0.8661417322834646},{"number":64,"time":272.7531250000013,"value":0.7559055118110236},{"number":64,"time":272.76145833333464,"value":0.6535433070866141},{"number":64,"time":272.7687500000013,"value":0.6062992125984252},{"number":64,"time":272.77708333333464,"value":0.5748031496062992},{"number":64,"time":272.78541666666797,"value":0.5275590551181102},{"number":64,"time":272.79270833333464,"value":0.47244094488188976},{"number":64,"time":272.80104166666797,"value":0.3779527559055118},{"number":64,"time":272.82083333333463,"value":0.2755905511811024},{"number":64,"time":272.8968750000013,"value":0.3779527559055118},{"number":64,"time":272.90937500000126,"value":0.48031496062992124},{"number":64,"time":272.9177083333346,"value":0.5118110236220472},{"number":64,"time":272.92500000000126,"value":0.5433070866141733},{"number":64,"time":272.93750000000125,"value":0.5748031496062992},{"number":64,"time":272.95312500000125,"value":0.6141732283464567},{"number":64,"time":272.9614583333346,"value":0.6456692913385826},{"number":64,"time":272.9770833333346,"value":0.7559055118110236},{"number":64,"time":273.0010416666679,"value":0.8503937007874016},{"number":64,"time":273.1812500000012,"value":1},{"number":64,"time":276.10833333333454,"value":0.8661417322834646},{"number":64,"time":276.1229166666679,"value":0.7559055118110236},{"number":64,"time":276.1312500000012,"value":0.6456692913385826},{"number":64,"time":276.1406250000012,"value":0.5984251968503937},{"number":64,"time":276.14791666666787,"value":0.5590551181102362},{"number":64,"time":276.1562500000012,"value":0.5039370078740157},{"number":64,"time":276.16770833333453,"value":0.3779527559055118},{"number":64,"time":276.1802083333345,"value":0.2755905511811024},{"number":64,"time":276.2552083333345,"value":0.3779527559055118},{"number":64,"time":276.2677083333345,"value":0.48031496062992124},{"number":64,"time":276.27500000000117,"value":0.5196850393700787},{"number":64,"time":276.28750000000116,"value":0.5590551181102362},{"number":64,"time":276.2989583333345,"value":0.5905511811023622},{"number":64,"time":276.31562500000115,"value":0.6299212598425197},{"number":64,"time":276.33125000000115,"value":0.7559055118110236},{"number":64,"time":276.3552083333345,"value":0.8503937007874016},{"number":64,"time":277.11145833333444,"value":1},{"number":64,"time":279.47291666666786,"value":0.8503937007874016},{"number":64,"time":279.48541666666785,"value":0.7559055118110236},{"number":64,"time":279.4927083333345,"value":0.6535433070866141},{"number":64,"time":279.50104166666785,"value":0.6062992125984252},{"number":64,"time":279.5083333333345,"value":0.5669291338582677},{"number":64,"time":279.51666666666785,"value":0.5118110236220472},{"number":64,"time":279.5208333333345,"value":0.48031496062992124},{"number":64,"time":279.5312500000012,"value":0.3779527559055118},{"number":64,"time":279.5416666666679,"value":0.2755905511811024},{"number":64,"time":279.6177083333345,"value":0.3779527559055118},{"number":64,"time":279.62916666666786,"value":0.48031496062992124},{"number":64,"time":279.63645833333453,"value":0.5196850393700787},{"number":64,"time":279.6489583333345,"value":0.5590551181102362},{"number":64,"time":279.6614583333345,"value":0.5905511811023622},{"number":64,"time":279.67291666666785,"value":0.6220472440944882},{"number":64,"time":279.69375000000116,"value":0.7322834645669292},{"number":64,"time":279.70937500000116,"value":0.8267716535433071},{"number":64,"time":279.7927083333345,"value":0.937007874015748},{"number":64,"time":279.79687500000114,"value":1},{"number":64,"time":282.74375000000117,"value":0.8661417322834646},{"number":64,"time":282.75937500000117,"value":0.7086614173228346},{"number":64,"time":282.76875000000115,"value":0.6377952755905512},{"number":64,"time":282.77187500000116,"value":0.6062992125984252},{"number":64,"time":282.7802083333345,"value":0.5669291338582677},{"number":64,"time":282.78750000000116,"value":0.5196850393700787},{"number":64,"time":282.7916666666678,"value":0.4881889763779528},{"number":64,"time":282.80000000000115,"value":0.3779527559055118},{"number":64,"time":282.8114583333345,"value":0.2755905511811024},{"number":64,"time":282.88333333333446,"value":0.3779527559055118},{"number":64,"time":282.89583333333445,"value":0.48031496062992124},{"number":64,"time":282.9041666666678,"value":0.5118110236220472},{"number":64,"time":282.91145833333445,"value":0.5433070866141733},{"number":64,"time":282.92395833333444,"value":0.5826771653543307},{"number":64,"time":282.9354166666678,"value":0.6141732283464567},{"number":64,"time":282.9437500000011,"value":0.6535433070866141},{"number":64,"time":282.95208333333443,"value":0.7559055118110236},{"number":64,"time":282.96770833333443,"value":0.8503937007874016},{"number":64,"time":283.01979166666774,"value":0},{"number":64,"time":283.0395833333344,"value":1},{"number":64,"time":286.0854166666678,"value":0.8661417322834646},{"number":64,"time":286.1104166666678,"value":0.7322834645669292},{"number":64,"time":286.1229166666678,"value":0.6377952755905512},{"number":64,"time":286.13020833333445,"value":0.6062992125984252},{"number":64,"time":286.1416666666678,"value":0.5748031496062992},{"number":64,"time":286.15833333333444,"value":0.5433070866141733},{"number":64,"time":286.22604166666775,"value":0.5748031496062992},{"number":64,"time":286.24166666666775,"value":0.6062992125984252},{"number":64,"time":286.25416666666774,"value":0.6377952755905512},{"number":64,"time":286.26979166666774,"value":0.7322834645669292},{"number":64,"time":286.2895833333344,"value":0.8267716535433071},{"number":64,"time":289.3052083333343,"value":0.937007874015748},{"number":64,"time":289.3208333333343,"value":1},{"number":64,"time":289.42916666666764,"value":0.8661417322834646},{"number":64,"time":289.45312500000097,"value":0.7322834645669292},{"number":64,"time":289.46041666666764,"value":0.6535433070866141},{"number":64,"time":289.46875000000097,"value":0.6141732283464567},{"number":64,"time":289.4770833333343,"value":0.5748031496062992},{"number":64,"time":289.48437500000097,"value":0.5433070866141733},{"number":64,"time":289.4927083333343,"value":0.5039370078740157},{"number":64,"time":289.5010416666676,"value":0.47244094488188976},{"number":64,"time":289.5677083333343,"value":0.5039370078740157},{"number":64,"time":289.5812500000009,"value":0.5354330708661418},{"number":64,"time":289.5979166666676,"value":0.5669291338582677},{"number":64,"time":289.60833333333426,"value":0.5984251968503937},{"number":64,"time":289.62083333333425,"value":0.6299212598425197},{"number":64,"time":289.63645833333425,"value":0.7322834645669292},{"number":64,"time":289.6531250000009,"value":0.8267716535433071},{"number":64,"time":292.69895833333436,"value":0.937007874015748},{"number":64,"time":292.7104166666677,"value":1},{"number":64,"time":292.8458333333344,"value":0.8661417322834646},{"number":64,"time":292.8697916666677,"value":0.7322834645669292},{"number":64,"time":292.8791666666677,"value":0.6456692913385826},{"number":64,"time":292.8854166666677,"value":0.6062992125984252},{"number":64,"time":292.89375000000103,"value":0.5748031496062992},{"number":64,"time":292.90208333333436,"value":0.5354330708661418},{"number":64,"time":292.9104166666677,"value":0.49606299212598426},{"number":64,"time":292.965625000001,"value":0.4015748031496063},{"number":64,"time":292.9854166666677,"value":0.47244094488188976},{"number":64,"time":292.99791666666766,"value":0.5039370078740157},{"number":64,"time":293.006250000001,"value":0.5354330708661418},{"number":64,"time":293.021875000001,"value":0.5669291338582677},{"number":64,"time":293.0333333333343,"value":0.5984251968503937},{"number":64,"time":293.04687500000097,"value":0.6299212598425197},{"number":64,"time":293.0614583333343,"value":0.7559055118110236},{"number":64,"time":293.0864583333343,"value":0.8503937007874016},{"number":64,"time":296.6447916666677,"value":0.7322834645669292},{"number":64,"time":296.65208333333436,"value":0.6456692913385826},{"number":64,"time":296.6604166666677,"value":0.6062992125984252},{"number":64,"time":296.668750000001,"value":0.5748031496062992},{"number":64,"time":296.6760416666677,"value":0.5354330708661418},{"number":64,"time":296.684375000001,"value":0.4881889763779528},{"number":64,"time":296.696875000001,"value":0.4015748031496063},{"number":64,"time":296.7333333333343,"value":0},{"number":64,"time":296.80104166666763,"value":0.47244094488188976},{"number":64,"time":296.8083333333343,"value":0.5039370078740157},{"number":64,"time":296.8208333333343,"value":0.5354330708661418},{"number":64,"time":296.8364583333343,"value":0.5669291338582677},{"number":64,"time":296.8520833333343,"value":0.5984251968503937},{"number":64,"time":296.8645833333343,"value":0.6299212598425197},{"number":64,"time":296.88437500000094,"value":0.7322834645669292},{"number":64,"time":296.9041666666676,"value":0.8267716535433071},{"number":64,"time":300.27500000000094,"value":0.937007874015748},{"number":64,"time":300.3552083333343,"value":0.8267716535433071},{"number":64,"time":300.3677083333343,"value":0.7322834645669292},{"number":64,"time":300.37500000000097,"value":0.6456692913385826},{"number":64,"time":300.3833333333343,"value":0.6062992125984252},{"number":64,"time":300.3916666666676,"value":0.5748031496062992},{"number":64,"time":300.3989583333343,"value":0.5354330708661418},{"number":64,"time":300.4072916666676,"value":0.49606299212598426},{"number":64,"time":300.4229166666676,"value":0.4015748031496063},{"number":64,"time":300.4822916666676,"value":0.48031496062992124},{"number":64,"time":300.4979166666676,"value":0.5118110236220472},{"number":64,"time":300.5104166666676,"value":0.5433070866141733},{"number":64,"time":300.52708333333425,"value":0.5748031496062992},{"number":64,"time":300.5437500000009,"value":0.6062992125984252},{"number":64,"time":300.5541666666676,"value":0.6456692913385826},{"number":64,"time":300.57916666666756,"value":0.7559055118110236},{"number":64,"time":303.21354166666754,"value":0.8503937007874016},{"number":64,"time":303.8562500000009,"value":0.7322834645669292},{"number":64,"time":303.8645833333342,"value":0.6535433070866141},{"number":64,"time":303.8718750000009,"value":0.6141732283464567},{"number":64,"time":303.8812500000009,"value":0.5748031496062992},{"number":64,"time":303.8895833333342,"value":0.5433070866141733},{"number":64,"time":303.8958333333342,"value":0.49606299212598426},{"number":64,"time":303.9125000000009,"value":0.3779527559055118},{"number":64,"time":303.9895833333342,"value":0.47244094488188976},{"number":64,"time":303.9968750000009,"value":0.5039370078740157},{"number":64,"time":304.00833333333424,"value":0.5354330708661418},{"number":64,"time":304.02395833333424,"value":0.5669291338582677},{"number":64,"time":304.0416666666676,"value":0.5984251968503937},{"number":64,"time":304.0520833333343,"value":0.6299212598425197},{"number":64,"time":304.0760416666676,"value":0.7322834645669292},{"number":64,"time":304.74375000000094,"value":0.8267716535433071},{"number":64,"time":307.2666666666676,"value":0.7322834645669292},{"number":64,"time":307.2760416666676,"value":0.6456692913385826},{"number":64,"time":307.28333333333427,"value":0.6062992125984252},{"number":64,"time":307.29062500000094,"value":0.5748031496062992},{"number":64,"time":307.29895833333427,"value":0.5354330708661418},{"number":64,"time":307.30833333333425,"value":0.49606299212598426},{"number":64,"time":307.3750000000009,"value":0.4015748031496063},{"number":64,"time":307.3875000000009,"value":0.47244094488188976},{"number":64,"time":307.39895833333424,"value":0.5039370078740157},{"number":64,"time":307.4114583333342,"value":0.5354330708661418},{"number":64,"time":307.42291666666756,"value":0.5669291338582677},{"number":64,"time":307.43854166666756,"value":0.5984251968503937},{"number":64,"time":307.4552083333342,"value":0.6377952755905512},{"number":64,"time":307.4750000000009,"value":0.7322834645669292},{"number":64,"time":310.38541666666754,"value":0.8267716535433071},{"number":64,"time":310.8302083333342,"value":0.937007874015748},{"number":64,"time":310.92187500000085,"value":0.8267716535433071},{"number":64,"time":310.9333333333342,"value":0.7322834645669292},{"number":64,"time":310.9458333333342,"value":0.6456692913385826},{"number":64,"time":310.9541666666675,"value":0.6062992125984252},{"number":64,"time":310.9645833333342,"value":0.5669291338582677},{"number":64,"time":310.97812500000083,"value":0.5275590551181102},{"number":64,"time":310.99375000000083,"value":0.49606299212598426},{"number":64,"time":311.0656250000008,"value":0.5354330708661418},{"number":64,"time":311.08958333333413,"value":0.5669291338582677},{"number":64,"time":311.1062500000008,"value":0.5984251968503937},{"number":64,"time":311.1218750000008,"value":0.6377952755905512},{"number":64,"time":311.1458333333341,"value":0.7559055118110236},{"number":64,"time":311.2489583333341,"value":0.8503937007874016},{"number":64,"time":314.4520833333341,"value":0.7559055118110236},{"number":64,"time":314.45937500000076,"value":0.6614173228346457},{"number":64,"time":314.46875000000074,"value":0.6299212598425197},{"number":64,"time":314.4760416666674,"value":0.5984251968503937},{"number":64,"time":314.4833333333341,"value":0.5669291338582677},{"number":64,"time":314.4958333333341,"value":0.5275590551181102},{"number":64,"time":314.5041666666674,"value":0.49606299212598426},{"number":64,"time":314.5916666666674,"value":0.5354330708661418},{"number":64,"time":314.6072916666674,"value":0.5669291338582677},{"number":64,"time":314.62395833333403,"value":0.5984251968503937},{"number":64,"time":314.636458333334,"value":0.6299212598425197},{"number":64,"time":314.6541666666674,"value":0.7559055118110236},{"number":64,"time":314.7000000000007,"value":0.8503937007874016},{"number":64,"time":317.92187500000074,"value":0.7322834645669292},{"number":64,"time":317.93020833333406,"value":0.6456692913385826},{"number":64,"time":317.93750000000074,"value":0.6062992125984252},{"number":64,"time":317.94583333333406,"value":0.5748031496062992},{"number":64,"time":317.95312500000074,"value":0.5433070866141733},{"number":64,"time":317.96145833333406,"value":0.5039370078740157},{"number":64,"time":317.9697916666674,"value":0.47244094488188976},{"number":64,"time":318.0531250000007,"value":0.5039370078740157},{"number":64,"time":318.0656250000007,"value":0.5354330708661418},{"number":64,"time":318.08333333333405,"value":0.5669291338582677},{"number":64,"time":318.09375000000074,"value":0.5984251968503937},{"number":64,"time":318.1052083333341,"value":0.6299212598425197},{"number":64,"time":318.1260416666674,"value":0.7559055118110236},{"number":64,"time":318.1572916666674,"value":0.8503937007874016},{"number":64,"time":321.2406250000007,"value":1},{"number":64,"time":321.32083333333406,"value":0.8661417322834646},{"number":64,"time":321.34375000000074,"value":0.7322834645669292},{"number":64,"time":321.3572916666674,"value":0.6377952755905512},{"number":64,"time":321.36458333333405,"value":0.6062992125984252},{"number":64,"time":321.3729166666674,"value":0.5748031496062992},{"number":64,"time":321.3843750000007,"value":0.5354330708661418},{"number":64,"time":321.3968750000007,"value":0.49606299212598426},{"number":64,"time":321.4718750000007,"value":0.5354330708661418},{"number":64,"time":321.4875000000007,"value":0.5669291338582677},{"number":64,"time":321.5031250000007,"value":0.5984251968503937},{"number":64,"time":321.51666666666733,"value":0.6299212598425197},{"number":64,"time":321.53229166666733,"value":0.7322834645669292},{"number":64,"time":321.54791666666733,"value":0.8267716535433071},{"number":64,"time":325.0604166666673,"value":0},{"number":64,"time":328.986458333334,"value":0.937007874015748},{"number":64,"time":329.01875000000064,"value":1},{"number":64,"time":329.1218750000006,"value":0.8661417322834646},{"number":64,"time":329.1427083333339,"value":0.7559055118110236},{"number":64,"time":329.1500000000006,"value":0},{"number":64,"time":329.3031250000006,"value":0.6535433070866141},{"number":64,"time":329.31041666666727,"value":0.6062992125984252},{"number":64,"time":329.31770833333394,"value":0.5748031496062992},{"number":64,"time":329.32604166666727,"value":0.5354330708661418},{"number":64,"time":329.3343750000006,"value":0.4881889763779528},{"number":64,"time":329.3500000000006,"value":0.4015748031496063},{"number":64,"time":329.42604166666723,"value":0.47244094488188976},{"number":64,"time":329.4385416666672,"value":0.5118110236220472},{"number":64,"time":329.45000000000056,"value":0.5433070866141733},{"number":64,"time":329.4666666666672,"value":0.5748031496062992},{"number":64,"time":329.48333333333386,"value":0.6062992125984252},{"number":64,"time":329.49375000000055,"value":0.6456692913385826},{"number":64,"time":329.51458333333386,"value":0.7559055118110236},{"number":64,"time":329.55833333333385,"value":0.8503937007874016},{"number":64,"time":332.79270833333385,"value":1},{"number":64,"time":332.88958333333386,"value":0.8503937007874016},{"number":64,"time":332.90520833333386,"value":0.7559055118110236},{"number":64,"time":332.9135416666672,"value":0.6614173228346457},{"number":64,"time":332.92083333333386,"value":0.6220472440944882},{"number":64,"time":332.9291666666672,"value":0.5905511811023622},{"number":64,"time":332.9375000000005,"value":0.5590551181102362},{"number":64,"time":332.9447916666672,"value":0.5196850393700787},{"number":64,"time":332.9531250000005,"value":0.48031496062992124},{"number":64,"time":333.04895833333387,"value":0.5118110236220472},{"number":64,"time":333.06145833333386,"value":0.5433070866141733},{"number":64,"time":333.0760416666672,"value":0.5748031496062992},{"number":64,"time":333.0885416666672,"value":0.6062992125984252},{"number":64,"time":333.10000000000053,"value":0.6377952755905512},{"number":64,"time":333.11562500000053,"value":0.7559055118110236},{"number":64,"time":333.1479166666672,"value":0.8503937007874016},{"number":64,"time":336.38645833333385,"value":1},{"number":64,"time":336.4270833333338,"value":0.8661417322834646},{"number":64,"time":336.45104166666715,"value":0.7322834645669292},{"number":64,"time":336.4593750000005,"value":0.6456692913385826},{"number":64,"time":336.46666666666715,"value":0.6062992125984252},{"number":64,"time":336.4750000000005,"value":0.5669291338582677},{"number":64,"time":336.4833333333338,"value":0.5275590551181102},{"number":64,"time":336.4906250000005,"value":0.48031496062992124},{"number":64,"time":336.50312500000047,"value":0.3779527559055118},{"number":64,"time":336.59479166666716,"value":0.48031496062992124},{"number":64,"time":336.6031250000005,"value":0.5118110236220472},{"number":64,"time":336.61041666666716,"value":0.5433070866141733},{"number":64,"time":336.6270833333338,"value":0.5748031496062992},{"number":64,"time":336.63854166666715,"value":0.6062992125984252},{"number":64,"time":336.65104166666714,"value":0.6456692913385826},{"number":64,"time":336.66354166666713,"value":0.7559055118110236},{"number":64,"time":336.69062500000047,"value":0.8503937007874016},{"number":64,"time":340.0802083333338,"value":1},{"number":64,"time":340.23541666666716,"value":0.8661417322834646},{"number":64,"time":340.2593750000005,"value":0.7322834645669292},{"number":64,"time":340.2677083333338,"value":0.6456692913385826},{"number":64,"time":340.27604166666714,"value":0.6062992125984252},{"number":64,"time":340.2833333333338,"value":0.5669291338582677},{"number":64,"time":340.2927083333338,"value":0.5354330708661418},{"number":64,"time":340.30000000000047,"value":0.49606299212598426},{"number":64,"time":340.31562500000047,"value":0.4015748031496063},{"number":64,"time":340.36666666666713,"value":0},{"number":64,"time":340.3916666666671,"value":0.5511811023622047},{"number":64,"time":340.4229166666671,"value":0.5826771653543307},{"number":64,"time":340.44687500000043,"value":0.6141732283464567},{"number":64,"time":340.4635416666671,"value":0.6535433070866141},{"number":64,"time":340.48333333333375,"value":0.7559055118110236},{"number":64,"time":340.5229166666671,"value":0.8503937007874016},{"number":64,"time":343.9875000000004,"value":1},{"number":64,"time":344.10833333333375,"value":0.8661417322834646},{"number":64,"time":344.1322916666671,"value":0.7559055118110236},{"number":64,"time":344.1406250000004,"value":0.6614173228346457},{"number":64,"time":344.1479166666671,"value":0.6220472440944882},{"number":64,"time":344.1562500000004,"value":0.5905511811023622},{"number":64,"time":344.16770833333374,"value":0.5511811023622047},{"number":64,"time":344.17604166666706,"value":0.5196850393700787},{"number":64,"time":344.1875000000004,"value":0.48031496062992124},{"number":64,"time":344.20208333333375,"value":0},{"number":64,"time":344.24375000000043,"value":0.5354330708661418},{"number":64,"time":344.2562500000004,"value":0.5669291338582677},{"number":64,"time":344.2666666666671,"value":0.5984251968503937},{"number":64,"time":344.28125000000045,"value":0.6456692913385826},{"number":64,"time":344.29062500000043,"value":0.7559055118110236},{"number":64,"time":344.30625000000043,"value":0.8503937007874016},{"number":64,"time":344.38020833333377,"value":1},{"number":64,"time":347.9177083333338,"value":0.8503937007874016},{"number":64,"time":347.93437500000044,"value":0.7322834645669292},{"number":64,"time":347.9416666666671,"value":0.6456692913385826},{"number":64,"time":347.95000000000044,"value":0.6062992125984252},{"number":64,"time":347.95833333333377,"value":0.5748031496062992},{"number":64,"time":347.96562500000044,"value":0.5433070866141733},{"number":64,"time":347.97395833333377,"value":0.5118110236220472},{"number":64,"time":347.9822916666671,"value":0.48031496062992124},{"number":64,"time":348.0104166666671,"value":0.3779527559055118},{"number":64,"time":348.06145833333375,"value":0.47244094488188976},{"number":64,"time":348.0697916666671,"value":0.5039370078740157},{"number":64,"time":348.08229166666706,"value":0.5433070866141733},{"number":64,"time":348.0937500000004,"value":0.5748031496062992},{"number":64,"time":348.1062500000004,"value":0.6062992125984252},{"number":64,"time":348.1187500000004,"value":0.6535433070866141},{"number":64,"time":348.1302083333337,"value":0.7795275590551181},{"number":64,"time":348.1583333333337,"value":0.889763779527559},{"number":64,"time":348.197916666667,"value":1},{"number":64,"time":351.75312500000035,"value":0.8661417322834646},{"number":64,"time":351.76875000000035,"value":0.7322834645669292},{"number":64,"time":351.77812500000033,"value":0.6377952755905512},{"number":64,"time":351.78437500000035,"value":0.5984251968503937},{"number":64,"time":351.7927083333337,"value":0.5590551181102362},{"number":64,"time":351.801041666667,"value":0.5196850393700787},{"number":64,"time":351.80937500000033,"value":0.47244094488188976},{"number":64,"time":351.82500000000033,"value":0.3779527559055118},{"number":64,"time":351.87708333333364,"value":0.47244094488188976},{"number":64,"time":351.8843750000003,"value":0.5039370078740157},{"number":64,"time":351.8968750000003,"value":0.5433070866141733},{"number":64,"time":351.90833333333364,"value":0.5826771653543307},{"number":64,"time":351.92083333333363,"value":0.6141732283464567},{"number":64,"time":351.93229166666697,"value":0.7086614173228346},{"number":64,"time":351.9406250000003,"value":0.8031496062992126},{"number":64,"time":351.9645833333336,"value":0.937007874015748},{"number":64,"time":351.97291666666695,"value":1},{"number":64,"time":355.6677083333337,"value":0},{"number":64,"time":390.60416666666697,"value":0.8661417322834646},{"number":64,"time":390.61979166666697,"value":0.7322834645669292},{"number":64,"time":390.6281250000003,"value":0.6535433070866141},{"number":64,"time":390.6364583333336,"value":0.6062992125984252},{"number":64,"time":390.6437500000003,"value":0.5748031496062992},{"number":64,"time":390.6562500000003,"value":0.5275590551181102},{"number":64,"time":390.6645833333336,"value":0.49606299212598426},{"number":64,"time":390.7322916666669,"value":0.5275590551181102},{"number":64,"time":390.74375000000026,"value":0.5590551181102362},{"number":64,"time":390.75937500000026,"value":0.5905511811023622},{"number":64,"time":390.77187500000025,"value":0.6220472440944882},{"number":64,"time":390.7802083333336,"value":0.6535433070866141},{"number":64,"time":390.7916666666669,"value":0.7559055118110236},{"number":64,"time":390.8072916666669,"value":0.8503937007874016},{"number":64,"time":390.8906250000003,"value":1},{"number":64,"time":399.3947916666667,"value":0.8661417322834646},{"number":64,"time":399.4510416666667,"value":0.7559055118110236},{"number":64,"time":399.48020833333334,"value":0.6614173228346457},{"number":64,"time":399.5,"value":0.6220472440944882},{"number":64,"time":399.53125,"value":0.5905511811023622},{"number":64,"time":399.5625,"value":0.5590551181102362},{"number":64,"time":399.59583333333336,"value":0.5275590551181102},{"number":64,"time":399.64270833333336,"value":0.49606299212598426},{"number":64,"time":400.0625,"value":0.4015748031496063},{"number":64,"time":400.9791666666667,"value":0.2992125984251969},{"number":64,"time":401.10312500000003,"value":0.2047244094488189},{"number":64,"time":401.15833333333336,"value":0.10236220472440945},{"number":64,"time":401.21875,"value":0},{"number":64,"time":403.38125,"value":0.10236220472440945},{"number":64,"time":403.39375,"value":0.2047244094488189},{"number":64,"time":403.421875,"value":0.33070866141732286},{"number":64,"time":403.49791666666664,"value":0.44881889763779526},{"number":64,"time":403.51354166666664,"value":0.48031496062992124},{"number":64,"time":403.55312499999997,"value":0.5118110236220472},{"number":64,"time":403.6135416666666,"value":0.5433070866141733},{"number":64,"time":403.64583333333326,"value":0.5748031496062992},{"number":64,"time":403.6854166666666,"value":0.6062992125984252},{"number":64,"time":403.7135416666666,"value":0.6377952755905512},{"number":64,"time":403.7531249999999,"value":0.7322834645669292},{"number":64,"time":403.8374999999999,"value":0.8267716535433071},{"number":64,"time":403.9979166666666,"value":0.937007874015748},{"number":64,"time":404.0093749999999,"value":1},{"number":64,"time":406.27291666666656,"value":0.8661417322834646},{"number":64,"time":406.5124999999999,"value":0.7559055118110236},{"number":64,"time":406.5604166666665,"value":0.6535433070866141},{"number":64,"time":406.58437499999985,"value":0.6220472440944882},{"number":64,"time":406.61249999999984,"value":0.5905511811023622},{"number":64,"time":406.64062499999983,"value":0.5590551181102362},{"number":64,"time":406.6760416666665,"value":0.5275590551181102},{"number":64,"time":406.70833333333314,"value":0.49606299212598426},{"number":64,"time":406.75208333333313,"value":0.4015748031496063},{"number":64,"time":406.78854166666645,"value":0.2992125984251969},{"number":64,"time":406.8208333333331,"value":0.2047244094488189},{"number":64,"time":406.84062499999976,"value":0.10236220472440945},{"number":64,"time":406.8604166666664,"value":0}]},"instrumentNumber":-1},{"name":"2","notes":[{"name":"B3","midi":59,"time":7.301041666666668,"velocity":0.25984251968503935,"duration":0.203125},{"name":"B3","midi":59,"time":7.857291666666669,"velocity":0.1732283464566929,"duration":0.6197916666666661},{"name":"D4","midi":62,"time":8.350000000000001,"velocity":0.28346456692913385,"duration":0.16249999999999964},{"name":"D4","midi":62,"time":8.940625,"velocity":0.1732283464566929,"duration":0.44687500000000036},{"name":"B3","midi":59,"time":9.433333333333334,"velocity":0.2125984251968504,"duration":0.16041666666666643},{"name":"B3","midi":59,"time":9.973958333333334,"velocity":0.16535433070866143,"duration":0.6875},{"name":"D4","midi":62,"time":10.25,"velocity":0.2440944881889764,"duration":0.4250000000000007},{"name":"D4","midi":62,"time":11.039583333333335,"velocity":0.2047244094488189,"duration":0.3562499999999993},{"name":"B3","midi":59,"time":11.543750000000001,"velocity":0.2440944881889764,"duration":0.2041666666666675},{"name":"B3","midi":59,"time":12.050000000000002,"velocity":0.23622047244094488,"duration":0.6270833333333332},{"name":"D4","midi":62,"time":12.542708333333335,"velocity":0.2677165354330709,"duration":0.19583333333333286},{"name":"D4","midi":62,"time":13.068750000000001,"velocity":0.25196850393700787,"duration":0.4552083333333332},{"name":"B3","midi":59,"time":13.566666666666668,"velocity":0.2204724409448819,"duration":0.17812499999999964},{"name":"B3","midi":59,"time":14.061458333333334,"velocity":0.25196850393700787,"duration":1.3291666666666693},{"name":"D4","midi":62,"time":14.3,"velocity":0.29133858267716534,"duration":0.27291666666666714},{"name":"D4","midi":62,"time":14.801041666666668,"velocity":0.1732283464566929,"duration":0.2062500000000007},{"name":"D4","midi":62,"time":15.293750000000003,"velocity":0.25196850393700787,"duration":0.35104166666666714},{"name":"A3","midi":57,"time":15.571875000000004,"velocity":0.25196850393700787,"duration":0.22708333333333286},{"name":"A3","midi":57,"time":16.077083333333338,"velocity":0.25984251968503935,"duration":0.6479166666666671},{"name":"D4","midi":62,"time":16.576041666666672,"velocity":0.29133858267716534,"duration":0.20729166666666643},{"name":"D4","midi":62,"time":17.08854166666667,"velocity":0.2440944881889764,"duration":0.41666666666666785},{"name":"A3","midi":57,"time":17.577083333333338,"velocity":0.2755905511811024,"duration":0.16770833333333357},{"name":"A3","midi":57,"time":18.06666666666667,"velocity":0.2047244094488189,"duration":0.3447916666666657},{"name":"D4","midi":62,"time":18.35104166666667,"velocity":0.28346456692913385,"duration":0.39374999999999716},{"name":"D4","midi":62,"time":19.053125,"velocity":0.25984251968503935,"duration":0.47916666666666785},{"name":"A3","midi":57,"time":19.55416666666667,"velocity":0.2283464566929134,"duration":0.185416666666665},{"name":"A3","midi":57,"time":20.05416666666667,"velocity":0.2204724409448819,"duration":0.6062499999999993},{"name":"D4","midi":62,"time":20.53541666666667,"velocity":0.2992125984251969,"duration":0.127083333333335},{"name":"D4","midi":62,"time":21.05208333333334,"velocity":0.2283464566929134,"duration":0.48020833333333357},{"name":"A3","midi":57,"time":21.561458333333338,"velocity":0.2755905511811024,"duration":0.1687499999999993},{"name":"A3","midi":57,"time":22.050000000000004,"velocity":0.23622047244094488,"duration":0.44791666666666785},{"name":"D4","midi":62,"time":22.294791666666672,"velocity":0.30708661417322836,"duration":0.2687500000000007},{"name":"D4","midi":62,"time":22.764583333333338,"velocity":0.25984251968503935,"duration":0.2593749999999986},{"name":"D4","midi":62,"time":23.252083333333335,"velocity":0.1732283464566929,"duration":0.2218750000000007},{"name":"B3","midi":59,"time":23.515625000000004,"velocity":0.28346456692913385,"duration":0.234375},{"name":"B3","midi":59,"time":24.03854166666667,"velocity":0.1732283464566929,"duration":0.5635416666666693},{"name":"D4","midi":62,"time":24.53333333333334,"velocity":0.2755905511811024,"duration":0.15416666666666856},{"name":"D4","midi":62,"time":25.03020833333334,"velocity":0.2283464566929134,"duration":0.47916666666666785},{"name":"B3","midi":59,"time":25.542708333333344,"velocity":0.2283464566929134,"duration":0.1750000000000007},{"name":"B3","midi":59,"time":26.066666666666677,"velocity":0.1889763779527559,"duration":0.8104166666666686},{"name":"D4","midi":62,"time":26.318750000000012,"velocity":0.23622047244094488,"duration":0.4281250000000014},{"name":"D4","midi":62,"time":27.071875000000013,"velocity":0.25984251968503935,"duration":0.1593750000000007},{"name":"B3","midi":59,"time":27.543750000000014,"velocity":0.2755905511811024,"duration":0.19791666666666785},{"name":"B3","midi":59,"time":28.040625000000016,"velocity":0.25984251968503935,"duration":0.5989583333333357},{"name":"D4","midi":62,"time":28.528125000000017,"velocity":0.25196850393700787,"duration":0.18541666666666856},{"name":"D4","midi":62,"time":29.045833333333352,"velocity":0.2440944881889764,"duration":0.39895833333333286},{"name":"B3","midi":59,"time":29.529166666666686,"velocity":0.2204724409448819,"duration":0.16250000000000142},{"name":"B3","midi":59,"time":30.020833333333353,"velocity":0.25196850393700787,"duration":1.0875000000000021},{"name":"D4","midi":62,"time":30.254166666666688,"velocity":0.3228346456692913,"duration":0.2687500000000007},{"name":"D4","midi":62,"time":30.72916666666669,"velocity":0.3228346456692913,"duration":0.22604166666666714},{"name":"D4","midi":62,"time":31.21562500000002,"velocity":0.33070866141732286,"duration":0.2156249999999993},{"name":"A3","midi":57,"time":31.46562500000002,"velocity":0.4015748031496063,"duration":0.22916666666666785},{"name":"A3","midi":57,"time":31.96875000000002,"velocity":0.2677165354330709,"duration":0.3489583333333357},{"name":"D4","midi":62,"time":32.47812500000003,"velocity":0.31496062992125984,"duration":0.11562500000000142},{"name":"D4","midi":62,"time":32.99583333333336,"velocity":0.2677165354330709,"duration":0.5020833333333314},{"name":"A3","midi":57,"time":33.467708333333356,"velocity":0.25984251968503935,"duration":0.171875},{"name":"A3","midi":57,"time":33.99166666666669,"velocity":0.1732283464566929,"duration":0.3083333333333371},{"name":"D4","midi":62,"time":34.25625000000002,"velocity":0.2204724409448819,"duration":0.3552083333333371},{"name":"D4","midi":62,"time":34.97708333333336,"velocity":0.2677165354330709,"duration":0.4750000000000014},{"name":"A3","midi":57,"time":35.44583333333336,"velocity":0.2677165354330709,"duration":0.1822916666666714},{"name":"A3","midi":57,"time":35.9447916666667,"velocity":0.23622047244094488,"duration":0.625},{"name":"D4","midi":62,"time":36.42708333333337,"velocity":0.2755905511811024,"duration":0.1510416666666643},{"name":"D4","midi":62,"time":36.921875000000036,"velocity":0.25984251968503935,"duration":0.4739583333333357},{"name":"A3","midi":57,"time":37.408333333333374,"velocity":0.2283464566929134,"duration":0.1145833333333357},{"name":"A3","midi":57,"time":37.923958333333374,"velocity":0.2204724409448819,"duration":0.7874999999999943},{"name":"D4","midi":62,"time":38.457291666666706,"velocity":0.1732283464566929,"duration":0.17395833333333144},{"name":"D4","midi":62,"time":38.9260416666667,"velocity":0.2283464566929134,"duration":0.45729166666667},{"name":"B3","midi":59,"time":39.3916666666667,"velocity":0.28346456692913385,"duration":0.13854166666666856},{"name":"B3","midi":59,"time":39.863541666666706,"velocity":0.2440944881889764,"duration":0.6020833333333329},{"name":"D4","midi":62,"time":40.372916666666704,"velocity":0.2440944881889764,"duration":0.1458333333333357},{"name":"D4","midi":62,"time":40.892708333333374,"velocity":0.1889763779527559,"duration":0.4583333333333357},{"name":"B3","midi":59,"time":41.35520833333338,"velocity":0.2204724409448819,"duration":0.18437500000000284},{"name":"B3","midi":59,"time":41.84583333333338,"velocity":0.2440944881889764,"duration":0.39374999999999716},{"name":"D4","midi":62,"time":42.121875000000045,"velocity":0.2440944881889764,"duration":0.43541666666666856},{"name":"D4","midi":62,"time":42.84687500000005,"velocity":0.29133858267716534,"duration":0.4750000000000014},{"name":"B3","midi":59,"time":43.33645833333338,"velocity":0.2204724409448819,"duration":0.12916666666666998},{"name":"B3","midi":59,"time":43.83541666666672,"velocity":0.23622047244094488,"duration":0.56666666666667},{"name":"D4","midi":62,"time":44.30937500000005,"velocity":0.25984251968503935,"duration":0.16979166666666856},{"name":"D4","midi":62,"time":44.81666666666672,"velocity":0.2440944881889764,"duration":0.46666666666666856},{"name":"B3","midi":59,"time":45.31041666666672,"velocity":0.2677165354330709,"duration":0.13333333333333286},{"name":"B3","midi":59,"time":45.811458333333384,"velocity":0.2440944881889764,"duration":0.71041666666666},{"name":"D4","midi":62,"time":46.322916666666714,"velocity":0.2125984251968504,"duration":0.19687499999999858},{"name":"D4","midi":62,"time":46.80625000000004,"velocity":0.25984251968503935,"duration":0.47604166666666714},{"name":"A3","midi":57,"time":47.29687500000004,"velocity":0.2440944881889764,"duration":0.265625},{"name":"A3","midi":57,"time":47.793750000000045,"velocity":0.1968503937007874,"duration":1.0666666666666629},{"name":"D4","midi":62,"time":48.29583333333338,"velocity":0.29133858267716534,"duration":0.20624999999999716},{"name":"D4","midi":62,"time":48.79583333333338,"velocity":0.2440944881889764,"duration":0.41979166666666146},{"name":"A3","midi":57,"time":49.269791666666706,"velocity":0.2047244094488189,"duration":0.24895833333333428},{"name":"A3","midi":57,"time":49.79791666666671,"velocity":0.1732283464566929,"duration":1.031249999999993},{"name":"D4","midi":62,"time":50.035416666666706,"velocity":0.2677165354330709,"duration":0.40937499999999716},{"name":"D4","midi":62,"time":50.77083333333337,"velocity":0.25984251968503935,"duration":0.4468749999999986},{"name":"A3","midi":57,"time":51.22708333333337,"velocity":0.28346456692913385,"duration":0.2447916666666643},{"name":"A3","midi":57,"time":51.72500000000003,"velocity":0.2125984251968504,"duration":1.1312500000000014},{"name":"D4","midi":62,"time":52.23750000000003,"velocity":0.2755905511811024,"duration":0.11874999999999858},{"name":"D4","midi":62,"time":52.728125000000034,"velocity":0.2677165354330709,"duration":0.4270833333333286},{"name":"A3","midi":57,"time":53.2072916666667,"velocity":0.23622047244094488,"duration":0.23020833333333002},{"name":"A3","midi":57,"time":53.70208333333336,"velocity":0.2125984251968504,"duration":1.0593750000000028},{"name":"D4","midi":62,"time":54.1854166666667,"velocity":0.2677165354330709,"duration":0.2239583333333357},{"name":"D4","midi":62,"time":54.698958333333366,"velocity":0.2440944881889764,"duration":0.44166666666667},{"name":"B3","midi":59,"time":55.160416666666706,"velocity":0.28346456692913385,"duration":0.18124999999999858},{"name":"B3","midi":59,"time":55.64895833333337,"velocity":0.2125984251968504,"duration":0.5645833333333314},{"name":"D4","midi":62,"time":56.14375000000003,"velocity":0.25984251968503935,"duration":0.15520833333333428},{"name":"D4","midi":62,"time":56.6479166666667,"velocity":0.23622047244094488,"duration":0.44895833333333},{"name":"B3","midi":59,"time":57.120833333333366,"velocity":0.2440944881889764,"duration":0.18333333333333002},{"name":"B3","midi":59,"time":57.6291666666667,"velocity":0.1889763779527559,"duration":0.671875},{"name":"D4","midi":62,"time":57.911458333333364,"velocity":0.2204724409448819,"duration":0.4520833333333343},{"name":"D4","midi":62,"time":58.679166666666696,"velocity":0.2283464566929134,"duration":0.39791666666666714},{"name":"B3","midi":59,"time":59.15833333333336,"velocity":0.23622047244094488,"duration":0.171875},{"name":"B3","midi":59,"time":59.69687500000003,"velocity":0.1889763779527559,"duration":0.5385416666666671},{"name":"D4","midi":62,"time":60.157291666666694,"velocity":0.2992125984251969,"duration":0.19479166666666714},{"name":"D4","midi":62,"time":60.65833333333336,"velocity":0.2047244094488189,"duration":0.3802083333333357},{"name":"B3","midi":59,"time":61.15625000000003,"velocity":0.2047244094488189,"duration":0.15937499999999716},{"name":"B3","midi":59,"time":61.659375000000026,"velocity":0.1889763779527559,"duration":1.48020833333333},{"name":"D4","midi":62,"time":62.168750000000024,"velocity":0.2283464566929134,"duration":0.10729166666666856},{"name":"D4","midi":62,"time":62.64687500000002,"velocity":0.23622047244094488,"duration":0.48020833333333},{"name":"A3","midi":57,"time":63.16354166666669,"velocity":0.25196850393700787,"duration":0.21249999999999858},{"name":"A3","midi":57,"time":63.64687500000002,"velocity":0.2047244094488189,"duration":1.1562500000000142},{"name":"D4","midi":62,"time":64.1572916666667,"velocity":0.25984251968503935,"duration":0.10520833333333712},{"name":"D4","midi":62,"time":64.66875000000003,"velocity":0.2440944881889764,"duration":0.4593750000000085},{"name":"A3","midi":57,"time":65.1666666666667,"velocity":0.1889763779527559,"duration":0.20729166666666288},{"name":"A3","midi":57,"time":65.66041666666669,"velocity":0.23622047244094488,"duration":1.0937499999999858},{"name":"D4","midi":62,"time":65.96354166666669,"velocity":0.1889763779527559,"duration":0.34687499999999716},{"name":"D4","midi":62,"time":66.65520833333335,"velocity":0.25984251968503935,"duration":0.46770833333332007},{"name":"A3","midi":57,"time":67.10520833333334,"velocity":0.33858267716535434,"duration":0.24791666666666856},{"name":"A3","midi":57,"time":67.59791666666668,"velocity":0.2125984251968504,"duration":1.1374999999999886},{"name":"D4","midi":62,"time":68.11562500000001,"velocity":0.2677165354330709,"duration":0.10833333333333428},{"name":"D4","midi":62,"time":68.61875,"velocity":0.25196850393700787,"duration":0.45624999999999716},{"name":"A3","midi":57,"time":69.121875,"velocity":0.25984251968503935,"duration":0.17812499999999432},{"name":"A3","midi":57,"time":69.609375,"velocity":0.29133858267716534,"duration":1.1468749999999943},{"name":"D4","midi":62,"time":70.10729166666667,"velocity":0.2204724409448819,"duration":0.0677083333333286},{"name":"D4","midi":62,"time":70.59791666666666,"velocity":0.30708661417322836,"duration":0.3645833333333286},{"name":"B3","midi":59,"time":71.05416666666666,"velocity":0.29133858267716534,"duration":0.20729166666666288},{"name":"D4","midi":62,"time":71.58749999999999,"velocity":0.14960629921259844,"duration":0.052083333333328596},{"name":"D4","midi":62,"time":72.06979166666666,"velocity":0.2204724409448819,"duration":0.05104166666666288},{"name":"B3","midi":59,"time":72.56875,"velocity":0.14173228346456693,"duration":0.12395833333333428},{"name":"B3","midi":59,"time":73.02708333333332,"velocity":0.23622047244094488,"duration":0.6041666666666572},{"name":"D4","midi":62,"time":73.54687499999999,"velocity":0.18110236220472442,"duration":0.12812499999999716},{"name":"D4","midi":62,"time":74.02187499999998,"velocity":0.2204724409448819,"duration":0.4427083333333286},{"name":"B3","midi":59,"time":74.5177083333333,"velocity":0.2047244094488189,"duration":0.13333333333333997},{"name":"B3","midi":59,"time":74.97604166666665,"velocity":0.25984251968503935,"duration":0.4947916666666714},{"name":"D4","midi":62,"time":75.48333333333332,"velocity":0.25984251968503935,"duration":0.10104166666666003},{"name":"D4","midi":62,"time":75.96874999999999,"velocity":0.33070866141732286,"duration":0.2593750000000057},{"name":"B3","midi":59,"time":76.45625,"velocity":0.25984251968503935,"duration":0.09062500000000284},{"name":"B3","midi":59,"time":76.940625,"velocity":0.30708661417322836,"duration":0.4427083333333286},{"name":"D4","midi":62,"time":77.38749999999999,"velocity":0.30708661417322836,"duration":0.46875},{"name":"B3","midi":59,"time":77.87604166666665,"velocity":0.3228346456692913,"duration":0.5770833333333343},{"name":"D4","midi":62,"time":78.34999999999998,"velocity":0.25984251968503935,"duration":0.09375},{"name":"A3","midi":57,"time":78.83229166666665,"velocity":0.33070866141732286,"duration":0.9802083333333371},{"name":"D4","midi":62,"time":79.31458333333333,"velocity":0.2283464566929134,"duration":0.12916666666666288},{"name":"D4","midi":62,"time":79.81041666666665,"velocity":0.28346456692913385,"duration":0.4750000000000085},{"name":"A3","midi":57,"time":80.26145833333332,"velocity":0.2440944881889764,"duration":0.1614583333333428},{"name":"A3","midi":57,"time":80.759375,"velocity":0.1889763779527559,"duration":0.7843750000000114},{"name":"D4","midi":62,"time":81.26770833333335,"velocity":0.2283464566929134,"duration":0.078125},{"name":"D4","midi":62,"time":81.73229166666668,"velocity":0.23622047244094488,"duration":0.5406249999999915},{"name":"A3","midi":57,"time":82.23645833333335,"velocity":0.2677165354330709,"duration":0.09791666666666288},{"name":"A3","midi":57,"time":82.69895833333334,"velocity":0.2440944881889764,"duration":0.5656249999999972},{"name":"D4","midi":62,"time":83.18958333333333,"velocity":0.2047244094488189,"duration":0.04895833333333144},{"name":"D4","midi":62,"time":83.64895833333334,"velocity":0.3228346456692913,"duration":0.5281250000000028},{"name":"A3","midi":57,"time":84.134375,"velocity":0.29133858267716534,"duration":0.140625},{"name":"A3","midi":57,"time":84.59583333333335,"velocity":0.3228346456692913,"duration":0.43541666666666856},{"name":"D4","midi":62,"time":85.06145833333335,"velocity":0.3228346456692913,"duration":0.07395833333333712},{"name":"A3","midi":57,"time":85.56041666666668,"velocity":0.28346456692913385,"duration":0.46145833333333997},{"name":"D4","midi":62,"time":86.03333333333336,"velocity":0.3228346456692913,"duration":0.10520833333333712},{"name":"B3","midi":59,"time":86.52187500000004,"velocity":0.3464566929133858,"duration":0.46875},{"name":"D4","midi":62,"time":86.99375000000003,"velocity":0.2755905511811024,"duration":0.08229166666666288},{"name":"D4","midi":62,"time":87.47083333333336,"velocity":0.2992125984251969,"duration":0.46145833333333997},{"name":"B3","midi":59,"time":87.95625000000004,"velocity":0.2677165354330709,"duration":0.09583333333333144},{"name":"B3","midi":59,"time":88.41250000000004,"velocity":0.28346456692913385,"duration":0.53854166666666},{"name":"D4","midi":62,"time":88.88333333333337,"velocity":0.25984251968503935,"duration":0.0833333333333286},{"name":"D4","midi":62,"time":89.36145833333336,"velocity":0.3937007874015748,"duration":0.5177083333333314},{"name":"B3","midi":59,"time":89.8604166666667,"velocity":0.25196850393700787,"duration":0.09062500000000284},{"name":"B3","midi":59,"time":90.32500000000003,"velocity":0.30708661417322836,"duration":0.5406250000000057},{"name":"D4","midi":62,"time":90.77187500000004,"velocity":0.28346456692913385,"duration":0.11041666666666572},{"name":"D4","midi":62,"time":91.26145833333337,"velocity":0.3779527559055118,"duration":0.5489583333333314},{"name":"B3","midi":59,"time":91.75000000000003,"velocity":0.3228346456692913,"duration":0.11249999999999716},{"name":"B3","midi":59,"time":92.24270833333335,"velocity":0.3700787401574803,"duration":0.43541666666666856},{"name":"D4","midi":62,"time":92.67604166666669,"velocity":0.2992125984251969,"duration":0.07708333333333428},{"name":"B3","midi":59,"time":93.14270833333336,"velocity":0.3937007874015748,"duration":0.5291666666666686},{"name":"D4","midi":62,"time":93.60104166666669,"velocity":0.4015748031496063,"duration":0.08020833333334565},{"name":"A3","midi":57,"time":94.07395833333337,"velocity":0.33070866141732286,"duration":0.5281250000000028},{"name":"D4","midi":62,"time":94.5697916666667,"velocity":0.2047244094488189,"duration":0.06666666666666288},{"name":"D4","midi":62,"time":95.0541666666667,"velocity":0.2677165354330709,"duration":0.5062499999999943},{"name":"A3","midi":57,"time":95.5229166666667,"velocity":0.23622047244094488,"duration":0.14166666666666572},{"name":"A3","midi":57,"time":95.99270833333337,"velocity":0.2755905511811024,"duration":0.5489583333333314},{"name":"D4","midi":62,"time":96.4354166666667,"velocity":0.2992125984251969,"duration":0.13645833333333712},{"name":"D4","midi":62,"time":96.95000000000003,"velocity":0.2992125984251969,"duration":0.4791666666666572},{"name":"A3","midi":57,"time":97.41041666666669,"velocity":0.2440944881889764,"duration":0.09479166666666572},{"name":"A3","midi":57,"time":97.91041666666669,"velocity":0.30708661417322836,"duration":0.44583333333333997},{"name":"D4","midi":62,"time":98.36458333333337,"velocity":0.2992125984251969,"duration":0.10312500000000568},{"name":"D4","midi":62,"time":98.86250000000004,"velocity":0.31496062992125984,"duration":0.4645833333333371},{"name":"A3","midi":57,"time":99.33541666666672,"velocity":0.2047244094488189,"duration":0.06354166666666572},{"name":"A3","midi":57,"time":99.79166666666671,"velocity":0.3700787401574803,"duration":0.4479166666666714},{"name":"D4","midi":62,"time":100.24583333333338,"velocity":0.3228346456692913,"duration":0.0677083333333286},{"name":"A3","midi":57,"time":100.73645833333337,"velocity":0.33070866141732286,"duration":0.47187499999999716},{"name":"D4","midi":62,"time":101.18750000000004,"velocity":0.3700787401574803,"duration":0.08958333333332291},{"name":"B3","midi":59,"time":101.66250000000004,"velocity":0.3228346456692913,"duration":0.484375},{"name":"D4","midi":62,"time":102.14375000000004,"velocity":0.2755905511811024,"duration":0.053124999999994316},{"name":"D4","midi":62,"time":102.60625000000003,"velocity":0.31496062992125984,"duration":0.3604166666666657},{"name":"B3","midi":59,"time":103.05312500000004,"velocity":0.23622047244094488,"duration":0.08645833333333997},{"name":"B3","midi":59,"time":103.56145833333338,"velocity":0.3937007874015748,"duration":0.546875},{"name":"D4","midi":62,"time":104.03020833333338,"velocity":0.2440944881889764,"duration":0.08958333333333712},{"name":"D4","midi":62,"time":104.52291666666672,"velocity":0.3858267716535433,"duration":0.48229166666666856},{"name":"B3","midi":59,"time":104.99375000000005,"velocity":0.29133858267716534,"duration":0.09479166666666572},{"name":"B3","midi":59,"time":105.49479166666671,"velocity":0.3779527559055118,"duration":0.5364583333333286},{"name":"D4","midi":62,"time":105.96354166666671,"velocity":0.28346456692913385,"duration":0.09999999999999432},{"name":"D4","midi":62,"time":106.4291666666667,"velocity":0.3228346456692913,"duration":0.47604166666666003},{"name":"B3","midi":59,"time":106.89895833333337,"velocity":0.30708661417322836,"duration":0.07291666666665719},{"name":"B3","midi":59,"time":107.36666666666669,"velocity":0.4251968503937008,"duration":0.5052083333333286},{"name":"D4","midi":62,"time":107.81041666666668,"velocity":0.33858267716535434,"duration":0.06354166666666572},{"name":"B3","midi":59,"time":108.26458333333335,"velocity":0.3858267716535433,"duration":0.49166666666666003},{"name":"D4","midi":62,"time":108.73437500000001,"velocity":0.3779527559055118,"duration":0.06041666666665435},{"name":"A3","midi":57,"time":109.19479166666666,"velocity":0.3464566929133858,"duration":0.5354166666666629},{"name":"D4","midi":62,"time":109.70624999999998,"velocity":0.2204724409448819,"duration":0.04895833333334565},{"name":"D4","midi":62,"time":110.15625,"velocity":0.2677165354330709,"duration":0.49791666666666856},{"name":"A3","midi":57,"time":110.628125,"velocity":0.2440944881889764,"duration":0.16770833333333712},{"name":"A3","midi":57,"time":111.1125,"velocity":0.2992125984251969,"duration":0.5093750000000057},{"name":"D4","midi":62,"time":111.575,"velocity":0.29133858267716534,"duration":0.109375},{"name":"D4","midi":62,"time":112.05208333333334,"velocity":0.30708661417322836,"duration":0.5166666666666657},{"name":"A3","midi":57,"time":112.51875000000001,"velocity":0.29133858267716534,"duration":0.09479166666666572},{"name":"A3","midi":57,"time":112.99791666666668,"velocity":0.29133858267716534,"duration":0.4739583333333286},{"name":"D4","midi":62,"time":113.48854166666668,"velocity":0.25196850393700787,"duration":0.0625},{"name":"D4","midi":62,"time":113.93645833333335,"velocity":0.33858267716535434,"duration":0.4802083333333229},{"name":"A3","midi":57,"time":114.39687500000001,"velocity":0.2992125984251969,"duration":0.08645833333332575},{"name":"A3","midi":57,"time":114.85520833333334,"velocity":0.3858267716535433,"duration":0.4541666666666657},{"name":"D4","midi":62,"time":115.36875,"velocity":0.1889763779527559,"duration":0.02916666666666856},{"name":"A3","midi":57,"time":115.78541666666668,"velocity":0.3700787401574803,"duration":0.5406249999999915},{"name":"D4","midi":62,"time":116.25833333333334,"velocity":0.36220472440944884,"duration":0.5614583333333343},{"name":"B3","midi":59,"time":116.715625,"velocity":0.4094488188976378,"duration":0.5406250000000057},{"name":"D4","midi":62,"time":117.21145833333334,"velocity":0.2755905511811024,"duration":0.4322916666666714},{"name":"B3","midi":59,"time":117.67812500000001,"velocity":0.2440944881889764,"duration":0.3802083333333286},{"name":"D4","midi":62,"time":118.09479166666667,"velocity":0.25984251968503935,"duration":0.4906249999999943},{"name":"B3","midi":59,"time":118.57083333333333,"velocity":0.25984251968503935,"duration":0.46145833333333997},{"name":"D4","midi":62,"time":119.075,"velocity":0.25196850393700787,"duration":0.4416666666666629},{"name":"B3","midi":59,"time":119.49583333333334,"velocity":0.30708661417322836,"duration":0.8604166666666657},{"name":"D4","midi":62,"time":119.94895833333334,"velocity":0.33858267716535434,"duration":0.5197916666666771},{"name":"A3","midi":57,"time":120.41458333333334,"velocity":0.41732283464566927,"duration":0.5739583333333371},{"name":"D4","midi":62,"time":120.89062500000001,"velocity":0.31496062992125984,"duration":0.5135416666666544},{"name":"A3","midi":57,"time":121.35416666666667,"velocity":0.2755905511811024,"duration":0.4895833333333286},{"name":"D4","midi":62,"time":121.79895833333333,"velocity":0.2047244094488189,"duration":0.4385416666666657},{"name":"A3","midi":57,"time":122.26458333333333,"velocity":0.25984251968503935,"duration":0.49166666666666003},{"name":"D4","midi":62,"time":122.72083333333333,"velocity":0.2677165354330709,"duration":0.45000000000000284},{"name":"A3","midi":57,"time":123.15520833333333,"velocity":0.3464566929133858,"duration":0.7562500000000085},{"name":"D4","midi":62,"time":123.60104166666667,"velocity":0.3779527559055118,"duration":0.48645833333334565},{"name":"G3","midi":55,"time":124.04583333333335,"velocity":0.4015748031496063,"duration":0.6072916666666686},{"name":"C4","midi":60,"time":124.52187500000002,"velocity":0.30708661417322836,"duration":0.4885416666666629},{"name":"G3","midi":55,"time":124.96041666666669,"velocity":0.25984251968503935,"duration":0.47604166666666003},{"name":"C4","midi":60,"time":125.44166666666668,"velocity":0.25984251968503935,"duration":0.42499999999999716},{"name":"G3","midi":55,"time":125.89166666666668,"velocity":0.33858267716535434,"duration":0.4166666666666714},{"name":"C4","midi":60,"time":126.33958333333335,"velocity":0.3228346456692913,"duration":0.4437499999999943},{"name":"G3","midi":55,"time":126.78750000000001,"velocity":0.33858267716535434,"duration":0.9343749999999886},{"name":"C4","midi":60,"time":127.24375,"velocity":0.3779527559055118,"duration":0.421875},{"name":"F#3","midi":54,"time":127.671875,"velocity":0.44881889763779526,"duration":0.5666666666666629},{"name":"D4","midi":62,"time":128.13541666666666,"velocity":0.33858267716535434,"duration":0.41979166666666856},{"name":"F#3","midi":54,"time":128.60625,"velocity":0.3464566929133858,"duration":0.41979166666666856},{"name":"D4","midi":62,"time":129.05208333333331,"velocity":0.29133858267716534,"duration":0.46562500000001705},{"name":"F#3","midi":54,"time":129.50833333333333,"velocity":0.2992125984251969,"duration":0.46562500000001705},{"name":"D4","midi":62,"time":130.003125,"velocity":0.2047244094488189,"duration":0.375},{"name":"F#3","midi":54,"time":130.3947916666667,"velocity":0.3464566929133858,"duration":0.9343749999999886},{"name":"D4","midi":62,"time":130.87500000000003,"velocity":0.33858267716535434,"duration":0.5020833333333314},{"name":"E3","midi":52,"time":131.30937500000002,"velocity":0.4094488188976378,"duration":0.5260416666666856},{"name":"D4","midi":62,"time":131.7760416666667,"velocity":0.29133858267716534,"duration":0.45104166666666856},{"name":"E3","midi":52,"time":132.2729166666667,"velocity":0.25984251968503935,"duration":0.45000000000001705},{"name":"D4","midi":62,"time":132.7041666666667,"velocity":0.31496062992125984,"duration":0.47187500000001137},{"name":"E3","midi":52,"time":133.15416666666673,"velocity":0.25196850393700787,"duration":0.5218749999999943},{"name":"D4","midi":62,"time":133.61770833333338,"velocity":0.29133858267716534,"duration":0.421875},{"name":"E3","midi":52,"time":134.0583333333334,"velocity":0.3228346456692913,"duration":0.4104166666666629},{"name":"D4","midi":62,"time":134.50416666666672,"velocity":0.4094488188976378,"duration":0.3958333333333428},{"name":"D3","midi":50,"time":134.95729166666672,"velocity":0.41732283464566927,"duration":0.6104166666666231},{"name":"B3","midi":59,"time":135.41666666666669,"velocity":0.33858267716535434,"duration":0.4937500000000057},{"name":"D3","midi":50,"time":135.86770833333335,"velocity":0.2440944881889764,"duration":0.46875},{"name":"B3","midi":59,"time":136.34062500000002,"velocity":0.2204724409448819,"duration":0.4260416666666629},{"name":"D3","midi":50,"time":136.775,"velocity":0.2440944881889764,"duration":0.5552083333333258},{"name":"B3","midi":59,"time":137.23958333333334,"velocity":0.25984251968503935,"duration":0.4697916666666515},{"name":"D3","midi":50,"time":137.69791666666666,"velocity":0.25984251968503935,"duration":0.8218750000000057},{"name":"B3","midi":59,"time":138.13125,"velocity":0.3543307086614173,"duration":0.5260416666666288},{"name":"C#3","midi":49,"time":138.55729166666666,"velocity":0.49606299212598426,"duration":0.595833333333303},{"name":"B3","midi":59,"time":139.04374999999996,"velocity":0.28346456692913385,"duration":0.53125},{"name":"C#3","midi":49,"time":139.46249999999995,"velocity":0.33858267716535434,"duration":0.4958333333333371},{"name":"B3","midi":59,"time":139.9770833333333,"velocity":0.18110236220472442,"duration":0.4802083333333371},{"name":"C#3","midi":49,"time":140.38437499999998,"velocity":0.3937007874015748,"duration":0.5395833333333258},{"name":"B3","midi":59,"time":140.84374999999997,"velocity":0.23622047244094488,"duration":0.5104166666666856},{"name":"C#3","midi":49,"time":141.30624999999998,"velocity":0.3228346456692913,"duration":0.5854166666666742},{"name":"B3","midi":59,"time":141.76770833333333,"velocity":0.33070866141732286,"duration":0.43958333333333144},{"name":"C3","midi":48,"time":142.21145833333333,"velocity":0.36220472440944884,"duration":0.6354166666666003},{"name":"A#3","midi":58,"time":142.69062499999993,"velocity":0.3937007874015748,"duration":0.43020833333332575},{"name":"C3","midi":48,"time":143.15312499999993,"velocity":0.2677165354330709,"duration":0.5135416666666686},{"name":"A#3","midi":58,"time":143.5697916666666,"velocity":0.4094488188976378,"duration":0.49270833333332575},{"name":"C3","midi":48,"time":144.04062499999992,"velocity":0.2440944881889764,"duration":0.4895833333333428},{"name":"A#3","midi":58,"time":144.45624999999993,"velocity":0.3779527559055118,"duration":0.4572916666666629},{"name":"C3","midi":48,"time":144.9385416666666,"velocity":0.23622047244094488,"duration":0.4124999999999943},{"name":"A#3","midi":58,"time":145.35520833333325,"velocity":0.3858267716535433,"duration":0.43541666666666856},{"name":"E3","midi":52,"time":145.7885416666666,"velocity":0.3464566929133858,"duration":0.4270833333333144},{"name":"B3","midi":59,"time":146.25520833333323,"velocity":0.1732283464566929,"duration":0.4416666666666629},{"name":"E3","midi":52,"time":146.71666666666655,"velocity":0.2283464566929134,"duration":0.36041666666667993},{"name":"B3","midi":59,"time":147.1437499999999,"velocity":0.2204724409448819,"duration":0.41354166666667425},{"name":"E3","midi":52,"time":147.59166666666658,"velocity":0.2204724409448819,"duration":0.4375},{"name":"B3","midi":59,"time":148.02604166666657,"velocity":0.25984251968503935,"duration":0.4333333333333371},{"name":"E3","midi":52,"time":148.47291666666658,"velocity":0.29133858267716534,"duration":0.8708333333333371},{"name":"B3","midi":59,"time":148.8968749999999,"velocity":0.3543307086614173,"duration":0.4531250000000284},{"name":"D3","midi":50,"time":149.3447916666666,"velocity":0.3464566929133858,"duration":0.5385416666666742},{"name":"B3","midi":59,"time":149.80208333333326,"velocity":0.2440944881889764,"duration":0.45000000000001705},{"name":"D3","midi":50,"time":150.23020833333328,"velocity":0.2440944881889764,"duration":0.47708333333332575},{"name":"B3","midi":59,"time":150.68333333333328,"velocity":0.2283464566929134,"duration":0.4416666666666629},{"name":"D3","midi":50,"time":151.12395833333326,"velocity":0.2283464566929134,"duration":0.45416666666667993},{"name":"B3","midi":59,"time":151.54062499999995,"velocity":0.25984251968503935,"duration":0.44583333333332575},{"name":"D3","midi":50,"time":151.9895833333333,"velocity":0.2992125984251969,"duration":0.41354166666667425},{"name":"B3","midi":59,"time":152.45312499999997,"velocity":0.33858267716535434,"duration":0.4281249999999943},{"name":"C#3","midi":49,"time":152.87291666666664,"velocity":0.4251968503937008,"duration":0.5197916666666345},{"name":"B3","midi":59,"time":153.31874999999997,"velocity":0.29133858267716534,"duration":0.4260416666666629},{"name":"C#3","midi":49,"time":153.72812499999995,"velocity":0.33858267716535434,"duration":0.47604166666667425},{"name":"B3","midi":59,"time":154.19687499999995,"velocity":0.2755905511811024,"duration":0.41354166666667425},{"name":"C#3","midi":49,"time":154.6072916666666,"velocity":0.3779527559055118,"duration":0.4677083333333485},{"name":"B3","midi":59,"time":155.07812499999997,"velocity":0.2755905511811024,"duration":0.42916666666667425},{"name":"C#3","midi":49,"time":155.49999999999997,"velocity":0.41732283464566927,"duration":0.40416666666666856},{"name":"B3","midi":59,"time":155.92187499999997,"velocity":0.4094488188976378,"duration":0.39375000000001137},{"name":"C3","midi":48,"time":156.36249999999998,"velocity":0.3700787401574803,"duration":0.5114583333333371},{"name":"A#3","midi":58,"time":156.79479166666664,"velocity":0.3779527559055118,"duration":0.45937500000002274},{"name":"C3","midi":48,"time":157.21979166666665,"velocity":0.31496062992125984,"duration":0.45104166666666856},{"name":"A#3","midi":58,"time":157.678125,"velocity":0.30708661417322836,"duration":0.4010416666666572},{"name":"C3","midi":48,"time":158.10937499999997,"velocity":0.31496062992125984,"duration":0.4604166666666458},{"name":"A#3","midi":58,"time":158.54166666666663,"velocity":0.31496062992125984,"duration":0.3864583333333087},{"name":"C3","midi":48,"time":159.0135416666666,"velocity":0.23622047244094488,"duration":0.4000000000000057},{"name":"A#3","midi":58,"time":159.44895833333328,"velocity":0.28346456692913385,"duration":0.4593749999999943},{"name":"E3","midi":52,"time":159.91249999999994,"velocity":0.25984251968503935,"duration":0.4687499999999716},{"name":"B3","midi":59,"time":160.36354166666658,"velocity":0.2440944881889764,"duration":0.4104166666666629},{"name":"E3","midi":52,"time":160.8093749999999,"velocity":0.2283464566929134,"duration":0.41458333333332575},{"name":"B3","midi":59,"time":161.24791666666655,"velocity":0.25196850393700787,"duration":0.42916666666667425},{"name":"E3","midi":52,"time":161.7031249999999,"velocity":0.2125984251968504,"duration":0.45624999999998295},{"name":"B3","midi":59,"time":162.14479166666655,"velocity":0.2440944881889764,"duration":0.43645833333332007},{"name":"E3","midi":52,"time":162.57916666666654,"velocity":0.2755905511811024,"duration":0.7333333333333201},{"name":"B3","midi":59,"time":163.03854166666653,"velocity":0.33070866141732286,"duration":0.49895833333332007},{"name":"D3","midi":50,"time":163.49062499999985,"velocity":0.3543307086614173,"duration":0.5322916666666515},{"name":"B3","midi":59,"time":163.9697916666665,"velocity":0.2440944881889764,"duration":0.4427083333333144},{"name":"D3","midi":50,"time":164.38645833333317,"velocity":0.25984251968503935,"duration":0.49374999999997726},{"name":"B3","midi":59,"time":164.8468749999998,"velocity":0.2677165354330709,"duration":0.4749999999999943},{"name":"D3","midi":50,"time":165.2906249999998,"velocity":0.2047244094488189,"duration":0.5427083333333371},{"name":"B3","midi":59,"time":165.7531249999998,"velocity":0.23622047244094488,"duration":0.40833333333333144},{"name":"D3","midi":50,"time":166.17812499999982,"velocity":0.2440944881889764,"duration":0.4104166666666629},{"name":"B3","midi":59,"time":166.6135416666665,"velocity":0.33070866141732286,"duration":0.5145833333333201},{"name":"C#3","midi":49,"time":167.05624999999984,"velocity":0.4409448818897638,"duration":0.4999999999999716},{"name":"B3","midi":59,"time":167.52083333333314,"velocity":0.2677165354330709,"duration":0.40312499999998863},{"name":"C#3","midi":49,"time":167.91770833333314,"velocity":0.33070866141732286,"duration":0.4437499999999943},{"name":"B3","midi":59,"time":168.41458333333313,"velocity":0.2204724409448819,"duration":0.48541666666667993},{"name":"C#3","midi":49,"time":168.8281249999998,"velocity":0.4094488188976378,"duration":0.5010416666666515},{"name":"B3","midi":59,"time":169.31666666666646,"velocity":0.29133858267716534,"duration":0.4104166666666629},{"name":"C#3","midi":49,"time":169.71979166666645,"velocity":0.4015748031496063,"duration":0.5229166666666742},{"name":"B3","midi":59,"time":170.21354166666646,"velocity":0.3464566929133858,"duration":0.3552083333333371},{"name":"C3","midi":48,"time":170.6468749999998,"velocity":0.3228346456692913,"duration":0.5072916666666458},{"name":"A#3","midi":58,"time":171.08229166666644,"velocity":0.3858267716535433,"duration":0.5124999999999886},{"name":"C3","midi":48,"time":171.57291666666643,"velocity":0.25984251968503935,"duration":0.3864583333333371},{"name":"A#3","midi":58,"time":171.97187499999976,"velocity":0.3464566929133858,"duration":0.43437499999998863},{"name":"C3","midi":48,"time":172.43020833333307,"velocity":0.29133858267716534,"duration":0.48229166666666856},{"name":"A#3","midi":58,"time":172.85208333333307,"velocity":0.3937007874015748,"duration":0.4416666666666629},{"name":"C3","midi":48,"time":173.3072916666664,"velocity":0.2755905511811024,"duration":0.4020833333333371},{"name":"A#3","midi":58,"time":173.74374999999975,"velocity":0.33070866141732286,"duration":0.4260416666666629},{"name":"B3","midi":59,"time":174.67395833333305,"velocity":0.23622047244094488,"duration":0.37708333333333144},{"name":"B3","midi":59,"time":175.53229166666637,"velocity":0.2283464566929134,"duration":0.4104166666666629},{"name":"B3","midi":59,"time":176.4124999999997,"velocity":0.2047244094488189,"duration":0.37187499999998863},{"name":"B3","midi":59,"time":177.28645833333303,"velocity":0.25196850393700787,"duration":0.47604166666667425},{"name":"B3","midi":59,"time":178.19479166666633,"velocity":0.2283464566929134,"duration":0.40625},{"name":"B3","midi":59,"time":179.05416666666633,"velocity":0.2204724409448819,"duration":0.4281249999999943},{"name":"B3","midi":59,"time":179.911458333333,"velocity":0.25984251968503935,"duration":0.47708333333332575},{"name":"B3","midi":59,"time":180.80624999999966,"velocity":0.2992125984251969,"duration":0.3125},{"name":"A3","midi":57,"time":181.70729166666635,"velocity":0.2047244094488189,"duration":0.4281249999999943},{"name":"A3","midi":57,"time":182.53541666666635,"velocity":0.2440944881889764,"duration":0.46562499999998863},{"name":"A3","midi":57,"time":183.42604166666635,"velocity":0.2047244094488189,"duration":0.42916666666667425},{"name":"A3","midi":57,"time":184.2906249999997,"velocity":0.2677165354330709,"duration":0.038541666666674246},{"name":"B3","midi":59,"time":191.25624999999962,"velocity":0.25984251968503935,"duration":0.48333333333332007},{"name":"B3","midi":59,"time":194.69583333333293,"velocity":0.3543307086614173,"duration":0.28958333333332575},{"name":"A3","midi":57,"time":198.12812499999956,"velocity":0.33858267716535434,"duration":0.07604166666666856},{"name":"B3","midi":59,"time":204.99791666666616,"velocity":0.3779527559055118,"duration":0.5166666666666799},{"name":"B3","midi":59,"time":208.52916666666619,"velocity":0.3937007874015748,"duration":0.20729166666666288},{"name":"A3","midi":57,"time":211.96874999999946,"velocity":0.3937007874015748,"duration":0.056250000000005684},{"name":"B3","midi":59,"time":218.8197916666661,"velocity":0.4566929133858268,"duration":0.4677083333333485},{"name":"B3","midi":59,"time":222.25208333333273,"velocity":0.47244094488188976,"duration":0.05937499999998863},{"name":"B3","midi":59,"time":232.40729166666608,"velocity":0.5275590551181102,"duration":0.42083333333332007},{"name":"B3","midi":59,"time":235.74166666666608,"velocity":0.5590551181102362,"duration":0.07708333333332007},{"name":"A3","midi":57,"time":239.08333333333275,"velocity":0.5354330708661418,"duration":0.06562500000001137},{"name":"B3","midi":59,"time":245.79062499999935,"velocity":0.5275590551181102,"duration":0.296875},{"name":"B3","midi":59,"time":249.1489583333327,"velocity":0.5590551181102362,"duration":0.05729166666665719},{"name":"A3","midi":57,"time":252.46562499999936,"velocity":0.5826771653543307,"duration":0.05208333333334281},{"name":"B3","midi":59,"time":256.63645833333266,"velocity":0.3779527559055118,"duration":0.10000000000002274},{"name":"E3","midi":52,"time":257.041666666666,"velocity":0.4251968503937008,"duration":0.4124999999999659},{"name":"B3","midi":59,"time":257.4531249999993,"velocity":0.47244094488188976,"duration":0.13749999999998863},{"name":"E3","midi":52,"time":257.90104166666595,"velocity":0.48031496062992124,"duration":0.35208333333332575},{"name":"B3","midi":59,"time":258.2895833333326,"velocity":0.48031496062992124,"duration":0.20937500000002274},{"name":"E3","midi":52,"time":258.71041666666594,"velocity":0.49606299212598426,"duration":0.38854166666664014},{"name":"B3","midi":59,"time":259.12708333333256,"velocity":0.4330708661417323,"duration":0.04062499999997726},{"name":"C#4","midi":61,"time":259.9645833333325,"velocity":0.5669291338582677,"duration":0.27916666666664014},{"name":"D3","midi":50,"time":260.38749999999914,"velocity":0.49606299212598426,"duration":0.43437499999998863},{"name":"C#4","midi":61,"time":260.81249999999915,"velocity":0.5905511811023622,"duration":0.3791666666666629},{"name":"D3","midi":50,"time":261.21562499999914,"velocity":0.5275590551181102,"duration":0.4781250000000341},{"name":"C#4","midi":61,"time":261.6447916666658,"velocity":0.5118110236220472,"duration":0.2937500000000455},{"name":"D3","midi":50,"time":262.0499999999992,"velocity":0.4645669291338583,"duration":0.3708333333333371},{"name":"C#4","midi":61,"time":262.47083333333256,"velocity":0.5433070866141733,"duration":0.04895833333335986},{"name":"B3","midi":59,"time":263.2770833333325,"velocity":0.5196850393700787,"duration":0.4229166666666515},{"name":"C3","midi":48,"time":263.70312499999915,"velocity":0.4251968503937008,"duration":0.41979166666664014},{"name":"B3","midi":59,"time":264.1135416666658,"velocity":0.5196850393700787,"duration":0.44166666666660603},{"name":"C3","midi":48,"time":264.50729166666576,"velocity":0.5354330708661418,"duration":0.46145833333332575},{"name":"B3","midi":59,"time":264.95729166666575,"velocity":0.5354330708661418,"duration":0.36250000000001137},{"name":"C3","midi":48,"time":265.36354166666575,"velocity":0.5275590551181102,"duration":0.39375000000001137},{"name":"B3","midi":59,"time":265.78854166666576,"velocity":0.3779527559055118,"duration":0.03229166666665151},{"name":"A2","midi":45,"time":266.99479166666566,"velocity":0.5511811023622047,"duration":0.296875},{"name":"A2","midi":45,"time":267.84791666666564,"velocity":0.5748031496062992,"duration":0.20104166666664014},{"name":"A2","midi":45,"time":268.6729166666656,"velocity":0.5669291338582677,"duration":0.28125},{"name":"E3","midi":52,"time":270.3135416666656,"velocity":0.5748031496062992,"duration":0.421875},{"name":"E3","midi":52,"time":271.1854166666656,"velocity":0.5826771653543307,"duration":0.40312499999998863},{"name":"E3","midi":52,"time":272.0072916666656,"velocity":0.5748031496062992,"duration":0.40416666666664014},{"name":"B3","midi":59,"time":272.42708333333223,"velocity":0.5590551181102362,"duration":0.04895833333335986},{"name":"D3","midi":50,"time":273.66458333333213,"velocity":0.5511811023622047,"duration":0.19375000000002274},{"name":"D3","midi":50,"time":274.5312499999988,"velocity":0.5196850393700787,"duration":0.37812500000001137},{"name":"D3","midi":50,"time":275.3749999999988,"velocity":0.5354330708661418,"duration":0.41250000000002274},{"name":"B3","midi":59,"time":275.7895833333322,"velocity":0.5196850393700787,"duration":0.04062499999997726},{"name":"C3","midi":48,"time":277.0218749999987,"velocity":0.4881889763779528,"duration":0.3854166666666856},{"name":"C3","midi":48,"time":277.8916666666654,"velocity":0.3937007874015748,"duration":0.39791666666667425},{"name":"C3","midi":48,"time":278.70520833333205,"velocity":0.5590551181102362,"duration":0.4208333333333485},{"name":"B3","midi":59,"time":279.1333333333321,"velocity":0.5354330708661418,"duration":0.06145833333334849},{"name":"A2","midi":45,"time":280.37708333333194,"velocity":0.5826771653543307,"duration":0.265625},{"name":"A2","midi":45,"time":281.2031249999986,"velocity":0.6220472440944882,"duration":0.26354166666664014},{"name":"A2","midi":45,"time":282.00624999999854,"velocity":0.5826771653543307,"duration":0.33749999999997726},{"name":"D4","midi":62,"time":283.2531249999984,"velocity":0.3779527559055118,"duration":0.13437499999997726},{"name":"B3","midi":59,"time":283.64166666666506,"velocity":0.2992125984251969,"duration":0.4052083333333485},{"name":"D4","midi":62,"time":284.08645833333173,"velocity":0.30708661417322836,"duration":0.2604166666666856},{"name":"B3","midi":59,"time":284.48645833333177,"velocity":0.29133858267716534,"duration":0.3958333333333144},{"name":"D4","midi":62,"time":284.9197916666651,"velocity":0.3228346456692913,"duration":0.36145833333335986},{"name":"B3","midi":59,"time":285.3645833333318,"velocity":0.2047244094488189,"duration":0.4260416666666629},{"name":"D4","midi":62,"time":285.77499999999844,"velocity":0.3464566929133858,"duration":0.03229166666665151},{"name":"D4","midi":62,"time":286.6458333333317,"velocity":0.2125984251968504,"duration":0.19479166666667425},{"name":"B3","midi":59,"time":286.99895833333176,"velocity":0.23622047244094488,"duration":0.26249999999998863},{"name":"D4","midi":62,"time":287.3937499999984,"velocity":0.28346456692913385,"duration":0.3864583333333371},{"name":"B3","midi":59,"time":287.8354166666651,"velocity":0.23622047244094488,"duration":0.3958333333333144},{"name":"D4","midi":62,"time":288.2406249999984,"velocity":0.31496062992125984,"duration":0.3125},{"name":"B3","midi":59,"time":288.6458333333317,"velocity":0.2992125984251969,"duration":0.453125},{"name":"D4","midi":62,"time":289.06666666666507,"velocity":0.4015748031496063,"duration":0.04583333333329165},{"name":"D4","midi":62,"time":289.9593749999984,"velocity":0.23622047244094488,"duration":0.055208333333325754},{"name":"B3","midi":59,"time":290.3499999999984,"velocity":0.25984251968503935,"duration":0.37187499999998863},{"name":"D4","midi":62,"time":290.7677083333317,"velocity":0.31496062992125984,"duration":0.46666666666664014},{"name":"B3","midi":59,"time":291.210416666665,"velocity":0.25196850393700787,"duration":0.3395833333333371},{"name":"D4","midi":62,"time":291.632291666665,"velocity":0.25984251968503935,"duration":0.3395833333333371},{"name":"B3","midi":59,"time":292.04687499999835,"velocity":0.25196850393700787,"duration":0.4697916666666515},{"name":"D4","midi":62,"time":292.485416666665,"velocity":0.33858267716535434,"duration":0.04583333333334849},{"name":"D4","midi":62,"time":293.36249999999825,"velocity":0.33858267716535434,"duration":0.08958333333333712},{"name":"B3","midi":59,"time":293.76354166666493,"velocity":0.29133858267716534,"duration":0.31458333333335986},{"name":"D4","midi":62,"time":294.1906249999983,"velocity":0.29133858267716534,"duration":0.26875000000001137},{"name":"B3","midi":59,"time":294.63229166666497,"velocity":0.2283464566929134,"duration":0.3583333333333485},{"name":"D4","midi":62,"time":295.06458333333165,"velocity":0.29133858267716534,"duration":0.12291666666664014},{"name":"B3","midi":59,"time":295.52708333333163,"velocity":0.2047244094488189,"duration":0.5145833333332916},{"name":"D4","midi":62,"time":296.0364583333316,"velocity":0.33070866141732286,"duration":0.07083333333332575},{"name":"E4","midi":64,"time":297.3749999999982,"velocity":0.29133858267716534,"duration":0.19062500000001137},{"name":"B3","midi":59,"time":297.7614583333315,"velocity":0.3228346456692913,"duration":0.20625000000001137},{"name":"E4","midi":64,"time":298.20729166666484,"velocity":0.2677165354330709,"duration":0.10520833333333712},{"name":"D4","midi":62,"time":298.6458333333315,"velocity":0.2755905511811024,"duration":0.04374999999998863},{"name":"E4","midi":64,"time":299.0447916666648,"velocity":0.3779527559055118,"duration":0.2354166666666515},{"name":"B3","midi":59,"time":299.5072916666648,"velocity":0.2204724409448819,"duration":0.13749999999998863},{"name":"E4","midi":64,"time":299.94895833333146,"velocity":0.2755905511811024,"duration":0.03333333333335986},{"name":"E4","midi":64,"time":300.8343749999981,"velocity":0.33070866141732286,"duration":0.24374999999997726},{"name":"D4","midi":62,"time":301.2406249999981,"velocity":0.4015748031496063,"duration":0.18333333333333712},{"name":"E4","midi":64,"time":301.66145833333144,"velocity":0.30708661417322836,"duration":0.13854166666664014},{"name":"B3","midi":59,"time":302.09374999999807,"velocity":0.2992125984251969,"duration":0.057291666666685614},{"name":"E4","midi":64,"time":302.50520833333144,"velocity":0.30708661417322836,"duration":0.08854166666668561},{"name":"D4","midi":62,"time":302.9499999999981,"velocity":0.2755905511811024,"duration":0.08541666666667425},{"name":"E4","midi":64,"time":303.4135416666648,"velocity":0.25196850393700787,"duration":0.04270833333333712},{"name":"E4","midi":64,"time":304.3666666666648,"velocity":0.28346456692913385,"duration":0.10208333333332575},{"name":"B3","midi":59,"time":304.7520833333315,"velocity":0.3464566929133858,"duration":0.15625},{"name":"E4","midi":64,"time":305.1635416666648,"velocity":0.2992125984251969,"duration":0.21562499999998863},{"name":"D4","midi":62,"time":305.6239583333315,"velocity":0.30708661417322836,"duration":0.04895833333335986},{"name":"E4","midi":64,"time":306.02187499999815,"velocity":0.2125984251968504,"duration":0.24062500000002274},{"name":"B3","midi":59,"time":306.44687499999816,"velocity":0.28346456692913385,"duration":0.07916666666665151},{"name":"E4","midi":64,"time":306.86041666666483,"velocity":0.3464566929133858,"duration":0.04895833333335986},{"name":"E4","midi":64,"time":307.74374999999816,"velocity":0.25984251968503935,"duration":0.19270833333331439},{"name":"D4","midi":62,"time":308.1770833333315,"velocity":0.3228346456692913,"duration":0.036458333333314386},{"name":"E4","midi":64,"time":308.5885416666648,"velocity":0.14173228346456693,"duration":0.296875},{"name":"B3","midi":59,"time":309.00937499999816,"velocity":0.2755905511811024,"duration":0.21458333333333712},{"name":"E4","midi":64,"time":309.4843749999982,"velocity":0.2204724409448819,"duration":0.12187499999998863},{"name":"D4","midi":62,"time":309.9302083333315,"velocity":0.2440944881889764,"duration":0.09270833333334849},{"name":"E4","midi":64,"time":310.3729166666649,"velocity":0.33858267716535434,"duration":0.08958333333328028},{"name":"E4","midi":64,"time":311.59999999999803,"velocity":0.29133858267716534,"duration":0.35624999999998863},{"name":"B3","midi":59,"time":311.99374999999804,"velocity":0.3779527559055118,"duration":0.37708333333335986},{"name":"E4","midi":64,"time":312.4145833333314,"velocity":0.2992125984251969,"duration":0.33437500000002274},{"name":"D4","midi":62,"time":312.82812499999807,"velocity":0.36220472440944884,"duration":0.06666666666666288},{"name":"E4","midi":64,"time":313.2322916666647,"velocity":0.36220472440944884,"duration":0.17916666666667425},{"name":"B3","midi":59,"time":313.67395833333137,"velocity":0.2755905511811024,"duration":0.07499999999998863},{"name":"E4","midi":64,"time":314.140624999998,"velocity":0.25984251968503935,"duration":0.020833333333314386},{"name":"E4","midi":64,"time":315.04895833333137,"velocity":0.3464566929133858,"duration":0.421875},{"name":"D4","midi":62,"time":315.48020833333135,"velocity":0.3779527559055118,"duration":0.41874999999998863},{"name":"E4","midi":64,"time":315.8645833333313,"velocity":0.3228346456692913,"duration":0.24270833333332575},{"name":"B3","midi":59,"time":316.281249999998,"velocity":0.3700787401574803,"duration":0.11041666666665151},{"name":"E4","midi":64,"time":316.6791666666647,"velocity":0.3543307086614173,"duration":0.14270833333335986},{"name":"D4","midi":62,"time":317.10937499999807,"velocity":0.30708661417322836,"duration":0.10624999999998863},{"name":"E4","midi":64,"time":317.5677083333314,"velocity":0.2755905511811024,"duration":0.020833333333314386},{"name":"E4","midi":64,"time":318.5052083333314,"velocity":0.3779527559055118,"duration":0.4177083333333371},{"name":"B3","midi":59,"time":318.92083333333136,"velocity":0.4094488188976378,"duration":0.4208333333333485},{"name":"E4","midi":64,"time":319.32499999999806,"velocity":0.4251968503937008,"duration":0.20625000000001137},{"name":"D4","midi":62,"time":319.7354166666647,"velocity":0.4409448818897638,"duration":0.140625},{"name":"E4","midi":64,"time":320.15520833333136,"velocity":0.36220472440944884,"duration":0.18333333333333712},{"name":"B3","midi":59,"time":320.57395833333135,"velocity":0.2755905511811024,"duration":0.09270833333334849},{"name":"E4","midi":64,"time":321.02395833333134,"velocity":0.2440944881889764,"duration":0.012499999999988631},{"name":"E4","midi":64,"time":321.8635416666647,"velocity":0.30708661417322836,"duration":0.27291666666667425},{"name":"D4","midi":62,"time":322.29895833333137,"velocity":0.33858267716535434,"duration":0.13125000000002274},{"name":"E4","midi":64,"time":322.7239583333314,"velocity":0.3464566929133858,"duration":0.18333333333333712},{"name":"B3","midi":59,"time":323.1437499999981,"velocity":0.2755905511811024,"duration":0.11979166666668561},{"name":"E4","midi":64,"time":323.5624999999981,"velocity":0.25984251968503935,"duration":0.1260416666666515},{"name":"D4","midi":62,"time":324.01145833333146,"velocity":0.2677165354330709,"duration":0.04062499999997726},{"name":"E4","midi":64,"time":324.47395833333144,"velocity":0.30708661417322836,"duration":0.06354166666665151},{"name":"E4","midi":64,"time":326.1427083333314,"velocity":0.41732283464566927,"duration":0.4052083333333485},{"name":"B3","midi":59,"time":326.5749999999981,"velocity":0.3858267716535433,"duration":0.421875},{"name":"E4","midi":64,"time":326.98749999999814,"velocity":0.4015748031496063,"duration":0.423958333333303},{"name":"D4","midi":62,"time":327.43333333333146,"velocity":0.36220472440944884,"duration":0.37187499999998863},{"name":"E4","midi":64,"time":327.8427083333315,"velocity":0.3464566929133858,"duration":0.37812500000001137},{"name":"B3","midi":59,"time":328.29270833333146,"velocity":0.2755905511811024,"duration":0.3895833333333485},{"name":"E4","midi":64,"time":328.7635416666648,"velocity":0.2440944881889764,"duration":0.014583333333348492},{"name":"E4","midi":64,"time":329.8802083333314,"velocity":0.3779527559055118,"duration":0.43645833333329165},{"name":"D4","midi":62,"time":330.284374999998,"velocity":0.4330708661417323,"duration":0.4229166666666515},{"name":"E4","midi":64,"time":330.7104166666647,"velocity":0.4015748031496063,"duration":0.45625000000001137},{"name":"B3","midi":59,"time":331.109374999998,"velocity":0.4094488188976378,"duration":0.4177083333333371},{"name":"E4","midi":64,"time":331.5697916666647,"velocity":0.33070866141732286,"duration":0.41562499999997726},{"name":"D4","midi":62,"time":332.0364583333313,"velocity":0.2440944881889764,"duration":0.40312499999998863},{"name":"E4","midi":64,"time":332.46145833333134,"velocity":0.25196850393700787,"duration":0.01770833333335986},{"name":"E4","midi":64,"time":333.4770833333314,"velocity":0.3464566929133858,"duration":0.3697916666666856},{"name":"D4","midi":62,"time":333.8781249999981,"velocity":0.3937007874015748,"duration":0.4260416666666629},{"name":"E4","midi":64,"time":334.33229166666473,"velocity":0.4015748031496063,"duration":0.3739583333333485},{"name":"B3","midi":59,"time":334.7249999999981,"velocity":0.4015748031496063,"duration":0.38333333333332575},{"name":"E4","midi":64,"time":335.15624999999807,"velocity":0.4094488188976378,"duration":0.40937500000001137},{"name":"D4","midi":62,"time":335.6124999999981,"velocity":0.33858267716535434,"duration":0.43124999999997726},{"name":"E4","midi":64,"time":336.08541666666474,"velocity":0.29133858267716534,"duration":0.012499999999988631},{"name":"E4","midi":64,"time":337.0427083333313,"velocity":0.1889763779527559,"duration":0.3635416666666629},{"name":"D4","midi":62,"time":337.4083333333313,"velocity":0.33070866141732286,"duration":0.46666666666664014},{"name":"E4","midi":64,"time":337.83124999999797,"velocity":0.31496062992125984,"duration":0.38333333333332575},{"name":"B3","midi":59,"time":338.256249999998,"velocity":0.30708661417322836,"duration":0.5208333333333144},{"name":"E4","midi":64,"time":338.68541666666465,"velocity":0.25984251968503935,"duration":0.4416666666666629},{"name":"D4","midi":62,"time":339.1614583333313,"velocity":0.2440944881889764,"duration":0.5593749999999886},{"name":"E4","midi":64,"time":339.75104166666466,"velocity":0.2440944881889764,"duration":0.011458333333337123},{"name":"E4","midi":64,"time":340.9614583333313,"velocity":0.3779527559055118,"duration":0.4677083333333485},{"name":"B3","midi":59,"time":341.41874999999794,"velocity":0.4409448818897638,"duration":0.43958333333335986},{"name":"E4","midi":64,"time":341.9020833333313,"velocity":0.3464566929133858,"duration":0.4333333333333371},{"name":"D4","midi":62,"time":342.29479166666465,"velocity":0.3858267716535433,"duration":0.43645833333329165},{"name":"E4","midi":64,"time":342.7583333333313,"velocity":0.33858267716535434,"duration":0.44687499999997726},{"name":"B3","midi":59,"time":343.21770833333125,"velocity":0.31496062992125984,"duration":0.4583333333333144},{"name":"E4","midi":64,"time":343.76354166666454,"velocity":0.18110236220472442,"duration":0.02916666666664014},{"name":"E4","midi":64,"time":344.7343749999978,"velocity":0.33070866141732286,"duration":0.4333333333333371},{"name":"D4","midi":62,"time":345.17916666666446,"velocity":0.3779527559055118,"duration":0.5114583333333371},{"name":"E4","midi":64,"time":345.63958333333113,"velocity":0.28346456692913385,"duration":0.3802083333333144},{"name":"B3","midi":59,"time":346.06354166666443,"velocity":0.3228346456692913,"duration":0.38749999999998863},{"name":"E4","midi":64,"time":346.5312499999978,"velocity":0.2755905511811024,"duration":0.43958333333335986},{"name":"D4","midi":62,"time":347.0197916666645,"velocity":0.28346456692913385,"duration":0.47812499999997726},{"name":"E4","midi":64,"time":347.49999999999784,"velocity":0.28346456692913385,"duration":0.03333333333335986},{"name":"E4","midi":64,"time":348.54062499999776,"velocity":0.3937007874015748,"duration":0.4114583333333144},{"name":"B3","midi":59,"time":348.98541666666443,"velocity":0.4094488188976378,"duration":0.43124999999997726},{"name":"E4","midi":64,"time":349.4270833333311,"velocity":0.36220472440944884,"duration":0.39375000000001137},{"name":"D4","midi":62,"time":349.8572916666644,"velocity":0.3779527559055118,"duration":0.4739583333333144},{"name":"E4","midi":64,"time":350.32187499999776,"velocity":0.29133858267716534,"duration":0.4020833333333371},{"name":"B3","midi":59,"time":350.7760416666644,"velocity":0.31496062992125984,"duration":0.43541666666664014},{"name":"E4","midi":64,"time":351.29270833333106,"velocity":0.33070866141732286,"duration":0.06562500000001137},{"name":"E4","midi":64,"time":352.43437499999766,"velocity":0.14960629921259844,"duration":0.3541666666666856},{"name":"D4","midi":62,"time":352.79687499999767,"velocity":0.33858267716535434,"duration":0.5395833333333258},{"name":"E4","midi":64,"time":353.239583333331,"velocity":0.3858267716535433,"duration":0.39687500000002274},{"name":"B3","midi":59,"time":353.65624999999767,"velocity":0.3464566929133858,"duration":0.3947916666666629},{"name":"E4","midi":64,"time":354.133333333331,"velocity":0.3228346456692913,"duration":0.49687499999998863},{"name":"D4","midi":62,"time":354.664583333331,"velocity":0.3464566929133858,"duration":0.6552083333333485},{"name":"E4","midi":64,"time":355.22604166666434,"velocity":0.2992125984251969,"duration":0.4427083333333144},{"name":"B3","midi":59,"time":355.67187499999767,"velocity":0.2677165354330709,"duration":0.6479166666666742},{"name":"E4","midi":64,"time":356.10937499999767,"velocity":0.36220472440944884,"duration":0.4854166666666515},{"name":"D4","midi":62,"time":356.552083333331,"velocity":0.36220472440944884,"duration":0.5427083333333371},{"name":"E4","midi":64,"time":356.9874999999977,"velocity":0.3779527559055118,"duration":0.38854166666664014},{"name":"B3","midi":59,"time":357.417708333331,"velocity":0.33858267716535434,"duration":0.39999999999997726},{"name":"E4","midi":64,"time":357.877083333331,"velocity":0.2755905511811024,"duration":0.38125000000002274},{"name":"D4","midi":62,"time":358.3260416666643,"velocity":0.2677165354330709,"duration":0.4416666666666629},{"name":"E4","midi":64,"time":358.7729166666643,"velocity":0.23622047244094488,"duration":0.4208333333333485},{"name":"B3","midi":59,"time":359.2343749999976,"velocity":0.23622047244094488,"duration":0.3239583333333371},{"name":"E4","midi":64,"time":359.7072916666643,"velocity":0.14173228346456693,"duration":0.38749999999998863},{"name":"D4","midi":62,"time":360.1281249999976,"velocity":0.2440944881889764,"duration":0.45625000000001137},{"name":"E4","midi":64,"time":360.5499999999976,"velocity":0.31496062992125984,"duration":0.455208333333303},{"name":"B3","midi":59,"time":360.9916666666643,"velocity":0.33858267716535434,"duration":0.3666666666666174},{"name":"E4","midi":64,"time":361.46041666666423,"velocity":0.2204724409448819,"duration":0.38749999999998863},{"name":"D4","midi":62,"time":361.87812499999757,"velocity":0.2677165354330709,"duration":0.4729166666666629},{"name":"E4","midi":64,"time":362.29999999999757,"velocity":0.25984251968503935,"duration":0.421875},{"name":"B3","midi":59,"time":362.7385416666642,"velocity":0.25984251968503935,"duration":0.5854166666666742},{"name":"E4","midi":64,"time":363.18749999999756,"velocity":0.25984251968503935,"duration":0.36562500000002274},{"name":"D4","midi":62,"time":363.6374999999976,"velocity":0.1968503937007874,"duration":0.4177083333333371},{"name":"E4","midi":64,"time":364.0562499999976,"velocity":0.1889763779527559,"duration":0.3958333333333144},{"name":"B3","midi":59,"time":364.5062499999976,"velocity":0.1968503937007874,"duration":0.6010416666666742},{"name":"E4","midi":64,"time":364.9489583333309,"velocity":0.1732283464566929,"duration":0.40833333333335986},{"name":"D4","midi":62,"time":365.4270833333309,"velocity":0.1889763779527559,"duration":0.5218749999999659},{"name":"B4","midi":71,"time":365.6312499999976,"velocity":0.2204724409448819,"duration":0.19895833333333712},{"name":"E4","midi":64,"time":365.87291666666425,"velocity":0.15748031496062992,"duration":0.4072916666666515},{"name":"B3","midi":59,"time":366.2833333333309,"velocity":0.2283464566929134,"duration":0.30624999999997726},{"name":"B3","midi":59,"time":366.7333333333309,"velocity":0.2047244094488189,"duration":0.21249999999997726},{"name":"E4","midi":64,"time":367.21249999999753,"velocity":0.25196850393700787,"duration":0.11979166666668561},{"name":"E4","midi":64,"time":367.66562499999753,"velocity":0.25984251968503935,"duration":0.31458333333335986},{"name":"B3","midi":59,"time":368.1156249999976,"velocity":0.2440944881889764,"duration":0.1260416666666515},{"name":"B3","midi":59,"time":368.6031249999976,"velocity":0.2125984251968504,"duration":0.22916666666668561},{"name":"E4","midi":64,"time":369.10729166666425,"velocity":0.11023622047244094,"duration":0.12291666666664014},{"name":"E4","midi":64,"time":369.5864583333309,"velocity":0.2047244094488189,"duration":0.2333333333333485},{"name":"B3","midi":59,"time":370.0802083333309,"velocity":0.25984251968503935,"duration":0.19791666666668561},{"name":"B3","midi":59,"time":370.62395833333096,"velocity":0.14173228346456693,"duration":0.20937500000002274},{"name":"D4","midi":62,"time":371.117708333331,"velocity":0.25984251968503935,"duration":0.1708333333333485},{"name":"D4","midi":62,"time":371.64062499999767,"velocity":0.2204724409448819,"duration":0.22500000000002274},{"name":"B3","midi":59,"time":372.155208333331,"velocity":0.2047244094488189,"duration":0.171875},{"name":"B3","midi":59,"time":372.72604166666434,"velocity":0.14173228346456693,"duration":0.1572916666666515},{"name":"D4","midi":62,"time":373.24999999999767,"velocity":0.2440944881889764,"duration":0.11562500000002274},{"name":"D4","midi":62,"time":373.8499999999977,"velocity":0.1732283464566929,"duration":0.09583333333335986},{"name":"B3","midi":59,"time":374.4749999999977,"velocity":0.1889763779527559,"duration":0.1708333333333485},{"name":"B3","midi":59,"time":375.07083333333105,"velocity":0.2283464566929134,"duration":0.6187499999999773},{"name":"D4","midi":62,"time":375.6062499999977,"velocity":0.25984251968503935,"duration":0.09583333333330302},{"name":"D4","midi":62,"time":376.1416666666644,"velocity":0.2047244094488189,"duration":0.22291666666666288},{"name":"B3","midi":59,"time":376.6531249999977,"velocity":0.2440944881889764,"duration":0.11041666666665151},{"name":"B3","midi":59,"time":377.13333333333105,"velocity":0.23622047244094488,"duration":0.4958333333333371},{"name":"D4","midi":62,"time":377.4208333333311,"velocity":0.2755905511811024,"duration":0.2510416666666515},{"name":"D4","midi":62,"time":378.20833333333104,"velocity":0.2047244094488189,"duration":0.4416666666666629},{"name":"B3","midi":59,"time":378.65833333333103,"velocity":0.28346456692913385,"duration":0.1864583333333485},{"name":"B3","midi":59,"time":379.18020833333105,"velocity":0.2204724409448819,"duration":0.171875},{"name":"D4","midi":62,"time":379.6708333333311,"velocity":0.28346456692913385,"duration":0.13020833333331439},{"name":"D4","midi":62,"time":380.15937499999774,"velocity":0.2755905511811024,"duration":0.16666666666668561},{"name":"B3","midi":59,"time":380.67499999999774,"velocity":0.28346456692913385,"duration":0.09166666666664014},{"name":"B3","midi":59,"time":381.1781249999977,"velocity":0.2440944881889764,"duration":0.6052083333333371},{"name":"D4","midi":62,"time":381.4156249999977,"velocity":0.28346456692913385,"duration":0.31562500000001137},{"name":"D4","midi":62,"time":381.92187499999767,"velocity":0.29133858267716534,"duration":0.20625000000001137},{"name":"D4","midi":62,"time":382.402083333331,"velocity":0.1968503937007874,"duration":0.2864583333333144},{"name":"A3","midi":57,"time":382.708333333331,"velocity":0.1889763779527559,"duration":0.16874999999998863},{"name":"A3","midi":57,"time":383.17604166666433,"velocity":0.2755905511811024,"duration":0.5854166666666742},{"name":"D4","midi":62,"time":383.66666666666436,"velocity":0.29133858267716534,"duration":0.14479166666666288},{"name":"D4","midi":62,"time":384.17604166666433,"velocity":0.2992125984251969,"duration":0.5541666666666742},{"name":"A3","midi":57,"time":384.65104166666436,"velocity":0.28346456692913385,"duration":0.21562499999998863},{"name":"A3","midi":57,"time":385.15416666666437,"velocity":0.25984251968503935,"duration":0.5041666666666629},{"name":"D4","midi":62,"time":385.4229166666644,"velocity":0.2755905511811024,"duration":0.34166666666664014},{"name":"D4","midi":62,"time":386.16666666666436,"velocity":0.29133858267716534,"duration":0.2541666666666629},{"name":"A3","midi":57,"time":386.66041666666433,"velocity":0.2677165354330709,"duration":0.16874999999998863},{"name":"A3","midi":57,"time":387.14479166666433,"velocity":0.2677165354330709,"duration":0.23229166666664014},{"name":"D4","midi":62,"time":387.627083333331,"velocity":0.3228346456692913,"duration":0.16562499999997726},{"name":"D4","midi":62,"time":388.1322916666643,"velocity":0.30708661417322836,"duration":0.44375000000002274},{"name":"A3","midi":57,"time":388.63124999999764,"velocity":0.29133858267716534,"duration":0.10520833333333712},{"name":"A3","midi":57,"time":389.13749999999766,"velocity":0.29133858267716534,"duration":0.4322916666666856},{"name":"D4","midi":62,"time":389.62916666666433,"velocity":0.2677165354330709,"duration":0.12083333333333712},{"name":"D4","midi":62,"time":390.139583333331,"velocity":0.2677165354330709,"duration":0.4020833333333371},{"name":"B3","midi":59,"time":390.59791666666433,"velocity":0.33858267716535434,"duration":0.345833333333303},{"name":"B3","midi":59,"time":391.11562499999764,"velocity":0.2204724409448819,"duration":0.3239583333333371},{"name":"D4","midi":62,"time":391.6166666666643,"velocity":0.25984251968503935,"duration":0.10520833333333712},{"name":"D4","midi":62,"time":392.1041666666643,"velocity":0.1889763779527559,"duration":0.4729166666666629},{"name":"B3","midi":59,"time":392.58437499999764,"velocity":0.23622047244094488,"duration":0.20625000000001137},{"name":"B3","midi":59,"time":393.13958333333096,"velocity":0.14173228346456693,"duration":0.546875},{"name":"D4","midi":62,"time":393.3885416666643,"velocity":0.2204724409448819,"duration":0.39375000000001137},{"name":"D4","midi":62,"time":394.16041666666433,"velocity":0.2677165354330709,"duration":0.4333333333333371},{"name":"B3","midi":59,"time":394.63541666666436,"velocity":0.2283464566929134,"duration":0.20104166666664014},{"name":"B3","midi":59,"time":395.16249999999764,"velocity":0.2440944881889764,"duration":0.580208333333303},{"name":"D4","midi":62,"time":395.63958333333096,"velocity":0.28346456692913385,"duration":0.17083333333329165},{"name":"D4","midi":62,"time":396.1343749999976,"velocity":0.28346456692913385,"duration":0.39791666666667425},{"name":"B3","midi":59,"time":396.6437499999976,"velocity":0.29133858267716534,"duration":0.11145833333335986},{"name":"B3","midi":59,"time":397.17604166666433,"velocity":0.2677165354330709,"duration":0.8104166666666401},{"name":"D4","midi":62,"time":397.7166666666643,"velocity":0.25984251968503935,"duration":0.22812499999997726},{"name":"D4","midi":62,"time":398.3822916666643,"velocity":0.2047244094488189,"duration":0.03020833333334849}],"controlChanges":{"64":[{"number":64,"time":1.7510416666666666,"value":0.10236220472440945},{"number":64,"time":1.7625,"value":0.2047244094488189},{"number":64,"time":2.138541666666667,"value":0.10236220472440945},{"number":64,"time":2.410416666666667,"value":0},{"number":64,"time":3.804166666666667,"value":0.10236220472440945},{"number":64,"time":3.817708333333334,"value":0.2047244094488189},{"number":64,"time":3.889583333333334,"value":0.33070866141732286},{"number":64,"time":3.9718750000000007,"value":0.44881889763779526},{"number":64,"time":4.012500000000001,"value":0.48031496062992124},{"number":64,"time":4.060416666666668,"value":0.5118110236220472},{"number":64,"time":4.140625000000001,"value":0.5433070866141733},{"number":64,"time":4.184375000000001,"value":0.5748031496062992},{"number":64,"time":4.236458333333334,"value":0.6062992125984252},{"number":64,"time":4.291666666666668,"value":0.6377952755905512},{"number":64,"time":4.332291666666668,"value":0.7559055118110236},{"number":64,"time":4.360416666666668,"value":0.8503937007874016},{"number":64,"time":4.422916666666668,"value":1},{"number":64,"time":6.952083333333335,"value":0},{"number":64,"time":77.6,"value":0},{"number":64,"time":77.6,"value":0.8661417322834646},{"number":64,"time":78.80104166666665,"value":0.8661417322834646},{"number":64,"time":78.82812499999999,"value":0.7559055118110236},{"number":64,"time":78.84062499999999,"value":0.6614173228346457},{"number":64,"time":78.84895833333333,"value":0.6299212598425197},{"number":64,"time":78.93645833333333,"value":0.7322834645669292},{"number":64,"time":78.94895833333334,"value":0.8267716535433071},{"number":64,"time":78.984375,"value":0.937007874015748},{"number":64,"time":78.99166666666666,"value":1},{"number":64,"time":93.98020833333337,"value":0.8661417322834646},{"number":64,"time":94.0166666666667,"value":0.7322834645669292},{"number":64,"time":94.0322916666667,"value":0.6535433070866141},{"number":64,"time":94.12395833333336,"value":0.7559055118110236},{"number":64,"time":94.1479166666667,"value":0.8503937007874016},{"number":64,"time":101.4072916666667,"value":1},{"number":64,"time":101.48437500000003,"value":0.8661417322834646},{"number":64,"time":101.52812500000003,"value":0.7322834645669292},{"number":64,"time":101.54375000000003,"value":0.6535433070866141},{"number":64,"time":101.65208333333337,"value":0.7559055118110236},{"number":64,"time":101.69583333333337,"value":0.8503937007874016},{"number":64,"time":109.125,"value":0.7559055118110236},{"number":64,"time":109.14479166666666,"value":0.6535433070866141},{"number":64,"time":109.24895833333332,"value":0.7559055118110236},{"number":64,"time":109.31249999999999,"value":0.8503937007874016},{"number":64,"time":116.7125,"value":0},{"number":64,"time":116.75625000000001,"value":0.7322834645669292},{"number":64,"time":116.76875000000001,"value":0.6456692913385826},{"number":64,"time":116.77604166666667,"value":0.6141732283464567},{"number":64,"time":116.78958333333334,"value":0.5826771653543307},{"number":64,"time":116.80104166666668,"value":0.5511811023622047},{"number":64,"time":116.81770833333334,"value":0.5118110236220472},{"number":64,"time":116.89583333333334,"value":0.5433070866141733},{"number":64,"time":116.92500000000001,"value":0.5748031496062992},{"number":64,"time":116.95625000000001,"value":0.6062992125984252},{"number":64,"time":116.98020833333335,"value":0.6377952755905512},{"number":64,"time":117.04791666666668,"value":0.7322834645669292},{"number":64,"time":119.946875,"value":0.8267716535433071},{"number":64,"time":120.43125,"value":0.7322834645669292},{"number":64,"time":120.43958333333335,"value":0.6535433070866141},{"number":64,"time":120.446875,"value":0.6141732283464567},{"number":64,"time":120.45937500000001,"value":0.5748031496062992},{"number":64,"time":120.46770833333335,"value":0.5433070866141733},{"number":64,"time":120.47500000000001,"value":0.5118110236220472},{"number":64,"time":120.48750000000001,"value":0.48031496062992124},{"number":64,"time":120.57083333333334,"value":0.5196850393700787},{"number":64,"time":120.5875,"value":0.5511811023622047},{"number":64,"time":120.61145833333335,"value":0.5905511811023622},{"number":64,"time":120.63020833333334,"value":0.6220472440944882},{"number":64,"time":120.64270833333335,"value":0.6535433070866141},{"number":64,"time":120.71770833333335,"value":0.7559055118110236},{"number":64,"time":121.93333333333334,"value":0.8503937007874016},{"number":64,"time":124.12083333333335,"value":0.7322834645669292},{"number":64,"time":124.13333333333335,"value":0.6377952755905512},{"number":64,"time":124.14062500000001,"value":0.6062992125984252},{"number":64,"time":124.15312500000002,"value":0.5669291338582677},{"number":64,"time":124.16458333333335,"value":0.5275590551181102},{"number":64,"time":124.1729166666667,"value":0.49606299212598426},{"number":64,"time":124.25729166666669,"value":0.5354330708661418},{"number":64,"time":124.28125000000003,"value":0.5669291338582677},{"number":64,"time":124.30104166666669,"value":0.5984251968503937},{"number":64,"time":124.31666666666669,"value":0.6299212598425197},{"number":64,"time":124.35312500000002,"value":0.7322834645669292},{"number":64,"time":124.48854166666669,"value":0.8267716535433071},{"number":64,"time":127.71875,"value":0.7322834645669292},{"number":64,"time":127.72708333333333,"value":0.6535433070866141},{"number":64,"time":127.73437499999999,"value":0.6220472440944882},{"number":64,"time":127.74791666666665,"value":0.5826771653543307},{"number":64,"time":127.75937499999999,"value":0.5511811023622047},{"number":64,"time":127.77499999999999,"value":0.5196850393700787},{"number":64,"time":127.85208333333333,"value":0.5511811023622047},{"number":64,"time":127.88020833333333,"value":0.5826771653543307},{"number":64,"time":127.89895833333333,"value":0.6141732283464567},{"number":64,"time":127.91666666666666,"value":0.6535433070866141},{"number":64,"time":127.94270833333333,"value":0.7559055118110236},{"number":64,"time":128.0625,"value":0.8503937007874016},{"number":64,"time":131.36562500000002,"value":0.7559055118110236},{"number":64,"time":131.37395833333335,"value":0.6614173228346457},{"number":64,"time":131.3822916666667,"value":0.6299212598425197},{"number":64,"time":131.38958333333338,"value":0.5984251968503937},{"number":64,"time":131.3979166666667,"value":0.5669291338582677},{"number":64,"time":131.40833333333336,"value":0.5275590551181102},{"number":64,"time":131.41770833333337,"value":0.49606299212598426},{"number":64,"time":131.4979166666667,"value":0.5354330708661418},{"number":64,"time":131.52083333333337,"value":0.5669291338582677},{"number":64,"time":131.53645833333337,"value":0.5984251968503937},{"number":64,"time":131.55208333333337,"value":0.6299212598425197},{"number":64,"time":131.57708333333338,"value":0.7322834645669292},{"number":64,"time":131.69375000000005,"value":0.8267716535433071},{"number":64,"time":134.98750000000004,"value":0.7322834645669292},{"number":64,"time":134.99583333333337,"value":0.6535433070866141},{"number":64,"time":135.00312500000004,"value":0.6141732283464567},{"number":64,"time":135.01145833333337,"value":0.5826771653543307},{"number":64,"time":135.0197916666667,"value":0.5433070866141733},{"number":64,"time":135.02708333333337,"value":0.5039370078740157},{"number":64,"time":135.0354166666667,"value":0.47244094488188976},{"number":64,"time":135.11979166666669,"value":0.5039370078740157},{"number":64,"time":135.13125000000002,"value":0.5354330708661418},{"number":64,"time":135.1479166666667,"value":0.5669291338582677},{"number":64,"time":135.16770833333337,"value":0.5984251968503937},{"number":64,"time":135.1791666666667,"value":0.6299212598425197},{"number":64,"time":135.20312500000003,"value":0.7322834645669292},{"number":64,"time":135.2791666666667,"value":0.8267716535433071},{"number":64,"time":138.63437499999998,"value":0.7322834645669292},{"number":64,"time":138.64687499999997,"value":0.6456692913385826},{"number":64,"time":138.65312499999996,"value":0.6141732283464567},{"number":64,"time":138.66562499999995,"value":0.5826771653543307},{"number":64,"time":138.6770833333333,"value":0.5511811023622047},{"number":64,"time":138.7427083333333,"value":0.5196850393700787},{"number":64,"time":138.76562499999997,"value":0.5511811023622047},{"number":64,"time":138.8145833333333,"value":0.5826771653543307},{"number":64,"time":138.84166666666664,"value":0.6141732283464567},{"number":64,"time":138.86979166666663,"value":0.6456692913385826},{"number":64,"time":138.93854166666662,"value":0.7559055118110236},{"number":64,"time":139.08541666666662,"value":0.8503937007874016},{"number":64,"time":142.26041666666666,"value":0.7559055118110236},{"number":64,"time":142.26666666666665,"value":0.6614173228346457},{"number":64,"time":142.2770833333333,"value":0.6299212598425197},{"number":64,"time":142.2833333333333,"value":0.5984251968503937},{"number":64,"time":142.2958333333333,"value":0.5590551181102362},{"number":64,"time":142.30833333333328,"value":0.5196850393700787},{"number":64,"time":142.32395833333328,"value":0.4881889763779528},{"number":64,"time":142.3947916666666,"value":0.5196850393700787},{"number":64,"time":142.41562499999995,"value":0.5511811023622047},{"number":64,"time":142.43958333333327,"value":0.5826771653543307},{"number":64,"time":142.46458333333328,"value":0.6141732283464567},{"number":64,"time":142.48437499999994,"value":0.6535433070866141},{"number":64,"time":142.57083333333327,"value":0.7559055118110236},{"number":64,"time":142.8322916666666,"value":0.8503937007874016},{"number":64,"time":145.7260416666666,"value":1},{"number":64,"time":145.80208333333326,"value":0.8503937007874016},{"number":64,"time":145.82187499999992,"value":0.7322834645669292},{"number":64,"time":145.8343749999999,"value":0.6456692913385826},{"number":64,"time":145.84166666666658,"value":0.6062992125984252},{"number":64,"time":145.8499999999999,"value":0.5748031496062992},{"number":64,"time":145.8624999999999,"value":0.5275590551181102},{"number":64,"time":145.87395833333323,"value":0.49606299212598426},{"number":64,"time":145.95416666666657,"value":0.5354330708661418},{"number":64,"time":145.9781249999999,"value":0.5669291338582677},{"number":64,"time":145.99791666666655,"value":0.5984251968503937},{"number":64,"time":146.0187499999999,"value":0.6299212598425197},{"number":64,"time":146.5656249999999,"value":0.7322834645669292},{"number":64,"time":147.74479166666657,"value":0.8267716535433071},{"number":64,"time":149.36145833333327,"value":0.7322834645669292},{"number":64,"time":149.37187499999993,"value":0.6456692913385826},{"number":64,"time":149.38124999999994,"value":0.6062992125984252},{"number":64,"time":149.38749999999993,"value":0.5748031496062992},{"number":64,"time":149.39999999999992,"value":0.5354330708661418},{"number":64,"time":149.41145833333326,"value":0.49606299212598426},{"number":64,"time":149.49583333333325,"value":0.5354330708661418},{"number":64,"time":149.52083333333326,"value":0.5669291338582677},{"number":64,"time":149.54062499999992,"value":0.5984251968503937},{"number":64,"time":149.55937499999993,"value":0.6377952755905512},{"number":64,"time":149.62812499999993,"value":0.7322834645669292},{"number":64,"time":149.8354166666666,"value":0.8267716535433071},{"number":64,"time":152.9333333333333,"value":0.7322834645669292},{"number":64,"time":152.94687499999998,"value":0.6377952755905512},{"number":64,"time":152.95416666666665,"value":0.6062992125984252},{"number":64,"time":152.96145833333333,"value":0.5748031496062992},{"number":64,"time":152.96979166666665,"value":0.5433070866141733},{"number":64,"time":152.97916666666666,"value":0.5118110236220472},{"number":64,"time":152.990625,"value":0.48031496062992124},{"number":64,"time":153.06666666666666,"value":0.5196850393700787},{"number":64,"time":153.08229166666666,"value":0.5511811023622047},{"number":64,"time":153.10625,"value":0.5826771653543307},{"number":64,"time":153.12604166666665,"value":0.6141732283464567},{"number":64,"time":153.14166666666665,"value":0.6535433070866141},{"number":64,"time":153.1989583333333,"value":0.7559055118110236},{"number":64,"time":153.3333333333333,"value":0.8503937007874016},{"number":64,"time":156.39166666666665,"value":0.7559055118110236},{"number":64,"time":156.39895833333333,"value":0.6614173228346457},{"number":64,"time":156.40833333333333,"value":0.6299212598425197},{"number":64,"time":156.415625,"value":0.5984251968503937},{"number":64,"time":156.42708333333334,"value":0.5590551181102362},{"number":64,"time":156.43541666666667,"value":0.5275590551181102},{"number":64,"time":156.44791666666666,"value":0.49606299212598426},{"number":64,"time":156.53125,"value":0.5354330708661418},{"number":64,"time":156.559375,"value":0.5669291338582677},{"number":64,"time":156.58333333333331,"value":0.5984251968503937},{"number":64,"time":156.60729166666664,"value":0.6377952755905512},{"number":64,"time":156.67916666666665,"value":0.7322834645669292},{"number":64,"time":157.01979166666666,"value":0.8267716535433071},{"number":64,"time":159.89791666666662,"value":0.7322834645669292},{"number":64,"time":159.90624999999994,"value":0.6535433070866141},{"number":64,"time":159.91562499999995,"value":0.6220472440944882},{"number":64,"time":159.92187499999994,"value":0.5905511811023622},{"number":64,"time":159.93437499999993,"value":0.5511811023622047},{"number":64,"time":159.94583333333327,"value":0.5118110236220472},{"number":64,"time":159.9541666666666,"value":0.48031496062992124},{"number":64,"time":160.04687499999991,"value":0.5118110236220472},{"number":64,"time":160.06666666666658,"value":0.5511811023622047},{"number":64,"time":160.09479166666657,"value":0.5826771653543307},{"number":64,"time":160.1187499999999,"value":0.6141732283464567},{"number":64,"time":160.1499999999999,"value":0.6456692913385826},{"number":64,"time":160.2531249999999,"value":0.7559055118110236},{"number":64,"time":160.45312499999991,"value":0.8503937007874016},{"number":64,"time":163.5166666666665,"value":0.7559055118110236},{"number":64,"time":163.53020833333318,"value":0.6535433070866141},{"number":64,"time":163.53645833333317,"value":0.6220472440944882},{"number":64,"time":163.5489583333332,"value":0.5826771653543307},{"number":64,"time":163.56041666666653,"value":0.5511811023622047},{"number":64,"time":163.6208333333332,"value":0.5196850393700787},{"number":64,"time":163.64062499999986,"value":0.5511811023622047},{"number":64,"time":163.66874999999985,"value":0.5826771653543307},{"number":64,"time":163.6947916666665,"value":0.6220472440944882},{"number":64,"time":163.71562499999985,"value":0.6535433070866141},{"number":64,"time":163.78437499999984,"value":0.7559055118110236},{"number":64,"time":164.03124999999983,"value":0.8503937007874016},{"number":64,"time":167.05520833333316,"value":0.7322834645669292},{"number":64,"time":167.0666666666665,"value":0.6377952755905512},{"number":64,"time":167.07395833333317,"value":0.6062992125984252},{"number":64,"time":167.08645833333316,"value":0.5748031496062992},{"number":64,"time":167.0979166666665,"value":0.5433070866141733},{"number":64,"time":167.11041666666648,"value":0.5118110236220472},{"number":64,"time":167.19374999999982,"value":0.5511811023622047},{"number":64,"time":167.2218749999998,"value":0.5826771653543307},{"number":64,"time":167.25104166666648,"value":0.6220472440944882},{"number":64,"time":167.2697916666665,"value":0.6535433070866141},{"number":64,"time":167.3541666666665,"value":0.7559055118110236},{"number":64,"time":167.8343749999998,"value":0.8503937007874016},{"number":64,"time":170.63229166666648,"value":0.7322834645669292},{"number":64,"time":170.64479166666646,"value":0.6456692913385826},{"number":64,"time":170.6531249999998,"value":0.6141732283464567},{"number":64,"time":170.66458333333313,"value":0.5826771653543307},{"number":64,"time":170.67708333333312,"value":0.5511811023622047},{"number":64,"time":170.72916666666646,"value":0.5196850393700787},{"number":64,"time":170.74895833333312,"value":0.5511811023622047},{"number":64,"time":170.7770833333331,"value":0.5826771653543307},{"number":64,"time":170.80104166666644,"value":0.6220472440944882},{"number":64,"time":170.81666666666644,"value":0.6535433070866141},{"number":64,"time":170.85312499999978,"value":0.7559055118110236},{"number":64,"time":171.02499999999978,"value":0.8503937007874016},{"number":64,"time":174.19999999999973,"value":0},{"number":64,"time":174.21874999999974,"value":0.7559055118110236},{"number":64,"time":174.2322916666664,"value":0.6535433070866141},{"number":64,"time":174.2395833333331,"value":0.6141732283464567},{"number":64,"time":174.25104166666642,"value":0.5826771653543307},{"number":64,"time":174.26562499999974,"value":0.5511811023622047},{"number":64,"time":174.34270833333306,"value":0.5905511811023622},{"number":64,"time":174.35833333333306,"value":0.6220472440944882},{"number":64,"time":174.37083333333305,"value":0.6535433070866141},{"number":64,"time":174.38645833333305,"value":0.7559055118110236},{"number":64,"time":174.43020833333304,"value":0.8503937007874016},{"number":64,"time":177.77291666666636,"value":0.7559055118110236},{"number":64,"time":177.7843749999997,"value":0.6535433070866141},{"number":64,"time":177.79270833333302,"value":0.6141732283464567},{"number":64,"time":177.80416666666636,"value":0.5748031496062992},{"number":64,"time":177.8124999999997,"value":0.5433070866141733},{"number":64,"time":177.820833333333,"value":0.5118110236220472},{"number":64,"time":177.8281249999997,"value":0.48031496062992124},{"number":64,"time":177.91249999999968,"value":0.5118110236220472},{"number":64,"time":177.92812499999968,"value":0.5433070866141733},{"number":64,"time":177.94895833333302,"value":0.5826771653543307},{"number":64,"time":177.9687499999997,"value":0.6220472440944882},{"number":64,"time":177.98020833333302,"value":0.6535433070866141},{"number":64,"time":178.008333333333,"value":0.7559055118110236},{"number":64,"time":181.08749999999966,"value":0.8503937007874016},{"number":64,"time":181.223958333333,"value":0.7322834645669292},{"number":64,"time":181.23541666666634,"value":0.6456692913385826},{"number":64,"time":181.24374999999966,"value":0.6141732283464567},{"number":64,"time":181.25104166666634,"value":0.5826771653543307},{"number":64,"time":181.25937499999966,"value":0.5433070866141733},{"number":64,"time":181.26874999999967,"value":0.4881889763779528},{"number":64,"time":181.27499999999966,"value":0.4015748031496063},{"number":64,"time":181.29166666666634,"value":0.2755905511811024},{"number":64,"time":181.395833333333,"value":0.3779527559055118},{"number":64,"time":181.40729166666634,"value":0.47244094488188976},{"number":64,"time":181.41562499999966,"value":0.5039370078740157},{"number":64,"time":181.427083333333,"value":0.5354330708661418},{"number":64,"time":181.452083333333,"value":0.5669291338582677},{"number":64,"time":181.47916666666634,"value":0.5984251968503937},{"number":64,"time":181.50729166666633,"value":0.6299212598425197},{"number":64,"time":181.570833333333,"value":0.7322834645669292},{"number":64,"time":181.898958333333,"value":0.8267716535433071},{"number":64,"time":184.7499999999997,"value":0.7322834645669292},{"number":64,"time":184.76354166666636,"value":0.6377952755905512},{"number":64,"time":184.76979166666635,"value":0.6062992125984252},{"number":64,"time":184.78229166666634,"value":0.5748031496062992},{"number":64,"time":184.79479166666633,"value":0.5433070866141733},{"number":64,"time":184.80520833333298,"value":0.5118110236220472},{"number":64,"time":184.87812499999964,"value":0.5511811023622047},{"number":64,"time":184.90104166666632,"value":0.5826771653543307},{"number":64,"time":184.93020833333298,"value":0.6220472440944882},{"number":64,"time":184.948958333333,"value":0.6535433070866141},{"number":64,"time":185.04999999999967,"value":0.7559055118110236},{"number":64,"time":187.34374999999966,"value":0.8503937007874016},{"number":64,"time":188.21874999999966,"value":0.7559055118110236},{"number":64,"time":188.23229166666633,"value":0.6614173228346457},{"number":64,"time":188.24062499999965,"value":0.6299212598425197},{"number":64,"time":188.24687499999965,"value":0.5984251968503937},{"number":64,"time":188.26041666666632,"value":0.5669291338582677},{"number":64,"time":188.27083333333297,"value":0.5275590551181102},{"number":64,"time":188.28333333333296,"value":0.49606299212598426},{"number":64,"time":188.35937499999963,"value":0.5354330708661418},{"number":64,"time":188.38333333333296,"value":0.5669291338582677},{"number":64,"time":188.40729166666628,"value":0.5984251968503937},{"number":64,"time":188.42708333333294,"value":0.6377952755905512},{"number":64,"time":188.49895833333295,"value":0.7322834645669292},{"number":64,"time":191.46979166666628,"value":0.8267716535433071},{"number":64,"time":191.72604166666628,"value":0.7322834645669292},{"number":64,"time":191.7374999999996,"value":0.6456692913385826},{"number":64,"time":191.74583333333294,"value":0.6141732283464567},{"number":64,"time":191.75833333333293,"value":0.5826771653543307},{"number":64,"time":191.76979166666626,"value":0.5511811023622047},{"number":64,"time":191.80208333333294,"value":0.5196850393700787},{"number":64,"time":191.8541666666663,"value":0.5511811023622047},{"number":64,"time":191.88229166666628,"value":0.5826771653543307},{"number":64,"time":191.9062499999996,"value":0.6220472440944882},{"number":64,"time":191.92604166666626,"value":0.6535433070866141},{"number":64,"time":192.01458333333292,"value":0.7559055118110236},{"number":64,"time":193.0218749999996,"value":0.8503937007874016},{"number":64,"time":195.1677083333329,"value":0.7322834645669292},{"number":64,"time":195.18124999999958,"value":0.6456692913385826},{"number":64,"time":195.18854166666625,"value":0.6141732283464567},{"number":64,"time":195.1999999999996,"value":0.5748031496062992},{"number":64,"time":195.21249999999958,"value":0.5433070866141733},{"number":64,"time":195.22499999999957,"value":0.5118110236220472},{"number":64,"time":195.24062499999957,"value":0.48031496062992124},{"number":64,"time":195.30104166666624,"value":0.5118110236220472},{"number":64,"time":195.3208333333329,"value":0.5433070866141733},{"number":64,"time":195.3489583333329,"value":0.5826771653543307},{"number":64,"time":195.3729166666662,"value":0.6141732283464567},{"number":64,"time":195.39166666666623,"value":0.6535433070866141},{"number":64,"time":195.48541666666623,"value":0.7559055118110236},{"number":64,"time":195.8208333333329,"value":0.8503937007874016},{"number":64,"time":198.5833333333329,"value":0.7559055118110236},{"number":64,"time":198.59479166666623,"value":0.6535433070866141},{"number":64,"time":198.60312499999955,"value":0.6220472440944882},{"number":64,"time":198.6145833333329,"value":0.5826771653543307},{"number":64,"time":198.62708333333288,"value":0.5511811023622047},{"number":64,"time":198.64687499999954,"value":0.5196850393700787},{"number":64,"time":198.71041666666622,"value":0.5511811023622047},{"number":64,"time":198.7385416666662,"value":0.5826771653543307},{"number":64,"time":198.75833333333287,"value":0.6141732283464567},{"number":64,"time":198.77083333333286,"value":0.6456692913385826},{"number":64,"time":198.80312499999954,"value":0.7795275590551181},{"number":64,"time":201.76874999999953,"value":0.889763779527559},{"number":64,"time":201.99687499999953,"value":0.7795275590551181},{"number":64,"time":202.00937499999952,"value":0.6850393700787402},{"number":64,"time":202.01249999999953,"value":0.6535433070866141},{"number":64,"time":202.02083333333286,"value":0.6141732283464567},{"number":64,"time":202.0322916666662,"value":0.5748031496062992},{"number":64,"time":202.04479166666619,"value":0.5433070866141733},{"number":64,"time":202.05729166666617,"value":0.5118110236220472},{"number":64,"time":202.13229166666616,"value":0.5433070866141733},{"number":64,"time":202.1562499999995,"value":0.5826771653543307},{"number":64,"time":202.17708333333283,"value":0.6141732283464567},{"number":64,"time":202.18854166666617,"value":0.6456692913385826},{"number":64,"time":202.2281249999995,"value":0.7559055118110236},{"number":64,"time":203.59999999999948,"value":0.8503937007874016},{"number":64,"time":205.51770833333285,"value":0.7322834645669292},{"number":64,"time":205.52708333333285,"value":0.6456692913385826},{"number":64,"time":205.53541666666618,"value":0.6062992125984252},{"number":64,"time":205.54791666666617,"value":0.5748031496062992},{"number":64,"time":205.5593749999995,"value":0.5433070866141733},{"number":64,"time":205.57083333333284,"value":0.5118110236220472},{"number":64,"time":205.65104166666617,"value":0.5511811023622047},{"number":64,"time":205.6749999999995,"value":0.5826771653543307},{"number":64,"time":205.69166666666618,"value":0.6141732283464567},{"number":64,"time":205.70312499999952,"value":0.6456692913385826},{"number":64,"time":205.72708333333284,"value":0.7559055118110236},{"number":64,"time":205.84374999999952,"value":0.8503937007874016},{"number":64,"time":208.83749999999952,"value":1},{"number":64,"time":209.04479166666619,"value":0.8661417322834646},{"number":64,"time":209.0687499999995,"value":0.7559055118110236},{"number":64,"time":209.07708333333284,"value":0.6614173228346457},{"number":64,"time":209.08645833333284,"value":0.6220472440944882},{"number":64,"time":209.0968749999995,"value":0.5826771653543307},{"number":64,"time":209.1093749999995,"value":0.5511811023622047},{"number":64,"time":209.12187499999948,"value":0.5196850393700787},{"number":64,"time":209.14166666666614,"value":0.4881889763779528},{"number":64,"time":209.18958333333282,"value":0.5196850393700787},{"number":64,"time":209.20937499999948,"value":0.5511811023622047},{"number":64,"time":209.2333333333328,"value":0.5826771653543307},{"number":64,"time":209.25729166666613,"value":0.6141732283464567},{"number":64,"time":209.27291666666613,"value":0.6456692913385826},{"number":64,"time":209.34479166666614,"value":0.7559055118110236},{"number":64,"time":209.5052083333328,"value":0.8503937007874016},{"number":64,"time":212.2802083333328,"value":1},{"number":64,"time":212.4520833333328,"value":0.8661417322834646},{"number":64,"time":212.47187499999947,"value":0.7559055118110236},{"number":64,"time":212.4802083333328,"value":0.6614173228346457},{"number":64,"time":212.4895833333328,"value":0.6299212598425197},{"number":64,"time":212.4958333333328,"value":0.5984251968503937},{"number":64,"time":212.50833333333279,"value":0.5669291338582677},{"number":64,"time":212.51979166666612,"value":0.5354330708661418},{"number":64,"time":212.5479166666661,"value":0.5039370078740157},{"number":64,"time":212.5802083333328,"value":0.5354330708661418},{"number":64,"time":212.60416666666612,"value":0.5669291338582677},{"number":64,"time":212.62395833333278,"value":0.5984251968503937},{"number":64,"time":212.63958333333278,"value":0.6377952755905512},{"number":64,"time":212.65937499999944,"value":0.7322834645669292},{"number":64,"time":212.70312499999943,"value":0.8267716535433071},{"number":64,"time":215.66145833333277,"value":0.937007874015748},{"number":64,"time":215.6791666666661,"value":1},{"number":64,"time":215.83645833333279,"value":0.8661417322834646},{"number":64,"time":215.85833333333278,"value":0.7559055118110236},{"number":64,"time":215.86562499999945,"value":0.6614173228346457},{"number":64,"time":215.87499999999946,"value":0.6299212598425197},{"number":64,"time":215.88229166666613,"value":0.5984251968503937},{"number":64,"time":215.8895833333328,"value":0.5669291338582677},{"number":64,"time":215.9020833333328,"value":0.5275590551181102},{"number":64,"time":215.91354166666613,"value":0.49606299212598426},{"number":64,"time":215.98229166666613,"value":0.5354330708661418},{"number":64,"time":216.0020833333328,"value":0.5669291338582677},{"number":64,"time":216.01458333333278,"value":0.5984251968503937},{"number":64,"time":216.03020833333278,"value":0.6377952755905512},{"number":64,"time":216.04583333333278,"value":0.7322834645669292},{"number":64,"time":216.0697916666661,"value":0.8267716535433071},{"number":64,"time":219.11145833333276,"value":0.937007874015748},{"number":64,"time":219.14374999999944,"value":1},{"number":64,"time":219.31562499999944,"value":0.8661417322834646},{"number":64,"time":219.34374999999943,"value":0.7322834645669292},{"number":64,"time":219.35208333333276,"value":0.6535433070866141},{"number":64,"time":219.35937499999943,"value":0.6141732283464567},{"number":64,"time":219.37187499999942,"value":0.5826771653543307},{"number":64,"time":219.38333333333276,"value":0.5511811023622047},{"number":64,"time":219.4041666666661,"value":0.5196850393700787},{"number":64,"time":219.4479166666661,"value":0.5511811023622047},{"number":64,"time":219.47604166666608,"value":0.5905511811023622},{"number":64,"time":219.49166666666608,"value":0.6220472440944882},{"number":64,"time":219.5156249999994,"value":0.7559055118110236},{"number":64,"time":219.5562499999994,"value":0.8503937007874016},{"number":64,"time":222.5427083333327,"value":1},{"number":64,"time":222.7427083333327,"value":0.8661417322834646},{"number":64,"time":222.76666666666603,"value":0.7559055118110236},{"number":64,"time":222.77499999999935,"value":0.6614173228346457},{"number":64,"time":222.78333333333268,"value":0.6299212598425197},{"number":64,"time":222.79062499999935,"value":0.5984251968503937},{"number":64,"time":222.8020833333327,"value":0.5669291338582677},{"number":64,"time":222.81458333333268,"value":0.5275590551181102},{"number":64,"time":222.894791666666,"value":0.5590551181102362},{"number":64,"time":222.910416666666,"value":0.5905511811023622},{"number":64,"time":222.9270833333327,"value":0.6220472440944882},{"number":64,"time":222.95104166666601,"value":0.7322834645669292},{"number":64,"time":222.98645833333268,"value":0.8267716535433071},{"number":64,"time":225.610416666666,"value":0.937007874015748},{"number":64,"time":225.84583333333268,"value":1},{"number":64,"time":226.10520833333268,"value":0.8503937007874016},{"number":64,"time":226.12187499999936,"value":0.7322834645669292},{"number":64,"time":226.12916666666604,"value":0.6456692913385826},{"number":64,"time":226.13749999999936,"value":0.6062992125984252},{"number":64,"time":226.1458333333327,"value":0.5748031496062992},{"number":64,"time":226.15416666666601,"value":0.5354330708661418},{"number":64,"time":226.1614583333327,"value":0.49606299212598426},{"number":64,"time":226.24999999999935,"value":0.5354330708661418},{"number":64,"time":226.26666666666603,"value":0.5669291338582677},{"number":64,"time":226.27708333333268,"value":0.5984251968503937},{"number":64,"time":226.29374999999936,"value":0.6377952755905512},{"number":64,"time":226.31354166666603,"value":0.7559055118110236},{"number":64,"time":226.36979166666603,"value":0.8503937007874016},{"number":64,"time":227.95937499999937,"value":1},{"number":64,"time":229.44166666666604,"value":0.8503937007874016},{"number":64,"time":229.45833333333272,"value":0.7559055118110236},{"number":64,"time":229.46770833333272,"value":0.6614173228346457},{"number":64,"time":229.47604166666605,"value":0.6220472440944882},{"number":64,"time":229.48229166666604,"value":0.5905511811023622},{"number":64,"time":229.49374999999938,"value":0.5511811023622047},{"number":64,"time":229.50937499999938,"value":0.5118110236220472},{"number":64,"time":229.57291666666606,"value":0.5433070866141733},{"number":64,"time":229.5937499999994,"value":0.5748031496062992},{"number":64,"time":229.60520833333274,"value":0.6062992125984252},{"number":64,"time":229.61770833333273,"value":0.6456692913385826},{"number":64,"time":229.63333333333273,"value":0.7559055118110236},{"number":64,"time":229.65416666666607,"value":0.8503937007874016},{"number":64,"time":229.84166666666607,"value":1},{"number":64,"time":232.82395833333274,"value":0.8503937007874016},{"number":64,"time":232.84479166666608,"value":0.7322834645669292},{"number":64,"time":232.85208333333276,"value":0.6535433070866141},{"number":64,"time":232.86041666666608,"value":0.6220472440944882},{"number":64,"time":232.87291666666607,"value":0.5826771653543307},{"number":64,"time":232.88958333333275,"value":0.5511811023622047},{"number":64,"time":232.90833333333276,"value":0.5196850393700787},{"number":64,"time":232.95208333333275,"value":0.5511811023622047},{"number":64,"time":232.97187499999941,"value":0.5826771653543307},{"number":64,"time":232.99270833333276,"value":0.6141732283464567},{"number":64,"time":233.0041666666661,"value":0.6456692913385826},{"number":64,"time":233.02395833333276,"value":0.7559055118110236},{"number":64,"time":233.06770833333275,"value":0.8503937007874016},{"number":64,"time":234.08020833333273,"value":1},{"number":64,"time":236.11145833333273,"value":0.8661417322834646},{"number":64,"time":236.1312499999994,"value":0.7559055118110236},{"number":64,"time":236.13854166666607,"value":0.6614173228346457},{"number":64,"time":236.1468749999994,"value":0.6220472440944882},{"number":64,"time":236.15520833333272,"value":0.5905511811023622},{"number":64,"time":236.16354166666605,"value":0.5590551181102362},{"number":64,"time":236.17083333333272,"value":0.5275590551181102},{"number":64,"time":236.1833333333327,"value":0.49606299212598426},{"number":64,"time":236.2468749999994,"value":0.5354330708661418},{"number":64,"time":236.2624999999994,"value":0.5669291338582677},{"number":64,"time":236.27916666666607,"value":0.5984251968503937},{"number":64,"time":236.2906249999994,"value":0.6377952755905512},{"number":64,"time":236.3072916666661,"value":0.7559055118110236},{"number":64,"time":236.33541666666608,"value":0.8503937007874016},{"number":64,"time":237.36666666666608,"value":1},{"number":64,"time":239.44479166666608,"value":0.8661417322834646},{"number":64,"time":239.46458333333274,"value":0.7559055118110236},{"number":64,"time":239.47291666666607,"value":0.6614173228346457},{"number":64,"time":239.48229166666607,"value":0.6299212598425197},{"number":64,"time":239.48854166666607,"value":0.5984251968503937},{"number":64,"time":239.50104166666605,"value":0.5669291338582677},{"number":64,"time":239.51666666666605,"value":0.5275590551181102},{"number":64,"time":239.57708333333272,"value":0.5590551181102362},{"number":64,"time":239.5968749999994,"value":0.5905511811023622},{"number":64,"time":239.60937499999937,"value":0.6220472440944882},{"number":64,"time":239.62916666666604,"value":0.7559055118110236},{"number":64,"time":239.65312499999936,"value":0.8503937007874016},{"number":64,"time":239.74479166666603,"value":1},{"number":64,"time":242.79166666666603,"value":0.8661417322834646},{"number":64,"time":242.8114583333327,"value":0.7559055118110236},{"number":64,"time":242.81979166666602,"value":0.6614173228346457},{"number":64,"time":242.82916666666603,"value":0.6220472440944882},{"number":64,"time":242.83541666666602,"value":0.5905511811023622},{"number":64,"time":242.84999999999934,"value":0.5511811023622047},{"number":64,"time":242.85937499999935,"value":0.5118110236220472},{"number":64,"time":242.92291666666603,"value":0.5433070866141733},{"number":64,"time":242.93854166666603,"value":0.5748031496062992},{"number":64,"time":242.95624999999936,"value":0.6141732283464567},{"number":64,"time":242.96354166666603,"value":0.6456692913385826},{"number":64,"time":242.97916666666603,"value":0.7559055118110236},{"number":64,"time":243.00312499999936,"value":0.8503937007874016},{"number":64,"time":243.13541666666603,"value":1},{"number":64,"time":246.20624999999936,"value":0.8503937007874016},{"number":64,"time":246.22604166666602,"value":0.7559055118110236},{"number":64,"time":246.2427083333327,"value":0.6535433070866141},{"number":64,"time":246.26041666666603,"value":0.6220472440944882},{"number":64,"time":246.3458333333327,"value":0.6535433070866141},{"number":64,"time":246.3739583333327,"value":0.7559055118110236},{"number":64,"time":246.40937499999936,"value":0.8503937007874016},{"number":64,"time":247.21354166666603,"value":1},{"number":64,"time":249.4364583333327,"value":0.8661417322834646},{"number":64,"time":249.45624999999936,"value":0.7559055118110236},{"number":64,"time":249.46458333333268,"value":0.6614173228346457},{"number":64,"time":249.47187499999936,"value":0.6141732283464567},{"number":64,"time":249.48020833333268,"value":0.5826771653543307},{"number":64,"time":249.488541666666,"value":0.5511811023622047},{"number":64,"time":249.49687499999933,"value":0.5196850393700787},{"number":64,"time":249.504166666666,"value":0.48031496062992124},{"number":64,"time":249.58020833333268,"value":0.5196850393700787},{"number":64,"time":249.59166666666601,"value":0.5511811023622047},{"number":64,"time":249.60729166666601,"value":0.5826771653543307},{"number":64,"time":249.6239583333327,"value":0.6220472440944882},{"number":64,"time":249.64374999999936,"value":0.7322834645669292},{"number":64,"time":249.66354166666602,"value":0.8267716535433071},{"number":64,"time":249.85937499999935,"value":0.937007874015748},{"number":64,"time":250.33958333333268,"value":1},{"number":64,"time":252.79479166666604,"value":0.8661417322834646},{"number":64,"time":252.8145833333327,"value":0.7086614173228346},{"number":64,"time":252.82187499999938,"value":0.6456692913385826},{"number":64,"time":252.8302083333327,"value":0.6062992125984252},{"number":64,"time":252.83854166666603,"value":0.5748031496062992},{"number":64,"time":252.8458333333327,"value":0.5433070866141733},{"number":64,"time":252.85416666666603,"value":0.5118110236220472},{"number":64,"time":252.92604166666604,"value":0.5433070866141733},{"number":64,"time":252.93854166666603,"value":0.5748031496062992},{"number":64,"time":252.95416666666603,"value":0.6141732283464567},{"number":64,"time":252.96249999999935,"value":0.6456692913385826},{"number":64,"time":252.9739583333327,"value":0.7559055118110236},{"number":64,"time":252.98645833333268,"value":0.8503937007874016},{"number":64,"time":253.15416666666601,"value":1},{"number":64,"time":255.972916666666,"value":0.937007874015748},{"number":64,"time":256.01249999999936,"value":1},{"number":64,"time":256.1406249999994,"value":0.8661417322834646},{"number":64,"time":256.16041666666604,"value":0.7559055118110236},{"number":64,"time":256.16874999999936,"value":0.6614173228346457},{"number":64,"time":256.17604166666604,"value":0.6141732283464567},{"number":64,"time":256.18437499999936,"value":0.5748031496062992},{"number":64,"time":256.19166666666604,"value":0.5433070866141733},{"number":64,"time":256.19999999999936,"value":0.49606299212598426},{"number":64,"time":256.2395833333327,"value":0.4015748031496063},{"number":64,"time":256.25624999999934,"value":0.47244094488188976},{"number":64,"time":256.2677083333327,"value":0.5039370078740157},{"number":64,"time":256.276041666666,"value":0.5354330708661418},{"number":64,"time":256.28749999999934,"value":0.5669291338582677},{"number":64,"time":256.29999999999933,"value":0.6062992125984252},{"number":64,"time":256.30833333333266,"value":0.6456692913385826},{"number":64,"time":256.319791666666,"value":0.7795275590551181},{"number":64,"time":256.332291666666,"value":0.889763779527559},{"number":64,"time":259.4531249999992,"value":0.7795275590551181},{"number":64,"time":259.46145833333253,"value":0.6614173228346457},{"number":64,"time":259.46979166666586,"value":0.6141732283464567},{"number":64,"time":259.4781249999992,"value":0.5748031496062992},{"number":64,"time":259.48541666666586,"value":0.5433070866141733},{"number":64,"time":259.4937499999992,"value":0.49606299212598426},{"number":64,"time":259.5052083333325,"value":0.4015748031496063},{"number":64,"time":259.5854166666659,"value":0.47244094488188976},{"number":64,"time":259.5937499999992,"value":0.5039370078740157},{"number":64,"time":259.60520833333254,"value":0.5433070866141733},{"number":64,"time":259.6218749999992,"value":0.5748031496062992},{"number":64,"time":259.63333333333253,"value":0.6062992125984252},{"number":64,"time":259.6458333333325,"value":0.6456692913385826},{"number":64,"time":259.6614583333325,"value":0.7559055118110236},{"number":64,"time":259.72916666666583,"value":0.8503937007874016},{"number":64,"time":262.6677083333326,"value":1},{"number":64,"time":262.7833333333326,"value":0.8661417322834646},{"number":64,"time":262.8031249999993,"value":0.7322834645669292},{"number":64,"time":262.8114583333326,"value":0.6456692913385826},{"number":64,"time":262.81979166666594,"value":0.5984251968503937},{"number":64,"time":262.8270833333326,"value":0.5669291338582677},{"number":64,"time":262.83541666666594,"value":0.5118110236220472},{"number":64,"time":262.8479166666659,"value":0.4015748031496063},{"number":64,"time":262.8635416666659,"value":0.2992125984251969},{"number":64,"time":262.9270833333326,"value":0.4015748031496063},{"number":64,"time":262.9354166666659,"value":0.48031496062992124},{"number":64,"time":262.9437499999992,"value":0.5118110236220472},{"number":64,"time":262.95208333333255,"value":0.5433070866141733},{"number":64,"time":262.9635416666659,"value":0.5748031496062992},{"number":64,"time":262.9760416666659,"value":0.6062992125984252},{"number":64,"time":262.9843749999992,"value":0.6456692913385826},{"number":64,"time":262.9999999999992,"value":0.7559055118110236},{"number":64,"time":263.01666666666586,"value":0.8503937007874016},{"number":64,"time":263.13124999999917,"value":1},{"number":64,"time":266.09479166666574,"value":0.8661417322834646},{"number":64,"time":266.1145833333324,"value":0.7086614173228346},{"number":64,"time":266.1239583333324,"value":0.6377952755905512},{"number":64,"time":266.1302083333324,"value":0.5905511811023622},{"number":64,"time":266.13854166666573,"value":0.5590551181102362},{"number":64,"time":266.14687499999906,"value":0.5039370078740157},{"number":64,"time":266.1583333333324,"value":0.4015748031496063},{"number":64,"time":266.24999999999903,"value":0.48031496062992124},{"number":64,"time":266.25833333333236,"value":0.5118110236220472},{"number":64,"time":266.27083333333235,"value":0.5511811023622047},{"number":64,"time":266.28645833333235,"value":0.5905511811023622},{"number":64,"time":266.2979166666657,"value":0.6220472440944882},{"number":64,"time":266.318749999999,"value":0.7322834645669292},{"number":64,"time":266.33854166666566,"value":0.8267716535433071},{"number":64,"time":268.1854166666656,"value":0.937007874015748},{"number":64,"time":268.9354166666656,"value":1},{"number":64,"time":269.41041666666564,"value":0},{"number":64,"time":269.4197916666656,"value":0.8661417322834646},{"number":64,"time":269.4395833333323,"value":0.7086614173228346},{"number":64,"time":269.4479166666656,"value":0.6377952755905512},{"number":64,"time":269.4552083333323,"value":0.5984251968503937},{"number":64,"time":269.4635416666656,"value":0.5590551181102362},{"number":64,"time":269.4708333333323,"value":0.5118110236220472},{"number":64,"time":269.4791666666656,"value":0.47244094488188976},{"number":64,"time":269.48749999999893,"value":0.3779527559055118},{"number":64,"time":269.5677083333323,"value":0.47244094488188976},{"number":64,"time":269.5791666666656,"value":0.5118110236220472},{"number":64,"time":269.58749999999895,"value":0.5433070866141733},{"number":64,"time":269.60312499999895,"value":0.5748031496062992},{"number":64,"time":269.61562499999894,"value":0.6062992125984252},{"number":64,"time":269.6229166666656,"value":0.6377952755905512},{"number":64,"time":269.6354166666656,"value":0.7322834645669292},{"number":64,"time":269.6510416666656,"value":0.8267716535433071},{"number":64,"time":269.7916666666656,"value":0.937007874015748},{"number":64,"time":270.36354166666564,"value":1},{"number":64,"time":272.7343749999989,"value":0.8661417322834646},{"number":64,"time":272.7541666666656,"value":0.7559055118110236},{"number":64,"time":272.7624999999989,"value":0.6535433070866141},{"number":64,"time":272.7697916666656,"value":0.6062992125984252},{"number":64,"time":272.7781249999989,"value":0.5748031496062992},{"number":64,"time":272.78645833333223,"value":0.5275590551181102},{"number":64,"time":272.7937499999989,"value":0.47244094488188976},{"number":64,"time":272.80208333333223,"value":0.3779527559055118},{"number":64,"time":272.8218749999989,"value":0.2755905511811024},{"number":64,"time":272.89791666666554,"value":0.3779527559055118},{"number":64,"time":272.9104166666655,"value":0.48031496062992124},{"number":64,"time":272.91874999999885,"value":0.5118110236220472},{"number":64,"time":272.9260416666655,"value":0.5433070866141733},{"number":64,"time":272.93749999999886,"value":0.5748031496062992},{"number":64,"time":272.9541666666655,"value":0.6141732283464567},{"number":64,"time":272.96249999999884,"value":0.6456692913385826},{"number":64,"time":272.97812499999884,"value":0.7559055118110236},{"number":64,"time":273.00208333333217,"value":0.8503937007874016},{"number":64,"time":273.1822916666655,"value":1},{"number":64,"time":276.1093749999988,"value":0.8661417322834646},{"number":64,"time":276.12395833333215,"value":0.7559055118110236},{"number":64,"time":276.1322916666655,"value":0.6456692913385826},{"number":64,"time":276.1406249999988,"value":0.5984251968503937},{"number":64,"time":276.14895833333213,"value":0.5590551181102362},{"number":64,"time":276.15729166666546,"value":0.5039370078740157},{"number":64,"time":276.1687499999988,"value":0.3779527559055118},{"number":64,"time":276.1812499999988,"value":0.2755905511811024},{"number":64,"time":276.2562499999988,"value":0.3779527559055118},{"number":64,"time":276.26874999999876,"value":0.48031496062992124},{"number":64,"time":276.27604166666544,"value":0.5196850393700787},{"number":64,"time":276.2885416666654,"value":0.5590551181102362},{"number":64,"time":276.29999999999876,"value":0.5905511811023622},{"number":64,"time":276.3166666666654,"value":0.6299212598425197},{"number":64,"time":276.3322916666654,"value":0.7559055118110236},{"number":64,"time":276.35624999999874,"value":0.8503937007874016},{"number":64,"time":277.11145833333205,"value":1},{"number":64,"time":279.47395833333206,"value":0.8503937007874016},{"number":64,"time":279.48645833333205,"value":0.7559055118110236},{"number":64,"time":279.4937499999987,"value":0.6535433070866141},{"number":64,"time":279.50208333333205,"value":0.6062992125984252},{"number":64,"time":279.5093749999987,"value":0.5669291338582677},{"number":64,"time":279.51770833333205,"value":0.5118110236220472},{"number":64,"time":279.5218749999987,"value":0.48031496062992124},{"number":64,"time":279.5312499999987,"value":0.3779527559055118},{"number":64,"time":279.54270833333203,"value":0.2755905511811024},{"number":64,"time":279.61874999999867,"value":0.3779527559055118},{"number":64,"time":279.630208333332,"value":0.48031496062992124},{"number":64,"time":279.6374999999987,"value":0.5196850393700787},{"number":64,"time":279.64999999999867,"value":0.5590551181102362},{"number":64,"time":279.66249999999866,"value":0.5905511811023622},{"number":64,"time":279.673958333332,"value":0.6220472440944882},{"number":64,"time":279.6947916666653,"value":0.7322834645669292},{"number":64,"time":279.7104166666653,"value":0.8267716535433071},{"number":64,"time":279.7937499999986,"value":0.937007874015748},{"number":64,"time":279.7979166666653,"value":1},{"number":64,"time":282.7447916666652,"value":0.8661417322834646},{"number":64,"time":282.7604166666652,"value":0.7086614173228346},{"number":64,"time":282.7697916666652,"value":0.6377952755905512},{"number":64,"time":282.7729166666652,"value":0.6062992125984252},{"number":64,"time":282.7812499999985,"value":0.5669291338582677},{"number":64,"time":282.7885416666652,"value":0.5196850393700787},{"number":64,"time":282.79270833333186,"value":0.4881889763779528},{"number":64,"time":282.8010416666652,"value":0.3779527559055118},{"number":64,"time":282.8124999999985,"value":0.2755905511811024},{"number":64,"time":282.8843749999985,"value":0.3779527559055118},{"number":64,"time":282.8968749999985,"value":0.48031496062992124},{"number":64,"time":282.90416666666516,"value":0.5118110236220472},{"number":64,"time":282.9124999999985,"value":0.5433070866141733},{"number":64,"time":282.9249999999985,"value":0.5826771653543307},{"number":64,"time":282.9364583333318,"value":0.6141732283464567},{"number":64,"time":282.94479166666514,"value":0.6535433070866141},{"number":64,"time":282.95312499999847,"value":0.7559055118110236},{"number":64,"time":282.96874999999847,"value":0.8503937007874016},{"number":64,"time":283.0197916666651,"value":0},{"number":64,"time":283.04062499999844,"value":1},{"number":64,"time":286.08645833333173,"value":0.8661417322834646},{"number":64,"time":286.11041666666506,"value":0.7322834645669292},{"number":64,"time":286.1239583333317,"value":0.6377952755905512},{"number":64,"time":286.1312499999984,"value":0.6062992125984252},{"number":64,"time":286.1427083333317,"value":0.5748031496062992},{"number":64,"time":286.1583333333317,"value":0.5433070866141733},{"number":64,"time":286.22708333333173,"value":0.5748031496062992},{"number":64,"time":286.24270833333173,"value":0.6062992125984252},{"number":64,"time":286.2552083333317,"value":0.6377952755905512},{"number":64,"time":286.2708333333317,"value":0.7322834645669292},{"number":64,"time":286.2906249999984,"value":0.8267716535433071},{"number":64,"time":289.3062499999984,"value":0.937007874015748},{"number":64,"time":289.3218749999984,"value":1},{"number":64,"time":289.43020833333173,"value":0.8661417322834646},{"number":64,"time":289.45416666666506,"value":0.7322834645669292},{"number":64,"time":289.46145833333173,"value":0.6535433070866141},{"number":64,"time":289.46979166666506,"value":0.6141732283464567},{"number":64,"time":289.4781249999984,"value":0.5748031496062992},{"number":64,"time":289.48541666666506,"value":0.5433070866141733},{"number":64,"time":289.4937499999984,"value":0.5039370078740157},{"number":64,"time":289.5020833333317,"value":0.47244094488188976},{"number":64,"time":289.5687499999984,"value":0.5039370078740157},{"number":64,"time":289.58124999999836,"value":0.5354330708661418},{"number":64,"time":289.5989583333317,"value":0.5669291338582677},{"number":64,"time":289.6093749999984,"value":0.5984251968503937},{"number":64,"time":289.6218749999984,"value":0.6299212598425197},{"number":64,"time":289.6374999999984,"value":0.7322834645669292},{"number":64,"time":289.65416666666505,"value":0.8267716535433071},{"number":64,"time":292.69999999999834,"value":0.937007874015748},{"number":64,"time":292.7114583333317,"value":1},{"number":64,"time":292.84687499999836,"value":0.8661417322834646},{"number":64,"time":292.8708333333317,"value":0.7322834645669292},{"number":64,"time":292.879166666665,"value":0.6456692913385826},{"number":64,"time":292.8864583333317,"value":0.6062992125984252},{"number":64,"time":292.894791666665,"value":0.5748031496062992},{"number":64,"time":292.90312499999834,"value":0.5354330708661418},{"number":64,"time":292.91145833333167,"value":0.49606299212598426},{"number":64,"time":292.966666666665,"value":0.4015748031496063},{"number":64,"time":292.98645833333165,"value":0.47244094488188976},{"number":64,"time":292.99895833333164,"value":0.5039370078740157},{"number":64,"time":293.00729166666497,"value":0.5354330708661418},{"number":64,"time":293.02291666666497,"value":0.5669291338582677},{"number":64,"time":293.0343749999983,"value":0.5984251968503937},{"number":64,"time":293.04791666666495,"value":0.6299212598425197},{"number":64,"time":293.0624999999983,"value":0.7559055118110236},{"number":64,"time":293.0874999999983,"value":0.8503937007874016},{"number":64,"time":296.6458333333316,"value":0.7322834645669292},{"number":64,"time":296.6531249999983,"value":0.6456692913385826},{"number":64,"time":296.6614583333316,"value":0.6062992125984252},{"number":64,"time":296.66979166666493,"value":0.5748031496062992},{"number":64,"time":296.6770833333316,"value":0.5354330708661418},{"number":64,"time":296.68541666666493,"value":0.4881889763779528},{"number":64,"time":296.6979166666649,"value":0.4015748031496063},{"number":64,"time":296.7333333333316,"value":0},{"number":64,"time":296.8010416666649,"value":0.47244094488188976},{"number":64,"time":296.8093749999982,"value":0.5039370078740157},{"number":64,"time":296.8218749999982,"value":0.5354330708661418},{"number":64,"time":296.8374999999982,"value":0.5669291338582677},{"number":64,"time":296.8531249999982,"value":0.5984251968503937},{"number":64,"time":296.8656249999982,"value":0.6299212598425197},{"number":64,"time":296.88541666666487,"value":0.7322834645669292},{"number":64,"time":296.90520833333153,"value":0.8267716535433071},{"number":64,"time":300.2760416666648,"value":0.937007874015748},{"number":64,"time":300.35624999999817,"value":0.8267716535433071},{"number":64,"time":300.36874999999816,"value":0.7322834645669292},{"number":64,"time":300.37604166666483,"value":0.6456692913385826},{"number":64,"time":300.38437499999816,"value":0.6062992125984252},{"number":64,"time":300.3927083333315,"value":0.5748031496062992},{"number":64,"time":300.39999999999816,"value":0.5354330708661418},{"number":64,"time":300.4083333333315,"value":0.49606299212598426},{"number":64,"time":300.4239583333315,"value":0.4015748031496063},{"number":64,"time":300.4833333333315,"value":0.48031496062992124},{"number":64,"time":300.4989583333315,"value":0.5118110236220472},{"number":64,"time":300.51145833333146,"value":0.5433070866141733},{"number":64,"time":300.5281249999981,"value":0.5748031496062992},{"number":64,"time":300.54479166666476,"value":0.6062992125984252},{"number":64,"time":300.55520833333145,"value":0.6456692913385826},{"number":64,"time":300.5802083333314,"value":0.7559055118110236},{"number":64,"time":303.2135416666648,"value":0.8503937007874016},{"number":64,"time":303.8572916666648,"value":0.7322834645669292},{"number":64,"time":303.86562499999815,"value":0.6535433070866141},{"number":64,"time":303.8729166666648,"value":0.6141732283464567},{"number":64,"time":303.8822916666648,"value":0.5748031496062992},{"number":64,"time":303.8906249999981,"value":0.5433070866141733},{"number":64,"time":303.89687499999815,"value":0.49606299212598426},{"number":64,"time":303.9135416666648,"value":0.3779527559055118},{"number":64,"time":303.99062499999815,"value":0.47244094488188976},{"number":64,"time":303.9979166666648,"value":0.5039370078740157},{"number":64,"time":304.00937499999816,"value":0.5354330708661418},{"number":64,"time":304.02499999999816,"value":0.5669291338582677},{"number":64,"time":304.0416666666648,"value":0.5984251968503937},{"number":64,"time":304.05312499999815,"value":0.6299212598425197},{"number":64,"time":304.0770833333315,"value":0.7322834645669292},{"number":64,"time":304.7447916666648,"value":0.8267716535433071},{"number":64,"time":307.26770833333154,"value":0.7322834645669292},{"number":64,"time":307.2770833333315,"value":0.6456692913385826},{"number":64,"time":307.2843749999982,"value":0.6062992125984252},{"number":64,"time":307.29166666666487,"value":0.5748031496062992},{"number":64,"time":307.2999999999982,"value":0.5354330708661418},{"number":64,"time":307.30937499999817,"value":0.49606299212598426},{"number":64,"time":307.37604166666483,"value":0.4015748031496063},{"number":64,"time":307.38749999999817,"value":0.47244094488188976},{"number":64,"time":307.39999999999816,"value":0.5039370078740157},{"number":64,"time":307.4114583333315,"value":0.5354330708661418},{"number":64,"time":307.4239583333315,"value":0.5669291338582677},{"number":64,"time":307.4395833333315,"value":0.5984251968503937},{"number":64,"time":307.45624999999814,"value":0.6377952755905512},{"number":64,"time":307.4760416666648,"value":0.7322834645669292},{"number":64,"time":310.3864583333315,"value":0.8267716535433071},{"number":64,"time":310.83124999999814,"value":0.937007874015748},{"number":64,"time":310.9229166666648,"value":0.8267716535433071},{"number":64,"time":310.93333333333146,"value":0.7322834645669292},{"number":64,"time":310.9468749999981,"value":0.6456692913385826},{"number":64,"time":310.9552083333314,"value":0.6062992125984252},{"number":64,"time":310.9656249999981,"value":0.5669291338582677},{"number":64,"time":310.97916666666475,"value":0.5275590551181102},{"number":64,"time":310.99479166666475,"value":0.49606299212598426},{"number":64,"time":311.06666666666473,"value":0.5354330708661418},{"number":64,"time":311.09062499999806,"value":0.5669291338582677},{"number":64,"time":311.1072916666647,"value":0.5984251968503937},{"number":64,"time":311.1229166666647,"value":0.6377952755905512},{"number":64,"time":311.14687499999803,"value":0.7559055118110236},{"number":64,"time":311.249999999998,"value":0.8503937007874016},{"number":64,"time":314.453124999998,"value":0.7559055118110236},{"number":64,"time":314.4604166666647,"value":0.6614173228346457},{"number":64,"time":314.46979166666466,"value":0.6299212598425197},{"number":64,"time":314.47708333333134,"value":0.5984251968503937},{"number":64,"time":314.484374999998,"value":0.5669291338582677},{"number":64,"time":314.496874999998,"value":0.5275590551181102},{"number":64,"time":314.5041666666647,"value":0.49606299212598426},{"number":64,"time":314.59270833333136,"value":0.5354330708661418},{"number":64,"time":314.60833333333136,"value":0.5669291338582677},{"number":64,"time":314.624999999998,"value":0.5984251968503937},{"number":64,"time":314.637499999998,"value":0.6299212598425197},{"number":64,"time":314.65520833333136,"value":0.7559055118110236},{"number":64,"time":314.7010416666647,"value":0.8503937007874016},{"number":64,"time":317.9229166666647,"value":0.7322834645669292},{"number":64,"time":317.93124999999804,"value":0.6456692913385826},{"number":64,"time":317.9385416666647,"value":0.6062992125984252},{"number":64,"time":317.94687499999804,"value":0.5748031496062992},{"number":64,"time":317.95520833333137,"value":0.5433070866141733},{"number":64,"time":317.96249999999804,"value":0.5039370078740157},{"number":64,"time":317.97083333333137,"value":0.47244094488188976},{"number":64,"time":318.0541666666647,"value":0.5039370078740157},{"number":64,"time":318.0666666666647,"value":0.5354330708661418},{"number":64,"time":318.08437499999803,"value":0.5669291338582677},{"number":64,"time":318.0947916666647,"value":0.5984251968503937},{"number":64,"time":318.10624999999806,"value":0.6299212598425197},{"number":64,"time":318.1260416666647,"value":0.7559055118110236},{"number":64,"time":318.15833333333137,"value":0.8503937007874016},{"number":64,"time":321.2416666666647,"value":1},{"number":64,"time":321.32187499999804,"value":0.8661417322834646},{"number":64,"time":321.3447916666647,"value":0.7322834645669292},{"number":64,"time":321.35833333333136,"value":0.6377952755905512},{"number":64,"time":321.36562499999803,"value":0.6062992125984252},{"number":64,"time":321.3729166666647,"value":0.5748031496062992},{"number":64,"time":321.3854166666647,"value":0.5354330708661418},{"number":64,"time":321.3979166666647,"value":0.49606299212598426},{"number":64,"time":321.4729166666647,"value":0.5354330708661418},{"number":64,"time":321.4885416666647,"value":0.5669291338582677},{"number":64,"time":321.5041666666647,"value":0.5984251968503937},{"number":64,"time":321.5177083333313,"value":0.6299212598425197},{"number":64,"time":321.5333333333313,"value":0.7322834645669292},{"number":64,"time":321.5489583333313,"value":0.8267716535433071},{"number":64,"time":325.06041666666476,"value":0},{"number":64,"time":328.9874999999982,"value":0.937007874015748},{"number":64,"time":329.01979166666484,"value":1},{"number":64,"time":329.1229166666648,"value":0.8661417322834646},{"number":64,"time":329.1427083333315,"value":0.7559055118110236},{"number":64,"time":329.14999999999816,"value":0},{"number":64,"time":329.3041666666648,"value":0.6535433070866141},{"number":64,"time":329.3114583333315,"value":0.6062992125984252},{"number":64,"time":329.31874999999815,"value":0.5748031496062992},{"number":64,"time":329.3270833333315,"value":0.5354330708661418},{"number":64,"time":329.3354166666648,"value":0.4881889763779528},{"number":64,"time":329.3510416666648,"value":0.4015748031496063},{"number":64,"time":329.42708333333144,"value":0.47244094488188976},{"number":64,"time":329.4395833333314,"value":0.5118110236220472},{"number":64,"time":329.45104166666476,"value":0.5433070866141733},{"number":64,"time":329.4677083333314,"value":0.5748031496062992},{"number":64,"time":329.48437499999807,"value":0.6062992125984252},{"number":64,"time":329.4958333333314,"value":0.6456692913385826},{"number":64,"time":329.51562499999807,"value":0.7559055118110236},{"number":64,"time":329.55937499999806,"value":0.8503937007874016},{"number":64,"time":332.79374999999806,"value":1},{"number":64,"time":332.8895833333314,"value":0.8503937007874016},{"number":64,"time":332.90624999999807,"value":0.7559055118110236},{"number":64,"time":332.91354166666474,"value":0.6614173228346457},{"number":64,"time":332.92187499999807,"value":0.6220472440944882},{"number":64,"time":332.9302083333314,"value":0.5905511811023622},{"number":64,"time":332.93749999999807,"value":0.5590551181102362},{"number":64,"time":332.9458333333314,"value":0.5196850393700787},{"number":64,"time":332.9541666666647,"value":0.48031496062992124},{"number":64,"time":333.0499999999981,"value":0.5118110236220472},{"number":64,"time":333.06249999999807,"value":0.5433070866141733},{"number":64,"time":333.0770833333314,"value":0.5748031496062992},{"number":64,"time":333.0895833333314,"value":0.6062992125984252},{"number":64,"time":333.10104166666474,"value":0.6377952755905512},{"number":64,"time":333.11666666666474,"value":0.7559055118110236},{"number":64,"time":333.1489583333314,"value":0.8503937007874016},{"number":64,"time":336.38749999999806,"value":1},{"number":64,"time":336.42812499999803,"value":0.8661417322834646},{"number":64,"time":336.45208333333136,"value":0.7322834645669292},{"number":64,"time":336.4604166666647,"value":0.6456692913385826},{"number":64,"time":336.46770833333136,"value":0.6062992125984252},{"number":64,"time":336.4760416666647,"value":0.5669291338582677},{"number":64,"time":336.48333333333136,"value":0.5275590551181102},{"number":64,"time":336.4916666666647,"value":0.48031496062992124},{"number":64,"time":336.5041666666647,"value":0.3779527559055118},{"number":64,"time":336.5958333333313,"value":0.48031496062992124},{"number":64,"time":336.60416666666464,"value":0.5118110236220472},{"number":64,"time":336.6114583333313,"value":0.5433070866141733},{"number":64,"time":336.62812499999797,"value":0.5748031496062992},{"number":64,"time":336.6395833333313,"value":0.6062992125984252},{"number":64,"time":336.6520833333313,"value":0.6456692913385826},{"number":64,"time":336.6635416666646,"value":0.7559055118110236},{"number":64,"time":336.6916666666646,"value":0.8503937007874016},{"number":64,"time":340.081249999998,"value":1},{"number":64,"time":340.23645833333137,"value":0.8661417322834646},{"number":64,"time":340.2604166666647,"value":0.7322834645669292},{"number":64,"time":340.268749999998,"value":0.6456692913385826},{"number":64,"time":340.2760416666647,"value":0.6062992125984252},{"number":64,"time":340.284374999998,"value":0.5669291338582677},{"number":64,"time":340.293749999998,"value":0.5354330708661418},{"number":64,"time":340.3010416666647,"value":0.49606299212598426},{"number":64,"time":340.3166666666647,"value":0.4015748031496063},{"number":64,"time":340.3666666666647,"value":0},{"number":64,"time":340.39166666666466,"value":0.5511811023622047},{"number":64,"time":340.4239583333313,"value":0.5826771653543307},{"number":64,"time":340.44791666666464,"value":0.6141732283464567},{"number":64,"time":340.4645833333313,"value":0.6535433070866141},{"number":64,"time":340.48437499999795,"value":0.7559055118110236},{"number":64,"time":340.5239583333313,"value":0.8503937007874016},{"number":64,"time":343.9885416666645,"value":1},{"number":64,"time":344.10937499999784,"value":0.8661417322834646},{"number":64,"time":344.13333333333117,"value":0.7559055118110236},{"number":64,"time":344.1416666666645,"value":0.6614173228346457},{"number":64,"time":344.14895833333117,"value":0.6220472440944882},{"number":64,"time":344.1572916666645,"value":0.5905511811023622},{"number":64,"time":344.16874999999783,"value":0.5511811023622047},{"number":64,"time":344.17708333333115,"value":0.5196850393700787},{"number":64,"time":344.1885416666645,"value":0.48031496062992124},{"number":64,"time":344.20208333333113,"value":0},{"number":64,"time":344.24479166666447,"value":0.5354330708661418},{"number":64,"time":344.25729166666446,"value":0.5669291338582677},{"number":64,"time":344.26770833333114,"value":0.5984251968503937},{"number":64,"time":344.2822916666645,"value":0.6456692913385826},{"number":64,"time":344.29166666666447,"value":0.7559055118110236},{"number":64,"time":344.30729166666447,"value":0.8503937007874016},{"number":64,"time":344.3812499999978,"value":1},{"number":64,"time":347.9187499999979,"value":0.8503937007874016},{"number":64,"time":347.93541666666454,"value":0.7322834645669292},{"number":64,"time":347.9427083333312,"value":0.6456692913385826},{"number":64,"time":347.95104166666454,"value":0.6062992125984252},{"number":64,"time":347.95937499999786,"value":0.5748031496062992},{"number":64,"time":347.96666666666454,"value":0.5433070866141733},{"number":64,"time":347.97499999999786,"value":0.5118110236220472},{"number":64,"time":347.9833333333312,"value":0.48031496062992124},{"number":64,"time":348.0114583333312,"value":0.3779527559055118},{"number":64,"time":348.06249999999784,"value":0.47244094488188976},{"number":64,"time":348.07083333333117,"value":0.5039370078740157},{"number":64,"time":348.08333333333115,"value":0.5433070866141733},{"number":64,"time":348.0947916666645,"value":0.5748031496062992},{"number":64,"time":348.1072916666645,"value":0.6062992125984252},{"number":64,"time":348.11979166666447,"value":0.6535433070866141},{"number":64,"time":348.1312499999978,"value":0.7795275590551181},{"number":64,"time":348.1593749999978,"value":0.889763779527559},{"number":64,"time":348.1989583333311,"value":1},{"number":64,"time":351.7541666666644,"value":0.8661417322834646},{"number":64,"time":351.7697916666644,"value":0.7322834645669292},{"number":64,"time":351.77916666666437,"value":0.6377952755905512},{"number":64,"time":351.7854166666644,"value":0.5984251968503937},{"number":64,"time":351.7937499999977,"value":0.5590551181102362},{"number":64,"time":351.80208333333104,"value":0.5196850393700787},{"number":64,"time":351.8093749999977,"value":0.47244094488188976},{"number":64,"time":351.82604166666437,"value":0.3779527559055118},{"number":64,"time":351.8781249999977,"value":0.47244094488188976},{"number":64,"time":351.88541666666436,"value":0.5039370078740157},{"number":64,"time":351.89791666666434,"value":0.5433070866141733},{"number":64,"time":351.91041666666433,"value":0.5826771653543307},{"number":64,"time":351.92187499999767,"value":0.6141732283464567},{"number":64,"time":351.933333333331,"value":0.7086614173228346},{"number":64,"time":351.94166666666433,"value":0.8031496062992126},{"number":64,"time":351.96562499999766,"value":0.937007874015748},{"number":64,"time":351.973958333331,"value":1},{"number":64,"time":355.667708333331,"value":0},{"number":64,"time":390.605208333331,"value":0.8661417322834646},{"number":64,"time":390.620833333331,"value":0.7322834645669292},{"number":64,"time":390.62916666666433,"value":0.6535433070866141},{"number":64,"time":390.636458333331,"value":0.6062992125984252},{"number":64,"time":390.64479166666433,"value":0.5748031496062992},{"number":64,"time":390.6572916666643,"value":0.5275590551181102},{"number":64,"time":390.664583333331,"value":0.49606299212598426},{"number":64,"time":390.733333333331,"value":0.5275590551181102},{"number":64,"time":390.74479166666436,"value":0.5590551181102362},{"number":64,"time":390.76041666666436,"value":0.5905511811023622},{"number":64,"time":390.77291666666434,"value":0.6220472440944882},{"number":64,"time":390.78124999999767,"value":0.6535433070866141},{"number":64,"time":390.792708333331,"value":0.7559055118110236},{"number":64,"time":390.808333333331,"value":0.8503937007874016},{"number":64,"time":390.8916666666643,"value":1},{"number":64,"time":399.395833333331,"value":0.8661417322834646},{"number":64,"time":399.45208333333096,"value":0.7559055118110236},{"number":64,"time":399.4812499999976,"value":0.6614173228346457},{"number":64,"time":399.50104166666426,"value":0.6220472440944882},{"number":64,"time":399.5312499999976,"value":0.5905511811023622},{"number":64,"time":399.56354166666426,"value":0.5590551181102362},{"number":64,"time":399.5968749999976,"value":0.5275590551181102},{"number":64,"time":399.6437499999976,"value":0.49606299212598426},{"number":64,"time":400.06354166666426,"value":0.4015748031496063},{"number":64,"time":400.98020833333095,"value":0.2992125984251969},{"number":64,"time":401.1041666666643,"value":0.2047244094488189},{"number":64,"time":401.1593749999976,"value":0.10236220472440945},{"number":64,"time":401.21979166666426,"value":0},{"number":64,"time":403.3822916666643,"value":0.10236220472440945},{"number":64,"time":403.3947916666643,"value":0.2047244094488189},{"number":64,"time":403.42291666666426,"value":0.33070866141732286},{"number":64,"time":403.4989583333309,"value":0.44881889763779526},{"number":64,"time":403.5145833333309,"value":0.48031496062992124},{"number":64,"time":403.55416666666423,"value":0.5118110236220472},{"number":64,"time":403.61458333333087,"value":0.5433070866141733},{"number":64,"time":403.6468749999975,"value":0.5748031496062992},{"number":64,"time":403.68645833333085,"value":0.6062992125984252},{"number":64,"time":403.71458333333084,"value":0.6377952755905512},{"number":64,"time":403.75416666666416,"value":0.7322834645669292},{"number":64,"time":403.8385416666642,"value":0.8267716535433071},{"number":64,"time":403.99895833333085,"value":0.937007874015748},{"number":64,"time":404.0104166666642,"value":1},{"number":64,"time":406.2739583333308,"value":0.8661417322834646},{"number":64,"time":406.51354166666414,"value":0.7559055118110236},{"number":64,"time":406.5614583333308,"value":0.6535433070866141},{"number":64,"time":406.5854166666641,"value":0.6220472440944882},{"number":64,"time":406.6135416666641,"value":0.5905511811023622},{"number":64,"time":406.6416666666641,"value":0.5590551181102362},{"number":64,"time":406.67708333333076,"value":0.5275590551181102},{"number":64,"time":406.7093749999974,"value":0.49606299212598426},{"number":64,"time":406.7531249999974,"value":0.4015748031496063},{"number":64,"time":406.7895833333307,"value":0.2992125984251969},{"number":64,"time":406.82187499999736,"value":0.2047244094488189},{"number":64,"time":406.841666666664,"value":0.10236220472440945},{"number":64,"time":406.8614583333307,"value":0}]},"instrumentNumber":-1},{"name":"3","notes":[{"name":"D5","midi":74,"time":38.177083333333336,"velocity":0.44881889763779526,"duration":0.32604166666666856},{"name":"C#5","midi":73,"time":38.67187500000001,"velocity":0.4645669291338583,"duration":0.13854166666666856},{"name":"B4","midi":71,"time":39.14062500000001,"velocity":0.3779527559055118,"duration":6.453125},{"name":"D5","midi":74,"time":46.06145833333334,"velocity":0.4409448818897638,"duration":0.37708333333333144},{"name":"C#5","midi":73,"time":46.540625000000006,"velocity":0.4251968503937008,"duration":0.14687500000000142},{"name":"A4","midi":69,"time":47.04791666666667,"velocity":0.33070866141732286,"duration":6.438541666666666},{"name":"D5","midi":74,"time":53.95520833333334,"velocity":0.4409448818897638,"duration":0.3802083333333357},{"name":"C#5","midi":73,"time":54.42083333333334,"velocity":0.4645669291338583,"duration":0.16354166666666714},{"name":"B4","midi":71,"time":54.88958333333334,"velocity":0.44881889763779526,"duration":6.586458333333333},{"name":"D5","midi":74,"time":61.89687500000001,"velocity":0.4330708661417323,"duration":0.26874999999999716},{"name":"C#5","midi":73,"time":62.37916666666667,"velocity":0.3937007874015748,"duration":0.12604166666666572},{"name":"A4","midi":69,"time":62.9125,"velocity":0.2755905511811024,"duration":6.5802083333333385},{"name":"D5","midi":74,"time":69.84583333333335,"velocity":0.44881889763779526,"duration":0.37708333333333144},{"name":"C#5","midi":73,"time":70.30625,"velocity":0.44881889763779526,"duration":0.21145833333333997},{"name":"B4","midi":71,"time":70.78645833333334,"velocity":0.36220472440944884,"duration":6.504166666666663},{"name":"D5","midi":74,"time":77.640625,"velocity":0.4409448818897638,"duration":0.5177083333333314},{"name":"C#5","midi":73,"time":78.10520833333334,"velocity":0.48031496062992124,"duration":0.1822916666666572},{"name":"A4","midi":69,"time":78.60416666666666,"velocity":0.3543307086614173,"duration":6.326041666666669},{"name":"D5","midi":74,"time":85.30729166666666,"velocity":0.5196850393700787,"duration":0.4854166666666657},{"name":"C#5","midi":73,"time":85.77604166666666,"velocity":0.4094488188976378,"duration":0.21250000000000568},{"name":"B4","midi":71,"time":86.25729166666666,"velocity":0.3543307086614173,"duration":5.959374999999994},{"name":"D5","midi":74,"time":92.91145833333331,"velocity":0.5196850393700787,"duration":0.26770833333333144},{"name":"C#5","midi":73,"time":93.36979166666664,"velocity":0.48031496062992124,"duration":0.1302083333333286},{"name":"A4","midi":69,"time":93.85520833333331,"velocity":0.31496062992125984,"duration":6.332291666666663},{"name":"D5","midi":74,"time":100.49270833333331,"velocity":0.5039370078740157,"duration":0.22499999999999432},{"name":"C#5","midi":73,"time":100.94374999999997,"velocity":0.48031496062992124,"duration":0.16770833333333712},{"name":"B4","midi":71,"time":101.4302083333333,"velocity":0.4251968503937008,"duration":6.251041666666666},{"name":"D5","midi":74,"time":108.03124999999996,"velocity":0.47244094488188976,"duration":0.23645833333333144},{"name":"C#5","midi":73,"time":108.5114583333333,"velocity":0.5196850393700787,"duration":0.14374999999999716},{"name":"A4","midi":69,"time":108.96979166666662,"velocity":0.4330708661417323,"duration":6.236458333333331},{"name":"E4","midi":64,"time":115.5583333333333,"velocity":0.41732283464566927,"duration":0.19062499999999716},{"name":"F#4","midi":66,"time":116.01562499999996,"velocity":0.47244094488188976,"duration":0.15000000000000568},{"name":"G4","midi":67,"time":116.48124999999996,"velocity":0.48031496062992124,"duration":0.53125},{"name":"A4","midi":69,"time":116.9458333333333,"velocity":0.41732283464566927,"duration":0.46562499999998863},{"name":"B4","midi":71,"time":117.40520833333329,"velocity":0.3937007874015748,"duration":0.6802083333333258},{"name":"E4","midi":64,"time":117.89062499999996,"velocity":0.2755905511811024,"duration":0.24270833333332575},{"name":"F#4","midi":66,"time":118.33958333333328,"velocity":0.33070866141732286,"duration":0.21562500000000284},{"name":"G4","midi":67,"time":118.81666666666662,"velocity":0.2440944881889764,"duration":0.46666666666666856},{"name":"E4","midi":64,"time":119.28020833333329,"velocity":0.33070866141732286,"duration":0.18541666666666856},{"name":"F#4","midi":66,"time":119.73437499999996,"velocity":0.44881889763779526,"duration":0.5291666666666686},{"name":"G4","midi":67,"time":120.19166666666662,"velocity":0.44881889763779526,"duration":0.5281250000000028},{"name":"A4","midi":69,"time":120.67291666666662,"velocity":0.3464566929133858,"duration":1.1052083333333371},{"name":"E4","midi":64,"time":121.10937499999996,"velocity":0.33858267716535434,"duration":0.5812499999999972},{"name":"F#4","midi":66,"time":121.57916666666662,"velocity":0.3228346456692913,"duration":0.47708333333333997},{"name":"G4","midi":67,"time":122.0395833333333,"velocity":0.31496062992125984,"duration":0.5124999999999886},{"name":"E4","midi":64,"time":122.51354166666663,"velocity":0.2755905511811024,"duration":0.5614583333333343},{"name":"F#4","midi":66,"time":122.93958333333329,"velocity":0.4251968503937008,"duration":0.5718750000000057},{"name":"G4","midi":67,"time":123.37812499999995,"velocity":0.44881889763779526,"duration":0.5135416666666828},{"name":"A4","midi":69,"time":123.8208333333333,"velocity":0.49606299212598426,"duration":0.6072916666666828},{"name":"B4","midi":71,"time":124.30729166666664,"velocity":0.41732283464566927,"duration":1.0218750000000085},{"name":"E4","midi":64,"time":124.75937499999998,"velocity":0.33070866141732286,"duration":0.7083333333333428},{"name":"F#4","midi":66,"time":125.19479166666665,"velocity":0.4015748031496063,"duration":0.5291666666666828},{"name":"G4","midi":67,"time":125.66874999999999,"velocity":0.4330708661417323,"duration":0.4541666666666657},{"name":"A4","midi":69,"time":126.12083333333332,"velocity":0.3779527559055118,"duration":0.515625},{"name":"F#4","midi":66,"time":126.57604166666665,"velocity":0.4645669291338583,"duration":0.5031249999999972},{"name":"G4","midi":67,"time":127.03437499999998,"velocity":0.44881889763779526,"duration":0.4645833333333371},{"name":"A4","midi":69,"time":127.45729166666665,"velocity":0.49606299212598426,"duration":0.6520833333333513},{"name":"B4","midi":71,"time":127.91354166666666,"velocity":0.4015748031496063,"duration":0.5406249999999915},{"name":"F#4","midi":66,"time":128.365625,"velocity":0.4566929133858268,"duration":0.4135416666666458},{"name":"G4","midi":67,"time":128.80624999999998,"velocity":0.3464566929133858,"duration":0.5145833333333201},{"name":"F#4","midi":66,"time":129.28124999999997,"velocity":0.3858267716535433,"duration":0.16874999999998863},{"name":"F#4","midi":66,"time":129.72187499999995,"velocity":0.3543307086614173,"duration":0.1875},{"name":"F#4","midi":66,"time":130.17916666666662,"velocity":0.3464566929133858,"duration":0.19374999999999432},{"name":"F#4","midi":66,"time":130.64791666666662,"velocity":0.4409448818897638,"duration":0.43958333333333144},{"name":"E4","midi":64,"time":131.08854166666663,"velocity":0.4566929133858268,"duration":0.5572916666666856},{"name":"F#4","midi":66,"time":131.5583333333333,"velocity":0.3937007874015748,"duration":0.47604166666667425},{"name":"G4","midi":67,"time":132.01354166666664,"velocity":0.3858267716535433,"duration":0.7270833333333542},{"name":"E4","midi":64,"time":132.49166666666665,"velocity":0.2992125984251969,"duration":0.20416666666667993},{"name":"F#4","midi":66,"time":132.93854166666665,"velocity":0.4251968503937008,"duration":0.42083333333332007},{"name":"G4","midi":67,"time":133.40729166666665,"velocity":0.3464566929133858,"duration":0.38958333333332007},{"name":"F#4","midi":66,"time":133.8427083333333,"velocity":0.44881889763779526,"duration":0.8635416666666629},{"name":"G4","midi":67,"time":134.30104166666663,"velocity":0.49606299212598426,"duration":0.5437499999999886},{"name":"A4","midi":69,"time":134.74166666666662,"velocity":0.4645669291338583,"duration":0.5666666666666913},{"name":"B4","midi":71,"time":135.2052083333333,"velocity":0.4015748031496063,"duration":0.33541666666667425},{"name":"F#4","midi":66,"time":135.64062499999997,"velocity":0.4094488188976378,"duration":0.2906250000000057},{"name":"G4","midi":67,"time":136.10937499999997,"velocity":0.33070866141732286,"duration":0.3697916666666572},{"name":"A4","midi":69,"time":136.54374999999996,"velocity":0.33858267716535434,"duration":0.7166666666666686},{"name":"E4","midi":64,"time":137.00104166666662,"velocity":0.2755905511811024,"duration":0.25729166666667425},{"name":"F#4","midi":66,"time":137.4677083333333,"velocity":0.4094488188976378,"duration":0.43437499999998863},{"name":"G4","midi":67,"time":137.9208333333333,"velocity":0.4566929133858268,"duration":0.4802083333333371},{"name":"A4","midi":69,"time":138.3520833333333,"velocity":0.5118110236220472,"duration":0.6062499999999886},{"name":"B4","midi":71,"time":138.79999999999995,"velocity":0.4645669291338583,"duration":0.3541666666666572},{"name":"F#4","midi":66,"time":139.24583333333328,"velocity":0.4251968503937008,"duration":0.3708333333333371},{"name":"G4","midi":67,"time":139.71354166666663,"velocity":0.3464566929133858,"duration":0.3552083333333371},{"name":"A4","midi":69,"time":140.16562499999998,"velocity":0.4251968503937008,"duration":0.47083333333333144},{"name":"B4","midi":71,"time":140.65937499999998,"velocity":0.28346456692913385,"duration":0.2760416666666572},{"name":"E4","midi":64,"time":141.09270833333332,"velocity":0.29133858267716534,"duration":0.19583333333332575},{"name":"F#4","midi":66,"time":141.5333333333333,"velocity":0.4330708661417323,"duration":0.43854166666667993},{"name":"G4","midi":67,"time":141.9708333333333,"velocity":0.49606299212598426,"duration":0.7250000000000227},{"name":"A4","midi":69,"time":142.46041666666665,"velocity":0.3779527559055118,"duration":0.543750000000017},{"name":"E4","midi":64,"time":142.91979166666667,"velocity":0.3779527559055118,"duration":0.21250000000000568},{"name":"E4","midi":64,"time":143.3625,"velocity":0.44881889763779526,"duration":0.17916666666667425},{"name":"E4","midi":64,"time":143.83020833333336,"velocity":0.4015748031496063,"duration":0.171875},{"name":"E4","midi":64,"time":144.26875000000004,"velocity":0.2992125984251969,"duration":0.11562499999999432},{"name":"E4","midi":64,"time":144.7229166666667,"velocity":0.25984251968503935,"duration":0.09375},{"name":"E4","midi":64,"time":145.14687500000002,"velocity":0.3228346456692913,"duration":0.16458333333332575},{"name":"E4","midi":64,"time":145.57291666666669,"velocity":0.3779527559055118,"duration":0.528125000000017},{"name":"F#4","midi":66,"time":146.01562500000003,"velocity":0.36220472440944884,"duration":0.4322916666666856},{"name":"G4","midi":67,"time":146.49270833333338,"velocity":0.2440944881889764,"duration":0.4781250000000057},{"name":"E4","midi":64,"time":146.94687500000006,"velocity":0.2440944881889764,"duration":0.5218749999999943},{"name":"F#4","midi":66,"time":147.35937500000006,"velocity":0.33858267716535434,"duration":0.4437499999999943},{"name":"G4","midi":67,"time":147.82708333333338,"velocity":0.30708661417322836,"duration":0.4322916666666856},{"name":"F#4","midi":66,"time":148.25625000000005,"velocity":0.44881889763779526,"duration":0.5083333333333258},{"name":"G4","midi":67,"time":148.70729166666672,"velocity":0.4251968503937008,"duration":0.44583333333332575},{"name":"A4","midi":69,"time":149.12187500000005,"velocity":0.4645669291338583,"duration":0.5354166666666629},{"name":"B4","midi":71,"time":149.58645833333338,"velocity":0.4645669291338583,"duration":0.5010416666666515},{"name":"G4","midi":67,"time":150.0135416666667,"velocity":0.33858267716535434,"duration":0.4208333333333485},{"name":"A4","midi":69,"time":150.46875000000006,"velocity":0.31496062992125984,"duration":0.6197916666666572},{"name":"F#4","midi":66,"time":150.89479166666672,"velocity":0.3543307086614173,"duration":0.2041666666666515},{"name":"F#4","midi":66,"time":151.32812500000003,"velocity":0.31496062992125984,"duration":0.16458333333332575},{"name":"F#4","midi":66,"time":151.77291666666667,"velocity":0.36220472440944884,"duration":0.37187499999998863},{"name":"E4","midi":64,"time":152.22083333333333,"velocity":0.31496062992125984,"duration":0.5354166666666629},{"name":"G4","midi":67,"time":152.64791666666667,"velocity":0.4094488188976378,"duration":0.4447916666666458},{"name":"A4","midi":69,"time":153.07708333333332,"velocity":0.36220472440944884,"duration":0.5864583333333258},{"name":"F#4","midi":66,"time":153.51354166666664,"velocity":0.3937007874015748,"duration":0.6187500000000057},{"name":"G4","midi":67,"time":153.98333333333332,"velocity":0.33858267716535434,"duration":0.4697916666666515},{"name":"A4","midi":69,"time":154.41562499999998,"velocity":0.4015748031496063,"duration":0.5239583333333258},{"name":"B4","midi":71,"time":154.84687499999998,"velocity":0.4094488188976378,"duration":0.46875},{"name":"G4","midi":67,"time":155.2833333333333,"velocity":0.4251968503937008,"duration":0.453125},{"name":"A4","midi":69,"time":155.70104166666664,"velocity":0.4645669291338583,"duration":0.4906249999999943},{"name":"B4","midi":71,"time":156.14999999999998,"velocity":0.4881889763779528,"duration":0.5052083333333428},{"name":"A4","midi":69,"time":156.58541666666665,"velocity":0.47244094488188976,"duration":0.46979166666667993},{"name":"G4","midi":67,"time":157.00104166666665,"velocity":0.4015748031496063,"duration":0.4677083333333485},{"name":"F#4","midi":66,"time":157.465625,"velocity":0.3937007874015748,"duration":0.44479166666667425},{"name":"A4","midi":69,"time":157.890625,"velocity":0.3937007874015748,"duration":0.534374999999983},{"name":"G4","midi":67,"time":158.33124999999998,"velocity":0.3543307086614173,"duration":0.5979166666666629},{"name":"F#4","midi":66,"time":158.75104166666665,"velocity":0.3543307086614173,"duration":0.5479166666666799},{"name":"E4","midi":64,"time":159.24895833333332,"velocity":0.30708661417322836,"duration":0.13645833333333712},{"name":"E4","midi":64,"time":159.68229166666666,"velocity":0.3464566929133858,"duration":0.6624999999999943},{"name":"F#4","midi":66,"time":160.13125,"velocity":0.3464566929133858,"duration":0.4124999999999943},{"name":"G4","midi":67,"time":160.60416666666666,"velocity":0.29133858267716534,"duration":0.40729166666667993},{"name":"E4","midi":64,"time":161.02812500000002,"velocity":0.2440944881889764,"duration":0.19374999999999432},{"name":"F#4","midi":66,"time":161.46770833333335,"velocity":0.3700787401574803,"duration":0.4260416666666629},{"name":"G4","midi":67,"time":161.921875,"velocity":0.3228346456692913,"duration":0.2708333333333428},{"name":"F#4","midi":66,"time":162.37083333333334,"velocity":0.4566929133858268,"duration":0.5395833333333258},{"name":"G4","midi":67,"time":162.83020833333333,"velocity":0.44881889763779526,"duration":0.48333333333332007},{"name":"A4","midi":69,"time":163.26874999999998,"velocity":0.47244094488188976,"duration":0.49895833333332007},{"name":"B4","midi":71,"time":163.71874999999997,"velocity":0.3779527559055118,"duration":0.3218750000000057},{"name":"G4","midi":67,"time":164.1833333333333,"velocity":0.3543307086614173,"duration":0.27395833333332575},{"name":"A4","midi":69,"time":164.6395833333333,"velocity":0.33070866141732286,"duration":0.2541666666666629},{"name":"F#4","midi":66,"time":165.07187499999995,"velocity":0.4015748031496063,"duration":0.19062500000001137},{"name":"F#4","midi":66,"time":165.52708333333328,"velocity":0.33070866141732286,"duration":0.17083333333332007},{"name":"F#4","midi":66,"time":165.96770833333326,"velocity":0.28346456692913385,"duration":0.5625},{"name":"E4","midi":64,"time":166.41145833333326,"velocity":0.2992125984251969,"duration":0.19895833333333712},{"name":"G4","midi":67,"time":166.8447916666666,"velocity":0.44881889763779526,"duration":0.42916666666667425},{"name":"A4","midi":69,"time":167.25208333333327,"velocity":0.3464566929133858,"duration":0.3010416666666629},{"name":"F#4","midi":66,"time":167.72812499999995,"velocity":0.4015748031496063,"duration":0.2135416666666572},{"name":"G4","midi":67,"time":168.17395833333327,"velocity":0.3779527559055118,"duration":0.21875},{"name":"A4","midi":69,"time":168.60624999999993,"velocity":0.47244094488188976,"duration":0.4479166666666572},{"name":"B4","midi":71,"time":169.0697916666666,"velocity":0.33070866141732286,"duration":0.2541666666666629},{"name":"G4","midi":67,"time":169.54166666666657,"velocity":0.3858267716535433,"duration":0.2750000000000057},{"name":"A4","midi":69,"time":169.9968749999999,"velocity":0.44881889763779526,"duration":0.24791666666666856},{"name":"B4","midi":71,"time":170.43645833333323,"velocity":0.4645669291338583,"duration":0.546875},{"name":"A4","midi":69,"time":170.91041666666658,"velocity":0.3700787401574803,"duration":0.22708333333332575},{"name":"G4","midi":67,"time":171.33020833333325,"velocity":0.2992125984251969,"duration":0.234375},{"name":"F#4","midi":66,"time":171.76874999999993,"velocity":0.3937007874015748,"duration":0.2447916666666572},{"name":"A4","midi":69,"time":172.20729166666658,"velocity":0.4094488188976378,"duration":0.45520833333333144},{"name":"G4","midi":67,"time":172.63958333333323,"velocity":0.4566929133858268,"duration":0.529166666666697},{"name":"E4","midi":64,"time":173.07395833333325,"velocity":0.4566929133858268,"duration":0.19687500000000568},{"name":"E4","midi":64,"time":173.53749999999994,"velocity":0.36220472440944884,"duration":0.12812500000001137},{"name":"E4","midi":64,"time":173.96249999999995,"velocity":0.33070866141732286,"duration":0.2854166666666629},{"name":"D5","midi":74,"time":255.14687499999997,"velocity":0.7244094488188977,"duration":0.23541666666667993},{"name":"C#5","midi":73,"time":255.55104166666663,"velocity":0.7086614173228346,"duration":0.1875},{"name":"B4","midi":71,"time":255.97395833333331,"velocity":0.6456692913385826,"duration":0.23854166666666288},{"name":"D5","midi":74,"time":258.48749999999995,"velocity":0.7007874015748031,"duration":0.20937500000002274},{"name":"C#5","midi":73,"time":258.91979166666664,"velocity":0.6377952755905512,"duration":0.11354166666666288},{"name":"A4","midi":69,"time":259.3395833333333,"velocity":0.48031496062992124,"duration":0.22708333333332575},{"name":"D5","midi":74,"time":261.84687499999995,"velocity":0.7086614173228346,"duration":0.2604166666666856},{"name":"C#5","midi":73,"time":262.26666666666665,"velocity":0.6771653543307087,"duration":0.13645833333333712},{"name":"B4","midi":71,"time":262.65,"velocity":0.5669291338582677,"duration":0.25208333333335986},{"name":"D5","midi":74,"time":265.15729166666665,"velocity":0.7007874015748031,"duration":0.24479166666668561},{"name":"C#5","midi":73,"time":265.571875,"velocity":0.6692913385826772,"duration":0.12708333333335986},{"name":"A4","midi":69,"time":265.959375,"velocity":0.5590551181102362,"duration":0.24270833333332575},{"name":"D5","midi":74,"time":268.475,"velocity":0.6692913385826772,"duration":0.23124999999998863},{"name":"C#5","midi":73,"time":268.87395833333335,"velocity":0.7086614173228346,"duration":0.17500000000001137},{"name":"B4","midi":71,"time":269.28020833333335,"velocity":0.6299212598425197,"duration":0.2614583333333371},{"name":"D5","midi":74,"time":271.81770833333337,"velocity":0.7165354330708661,"duration":0.21249999999997726},{"name":"C#5","midi":73,"time":272.22395833333337,"velocity":0.6771653543307087,"duration":0.10104166666667425},{"name":"A4","midi":69,"time":272.63020833333337,"velocity":0.5669291338582677,"duration":0.23645833333335986},{"name":"D5","midi":74,"time":275.1812500000001,"velocity":0.7007874015748031,"duration":0.19895833333333712},{"name":"C#5","midi":73,"time":275.5854166666668,"velocity":0.7007874015748031,"duration":0.13854166666664014},{"name":"B4","midi":71,"time":275.98541666666677,"velocity":0.6141732283464567,"duration":0.21666666666664014},{"name":"D5","midi":74,"time":278.5177083333334,"velocity":0.6850393700787402,"duration":0.23124999999998863},{"name":"C#5","midi":73,"time":278.92916666666673,"velocity":0.6614173228346457,"duration":0.12187499999998863},{"name":"A4","midi":69,"time":279.33541666666673,"velocity":0.5748031496062992,"duration":0.21875},{"name":"D5","midi":74,"time":281.8166666666667,"velocity":0.7244094488188977,"duration":0.22500000000002274},{"name":"C#5","midi":73,"time":282.2239583333334,"velocity":0.7244094488188977,"duration":0.13229166666667425},{"name":"B4","midi":71,"time":282.6270833333334,"velocity":0.6377952755905512,"duration":0.25937499999997726},{"name":"D5","midi":74,"time":285.15416666666675,"velocity":0.3464566929133858,"duration":0.12916666666666288},{"name":"C#5","midi":73,"time":285.5354166666668,"velocity":0.3779527559055118,"duration":0.11874999999997726},{"name":"A4","midi":69,"time":285.96666666666675,"velocity":0.3779527559055118,"duration":0.17916666666667425},{"name":"D5","midi":74,"time":288.4312500000001,"velocity":0.5196850393700787,"duration":0.22500000000002274},{"name":"C#5","midi":73,"time":288.84166666666675,"velocity":0.44881889763779526,"duration":0.11041666666665151},{"name":"B4","midi":71,"time":289.2802083333334,"velocity":0.3543307086614173,"duration":0.20729166666666288},{"name":"D5","midi":74,"time":291.8614583333334,"velocity":0.3858267716535433,"duration":0.16666666666668561},{"name":"C#5","midi":73,"time":292.2552083333334,"velocity":0.3858267716535433,"duration":0.10624999999998863},{"name":"A4","midi":69,"time":292.71666666666675,"velocity":0.33858267716535434,"duration":0.20625000000001137},{"name":"B4","midi":71,"time":297.0958333333334,"velocity":0.2677165354330709,"duration":0.5760416666666401},{"name":"A4","midi":69,"time":297.5770833333334,"velocity":0.3464566929133858,"duration":0.375},{"name":"G4","midi":67,"time":297.99166666666673,"velocity":0.3543307086614173,"duration":0.33645833333332575},{"name":"F#4","midi":66,"time":298.40104166666674,"velocity":0.36220472440944884,"duration":0.08541666666667425},{"name":"E4","midi":64,"time":298.8031250000001,"velocity":0.41732283464566927,"duration":0.08125000000001137},{"name":"F#4","midi":66,"time":299.2406250000001,"velocity":0.41732283464566927,"duration":0.1416666666666515},{"name":"G4","midi":67,"time":299.6708333333334,"velocity":0.33070866141732286,"duration":0.4052083333333485},{"name":"E4","midi":64,"time":300.1291666666668,"velocity":0.41732283464566927,"duration":0.517708333333303},{"name":"B4","midi":71,"time":300.62291666666675,"velocity":0.3858267716535433,"duration":0.46249999999997726},{"name":"A4","midi":69,"time":301.0354166666667,"velocity":0.44881889763779526,"duration":0.3687500000000341},{"name":"G4","midi":67,"time":301.4416666666668,"velocity":0.3543307086614173,"duration":0.40937500000001137},{"name":"F#4","midi":66,"time":301.86875000000015,"velocity":0.4015748031496063,"duration":0.32083333333332575},{"name":"E4","midi":64,"time":302.2812500000001,"velocity":0.31496062992125984,"duration":0.06354166666665151},{"name":"F#4","midi":66,"time":302.69791666666674,"velocity":0.4566929133858268,"duration":0.10520833333333712},{"name":"G4","midi":67,"time":303.15416666666675,"velocity":0.25196850393700787,"duration":0.40625},{"name":"E4","midi":64,"time":303.60729166666675,"velocity":0.3464566929133858,"duration":0.5562499999999773},{"name":"B4","midi":71,"time":304.1239583333334,"velocity":0.3464566929133858,"duration":0.4937500000000341},{"name":"A4","midi":69,"time":304.5489583333334,"velocity":0.3937007874015748,"duration":0.3718750000000455},{"name":"G4","midi":67,"time":304.9656250000001,"velocity":0.36220472440944884,"duration":0.39270833333335986},{"name":"F#4","midi":66,"time":305.38125000000014,"velocity":0.44881889763779526,"duration":0.3489583333333144},{"name":"E4","midi":64,"time":305.78958333333344,"velocity":0.36220472440944884,"duration":0.10208333333332575},{"name":"F#4","midi":66,"time":306.1968750000001,"velocity":0.3937007874015748,"duration":0.4229166666666515},{"name":"G4","midi":67,"time":306.65937500000007,"velocity":0.2755905511811024,"duration":0.36770833333332575},{"name":"E4","midi":64,"time":307.06562500000007,"velocity":0.33858267716535434,"duration":0.46666666666664014},{"name":"F#4","midi":66,"time":307.51875000000007,"velocity":0.3700787401574803,"duration":0.3822916666666174},{"name":"G4","midi":67,"time":307.94895833333334,"velocity":0.33858267716535434,"duration":0.44375000000002274},{"name":"E4","midi":64,"time":308.38958333333335,"velocity":0.29133858267716534,"duration":0.11041666666665151},{"name":"F#4","midi":66,"time":308.796875,"velocity":0.4330708661417323,"duration":0.31562500000001137},{"name":"G4","midi":67,"time":309.25937500000003,"velocity":0.28346456692913385,"duration":0.47604166666667425},{"name":"F#4","midi":66,"time":309.68750000000006,"velocity":0.30708661417322836,"duration":0.4989583333333485},{"name":"E4","midi":64,"time":310.1645833333334,"velocity":0.2992125984251969,"duration":0.038541666666674246},{"name":"E4","midi":64,"time":310.66666666666674,"velocity":0.2677165354330709,"duration":0.32187499999997726},{"name":"B5","midi":83,"time":311.34583333333336,"velocity":0.3937007874015748,"duration":0.20520833333330302},{"name":"B4","midi":71,"time":311.38125,"velocity":0.2755905511811024,"duration":0.21666666666664014},{"name":"A5","midi":81,"time":311.771875,"velocity":0.47244094488188976,"duration":0.20833333333337123},{"name":"A4","midi":69,"time":311.84895833333337,"velocity":0.1889763779527559,"duration":0.17812500000002274},{"name":"G5","midi":79,"time":312.1937500000001,"velocity":0.4409448818897638,"duration":0.19062500000001137},{"name":"G4","midi":67,"time":312.23541666666677,"velocity":0.2755905511811024,"duration":0.14895833333332575},{"name":"F#5","midi":78,"time":312.60416666666674,"velocity":0.4881889763779528,"duration":0.1572916666666515},{"name":"F#4","midi":66,"time":312.63541666666674,"velocity":0.36220472440944884,"duration":0.13958333333329165},{"name":"E5","midi":76,"time":313.0322916666667,"velocity":0.36220472440944884,"duration":0.078125},{"name":"E4","midi":64,"time":313.053125,"velocity":0.2755905511811024,"duration":0.038541666666674246},{"name":"F#5","midi":78,"time":313.43750000000006,"velocity":0.4251968503937008,"duration":0.18020833333332575},{"name":"F#4","midi":66,"time":313.45833333333337,"velocity":0.28346456692913385,"duration":0.08958333333333712},{"name":"G5","midi":79,"time":313.87812500000007,"velocity":0.3779527559055118,"duration":0.10729166666664014},{"name":"G4","midi":67,"time":313.9229166666667,"velocity":0.2047244094488189,"duration":0.10520833333333712},{"name":"E4","midi":64,"time":314.3479166666667,"velocity":0.1732283464566929,"duration":0.17395833333335986},{"name":"E5","midi":76,"time":314.3812500000001,"velocity":0.1968503937007874,"duration":0.22916666666668561},{"name":"B4","midi":71,"time":314.8312500000001,"velocity":0.4251968503937008,"duration":0.19062500000001137},{"name":"B5","midi":83,"time":314.8489583333335,"velocity":0.4251968503937008,"duration":0.19166666666666288},{"name":"A5","midi":81,"time":315.2510416666668,"velocity":0.4645669291338583,"duration":0.20624999999995453},{"name":"A4","midi":69,"time":315.28750000000014,"velocity":0.33858267716535434,"duration":0.22395833333331439},{"name":"G5","midi":79,"time":315.6614583333334,"velocity":0.47244094488188976,"duration":0.13020833333337123},{"name":"G4","midi":67,"time":315.6791666666668,"velocity":0.33858267716535434,"duration":0.109375},{"name":"F#5","midi":78,"time":316.0635416666668,"velocity":0.4566929133858268,"duration":0.1656250000000341},{"name":"F#4","midi":66,"time":316.0864583333335,"velocity":0.3464566929133858,"duration":0.16145833333337123},{"name":"E5","midi":76,"time":316.48229166666687,"velocity":0.3543307086614173,"duration":0.05624999999997726},{"name":"E4","midi":64,"time":316.51354166666687,"velocity":0.2204724409448819,"duration":0.02812499999998863},{"name":"F#5","midi":78,"time":316.8833333333335,"velocity":0.4251968503937008,"duration":0.15416666666669698},{"name":"F#4","midi":66,"time":316.8937500000002,"velocity":0.3464566929133858,"duration":0.15208333333333712},{"name":"G5","midi":79,"time":317.29375000000016,"velocity":0.3700787401574803,"duration":0.09062499999998863},{"name":"G4","midi":67,"time":317.3239583333335,"velocity":0.2677165354330709,"duration":0.1010416666666174},{"name":"E4","midi":64,"time":317.7635416666668,"velocity":0.2204724409448819,"duration":0.22395833333331439},{"name":"E5","midi":76,"time":317.77187500000014,"velocity":0.36220472440944884,"duration":0.30937499999998863},{"name":"B5","midi":83,"time":318.29062500000015,"velocity":0.44881889763779526,"duration":0.20937500000002274},{"name":"B4","midi":71,"time":318.31666666666683,"velocity":0.31496062992125984,"duration":0.21666666666669698},{"name":"A5","midi":81,"time":318.70520833333353,"velocity":0.5590551181102362,"duration":0.20104166666664014},{"name":"A4","midi":69,"time":318.7302083333335,"velocity":0.4015748031496063,"duration":0.23854166666666288},{"name":"G5","midi":79,"time":319.1083333333335,"velocity":0.4094488188976378,"duration":0.11041666666665151},{"name":"G4","midi":67,"time":319.1177083333335,"velocity":0.33070866141732286,"duration":0.09895833333331439},{"name":"F#5","midi":78,"time":319.51041666666686,"velocity":0.4251968503937008,"duration":0.14375000000001137},{"name":"F#4","midi":66,"time":319.5281250000002,"velocity":0.3464566929133858,"duration":0.10104166666667425},{"name":"E5","midi":76,"time":319.9500000000002,"velocity":0.3700787401574803,"duration":0.06875000000002274},{"name":"E4","midi":64,"time":319.9687500000002,"velocity":0.2755905511811024,"duration":0.03020833333334849},{"name":"F#4","midi":66,"time":320.3291666666669,"velocity":0.36220472440944884,"duration":0.11041666666665151},{"name":"F#5","midi":78,"time":320.3343750000002,"velocity":0.3858267716535433,"duration":0.15208333333333712},{"name":"G5","midi":79,"time":320.78125000000017,"velocity":0.3779527559055118,"duration":0.07083333333332575},{"name":"G4","midi":67,"time":320.80104166666683,"velocity":0.25984251968503935,"duration":0.06875000000002274},{"name":"E5","midi":76,"time":321.23437500000017,"velocity":0.3228346456692913,"duration":0.27187500000002274},{"name":"E4","midi":64,"time":321.25416666666683,"velocity":0.08661417322834646,"duration":0.1864583333333485},{"name":"F#5","midi":78,"time":321.6531250000002,"velocity":0.41732283464566927,"duration":0.3656249999999659},{"name":"F#4","midi":66,"time":321.7041666666669,"velocity":0.2283464566929134,"duration":0.15312499999998863},{"name":"G5","midi":79,"time":322.0656250000002,"velocity":0.48031496062992124,"duration":0.15625},{"name":"G4","midi":67,"time":322.09375000000017,"velocity":0.33070866141732286,"duration":0.16145833333337123},{"name":"E4","midi":64,"time":322.5000000000002,"velocity":0.14960629921259844,"duration":0.08749999999997726},{"name":"E5","midi":76,"time":322.52395833333355,"velocity":0.31496062992125984,"duration":0.06666666666666288},{"name":"F#5","midi":78,"time":322.92395833333353,"velocity":0.4015748031496063,"duration":0.17708333333325754},{"name":"F#4","midi":66,"time":322.95312500000017,"velocity":0.28346456692913385,"duration":0.13854166666664014},{"name":"G5","midi":79,"time":323.3562500000001,"velocity":0.36220472440944884,"duration":0.12395833333329165},{"name":"G4","midi":67,"time":323.36770833333344,"velocity":0.29133858267716534,"duration":0.09166666666664014},{"name":"F#5","midi":78,"time":323.7822916666667,"velocity":0.36220472440944884,"duration":0.10208333333332575},{"name":"F#4","midi":66,"time":323.7947916666667,"velocity":0.2992125984251969,"duration":0.11979166666668561},{"name":"E4","midi":64,"time":324.2333333333334,"velocity":0.2755905511811024,"duration":0.07083333333332575},{"name":"E5","midi":76,"time":324.2364583333334,"velocity":0.2992125984251969,"duration":0.09062499999998863},{"name":"E5","midi":76,"time":324.7437500000001,"velocity":0.33070866141732286,"duration":0.4697916666666515},{"name":"B5","midi":83,"time":325.8520833333334,"velocity":0.30708661417322836,"duration":0.5593749999999886},{"name":"C6","midi":84,"time":326.3708333333334,"velocity":0.4645669291338583,"duration":0.4406249999999545},{"name":"D6","midi":86,"time":326.77083333333337,"velocity":0.5354330708661418,"duration":0.504166666666606},{"name":"C6","midi":84,"time":327.203125,"velocity":0.5826771653543307,"duration":0.5249999999999773},{"name":"B5","midi":83,"time":327.6322916666666,"velocity":0.5196850393700787,"duration":0.5520833333333144},{"name":"E6","midi":88,"time":328.0614583333333,"velocity":0.5433070866141733,"duration":0.48437499999994316},{"name":"B5","midi":83,"time":328.48645833333325,"velocity":0.4251968503937008,"duration":0.5302083333333485},{"name":"A5","midi":81,"time":328.9624999999999,"velocity":0.4330708661417323,"duration":0.3958333333333144},{"name":"A5","midi":81,"time":329.66145833333326,"velocity":0.3937007874015748,"duration":0.4625000000000341},{"name":"B5","midi":83,"time":330.08645833333327,"velocity":0.5354330708661418,"duration":0.45625000000001137},{"name":"C6","midi":84,"time":330.49791666666664,"velocity":0.5590551181102362,"duration":0.41874999999998863},{"name":"B5","midi":83,"time":330.8895833333333,"velocity":0.5354330708661418,"duration":0.49062500000002274},{"name":"A5","midi":81,"time":331.3270833333333,"velocity":0.5039370078740157,"duration":0.46145833333332575},{"name":"D6","midi":86,"time":331.74791666666664,"velocity":0.4881889763779528,"duration":0.5562499999999773},{"name":"A5","midi":81,"time":332.2125,"velocity":0.4094488188976378,"duration":0.5208333333333144},{"name":"G5","midi":79,"time":332.66666666666663,"velocity":0.41732283464566927,"duration":0.39895833333332575},{"name":"G5","midi":79,"time":333.23229166666664,"velocity":0.3937007874015748,"duration":0.5124999999999886},{"name":"A5","midi":81,"time":333.69374999999997,"velocity":0.5118110236220472,"duration":0.4427083333333144},{"name":"B5","midi":83,"time":334.12812499999995,"velocity":0.49606299212598426,"duration":0.43020833333332575},{"name":"A5","midi":81,"time":334.5270833333333,"velocity":0.5905511811023622,"duration":0.44270833333337123},{"name":"G5","midi":79,"time":334.93229166666663,"velocity":0.5196850393700787,"duration":0.48020833333339397},{"name":"C6","midi":84,"time":335.37916666666666,"velocity":0.5275590551181102,"duration":0.4791666666666856},{"name":"G5","midi":79,"time":335.8135416666667,"velocity":0.5118110236220472,"duration":0.4593749999999659},{"name":"F#5","midi":78,"time":336.2635416666667,"velocity":0.47244094488188976,"duration":0.38541666666662877},{"name":"F#5","midi":78,"time":336.7885416666667,"velocity":0.4094488188976378,"duration":0.44583333333332575},{"name":"G5","midi":79,"time":337.21979166666665,"velocity":0.48031496062992124,"duration":0.42500000000001137},{"name":"A5","midi":81,"time":337.625,"velocity":0.4409448818897638,"duration":0.4104166666666629},{"name":"G5","midi":79,"time":338.0260416666667,"velocity":0.44881889763779526,"duration":0.4281249999999659},{"name":"F#5","midi":78,"time":338.46354166666663,"velocity":0.4251968503937008,"duration":0.5249999999999773},{"name":"B5","midi":83,"time":338.9177083333333,"velocity":0.3543307086614173,"duration":1.4854166666667084},{"name":"G5","midi":79,"time":339.43229166666663,"velocity":0.2992125984251969,"duration":0.8739583333333485},{"name":"E5","midi":76,"time":340.0020833333333,"velocity":0.2677165354330709,"duration":0.36145833333335986},{"name":"B6","midi":95,"time":340.67083333333335,"velocity":0.4566929133858268,"duration":0.5625},{"name":"B5","midi":83,"time":340.7104166666667,"velocity":0.2992125984251969,"duration":0.265625},{"name":"C7","midi":96,"time":341.2270833333333,"velocity":0.5354330708661418,"duration":0.27916666666664014},{"name":"C6","midi":84,"time":341.26875,"velocity":0.33070866141732286,"duration":0.18124999999997726},{"name":"D7","midi":98,"time":341.6677083333333,"velocity":0.41732283464566927,"duration":0.16979166666669698},{"name":"D6","midi":86,"time":341.6739583333333,"velocity":0.3700787401574803,"duration":0.203125},{"name":"C7","midi":96,"time":342.09479166666665,"velocity":0.4566929133858268,"duration":0.1624999999999659},{"name":"C6","midi":84,"time":342.121875,"velocity":0.31496062992125984,"duration":0.1260416666666515},{"name":"B6","midi":95,"time":342.509375,"velocity":0.4251968503937008,"duration":0.16041666666666288},{"name":"B5","midi":83,"time":342.56874999999997,"velocity":0.2125984251968504,"duration":0.05104166666666288},{"name":"E7","midi":100,"time":342.9770833333333,"velocity":0.4251968503937008,"duration":0.15833333333330302},{"name":"E6","midi":88,"time":343.04479166666664,"velocity":0.15748031496062992,"duration":0.11874999999997726},{"name":"B6","midi":95,"time":343.478125,"velocity":0.3700787401574803,"duration":0.17395833333335986},{"name":"B5","midi":83,"time":343.52187499999997,"velocity":0.2204724409448819,"duration":0.11562500000002274},{"name":"A6","midi":93,"time":343.971875,"velocity":0.4251968503937008,"duration":0.28958333333332575},{"name":"A5","midi":81,"time":343.97395833333337,"velocity":0.3228346456692913,"duration":0.27395833333332575},{"name":"A6","midi":93,"time":344.48125,"velocity":0.4094488188976378,"duration":0.2354166666666515},{"name":"A5","midi":81,"time":344.4875,"velocity":0.31496062992125984,"duration":0.21562499999998863},{"name":"B6","midi":95,"time":344.94166666666666,"velocity":0.49606299212598426,"duration":0.26458333333329165},{"name":"B5","midi":83,"time":344.98541666666665,"velocity":0.2677165354330709,"duration":0.19687499999997726},{"name":"C7","midi":96,"time":345.4083333333333,"velocity":0.36220472440944884,"duration":0.16874999999998863},{"name":"C6","midi":84,"time":345.44791666666663,"velocity":0.25984251968503935,"duration":0.14791666666667425},{"name":"B6","midi":95,"time":345.8739583333333,"velocity":0.2440944881889764,"duration":0.16666666666662877},{"name":"B5","midi":83,"time":345.8864583333333,"velocity":0.16535433070866143,"duration":0.16770833333328028},{"name":"A6","midi":93,"time":346.2968749999999,"velocity":0.3464566929133858,"duration":0.14479166666666288},{"name":"A5","midi":81,"time":346.3020833333332,"velocity":0.30708661417322836,"duration":0.08854166666668561},{"name":"D7","midi":98,"time":346.7718749999999,"velocity":0.3700787401574803,"duration":0.140625},{"name":"D6","midi":86,"time":346.80208333333326,"velocity":0.2677165354330709,"duration":0.12916666666666288},{"name":"A6","midi":93,"time":347.2437499999999,"velocity":0.31496062992125984,"duration":0.11354166666666288},{"name":"G5","midi":79,"time":347.7322916666666,"velocity":0.2992125984251969,"duration":0.3833333333333826},{"name":"G6","midi":91,"time":347.73437499999994,"velocity":0.29133858267716534,"duration":0.38229166666667425},{"name":"G5","midi":79,"time":348.290625,"velocity":0.33070866141732286,"duration":0.21458333333333712},{"name":"G6","midi":91,"time":348.29999999999995,"velocity":0.3228346456692913,"duration":0.265625},{"name":"A6","midi":93,"time":348.7697916666666,"velocity":0.48031496062992124,"duration":0.25729166666667425},{"name":"A5","midi":81,"time":348.7749999999999,"velocity":0.36220472440944884,"duration":0.234375},{"name":"B6","midi":95,"time":349.22916666666663,"velocity":0.36220472440944884,"duration":0.18437499999998863},{"name":"B5","midi":83,"time":349.24791666666664,"velocity":0.25984251968503935,"duration":0.19999999999998863},{"name":"A6","midi":93,"time":349.63541666666663,"velocity":0.3779527559055118,"duration":0.16770833333333712},{"name":"A5","midi":81,"time":349.65729166666665,"velocity":0.3464566929133858,"duration":0.17083333333329165},{"name":"G6","midi":91,"time":350.06770833333326,"velocity":0.3700787401574803,"duration":0.13437499999997726},{"name":"G5","midi":79,"time":350.08020833333325,"velocity":0.3464566929133858,"duration":0.07708333333334849},{"name":"C7","midi":96,"time":350.56145833333323,"velocity":0.4015748031496063,"duration":0.12916666666666288},{"name":"C6","midi":84,"time":350.5781249999999,"velocity":0.33070866141732286,"duration":0.13645833333333712},{"name":"G6","midi":91,"time":351.0343749999999,"velocity":0.3543307086614173,"duration":0.10729166666669698},{"name":"G5","midi":79,"time":351.0729166666666,"velocity":0.2204724409448819,"duration":0.1020833333333826},{"name":"F#5","midi":78,"time":351.5333333333333,"velocity":0.3937007874015748,"duration":0.35624999999998863},{"name":"F#6","midi":90,"time":351.54999999999995,"velocity":0.4330708661417323,"duration":0.3635416666666629},{"name":"F#5","midi":78,"time":352.0927083333333,"velocity":0.33858267716535434,"duration":0.21249999999997726},{"name":"F#6","midi":90,"time":352.09687499999995,"velocity":0.48031496062992124,"duration":0.4572916666666629},{"name":"G6","midi":91,"time":352.5697916666666,"velocity":0.4251968503937008,"duration":0.23854166666666288},{"name":"G5","midi":79,"time":352.5875,"velocity":0.4645669291338583,"duration":0.16874999999998863},{"name":"A6","midi":93,"time":353.0145833333333,"velocity":0.4094488188976378,"duration":0.19479166666667425},{"name":"A5","midi":81,"time":353.0364583333333,"velocity":0.33070866141732286,"duration":0.2249999999999659},{"name":"G6","midi":91,"time":353.44374999999997,"velocity":0.47244094488188976,"duration":0.16145833333331439},{"name":"G5","midi":79,"time":353.46874999999994,"velocity":0.3543307086614173,"duration":0.10833333333334849},{"name":"F#6","midi":90,"time":353.8760416666666,"velocity":0.5039370078740157,"duration":0.1479166666667311},{"name":"F#5","midi":78,"time":353.89374999999995,"velocity":0.3937007874015748,"duration":0.12395833333334849},{"name":"B5","midi":83,"time":354.415625,"velocity":0.4094488188976378,"duration":0.23854166666666288},{"name":"B6","midi":95,"time":354.4208333333333,"velocity":0.4251968503937008,"duration":0.24062500000002274},{"name":"D5","midi":74,"time":389.37083333333334,"velocity":0.4645669291338583,"duration":0.2958333333333485},{"name":"C#5","midi":73,"time":389.87395833333335,"velocity":0.4566929133858268,"duration":0.15937500000001137},{"name":"B4","midi":71,"time":390.3760416666667,"velocity":0.3464566929133858,"duration":6.690625000000011},{"name":"D5","midi":74,"time":397.4281250000001,"velocity":0.4409448818897638,"duration":0.3447916666666515},{"name":"C#5","midi":73,"time":398.00520833333337,"velocity":0.4015748031496063,"duration":0.21041666666667425},{"name":"A4","midi":69,"time":399.3104166666667,"velocity":0.31496062992125984,"duration":7.481249999999989}],"controlChanges":{},"instrumentNumber":-1},{"name":"4","notes":[{"name":"B4","midi":71,"time":69.84270833333333,"velocity":0.4251968503937008,"duration":0.4052083333333343},{"name":"A4","midi":69,"time":70.32916666666667,"velocity":0.47244094488188976,"duration":0.13750000000000284},{"name":"E4","midi":64,"time":70.80520833333334,"velocity":0.3464566929133858,"duration":6.44479166666666},{"name":"B4","midi":71,"time":77.64583333333333,"velocity":0.4094488188976378,"duration":0.4906249999999943},{"name":"A4","midi":69,"time":78.13229166666666,"velocity":0.33070866141732286,"duration":0.13958333333333428},{"name":"E4","midi":64,"time":78.609375,"velocity":0.31496062992125984,"duration":6.390625},{"name":"B4","midi":71,"time":85.31979166666666,"velocity":0.4094488188976378,"duration":0.4906249999999943},{"name":"A4","midi":69,"time":85.803125,"velocity":0.4094488188976378,"duration":0.16874999999998863},{"name":"E4","midi":64,"time":86.26979166666665,"velocity":0.2992125984251969,"duration":6.077083333333334},{"name":"B4","midi":71,"time":92.91354166666665,"velocity":0.44881889763779526,"duration":0.39270833333333144},{"name":"A4","midi":69,"time":93.36874999999998,"velocity":0.4330708661417323,"duration":0.11145833333333144},{"name":"E4","midi":64,"time":93.85937499999997,"velocity":0.28346456692913385,"duration":6.481250000000003},{"name":"B4","midi":71,"time":100.48854166666663,"velocity":0.4566929133858268,"duration":0.2666666666666657},{"name":"A4","midi":69,"time":100.95312499999997,"velocity":0.4251968503937008,"duration":0.14895833333333997},{"name":"E4","midi":64,"time":101.44999999999997,"velocity":0.31496062992125984,"duration":6.299999999999997},{"name":"B4","midi":71,"time":108.0364583333333,"velocity":0.4251968503937008,"duration":0.2864583333333286},{"name":"A4","midi":69,"time":108.51354166666663,"velocity":0.49606299212598426,"duration":0.12291666666666856},{"name":"E4","midi":64,"time":108.97812499999996,"velocity":0.36220472440944884,"duration":6.396874999999994},{"name":"E2","midi":40,"time":282.82604166666664,"velocity":0.6299212598425197,"duration":0.14895833333332575},{"name":"D2","midi":38,"time":286.18125,"velocity":0.31496062992125984,"duration":0.08125000000001137},{"name":"C2","midi":36,"time":289.49583333333334,"velocity":0.47244094488188976,"duration":0.10000000000002274},{"name":"D2","midi":38,"time":292.9302083333334,"velocity":0.4015748031496063,"duration":0.11874999999997726},{"name":"E2","midi":40,"time":296.75208333333336,"velocity":0.3464566929133858,"duration":0.16770833333333712},{"name":"D2","midi":38,"time":300.40208333333334,"velocity":0.3779527559055118,"duration":0.14375000000001137},{"name":"C2","midi":36,"time":303.8875,"velocity":0.3937007874015748,"duration":0.15833333333335986},{"name":"D2","midi":38,"time":307.3104166666667,"velocity":0.4094488188976378,"duration":0.1260416666666515},{"name":"E2","midi":40,"time":311.0552083333333,"velocity":0.3464566929133858,"duration":0.11354166666666288},{"name":"D2","midi":38,"time":314.57916666666665,"velocity":0.4015748031496063,"duration":0.055208333333325754},{"name":"C2","midi":36,"time":318.01666666666665,"velocity":0.3543307086614173,"duration":0.10520833333333712},{"name":"D2","midi":38,"time":321.44166666666666,"velocity":0.3937007874015748,"duration":0.07916666666665151},{"name":"E4","midi":64,"time":399.3208333333333,"velocity":0.2992125984251969,"duration":7.459375000000023}],"controlChanges":{},"instrumentNumber":-1},{"name":"5","notes":[{"name":"E3","midi":52,"time":174.20729166666666,"velocity":0.3228346456692913,"duration":0.5291666666666686},{"name":"E3","midi":52,"time":175.10625,"velocity":0.2125984251968504,"duration":0.42291666666667993},{"name":"E3","midi":52,"time":176,"velocity":0.18110236220472442,"duration":0.3552083333333371},{"name":"E3","midi":52,"time":176.87916666666666,"velocity":0.11023622047244094,"duration":0.4281249999999943},{"name":"D3","midi":50,"time":177.72083333333333,"velocity":0.2755905511811024,"duration":0.5437499999999886},{"name":"D3","midi":50,"time":178.61666666666665,"velocity":0.2283464566929134,"duration":0.39166666666667993},{"name":"D3","midi":50,"time":179.5,"velocity":0.2283464566929134,"duration":0.4020833333333371},{"name":"D3","midi":50,"time":180.36354166666666,"velocity":0.2755905511811024,"duration":0.421875},{"name":"A2","midi":45,"time":181.2125,"velocity":0.28346456692913385,"duration":0.6458333333333428},{"name":"A2","midi":45,"time":182.12708333333336,"velocity":0.16535433070866143,"duration":0.4583333333333428},{"name":"A2","midi":45,"time":182.99895833333338,"velocity":0.1889763779527559,"duration":0.45520833333333144},{"name":"A2","midi":45,"time":183.8729166666667,"velocity":0.2125984251968504,"duration":0.41458333333332575},{"name":"E2","midi":40,"time":184.70208333333335,"velocity":0.36220472440944884,"duration":0.46041666666667425},{"name":"E2","midi":40,"time":185.57916666666668,"velocity":0.28346456692913385,"duration":0.027083333333337123},{"name":"E2","midi":40,"time":186.44479166666667,"velocity":0.2755905511811024,"duration":0.04791666666667993},{"name":"E2","midi":40,"time":187.32708333333335,"velocity":0.29133858267716534,"duration":0.03645833333334281},{"name":"E3","midi":52,"time":188.18020833333335,"velocity":0.3779527559055118,"duration":0.46666666666666856},{"name":"E3","midi":52,"time":189.06250000000003,"velocity":0.33070866141732286,"duration":0.45625000000001137},{"name":"E3","midi":52,"time":189.9385416666667,"velocity":0.2755905511811024,"duration":0.47708333333332575},{"name":"E3","midi":52,"time":190.83125000000004,"velocity":0.2755905511811024,"duration":0.4124999999999943},{"name":"D3","midi":50,"time":191.6760416666667,"velocity":0.3543307086614173,"duration":0.4729166666666629},{"name":"D3","midi":50,"time":192.53125000000003,"velocity":0.31496062992125984,"duration":0.19687500000000568},{"name":"D3","midi":50,"time":193.40000000000003,"velocity":0.30708661417322836,"duration":0.42916666666667425},{"name":"D3","midi":50,"time":194.2520833333334,"velocity":0.30708661417322836,"duration":0.3802083333333428},{"name":"A2","midi":45,"time":195.11354166666672,"velocity":0.4015748031496063,"duration":0.4729166666666629},{"name":"A2","midi":45,"time":195.98437500000006,"velocity":0.33858267716535434,"duration":0.4333333333333371},{"name":"A2","midi":45,"time":196.8333333333334,"velocity":0.33070866141732286,"duration":0.46770833333332007},{"name":"A2","midi":45,"time":197.69166666666672,"velocity":0.33070866141732286,"duration":0.39166666666667993},{"name":"E2","midi":40,"time":198.54687500000006,"velocity":0.4015748031496063,"duration":0.42395833333333144},{"name":"E2","midi":40,"time":199.42500000000007,"velocity":0.33070866141732286,"duration":0.07291666666665719},{"name":"E2","midi":40,"time":200.25729166666673,"velocity":0.3779527559055118,"duration":0.08645833333332575},{"name":"E2","midi":40,"time":201.1145833333334,"velocity":0.4094488188976378,"duration":0.06145833333332007},{"name":"E3","midi":52,"time":201.96041666666673,"velocity":0.4566929133858268,"duration":0.4312500000000057},{"name":"E3","midi":52,"time":202.8239583333334,"velocity":0.4094488188976378,"duration":0.46562499999998863},{"name":"E3","midi":52,"time":203.70000000000005,"velocity":0.3779527559055118,"duration":0.4375},{"name":"E3","midi":52,"time":204.57187500000003,"velocity":0.36220472440944884,"duration":0.3791666666666629},{"name":"D3","midi":50,"time":205.4510416666667,"velocity":0.4251968503937008,"duration":0.5041666666666629},{"name":"D3","midi":50,"time":206.32812500000003,"velocity":0.4015748031496063,"duration":0.25104166666667993},{"name":"D3","midi":50,"time":207.19895833333337,"velocity":0.3858267716535433,"duration":0.45208333333332007},{"name":"D3","midi":50,"time":208.07291666666669,"velocity":0.3858267716535433,"duration":0.4114583333333428},{"name":"A2","midi":45,"time":208.94895833333337,"velocity":0.4330708661417323,"duration":0.4791666666666572},{"name":"A2","midi":45,"time":209.82187500000003,"velocity":0.4409448818897638,"duration":0.4572916666666629},{"name":"A2","midi":45,"time":210.6916666666667,"velocity":0.3543307086614173,"duration":0.47604166666667425},{"name":"A2","midi":45,"time":211.53645833333337,"velocity":0.3937007874015748,"duration":0.42083333333332007},{"name":"E2","midi":40,"time":212.39375,"velocity":0.4566929133858268,"duration":0.43541666666666856},{"name":"E2","midi":40,"time":213.25,"velocity":0.44881889763779526,"duration":0.16874999999998863},{"name":"E2","midi":40,"time":214.11458333333331,"velocity":0.4251968503937008,"duration":0.08645833333332575},{"name":"E2","midi":40,"time":214.9708333333333,"velocity":0.4566929133858268,"duration":0.07187500000000568},{"name":"E3","midi":52,"time":215.8364583333333,"velocity":0.3228346456692913,"duration":0.4572916666666629},{"name":"E3","midi":52,"time":216.6614583333333,"velocity":0.4566929133858268,"duration":0.5114583333333371},{"name":"E3","midi":52,"time":217.5135416666666,"velocity":0.4645669291338583,"duration":0.42916666666667425},{"name":"E3","midi":52,"time":218.37812499999995,"velocity":0.47244094488188976,"duration":0.41874999999998863},{"name":"D3","midi":50,"time":219.23437499999994,"velocity":0.4881889763779528,"duration":0.4468750000000057},{"name":"D3","midi":50,"time":220.09999999999994,"velocity":0.4251968503937008,"duration":0.24166666666667425},{"name":"D3","midi":50,"time":220.9416666666666,"velocity":0.44881889763779526,"duration":0.4156250000000057},{"name":"D3","midi":50,"time":221.80624999999995,"velocity":0.44881889763779526,"duration":0.41979166666666856},{"name":"A2","midi":45,"time":222.6645833333333,"velocity":0.5039370078740157,"duration":0.45520833333333144},{"name":"A2","midi":45,"time":223.51666666666662,"velocity":0.4566929133858268,"duration":0.4791666666666572},{"name":"A2","midi":45,"time":224.36041666666662,"velocity":0.48031496062992124,"duration":0.48541666666667993},{"name":"A2","midi":45,"time":225.22187499999998,"velocity":0.5118110236220472,"duration":0.3645833333333428},{"name":"E2","midi":40,"time":226.046875,"velocity":0.5433070866141733,"duration":0.45208333333332007},{"name":"E2","midi":40,"time":226.90520833333332,"velocity":0.4881889763779528,"duration":0.18437499999998863},{"name":"E2","midi":40,"time":227.72916666666663,"velocity":0.5275590551181102,"duration":0.15937500000001137},{"name":"E2","midi":40,"time":228.57187499999998,"velocity":0.5118110236220472,"duration":0.08958333333333712},{"name":"E3","midi":52,"time":229.42604166666663,"velocity":0.5826771653543307,"duration":0.4312500000000057},{"name":"E3","midi":52,"time":230.27604166666663,"velocity":0.4330708661417323,"duration":0.40520833333332007},{"name":"E3","midi":52,"time":231.12083333333328,"velocity":0.5275590551181102,"duration":0.4260416666666629},{"name":"E3","midi":52,"time":231.98645833333327,"velocity":0.5354330708661418,"duration":0.4020833333333371},{"name":"D3","midi":50,"time":232.8270833333333,"velocity":0.5669291338582677,"duration":0.41354166666667425},{"name":"D3","midi":50,"time":233.64687499999997,"velocity":0.5748031496062992,"duration":0.43854166666667993},{"name":"D3","midi":50,"time":234.47499999999997,"velocity":0.5275590551181102,"duration":0.4572916666666629},{"name":"D3","midi":50,"time":235.30937499999996,"velocity":0.5669291338582677,"duration":0.4104166666666629},{"name":"A2","midi":45,"time":236.14166666666662,"velocity":0.5354330708661418,"duration":0.42291666666667993},{"name":"A2","midi":45,"time":236.9677083333333,"velocity":0.5354330708661418,"duration":0.45104166666666856},{"name":"A2","midi":45,"time":237.8177083333333,"velocity":0.48031496062992124,"duration":0.484375},{"name":"A2","midi":45,"time":238.65624999999994,"velocity":0.5118110236220472,"duration":0.3854166666666572},{"name":"E2","midi":40,"time":239.47812499999992,"velocity":0.5511811023622047,"duration":0.48124999999998863},{"name":"E2","midi":40,"time":240.3197916666666,"velocity":0.5354330708661418,"duration":0.20208333333332007},{"name":"E2","midi":40,"time":241.14270833333325,"velocity":0.5590551181102362,"duration":0.16041666666666288},{"name":"E2","midi":40,"time":241.97916666666657,"velocity":0.5984251968503937,"duration":0.10624999999998863},{"name":"E3","midi":52,"time":242.8218749999999,"velocity":0.5984251968503937,"duration":0.40833333333333144},{"name":"E3","midi":52,"time":243.6562499999999,"velocity":0.5748031496062992,"duration":0.40416666666666856},{"name":"E3","midi":52,"time":244.5187499999999,"velocity":0.5669291338582677,"duration":0.43958333333333144},{"name":"E3","midi":52,"time":245.3718749999999,"velocity":0.5669291338582677,"duration":0.38958333333332007},{"name":"D3","midi":50,"time":246.20416666666657,"velocity":0.6220472440944882,"duration":0.3843750000000057},{"name":"D3","midi":50,"time":247.04791666666657,"velocity":0.5669291338582677,"duration":0.23333333333332007},{"name":"D3","midi":50,"time":247.90208333333322,"velocity":0.5669291338582677,"duration":0.39270833333333144},{"name":"D3","midi":50,"time":248.72083333333322,"velocity":0.5590551181102362,"duration":0.4000000000000057},{"name":"A2","midi":45,"time":249.5281249999999,"velocity":0.6062992125984252,"duration":0.42395833333333144},{"name":"A2","midi":45,"time":250.3656249999999,"velocity":0.5826771653543307,"duration":0.35624999999998863},{"name":"A2","midi":45,"time":251.22604166666656,"velocity":0.5196850393700787,"duration":0.4104166666666629},{"name":"A2","midi":45,"time":252.05833333333322,"velocity":0.5590551181102362,"duration":0.40416666666666856},{"name":"E2","midi":40,"time":252.8687499999999,"velocity":0.5984251968503937,"duration":0.4416666666666629},{"name":"E2","midi":40,"time":253.69270833333323,"velocity":0.6220472440944882,"duration":0.23124999999998863},{"name":"E2","midi":40,"time":254.53229166666654,"velocity":0.6141732283464567,"duration":0.14375000000001137},{"name":"E2","midi":40,"time":255.36354166666655,"velocity":0.5748031496062992,"duration":0.09791666666666288},{"name":"E2","midi":40,"time":256.2052083333332,"velocity":0.6377952755905512,"duration":0.11666666666667425},{"name":"D2","midi":38,"time":259.5385416666665,"velocity":0.5984251968503937,"duration":0.1395833333333485},{"name":"C2","midi":36,"time":262.8854166666665,"velocity":0.5669291338582677,"duration":0.14270833333335986},{"name":"D2","midi":38,"time":266.1802083333332,"velocity":0.6692913385826772,"duration":0.17604166666666288},{"name":"E2","midi":40,"time":269.49374999999986,"velocity":0.6771653543307087,"duration":0.18437499999998863},{"name":"D2","midi":38,"time":272.8489583333332,"velocity":0.6220472440944882,"duration":0.12395833333334849},{"name":"C2","midi":36,"time":276.2052083333332,"velocity":0.6614173228346457,"duration":0.13125000000002274},{"name":"D2","midi":38,"time":279.5291666666665,"velocity":0.6771653543307087,"duration":0.14895833333332575},{"name":"A3","midi":57,"time":399.3177083333332,"velocity":0.2204724409448819,"duration":7.449999999999989}],"controlChanges":{},"instrumentNumber":-1},{"name":"6","notes":[{"name":"E3","midi":52,"time":185.13645833333334,"velocity":0.25984251968503935,"duration":0.23645833333333144},{"name":"F#3","midi":54,"time":185.996875,"velocity":0.4015748031496063,"duration":0.07291666666665719},{"name":"G#3","midi":56,"time":186.88229166666665,"velocity":0.36220472440944884,"duration":0.06145833333332007},{"name":"A3","midi":57,"time":187.74791666666664,"velocity":0.3779527559055118,"duration":0.44479166666667425},{"name":"B3","midi":59,"time":188.61354166666663,"velocity":0.3779527559055118,"duration":0.4468750000000057},{"name":"A3","midi":57,"time":189.45833333333331,"velocity":0.33858267716535434,"duration":0.48229166666666856},{"name":"B3","midi":59,"time":190.3708333333333,"velocity":0.2992125984251969,"duration":0.4489583333333371},{"name":"B3","midi":59,"time":192.10937499999997,"velocity":0.31496062992125984,"duration":0.39375000000001137},{"name":"C#4","midi":61,"time":192.9802083333333,"velocity":0.33858267716535434,"duration":0.24375000000000568},{"name":"B3","midi":59,"time":193.81249999999997,"velocity":0.33070866141732286,"duration":0.46145833333332575},{"name":"A3","midi":57,"time":195.53541666666663,"velocity":0.36220472440944884,"duration":0.3958333333333428},{"name":"B3","midi":59,"time":196.39479166666663,"velocity":0.3937007874015748,"duration":0.4010416666666572},{"name":"A3","midi":57,"time":197.2552083333333,"velocity":0.4330708661417323,"duration":0.43958333333333144},{"name":"E3","midi":52,"time":198.9927083333333,"velocity":0.33858267716535434,"duration":0.2135416666666572},{"name":"F#3","midi":54,"time":199.8333333333333,"velocity":0.4409448818897638,"duration":0.08645833333332575},{"name":"G#3","midi":56,"time":200.71145833333327,"velocity":0.31496062992125984,"duration":0.027083333333337123},{"name":"A3","midi":57,"time":201.54583333333326,"velocity":0.5354330708661418,"duration":0.41874999999998863},{"name":"B3","midi":59,"time":202.38854166666658,"velocity":0.47244094488188976,"duration":0.47708333333332575},{"name":"A3","midi":57,"time":203.26145833333325,"velocity":0.4251968503937008,"duration":0.46562499999998863},{"name":"B3","midi":59,"time":204.1156249999999,"velocity":0.4094488188976378,"duration":0.44999999999998863},{"name":"B3","midi":59,"time":205.8874999999999,"velocity":0.4251968503937008,"duration":0.38749999999998863},{"name":"C#4","midi":61,"time":206.76666666666657,"velocity":0.48031496062992124,"duration":0.2708333333333428},{"name":"B3","midi":59,"time":207.62708333333325,"velocity":0.3937007874015748,"duration":0.45208333333332007},{"name":"A3","midi":57,"time":209.3781249999999,"velocity":0.4094488188976378,"duration":0.4166666666666572},{"name":"B3","midi":59,"time":210.2281249999999,"velocity":0.48031496062992124,"duration":0.38958333333332007},{"name":"A3","midi":57,"time":211.1093749999999,"velocity":0.4566929133858268,"duration":0.421875},{"name":"E3","midi":52,"time":212.83020833333322,"velocity":0.44881889763779526,"duration":0.22708333333332575},{"name":"F#3","midi":54,"time":213.6927083333332,"velocity":0.5039370078740157,"duration":0.11145833333333144},{"name":"G#3","midi":56,"time":214.54374999999987,"velocity":0.5748031496062992,"duration":0.08020833333333144},{"name":"A3","midi":57,"time":215.3802083333332,"velocity":0.5275590551181102,"duration":0.08333333333334281},{"name":"B3","midi":59,"time":216.2427083333332,"velocity":0.4330708661417323,"duration":0.41354166666667425},{"name":"A3","midi":57,"time":217.08541666666656,"velocity":0.48031496062992124,"duration":0.4416666666666629},{"name":"B3","midi":59,"time":217.95104166666655,"velocity":0.4881889763779528,"duration":0.48541666666667993},{"name":"B3","midi":59,"time":219.66770833333322,"velocity":0.4566929133858268,"duration":0.4166666666666572},{"name":"C#4","midi":61,"time":220.52187499999988,"velocity":0.5826771653543307,"duration":0.30520833333332575},{"name":"B3","midi":59,"time":221.37291666666653,"velocity":0.49606299212598426,"duration":0.4322916666666572},{"name":"A3","midi":57,"time":223.10416666666652,"velocity":0.5039370078740157,"duration":0.4489583333333371},{"name":"B3","midi":59,"time":223.95104166666653,"velocity":0.5354330708661418,"duration":0.21770833333332007},{"name":"A3","midi":57,"time":224.7989583333332,"velocity":0.5354330708661418,"duration":0.3395833333333371},{"name":"B3","midi":59,"time":225.64791666666653,"velocity":0.5039370078740157,"duration":0.06666666666666288},{"name":"E3","midi":52,"time":226.49270833333318,"velocity":0.4881889763779528,"duration":0.31354166666667993},{"name":"F#3","midi":54,"time":227.3239583333332,"velocity":0.6220472440944882,"duration":0.17500000000001137},{"name":"G#3","midi":56,"time":228.17291666666654,"velocity":0.6299212598425197,"duration":0.10624999999998863},{"name":"A3","midi":57,"time":229.00833333333318,"velocity":0.5669291338582677,"duration":0.15000000000000568},{"name":"B3","midi":59,"time":229.85208333333318,"velocity":0.5354330708661418,"duration":0.23229166666666856},{"name":"A3","midi":57,"time":230.6885416666665,"velocity":0.5275590551181102,"duration":0.43437499999998863},{"name":"B3","midi":59,"time":231.5541666666665,"velocity":0.5275590551181102,"duration":0.38958333333332007},{"name":"B3","midi":59,"time":233.24687499999982,"velocity":0.5511811023622047,"duration":0.39375000000001137},{"name":"C#4","midi":61,"time":234.0697916666665,"velocity":0.6850393700787402,"duration":0.33541666666667425},{"name":"B3","midi":59,"time":234.89895833333318,"velocity":0.4881889763779528,"duration":0.421875},{"name":"A3","midi":57,"time":236.5583333333332,"velocity":0.6141732283464567,"duration":0.3843750000000057},{"name":"B3","midi":59,"time":237.38229166666653,"velocity":0.6062992125984252,"duration":0.35833333333332007},{"name":"A3","midi":57,"time":238.24374999999986,"velocity":0.5905511811023622,"duration":0.37291666666666856},{"name":"E3","midi":52,"time":239.91354166666653,"velocity":0.5590551181102362,"duration":0.20625000000001137},{"name":"F#3","midi":54,"time":240.74791666666655,"velocity":0.6220472440944882,"duration":0.16874999999998863},{"name":"G#3","midi":56,"time":241.57604166666655,"velocity":0.6850393700787402,"duration":0.11041666666667993},{"name":"A3","midi":57,"time":242.4187499999999,"velocity":0.6456692913385826,"duration":0.06666666666666288},{"name":"B3","midi":59,"time":243.2468749999999,"velocity":0.6062992125984252,"duration":0.14895833333332575},{"name":"A3","midi":57,"time":244.07604166666655,"velocity":0.5669291338582677,"duration":0.16249999999999432},{"name":"B3","midi":59,"time":244.92916666666656,"velocity":0.5118110236220472,"duration":0.15625},{"name":"B3","midi":59,"time":246.61666666666656,"velocity":0.5748031496062992,"duration":0.328125},{"name":"C#4","midi":61,"time":247.46979166666657,"velocity":0.6456692913385826,"duration":0.2395833333333428},{"name":"B3","midi":59,"time":248.3093749999999,"velocity":0.5354330708661418,"duration":0.43854166666667993},{"name":"A3","midi":57,"time":249.95520833333325,"velocity":0.6220472440944882,"duration":0.3802083333333428},{"name":"B3","midi":59,"time":250.7979166666666,"velocity":0.5748031496062992,"duration":0.20416666666667993},{"name":"A3","midi":57,"time":251.64270833333327,"velocity":0.5905511811023622,"duration":0.36250000000001137},{"name":"E3","midi":52,"time":253.29374999999996,"velocity":0.5905511811023622,"duration":0.10833333333332007},{"name":"F#3","midi":54,"time":254.12499999999994,"velocity":0.6535433070866141,"duration":0.1458333333333428},{"name":"G#3","midi":56,"time":254.96562499999996,"velocity":0.6771653543307087,"duration":0.06770833333334281},{"name":"A3","midi":57,"time":255.76249999999996,"velocity":0.5590551181102362,"duration":0.046875},{"name":"E3","midi":52,"time":266.59479166666665,"velocity":0.4881889763779528,"duration":0.32499999999998863},{"name":"F#3","midi":54,"time":267.4427083333333,"velocity":0.6692913385826772,"duration":0.22708333333332575},{"name":"G#3","midi":56,"time":268.2489583333333,"velocity":0.7007874015748031,"duration":0.17500000000001137},{"name":"A3","midi":57,"time":269.1145833333333,"velocity":0.31496062992125984,"duration":0.01770833333335986},{"name":"B3","midi":59,"time":269.91041666666666,"velocity":0.5590551181102362,"duration":0.38125000000002274},{"name":"A3","midi":57,"time":270.7479166666667,"velocity":0.6299212598425197,"duration":0.48645833333335986},{"name":"B3","midi":59,"time":271.58541666666673,"velocity":0.5826771653543307,"duration":0.4260416666666629},{"name":"B3","midi":59,"time":273.2489583333334,"velocity":0.6141732283464567,"duration":0.36770833333332575},{"name":"C#4","midi":61,"time":274.0843750000001,"velocity":0.7244094488188977,"duration":0.30937499999998863},{"name":"B3","midi":59,"time":274.95104166666675,"velocity":0.6062992125984252,"duration":0.421875},{"name":"B3","midi":59,"time":276.60104166666673,"velocity":0.6456692913385826,"duration":0.33125000000001137},{"name":"A3","midi":57,"time":277.4427083333334,"velocity":0.6299212598425197,"duration":0.43541666666664014},{"name":"B3","midi":59,"time":278.28437500000007,"velocity":0.5984251968503937,"duration":0.44999999999998863},{"name":"E3","midi":52,"time":279.94791666666674,"velocity":0.5511811023622047,"duration":0.26875000000001137},{"name":"F#3","midi":54,"time":280.7833333333334,"velocity":0.6456692913385826,"duration":0.14999999999997726},{"name":"G#3","midi":56,"time":281.62187500000005,"velocity":0.6299212598425197,"duration":0.12291666666664014},{"name":"A3","midi":57,"time":282.4697916666667,"velocity":0.3464566929133858,"duration":0.015625}],"controlChanges":{},"instrumentNumber":-1},{"name":"16","notes":[{"name":"E6","midi":88,"time":7.325,"velocity":0.7716535433070866,"duration":0.19166666666666643},{"name":"B4","midi":71,"time":7.346875,"velocity":0.7716535433070866,"duration":0.06354166666666661},{"name":"E4","midi":64,"time":7.8375,"velocity":0.7716535433070866,"duration":0.08854166666666696},{"name":"E4","midi":64,"time":8.392708333333333,"velocity":0.7716535433070866,"duration":0.15625},{"name":"E4","midi":64,"time":8.929166666666667,"velocity":0.7716535433070866,"duration":0.09166666666666679},{"name":"B4","midi":71,"time":9.478125,"velocity":0.7716535433070866,"duration":0.06979166666666714},{"name":"E4","midi":64,"time":9.991666666666667,"velocity":0.7716535433070866,"duration":0.0927083333333325},{"name":"E4","midi":64,"time":10.534374999999999,"velocity":0.7716535433070866,"duration":0.09583333333333321},{"name":"E4","midi":64,"time":11.078124999999998,"velocity":0.7716535433070866,"duration":0.09999999999999964},{"name":"B4","midi":71,"time":11.569791666666665,"velocity":0.7716535433070866,"duration":0.08437499999999964},{"name":"E4","midi":64,"time":12.056249999999999,"velocity":0.7716535433070866,"duration":0.09999999999999964},{"name":"E4","midi":64,"time":12.563541666666666,"velocity":0.7716535433070866,"duration":0.11250000000000071},{"name":"E4","midi":64,"time":13.059375,"velocity":0.7716535433070866,"duration":0.11145833333333321},{"name":"B4","midi":71,"time":13.567708333333332,"velocity":0.7716535433070866,"duration":0.08020833333333321},{"name":"E4","midi":64,"time":14.057291666666666,"velocity":0.7716535433070866,"duration":0.1083333333333325},{"name":"E4","midi":64,"time":14.591666666666665,"velocity":0.7716535433070866,"duration":0.09999999999999964},{"name":"E4","midi":64,"time":15.105208333333332,"velocity":0.7716535433070866,"duration":0.09687500000000071},{"name":"B4","midi":71,"time":15.563541666666666,"velocity":0.7716535433070866,"duration":0.10104166666666714},{"name":"E6","midi":88,"time":15.563541666666666,"velocity":0.7716535433070866,"duration":0.21250000000000036},{"name":"E4","midi":64,"time":16.076041666666665,"velocity":0.7716535433070866,"duration":0.11562500000000142},{"name":"E4","midi":64,"time":16.605208333333334,"velocity":0.7716535433070866,"duration":0.09687500000000071},{"name":"E4","midi":64,"time":17.11041666666667,"velocity":0.7716535433070866,"duration":0.109375},{"name":"B4","midi":71,"time":17.58541666666667,"velocity":0.7716535433070866,"duration":0.09270833333333428},{"name":"E4","midi":64,"time":18.123958333333338,"velocity":0.7716535433070866,"duration":0.09583333333333499},{"name":"E4","midi":64,"time":18.623958333333338,"velocity":0.7716535433070866,"duration":0.11145833333333499},{"name":"E4","midi":64,"time":19.093750000000007,"velocity":0.7716535433070866,"duration":0.10833333333333428},{"name":"B4","midi":71,"time":19.560416666666676,"velocity":0.7716535433070866,"duration":0.11666666666666714},{"name":"E4","midi":64,"time":20.01562500000001,"velocity":0.7716535433070866,"duration":0.10833333333333428},{"name":"E4","midi":64,"time":20.56562500000001,"velocity":0.7716535433070866,"duration":0.11250000000000071},{"name":"E4","midi":64,"time":21.07604166666668,"velocity":0.7716535433070866,"duration":0.11354166666666643},{"name":"B4","midi":71,"time":21.571875000000013,"velocity":0.7716535433070866,"duration":0.10416666666666785},{"name":"E4","midi":64,"time":22.086458333333347,"velocity":0.7716535433070866,"duration":0.10416666666666785},{"name":"E4","midi":64,"time":22.58229166666668,"velocity":0.7716535433070866,"duration":0.10416666666666785},{"name":"E4","midi":64,"time":23.043750000000014,"velocity":0.7716535433070866,"duration":0.10520833333333357},{"name":"E6","midi":88,"time":23.515625000000014,"velocity":0.7716535433070866,"duration":0.10208333333333286},{"name":"B4","midi":71,"time":23.536458333333346,"velocity":0.7716535433070866,"duration":0.10000000000000142},{"name":"E4","midi":64,"time":24.042708333333348,"velocity":0.7716535433070866,"duration":0.10416666666666785},{"name":"E4","midi":64,"time":24.558333333333348,"velocity":0.7716535433070866,"duration":0.10520833333333357},{"name":"E4","midi":64,"time":25.05104166666668,"velocity":0.7716535433070866,"duration":0.09687500000000071},{"name":"B4","midi":71,"time":25.509375000000016,"velocity":0.7716535433070866,"duration":0.11458333333333215},{"name":"E4","midi":64,"time":26.042708333333348,"velocity":0.7716535433070866,"duration":0.09166666666666501},{"name":"E4","midi":64,"time":26.58125000000001,"velocity":0.7716535433070866,"duration":0.12083333333333357},{"name":"E4","midi":64,"time":27.09166666666668,"velocity":0.7716535433070866,"duration":0.13229166666666714},{"name":"B4","midi":71,"time":27.55729166666668,"velocity":0.7716535433070866,"duration":0.09687500000000071},{"name":"E4","midi":64,"time":28.07291666666668,"velocity":0.7716535433070866,"duration":0.10104166666666714},{"name":"E4","midi":64,"time":28.60416666666668,"velocity":0.7716535433070866,"duration":0.10520833333333357},{"name":"E4","midi":64,"time":29.021875000000012,"velocity":0.7716535433070866,"duration":0.109375},{"name":"B4","midi":71,"time":29.509375000000013,"velocity":0.7716535433070866,"duration":0.09270833333333428},{"name":"E4","midi":64,"time":29.994791666666682,"velocity":0.7716535433070866,"duration":0.11458333333333215},{"name":"E4","midi":64,"time":30.51458333333335,"velocity":0.7716535433070866,"duration":0.12395833333333428},{"name":"E4","midi":64,"time":31.012500000000017,"velocity":0.7716535433070866,"duration":0.13020833333333215},{"name":"E6","midi":88,"time":31.501041666666683,"velocity":0.7716535433070866,"duration":0.0833333333333357},{"name":"B4","midi":71,"time":31.51145833333335,"velocity":0.7716535433070866,"duration":0.13125000000000142},{"name":"E4","midi":64,"time":31.988541666666688,"velocity":0.7716535433070866,"duration":0.12083333333333357},{"name":"E4","midi":64,"time":32.50000000000002,"velocity":0.7716535433070866,"duration":0.12916666666666998},{"name":"E4","midi":64,"time":33.02708333333336,"velocity":0.7716535433070866,"duration":0.10833333333333428},{"name":"B4","midi":71,"time":33.48645833333336,"velocity":0.7716535433070866,"duration":0.1041666666666643},{"name":"E4","midi":64,"time":33.971875000000026,"velocity":0.7716535433070866,"duration":0.1197916666666643},{"name":"E4","midi":64,"time":34.52291666666669,"velocity":0.7716535433070866,"duration":0.11562500000000142},{"name":"E4","midi":64,"time":35.02916666666669,"velocity":0.7716535433070866,"duration":0.10000000000000142},{"name":"B4","midi":71,"time":35.47708333333336,"velocity":0.7716535433070866,"duration":0.11354166666666998},{"name":"E4","midi":64,"time":35.9354166666667,"velocity":0.7716535433070866,"duration":0.13645833333333002},{"name":"E4","midi":64,"time":36.43645833333336,"velocity":0.7716535433070866,"duration":0.11249999999999716},{"name":"E4","midi":64,"time":36.93750000000003,"velocity":0.7716535433070866,"duration":0.12395833333333428},{"name":"B4","midi":71,"time":37.44687500000003,"velocity":0.7716535433070866,"duration":0.12083333333333002},{"name":"E4","midi":64,"time":37.93854166666669,"velocity":0.7716535433070866,"duration":0.12812499999999716},{"name":"E4","midi":64,"time":38.412500000000016,"velocity":0.7716535433070866,"duration":0.13229166666666714},{"name":"E4","midi":64,"time":38.943750000000016,"velocity":0.7716535433070866,"duration":0.10729166666666856},{"name":"E6","midi":88,"time":39.40729166666669,"velocity":0.7716535433070866,"duration":0.10729166666666856},{"name":"B4","midi":71,"time":39.42395833333335,"velocity":0.7716535433070866,"duration":0.10000000000000142},{"name":"E4","midi":64,"time":39.90937500000002,"velocity":0.7716535433070866,"duration":0.11354166666666998},{"name":"E4","midi":64,"time":40.39791666666669,"velocity":0.7716535433070866,"duration":0.08437500000000142},{"name":"E4","midi":64,"time":40.85104166666669,"velocity":0.7716535433070866,"duration":0.11249999999999716},{"name":"B4","midi":71,"time":41.354166666666686,"velocity":0.7716535433070866,"duration":0.08020833333333144},{"name":"E4","midi":64,"time":41.86458333333335,"velocity":0.7716535433070866,"duration":0.10104166666666714},{"name":"E4","midi":64,"time":42.347916666666684,"velocity":0.7716535433070866,"duration":0.1197916666666643},{"name":"E4","midi":64,"time":42.843750000000014,"velocity":0.7716535433070866,"duration":0.11249999999999716},{"name":"B4","midi":71,"time":43.35000000000001,"velocity":0.7716535433070866,"duration":0.11145833333333144},{"name":"E4","midi":64,"time":43.868750000000006,"velocity":0.7716535433070866,"duration":0.09687499999999716},{"name":"E4","midi":64,"time":44.35208333333333,"velocity":0.7716535433070866,"duration":0.10833333333333428},{"name":"E4","midi":64,"time":44.838541666666664,"velocity":0.7716535433070866,"duration":0.10729166666666856},{"name":"B4","midi":71,"time":45.302083333333336,"velocity":0.7716535433070866,"duration":0.0885416666666643},{"name":"E4","midi":64,"time":45.80520833333333,"velocity":0.7716535433070866,"duration":0.1197916666666643},{"name":"E4","midi":64,"time":46.296875,"velocity":0.7716535433070866,"duration":0.11666666666666714},{"name":"E4","midi":64,"time":46.82083333333333,"velocity":0.7716535433070866,"duration":0.11666666666666714},{"name":"E6","midi":88,"time":47.27395833333333,"velocity":0.7716535433070866,"duration":0.07916666666666572},{"name":"B4","midi":71,"time":47.297916666666666,"velocity":0.7716535433070866,"duration":0.09583333333333144},{"name":"E4","midi":64,"time":47.782291666666666,"velocity":0.7716535433070866,"duration":0.1197916666666643},{"name":"E4","midi":64,"time":48.3125,"velocity":0.7716535433070866,"duration":0.1302083333333357},{"name":"E4","midi":64,"time":48.834375,"velocity":0.7716535433070866,"duration":0.1041666666666643},{"name":"B4","midi":71,"time":49.309374999999996,"velocity":0.7716535433070866,"duration":0.10104166666666714},{"name":"E4","midi":64,"time":49.77708333333333,"velocity":0.7716535433070866,"duration":0.14166666666666572},{"name":"E4","midi":64,"time":50.266666666666666,"velocity":0.7716535433070866,"duration":0.10312499999999858},{"name":"E4","midi":64,"time":50.760416666666664,"velocity":0.7716535433070866,"duration":0.13645833333333002},{"name":"B4","midi":71,"time":51.24791666666666,"velocity":0.7716535433070866,"duration":0.09583333333333144},{"name":"E4","midi":64,"time":51.74583333333332,"velocity":0.7716535433070866,"duration":0.13125000000000142},{"name":"E4","midi":64,"time":52.24583333333332,"velocity":0.7716535433070866,"duration":0.12395833333333428},{"name":"E4","midi":64,"time":52.742708333333326,"velocity":0.7716535433070866,"duration":0.12395833333333428},{"name":"B4","midi":71,"time":53.24791666666666,"velocity":0.7716535433070866,"duration":0.11562500000000142},{"name":"E4","midi":64,"time":53.731249999999996,"velocity":0.7716535433070866,"duration":0.12812499999999716},{"name":"E4","midi":64,"time":54.23854166666666,"velocity":0.7716535433070866,"duration":0.11666666666666714},{"name":"E4","midi":64,"time":54.72604166666666,"velocity":0.7716535433070866,"duration":0.15208333333333002},{"name":"B4","midi":71,"time":55.148958333333326,"velocity":0.7716535433070866,"duration":0.15208333333333712},{"name":"E6","midi":88,"time":55.164583333333326,"velocity":0.7716535433070866,"duration":0.10625000000000284},{"name":"E4","midi":64,"time":55.61666666666666,"velocity":0.7716535433070866,"duration":0.11145833333333144},{"name":"E4","midi":64,"time":56.158333333333324,"velocity":0.7716535433070866,"duration":0.1041666666666643},{"name":"E4","midi":64,"time":56.66874999999999,"velocity":0.7716535433070866,"duration":0.10833333333333428},{"name":"B4","midi":71,"time":57.12187499999999,"velocity":0.7716535433070866,"duration":0.12083333333333002},{"name":"E4","midi":64,"time":57.61041666666665,"velocity":0.7716535433070866,"duration":0.10312499999999858},{"name":"E4","midi":64,"time":58.14374999999998,"velocity":0.7716535433070866,"duration":0.12395833333333428},{"name":"E4","midi":64,"time":58.667708333333316,"velocity":0.7716535433070866,"duration":0.1197916666666643},{"name":"B4","midi":71,"time":59.18124999999998,"velocity":0.7716535433070866,"duration":0.10833333333333428},{"name":"E4","midi":64,"time":59.657291666666644,"velocity":0.7716535433070866,"duration":0.11874999999999858},{"name":"E4","midi":64,"time":60.20104166666664,"velocity":0.7716535433070866,"duration":0.10729166666666856},{"name":"E4","midi":64,"time":60.66354166666664,"velocity":0.7716535433070866,"duration":0.12812499999999716},{"name":"B4","midi":71,"time":61.144791666666634,"velocity":0.7716535433070866,"duration":0.14374999999999716},{"name":"E4","midi":64,"time":61.68854166666663,"velocity":0.7716535433070866,"duration":0.15416666666666856},{"name":"E4","midi":64,"time":62.171874999999964,"velocity":0.7716535433070866,"duration":0.13229166666666714},{"name":"E4","midi":64,"time":62.63541666666663,"velocity":0.7716535433070866,"duration":0.14479166666666998},{"name":"B4","midi":71,"time":63.1145833333333,"velocity":0.7716535433070866,"duration":0.14791666666666714},{"name":"E6","midi":88,"time":63.16562499999997,"velocity":0.7716535433070866,"duration":0.1302083333333286},{"name":"E4","midi":64,"time":63.6333333333333,"velocity":0.7716535433070866,"duration":0.12395833333333428},{"name":"E4","midi":64,"time":64.15104166666663,"velocity":0.7716535433070866,"duration":0.12708333333333144},{"name":"E4","midi":64,"time":64.6677083333333,"velocity":0.7716535433070866,"duration":0.109375},{"name":"B4","midi":71,"time":65.1770833333333,"velocity":0.7716535433070866,"duration":0.10833333333333428},{"name":"E4","midi":64,"time":65.68541666666664,"velocity":0.7716535433070866,"duration":0.12291666666666856},{"name":"E4","midi":64,"time":66.19166666666665,"velocity":0.7716535433070866,"duration":0.13229166666666003},{"name":"E4","midi":64,"time":66.72604166666665,"velocity":0.7716535433070866,"duration":0.09999999999999432},{"name":"B4","midi":71,"time":67.14999999999998,"velocity":0.7716535433070866,"duration":0.13437500000000568},{"name":"E4","midi":64,"time":67.59687499999998,"velocity":0.7716535433070866,"duration":0.11562499999999432},{"name":"E4","midi":64,"time":68.12812499999998,"velocity":0.7716535433070866,"duration":0.125},{"name":"E4","midi":64,"time":68.62708333333332,"velocity":0.7716535433070866,"duration":0.1197916666666714},{"name":"B4","midi":71,"time":69.11874999999999,"velocity":0.7716535433070866,"duration":0.11562499999999432},{"name":"E4","midi":64,"time":69.63333333333333,"velocity":0.7716535433070866,"duration":0.140625},{"name":"E4","midi":64,"time":70.09583333333333,"velocity":0.7716535433070866,"duration":0.13229166666666003},{"name":"E4","midi":64,"time":70.63749999999999,"velocity":0.7716535433070866,"duration":0.10520833333333712},{"name":"E6","midi":88,"time":71.07812499999999,"velocity":0.7716535433070866,"duration":0.11874999999999147},{"name":"B4","midi":71,"time":71.09062499999999,"velocity":0.7716535433070866,"duration":0.09999999999999432},{"name":"E4","midi":64,"time":71.57916666666664,"velocity":0.7716535433070866,"duration":0.13229166666666003},{"name":"E4","midi":64,"time":72.06666666666663,"velocity":0.7716535433070866,"duration":0.12395833333333428},{"name":"E4","midi":64,"time":72.57187499999996,"velocity":0.7716535433070866,"duration":0.07083333333333997},{"name":"B4","midi":71,"time":73.0364583333333,"velocity":0.7716535433070866,"duration":0.07395833333333712},{"name":"E4","midi":64,"time":73.49687499999997,"velocity":0.7716535433070866,"duration":0.1197916666666714},{"name":"E4","midi":64,"time":74.01979166666665,"velocity":0.7716535433070866,"duration":0.10833333333333428},{"name":"E4","midi":64,"time":74.53333333333332,"velocity":0.7716535433070866,"duration":0.11666666666666003},{"name":"B4","midi":71,"time":74.98854166666665,"velocity":0.7716535433070866,"duration":0.12395833333333428},{"name":"E4","midi":64,"time":75.45520833333332,"velocity":0.7716535433070866,"duration":0.13645833333333712},{"name":"E4","midi":64,"time":75.94791666666666,"velocity":0.7716535433070866,"duration":0.13229166666666003},{"name":"E4","midi":64,"time":76.47812499999998,"velocity":0.7716535433070866,"duration":0.12083333333333712},{"name":"B4","midi":71,"time":76.97812499999998,"velocity":0.7716535433070866,"duration":0.10625000000000284},{"name":"E4","midi":64,"time":77.43020833333331,"velocity":0.7716535433070866,"duration":0.11562499999999432},{"name":"E4","midi":64,"time":77.89479166666663,"velocity":0.7716535433070866,"duration":0.11249999999999716},{"name":"E4","midi":64,"time":78.3833333333333,"velocity":0.7716535433070866,"duration":0.11249999999999716},{"name":"E6","midi":88,"time":78.83020833333329,"velocity":0.7716535433070866,"duration":0.11875000000000568},{"name":"B4","midi":71,"time":78.8552083333333,"velocity":0.7716535433070866,"duration":0.10833333333333428},{"name":"E4","midi":64,"time":79.3177083333333,"velocity":0.7716535433070866,"duration":0.1197916666666714},{"name":"E4","midi":64,"time":79.82812499999997,"velocity":0.7716535433070866,"duration":0.11562499999999432},{"name":"E4","midi":64,"time":80.2770833333333,"velocity":0.7716535433070866,"duration":0.11041666666666572},{"name":"B4","midi":71,"time":80.76354166666663,"velocity":0.7716535433070866,"duration":0.12395833333333428},{"name":"E4","midi":64,"time":81.25624999999997,"velocity":0.7716535433070866,"duration":0.1041666666666714},{"name":"E4","midi":64,"time":81.74999999999997,"velocity":0.7716535433070866,"duration":0.10833333333333428},{"name":"E4","midi":64,"time":82.27604166666664,"velocity":0.7716535433070866,"duration":0.11145833333333144},{"name":"B4","midi":71,"time":82.70312499999997,"velocity":0.7716535433070866,"duration":0.13958333333333428},{"name":"E4","midi":64,"time":83.15729166666664,"velocity":0.7716535433070866,"duration":0.11875000000000568},{"name":"E4","midi":64,"time":83.67708333333331,"velocity":0.7716535433070866,"duration":0.11354166666666288},{"name":"E4","midi":64,"time":84.19062499999998,"velocity":0.7716535433070866,"duration":0.11145833333333144},{"name":"B4","midi":71,"time":84.63020833333331,"velocity":0.7716535433070866,"duration":0.13958333333333428},{"name":"E4","midi":64,"time":85.08645833333331,"velocity":0.7716535433070866,"duration":0.13229166666666003},{"name":"E4","midi":64,"time":85.57916666666664,"velocity":0.7716535433070866,"duration":0.1197916666666714},{"name":"E4","midi":64,"time":86.07916666666664,"velocity":0.7716535433070866,"duration":0.1197916666666714},{"name":"B4","midi":71,"time":86.54374999999997,"velocity":0.7716535433070866,"duration":0.15625},{"name":"E6","midi":88,"time":86.55104166666663,"velocity":0.7716535433070866,"duration":0.0885416666666714},{"name":"E4","midi":64,"time":86.98749999999997,"velocity":0.7716535433070866,"duration":0.125},{"name":"E4","midi":64,"time":87.50937499999996,"velocity":0.7716535433070866,"duration":0.14270833333333144},{"name":"E4","midi":64,"time":87.97187499999995,"velocity":0.7716535433070866,"duration":0.12812499999999716},{"name":"B4","midi":71,"time":88.44270833333329,"velocity":0.7716535433070866,"duration":0.09999999999999432},{"name":"E4","midi":64,"time":88.89999999999995,"velocity":0.7716535433070866,"duration":0.14270833333333144},{"name":"E4","midi":64,"time":89.40416666666661,"velocity":0.7716535433070866,"duration":0.12812499999999716},{"name":"E4","midi":64,"time":89.90416666666661,"velocity":0.7716535433070866,"duration":0.09999999999999432},{"name":"B4","midi":71,"time":90.31145833333328,"velocity":0.7716535433070866,"duration":0.11666666666666003},{"name":"E4","midi":64,"time":90.80937499999993,"velocity":0.7716535433070866,"duration":0.12916666666666288},{"name":"E4","midi":64,"time":91.33541666666659,"velocity":0.7716535433070866,"duration":0.09999999999999432},{"name":"E4","midi":64,"time":91.78749999999992,"velocity":0.7716535433070866,"duration":0.12916666666666288},{"name":"B4","midi":71,"time":92.24270833333325,"velocity":0.7716535433070866,"duration":0.15729166666666572},{"name":"E4","midi":64,"time":92.72187499999993,"velocity":0.7716535433070866,"duration":0.16875000000000284},{"name":"E4","midi":64,"time":93.21041666666659,"velocity":0.7716535433070866,"duration":0.140625},{"name":"E4","midi":64,"time":93.70312499999993,"velocity":0.7716535433070866,"duration":0.13958333333333428},{"name":"E6","midi":88,"time":94.0885416666666,"velocity":0.7716535433070866,"duration":0.19375000000000853},{"name":"B4","midi":71,"time":94.09062499999993,"velocity":0.7716535433070866,"duration":0.13645833333333712},{"name":"E4","midi":64,"time":94.57812499999994,"velocity":0.7716535433070866,"duration":0.1354166666666714},{"name":"E4","midi":64,"time":95.06041666666661,"velocity":0.7716535433070866,"duration":0.12812499999999716},{"name":"E4","midi":64,"time":95.54270833333328,"velocity":0.7716535433070866,"duration":0.12916666666666288},{"name":"B4","midi":71,"time":95.97083333333327,"velocity":0.7716535433070866,"duration":0.13229166666666003},{"name":"E4","midi":64,"time":96.47187499999994,"velocity":0.7716535433070866,"duration":0.13750000000000284},{"name":"E4","midi":64,"time":96.9291666666666,"velocity":0.7716535433070866,"duration":0.14687499999999432},{"name":"E4","midi":64,"time":97.4166666666666,"velocity":0.7716535433070866,"duration":0.12812499999999716},{"name":"B4","midi":71,"time":97.89479166666659,"velocity":0.7716535433070866,"duration":0.12083333333333712},{"name":"E4","midi":64,"time":98.3760416666666,"velocity":0.7716535433070866,"duration":0.14374999999999716},{"name":"E4","midi":64,"time":98.86562499999992,"velocity":0.7716535433070866,"duration":0.12812499999999716},{"name":"E4","midi":64,"time":99.33749999999992,"velocity":0.7716535433070866,"duration":0.12916666666666288},{"name":"B4","midi":71,"time":99.78229166666658,"velocity":0.7716535433070866,"duration":0.15520833333333428},{"name":"E4","midi":64,"time":100.24999999999991,"velocity":0.7716535433070866,"duration":0.1354166666666714},{"name":"E4","midi":64,"time":100.73541666666658,"velocity":0.7716535433070866,"duration":0.140625},{"name":"E4","midi":64,"time":101.24583333333325,"velocity":0.7716535433070866,"duration":0.15312500000000284},{"name":"B4","midi":71,"time":101.67604166666659,"velocity":0.7716535433070866,"duration":0.140625},{"name":"E6","midi":88,"time":101.67604166666659,"velocity":0.7716535433070866,"duration":0.1145833333333286},{"name":"E4","midi":64,"time":102.12395833333326,"velocity":0.7716535433070866,"duration":0.14374999999999716},{"name":"E4","midi":64,"time":102.64374999999993,"velocity":0.7716535433070866,"duration":0.14791666666666003},{"name":"E4","midi":64,"time":103.11666666666659,"velocity":0.7716535433070866,"duration":0.13958333333333428},{"name":"B4","midi":71,"time":103.57708333333326,"velocity":0.7716535433070866,"duration":0.12187500000000284},{"name":"E4","midi":64,"time":104.0572916666666,"velocity":0.7716535433070866,"duration":0.11875000000000568},{"name":"E4","midi":64,"time":104.5354166666666,"velocity":0.7716535433070866,"duration":0.12395833333333428},{"name":"E4","midi":64,"time":105.00520833333327,"velocity":0.7716535433070866,"duration":0.13229166666666003},{"name":"B4","midi":71,"time":105.48749999999993,"velocity":0.7716535433070866,"duration":0.15520833333333428},{"name":"E4","midi":64,"time":105.97708333333325,"velocity":0.7716535433070866,"duration":0.14791666666666003},{"name":"E4","midi":64,"time":106.45520833333325,"velocity":0.7716535433070866,"duration":0.13229166666666003},{"name":"E4","midi":64,"time":106.93229166666657,"velocity":0.7716535433070866,"duration":0.1354166666666714},{"name":"B4","midi":71,"time":107.3999999999999,"velocity":0.7716535433070866,"duration":0.17604166666666288},{"name":"E4","midi":64,"time":107.86562499999991,"velocity":0.7716535433070866,"duration":0.12395833333333428},{"name":"E4","midi":64,"time":108.32708333333325,"velocity":0.7716535433070866,"duration":0.12812499999999716},{"name":"E4","midi":64,"time":108.79270833333325,"velocity":0.7716535433070866,"duration":0.12395833333333428},{"name":"E6","midi":88,"time":109.21562499999992,"velocity":0.7716535433070866,"duration":0.09791666666666288},{"name":"B4","midi":71,"time":109.24374999999992,"velocity":0.7716535433070866,"duration":0.12395833333332007},{"name":"E4","midi":64,"time":109.67083333333323,"velocity":0.7716535433070866,"duration":0.13333333333333997},{"name":"E4","midi":64,"time":110.15937499999991,"velocity":0.7716535433070866,"duration":0.12395833333333428},{"name":"E4","midi":64,"time":110.62604166666658,"velocity":0.7716535433070866,"duration":0.12395833333333428},{"name":"B4","midi":71,"time":111.11041666666658,"velocity":0.7716535433070866,"duration":0.15208333333333712},{"name":"E4","midi":64,"time":111.54374999999992,"velocity":0.7716535433070866,"duration":0.13229166666666003},{"name":"E4","midi":64,"time":112.07708333333325,"velocity":0.7716535433070866,"duration":0.13958333333333428},{"name":"E4","midi":64,"time":112.54999999999991,"velocity":0.7716535433070866,"duration":0.12812499999999716},{"name":"B4","midi":71,"time":113.00416666666658,"velocity":0.7716535433070866,"duration":0.13854166666666856},{"name":"E4","midi":64,"time":113.49062499999991,"velocity":0.7716535433070866,"duration":0.15312500000000284},{"name":"E4","midi":64,"time":113.96874999999991,"velocity":0.7716535433070866,"duration":0.15312500000000284},{"name":"E4","midi":64,"time":114.41562499999992,"velocity":0.7716535433070866,"duration":0.16770833333333712},{"name":"B4","midi":71,"time":114.88437499999992,"velocity":0.7716535433070866,"duration":0.15208333333333712},{"name":"E4","midi":64,"time":115.34687499999993,"velocity":0.7716535433070866,"duration":0.14479166666666288},{"name":"E4","midi":64,"time":115.81458333333326,"velocity":0.7716535433070866,"duration":0.18020833333333997},{"name":"E4","midi":64,"time":116.2760416666666,"velocity":0.7716535433070866,"duration":0.14270833333333144},{"name":"E7","midi":100,"time":116.71458333333327,"velocity":0.7716535433070866,"duration":0.1145833333333286},{"name":"B4","midi":71,"time":116.71458333333327,"velocity":0.7716535433070866,"duration":0.14895833333332575},{"name":"E4","midi":64,"time":117.22708333333325,"velocity":0.7716535433070866,"duration":0.11562499999999432},{"name":"E4","midi":64,"time":117.69479166666659,"velocity":0.7716535433070866,"duration":0.14895833333333997},{"name":"E4","midi":64,"time":118.17604166666659,"velocity":0.7716535433070866,"duration":0.13437500000000568},{"name":"B4","midi":71,"time":118.61562499999994,"velocity":0.7716535433070866,"duration":0.12604166666666572},{"name":"E4","midi":64,"time":119.09583333333327,"velocity":0.7716535433070866,"duration":0.14791666666666003},{"name":"E4","midi":64,"time":119.5354166666666,"velocity":0.7716535433070866,"duration":0.13333333333333997},{"name":"E4","midi":64,"time":119.99374999999995,"velocity":0.7716535433070866,"duration":0.140625},{"name":"B4","midi":71,"time":120.38437499999995,"velocity":0.7716535433070866,"duration":0.13958333333333428},{"name":"E4","midi":64,"time":120.90416666666661,"velocity":0.7716535433070866,"duration":0.140625},{"name":"E4","midi":64,"time":121.40104166666661,"velocity":0.7716535433070866,"duration":0.12395833333333428},{"name":"E4","midi":64,"time":121.81874999999995,"velocity":0.7716535433070866,"duration":0.140625},{"name":"B4","midi":71,"time":122.22604166666662,"velocity":0.7716535433070866,"duration":0.15000000000000568},{"name":"E4","midi":64,"time":122.73229166666663,"velocity":0.7716535433070866,"duration":0.13437500000000568},{"name":"E4","midi":64,"time":123.21249999999996,"velocity":0.7716535433070866,"duration":0.13750000000000284},{"name":"E4","midi":64,"time":123.6833333333333,"velocity":0.7716535433070866,"duration":0.13854166666666856},{"name":"E7","midi":100,"time":124.09166666666663,"velocity":0.7716535433070866,"duration":0.11562500000000853},{"name":"B4","midi":71,"time":124.10104166666663,"velocity":0.7716535433070866,"duration":0.09166666666666856},{"name":"E4","midi":64,"time":124.5895833333333,"velocity":0.7716535433070866,"duration":0.1197916666666714},{"name":"E4","midi":64,"time":125.03541666666663,"velocity":0.7716535433070866,"duration":0.1354166666666714},{"name":"E4","midi":64,"time":125.48437499999997,"velocity":0.7716535433070866,"duration":0.12083333333333712},{"name":"B4","midi":71,"time":125.8770833333333,"velocity":0.7716535433070866,"duration":0.11249999999999716},{"name":"E4","midi":64,"time":126.3458333333333,"velocity":0.7716535433070866,"duration":0.13229166666666003},{"name":"E4","midi":64,"time":126.82916666666662,"velocity":0.7716535433070866,"duration":0.18125000000000568},{"name":"E4","midi":64,"time":127.28333333333329,"velocity":0.7716535433070866,"duration":0.15520833333333428},{"name":"B4","midi":71,"time":127.71666666666663,"velocity":0.7716535433070866,"duration":0.13229166666666003},{"name":"E4","midi":64,"time":128.1927083333333,"velocity":0.7716535433070866,"duration":0.12395833333332007},{"name":"E4","midi":64,"time":128.6447916666666,"velocity":0.7716535433070866,"duration":0.14791666666667425},{"name":"E4","midi":64,"time":129.10624999999996,"velocity":0.7716535433070866,"duration":0.13958333333332007},{"name":"B4","midi":71,"time":129.5364583333333,"velocity":0.7716535433070866,"duration":0.14375000000001137},{"name":"E4","midi":64,"time":129.9833333333333,"velocity":0.7716535433070866,"duration":0.13229166666667425},{"name":"E4","midi":64,"time":130.4489583333333,"velocity":0.7716535433070866,"duration":0.13124999999999432},{"name":"E4","midi":64,"time":130.91666666666663,"velocity":0.7716535433070866,"duration":0.14791666666667425},{"name":"B4","midi":71,"time":131.33229166666663,"velocity":0.7716535433070866,"duration":0.14374999999998295},{"name":"E7","midi":100,"time":131.34687499999995,"velocity":0.7716535433070866,"duration":0.21562499999998863},{"name":"E4","midi":64,"time":131.8166666666666,"velocity":0.7716535433070866,"duration":0.15520833333332007},{"name":"E4","midi":64,"time":132.2822916666666,"velocity":0.7716535433070866,"duration":0.14270833333333144},{"name":"E4","midi":64,"time":132.74270833333327,"velocity":0.7716535433070866,"duration":0.11145833333333144},{"name":"B4","midi":71,"time":133.1760416666666,"velocity":0.7716535433070866,"duration":0.14270833333333144},{"name":"E4","midi":64,"time":133.63229166666662,"velocity":0.7716535433070866,"duration":0.13333333333332575},{"name":"E4","midi":64,"time":134.1135416666666,"velocity":0.7716535433070866,"duration":0.140625},{"name":"E4","midi":64,"time":134.56874999999994,"velocity":0.7716535433070866,"duration":0.11979166666665719},{"name":"B4","midi":71,"time":135.01145833333325,"velocity":0.7716535433070866,"duration":0.14479166666666288},{"name":"E4","midi":64,"time":135.41562499999992,"velocity":0.7716535433070866,"duration":0.12708333333333144},{"name":"E4","midi":64,"time":135.90520833333326,"velocity":0.7716535433070866,"duration":0.16041666666666288},{"name":"E4","midi":64,"time":136.34999999999994,"velocity":0.7716535433070866,"duration":0.14270833333333144},{"name":"B4","midi":71,"time":136.78749999999994,"velocity":0.7716535433070866,"duration":0.12187499999998863},{"name":"E4","midi":64,"time":137.26770833333325,"velocity":0.7716535433070866,"duration":0.14166666666667993},{"name":"E4","midi":64,"time":137.73229166666658,"velocity":0.7716535433070866,"duration":0.12708333333333144},{"name":"E4","midi":64,"time":138.19062499999993,"velocity":0.7716535433070866,"duration":0.13645833333333712},{"name":"E7","midi":100,"time":138.60833333333326,"velocity":0.7716535433070866,"duration":0.10416666666668561},{"name":"B4","midi":71,"time":138.60937499999994,"velocity":0.7716535433070866,"duration":0.1458333333333428},{"name":"E4","midi":64,"time":139.02812499999996,"velocity":0.7716535433070866,"duration":0.16041666666666288},{"name":"E4","midi":64,"time":139.51562499999994,"velocity":0.7716535433070866,"duration":0.13854166666666856},{"name":"E4","midi":64,"time":139.94583333333327,"velocity":0.7716535433070866,"duration":0.140625},{"name":"B4","midi":71,"time":140.40208333333328,"velocity":0.7716535433070866,"duration":0.13645833333333712},{"name":"E4","midi":64,"time":140.8333333333333,"velocity":0.7716535433070866,"duration":0.15208333333333712},{"name":"E4","midi":64,"time":141.3114583333333,"velocity":0.7716535433070866,"duration":0.16562500000000568},{"name":"E4","midi":64,"time":141.7833333333333,"velocity":0.7716535433070866,"duration":0.14791666666667425},{"name":"B4","midi":71,"time":142.25312499999998,"velocity":0.7716535433070866,"duration":0.18020833333332575},{"name":"E4","midi":64,"time":142.68645833333332,"velocity":0.7716535433070866,"duration":0.171875},{"name":"E4","midi":64,"time":143.16145833333331,"velocity":0.7716535433070866,"duration":0.14791666666667425},{"name":"E4","midi":64,"time":143.621875,"velocity":0.7716535433070866,"duration":0.12916666666666288},{"name":"B4","midi":71,"time":144.06666666666666,"velocity":0.7716535433070866,"duration":0.09583333333333144},{"name":"E4","midi":64,"time":144.5125,"velocity":0.7716535433070866,"duration":0.15312499999998863},{"name":"E4","midi":64,"time":144.98437499999997,"velocity":0.7716535433070866,"duration":0.12812500000001137},{"name":"E4","midi":64,"time":145.428125,"velocity":0.7716535433070866,"duration":0.13749999999998863},{"name":"E7","midi":100,"time":145.82291666666666,"velocity":0.7716535433070866,"duration":0.09062499999998863},{"name":"B4","midi":71,"time":145.84895833333331,"velocity":0.7716535433070866,"duration":0.15416666666666856},{"name":"E4","midi":64,"time":146.28541666666666,"velocity":0.7716535433070866,"duration":0.15208333333333712},{"name":"E4","midi":64,"time":146.71041666666667,"velocity":0.7716535433070866,"duration":0.14375000000001137},{"name":"E4","midi":64,"time":147.165625,"velocity":0.7716535433070866,"duration":0.14791666666667425},{"name":"B4","midi":71,"time":147.61875,"velocity":0.7716535433070866,"duration":0.13124999999999432},{"name":"E4","midi":64,"time":148.08854166666666,"velocity":0.7716535433070866,"duration":0.13958333333332007},{"name":"E4","midi":64,"time":148.54375,"velocity":0.7716535433070866,"duration":0.1354166666666572},{"name":"E4","midi":64,"time":148.98229166666664,"velocity":0.7716535433070866,"duration":0.13124999999999432},{"name":"B4","midi":71,"time":149.39791666666665,"velocity":0.7716535433070866,"duration":0.13958333333332007},{"name":"E4","midi":64,"time":149.8333333333333,"velocity":0.7716535433070866,"duration":0.15625},{"name":"E4","midi":64,"time":150.29270833333328,"velocity":0.7716535433070866,"duration":0.13645833333333712},{"name":"E4","midi":64,"time":150.72916666666663,"velocity":0.7716535433070866,"duration":0.12395833333332007},{"name":"B4","midi":71,"time":151.1864583333333,"velocity":0.7716535433070866,"duration":0.16979166666666856},{"name":"E4","midi":64,"time":151.6020833333333,"velocity":0.7716535433070866,"duration":0.14479166666666288},{"name":"E4","midi":64,"time":152.08229166666663,"velocity":0.7716535433070866,"duration":0.12812500000001137},{"name":"E4","midi":64,"time":152.54999999999998,"velocity":0.7716535433070866,"duration":0.11666666666667425},{"name":"E7","midi":100,"time":152.94687499999998,"velocity":0.7716535433070866,"duration":0.08229166666666288},{"name":"B4","midi":71,"time":152.96249999999998,"velocity":0.7716535433070866,"duration":0.14791666666667425},{"name":"E4","midi":64,"time":153.34270833333332,"velocity":0.7716535433070866,"duration":0.13958333333332007},{"name":"E4","midi":64,"time":153.80208333333331,"velocity":0.7716535433070866,"duration":0.13645833333333712},{"name":"E4","midi":64,"time":154.25729166666665,"velocity":0.7716535433070866,"duration":0.12812500000001137},{"name":"B4","midi":71,"time":154.69375,"velocity":0.7716535433070866,"duration":0.14479166666666288},{"name":"E4","midi":64,"time":155.15208333333334,"velocity":0.7716535433070866,"duration":0.12916666666666288},{"name":"E4","midi":64,"time":155.58958333333334,"velocity":0.7716535433070866,"duration":0.13124999999999432},{"name":"E4","midi":64,"time":156.04895833333333,"velocity":0.7716535433070866,"duration":0.13333333333332575},{"name":"B4","midi":71,"time":156.43645833333332,"velocity":0.7716535433070866,"duration":0.14791666666667425},{"name":"E4","midi":64,"time":156.825,"velocity":0.7716535433070866,"duration":0.1510416666666572},{"name":"E4","midi":64,"time":157.24999999999997,"velocity":0.7716535433070866,"duration":0.14895833333332575},{"name":"E4","midi":64,"time":157.70937499999997,"velocity":0.7716535433070866,"duration":0.14375000000001137},{"name":"B4","midi":71,"time":158.1520833333333,"velocity":0.7716535433070866,"duration":0.16041666666666288},{"name":"E4","midi":64,"time":158.56874999999997,"velocity":0.7716535433070866,"duration":0.14791666666667425},{"name":"E4","midi":64,"time":159.05208333333331,"velocity":0.7716535433070866,"duration":0.125},{"name":"E4","midi":64,"time":159.46770833333332,"velocity":0.7716535433070866,"duration":0.14166666666667993},{"name":"E7","midi":100,"time":159.90729166666668,"velocity":0.7716535433070866,"duration":0.08854166666668561},{"name":"B4","midi":71,"time":159.91250000000002,"velocity":0.7716535433070866,"duration":0.13229166666667425},{"name":"E4","midi":64,"time":160.35625000000002,"velocity":0.7716535433070866,"duration":0.14791666666667425},{"name":"E4","midi":64,"time":160.815625,"velocity":0.7716535433070866,"duration":0.13437500000000568},{"name":"E4","midi":64,"time":161.2791666666667,"velocity":0.7716535433070866,"duration":0.13229166666667425},{"name":"B4","midi":71,"time":161.71145833333338,"velocity":0.7716535433070866,"duration":0.13749999999998863},{"name":"E4","midi":64,"time":162.1354166666667,"velocity":0.7716535433070866,"duration":0.1458333333333428},{"name":"E4","midi":64,"time":162.61562500000005,"velocity":0.7716535433070866,"duration":0.1510416666666572},{"name":"E4","midi":64,"time":163.0645833333334,"velocity":0.7716535433070866,"duration":0.13333333333332575},{"name":"B4","midi":71,"time":163.49270833333338,"velocity":0.7716535433070866,"duration":0.17604166666666288},{"name":"E4","midi":64,"time":163.91250000000005,"velocity":0.7716535433070866,"duration":0.13229166666667425},{"name":"E4","midi":64,"time":164.4010416666667,"velocity":0.7716535433070866,"duration":0.15208333333333712},{"name":"E4","midi":64,"time":164.87187500000005,"velocity":0.7716535433070866,"duration":0.13645833333333712},{"name":"B4","midi":71,"time":165.28645833333337,"velocity":0.7716535433070866,"duration":0.14895833333332575},{"name":"E4","midi":64,"time":165.74375000000003,"velocity":0.7716535433070866,"duration":0.15416666666666856},{"name":"E4","midi":64,"time":166.2166666666667,"velocity":0.7716535433070866,"duration":0.14479166666666288},{"name":"E4","midi":64,"time":166.63750000000002,"velocity":0.7716535433070866,"duration":0.15625},{"name":"E7","midi":100,"time":167.10625000000002,"velocity":0.7716535433070866,"duration":0.16458333333332575},{"name":"B4","midi":71,"time":167.11041666666668,"velocity":0.7716535433070866,"duration":0.17395833333333144},{"name":"E4","midi":64,"time":167.53333333333333,"velocity":0.7716535433070866,"duration":0.15208333333333712},{"name":"E4","midi":64,"time":167.99895833333335,"velocity":0.7716535433070866,"duration":0.14687499999999432},{"name":"E4","midi":64,"time":168.43229166666669,"velocity":0.7716535433070866,"duration":0.14375000000001137},{"name":"B4","midi":71,"time":168.87708333333336,"velocity":0.7716535433070866,"duration":0.1666666666666572},{"name":"E4","midi":64,"time":169.30312500000002,"velocity":0.7716535433070866,"duration":0.140625},{"name":"E4","midi":64,"time":169.7697916666667,"velocity":0.7716535433070866,"duration":0.14479166666666288},{"name":"E4","midi":64,"time":170.19791666666669,"velocity":0.7716535433070866,"duration":0.13124999999999432},{"name":"B4","midi":71,"time":170.65833333333336,"velocity":0.7716535433070866,"duration":0.16458333333332575},{"name":"E4","midi":64,"time":171.1291666666667,"velocity":0.7716535433070866,"duration":0.14687499999999432},{"name":"E4","midi":64,"time":171.57083333333335,"velocity":0.7716535433070866,"duration":0.13854166666666856},{"name":"E4","midi":64,"time":172.0041666666667,"velocity":0.7716535433070866,"duration":0.14479166666666288},{"name":"B4","midi":71,"time":172.4510416666667,"velocity":0.7716535433070866,"duration":0.16041666666666288},{"name":"E4","midi":64,"time":172.88437500000003,"velocity":0.7716535433070866,"duration":0.15833333333333144},{"name":"E4","midi":64,"time":173.3447916666667,"velocity":0.7716535433070866,"duration":0.13645833333333712},{"name":"E4","midi":64,"time":173.79062500000003,"velocity":0.7716535433070866,"duration":0.140625},{"name":"B4","midi":71,"time":174.20312500000003,"velocity":0.7716535433070866,"duration":0.14791666666667425},{"name":"E6","midi":88,"time":174.20625000000004,"velocity":0.7716535433070866,"duration":0.12187499999998863},{"name":"E4","midi":64,"time":174.65208333333337,"velocity":0.7716535433070866,"duration":0.1770833333333428},{"name":"E4","midi":64,"time":175.15000000000003,"velocity":0.7716535433070866,"duration":0.15937500000001137},{"name":"E4","midi":64,"time":175.6104166666667,"velocity":0.7716535433070866,"duration":0.13229166666667425},{"name":"B4","midi":71,"time":176.0020833333334,"velocity":0.7716535433070866,"duration":0.14895833333332575},{"name":"E4","midi":64,"time":176.44270833333337,"velocity":0.7716535433070866,"duration":0.1614583333333428},{"name":"E4","midi":64,"time":176.8760416666667,"velocity":0.7716535433070866,"duration":0.15312499999998863},{"name":"E4","midi":64,"time":177.30312500000002,"velocity":0.7716535433070866,"duration":0.16458333333332575},{"name":"B4","midi":71,"time":177.75729166666667,"velocity":0.7716535433070866,"duration":0.13229166666667425},{"name":"E4","midi":64,"time":178.18333333333334,"velocity":0.7716535433070866,"duration":0.16874999999998863},{"name":"E4","midi":64,"time":178.621875,"velocity":0.7716535433070866,"duration":0.16354166666667425},{"name":"E4","midi":64,"time":179.09583333333333,"velocity":0.7716535433070866,"duration":0.14687499999999432},{"name":"B4","midi":71,"time":179.49270833333333,"velocity":0.7716535433070866,"duration":0.16041666666666288},{"name":"E4","midi":64,"time":179.94270833333331,"velocity":0.7716535433070866,"duration":0.13333333333332575},{"name":"E4","midi":64,"time":180.36874999999998,"velocity":0.7716535433070866,"duration":0.13229166666667425},{"name":"E4","midi":64,"time":180.81979166666665,"velocity":0.7716535433070866,"duration":0.12812500000001137},{"name":"E6","midi":88,"time":181.23749999999998,"velocity":0.7716535433070866,"duration":0.12604166666667993},{"name":"B4","midi":71,"time":181.31562499999998,"velocity":0.7716535433070866,"duration":0.04895833333335986},{"name":"E4","midi":64,"time":181.64375,"velocity":0.7716535433070866,"duration":0.14479166666666288},{"name":"E4","midi":64,"time":182.09895833333334,"velocity":0.7716535433070866,"duration":0.14375000000001137},{"name":"E4","midi":64,"time":182.54270833333337,"velocity":0.7716535433070866,"duration":0.14270833333333144},{"name":"B4","midi":71,"time":182.97083333333336,"velocity":0.7716535433070866,"duration":0.11666666666667425},{"name":"E4","midi":64,"time":183.43125000000003,"velocity":0.7716535433070866,"duration":0.14791666666667425},{"name":"E4","midi":64,"time":183.8770833333334,"velocity":0.7716535433070866,"duration":0.14895833333332575},{"name":"E4","midi":64,"time":184.29375000000005,"velocity":0.7716535433070866,"duration":0.12812500000001137},{"name":"B4","midi":71,"time":184.72500000000005,"velocity":0.7716535433070866,"duration":0.11145833333333144},{"name":"E4","midi":64,"time":185.1520833333334,"velocity":0.7716535433070866,"duration":0.140625},{"name":"E4","midi":64,"time":185.59791666666672,"velocity":0.7716535433070866,"duration":0.14479166666666288},{"name":"E4","midi":64,"time":186.01979166666672,"velocity":0.7716535433070866,"duration":0.13958333333332007},{"name":"B4","midi":71,"time":186.43125000000003,"velocity":0.7716535433070866,"duration":0.10729166666666856},{"name":"E4","midi":64,"time":186.8604166666667,"velocity":0.7716535433070866,"duration":0.16041666666666288},{"name":"E4","midi":64,"time":187.31875000000005,"velocity":0.7716535433070866,"duration":0.13229166666667425},{"name":"E4","midi":64,"time":187.78437500000007,"velocity":0.7716535433070866,"duration":0.15208333333333712},{"name":"B4","midi":71,"time":188.1614583333334,"velocity":0.7716535433070866,"duration":0.09999999999999432},{"name":"E6","midi":88,"time":188.16562500000006,"velocity":0.7716535433070866,"duration":0.14375000000001137},{"name":"E4","midi":64,"time":188.61145833333342,"velocity":0.7716535433070866,"duration":0.13124999999999432},{"name":"E4","midi":64,"time":189.0562500000001,"velocity":0.7716535433070866,"duration":0.15625},{"name":"E4","midi":64,"time":189.51458333333343,"velocity":0.7716535433070866,"duration":0.12083333333333712},{"name":"B4","midi":71,"time":189.91979166666678,"velocity":0.7716535433070866,"duration":0.10104166666667425},{"name":"E4","midi":64,"time":190.3447916666668,"velocity":0.7716535433070866,"duration":0.140625},{"name":"E4","midi":64,"time":190.79479166666678,"velocity":0.7716535433070866,"duration":0.140625},{"name":"E4","midi":64,"time":191.26770833333345,"velocity":0.7716535433070866,"duration":0.11666666666667425},{"name":"B4","midi":71,"time":191.69895833333345,"velocity":0.7716535433070866,"duration":0.11250000000001137},{"name":"E4","midi":64,"time":192.12708333333347,"velocity":0.7716535433070866,"duration":0.12812500000001137},{"name":"E4","midi":64,"time":192.5770833333335,"velocity":0.7716535433070866,"duration":0.11562499999999432},{"name":"E4","midi":64,"time":193.0145833333335,"velocity":0.7716535433070866,"duration":0.10416666666665719},{"name":"B4","midi":71,"time":193.41875000000016,"velocity":0.7716535433070866,"duration":0.09999999999999432},{"name":"E4","midi":64,"time":193.8677083333335,"velocity":0.7716535433070866,"duration":0.14166666666667993},{"name":"E4","midi":64,"time":194.3020833333335,"velocity":0.7716535433070866,"duration":0.14791666666667425},{"name":"E4","midi":64,"time":194.71041666666684,"velocity":0.7716535433070866,"duration":0.11666666666667425},{"name":"B4","midi":71,"time":195.12708333333353,"velocity":0.7716535433070866,"duration":0.12812499999998295},{"name":"E6","midi":88,"time":195.1375000000002,"velocity":0.7716535433070866,"duration":0.16874999999998863},{"name":"E4","midi":64,"time":195.57708333333352,"velocity":0.7716535433070866,"duration":0.14479166666666288},{"name":"E4","midi":64,"time":195.97812500000018,"velocity":0.7716535433070866,"duration":0.140625},{"name":"E4","midi":64,"time":196.4645833333335,"velocity":0.7716535433070866,"duration":0.12083333333333712},{"name":"B4","midi":71,"time":196.83750000000018,"velocity":0.7716535433070866,"duration":0.12395833333332007},{"name":"E4","midi":64,"time":197.27604166666683,"velocity":0.7716535433070866,"duration":0.13437500000000568},{"name":"E4","midi":64,"time":197.6958333333335,"velocity":0.7716535433070866,"duration":0.14687499999999432},{"name":"E4","midi":64,"time":198.10520833333348,"velocity":0.7716535433070866,"duration":0.13854166666666856},{"name":"B4","midi":71,"time":198.51875000000015,"velocity":0.7716535433070866,"duration":0.14791666666667425},{"name":"E4","midi":64,"time":198.98125000000016,"velocity":0.7716535433070866,"duration":0.15520833333332007},{"name":"E4","midi":64,"time":199.41458333333347,"velocity":0.7716535433070866,"duration":0.12083333333333712},{"name":"E4","midi":64,"time":199.8760416666668,"velocity":0.7716535433070866,"duration":0.11250000000001137},{"name":"B4","midi":71,"time":200.28958333333347,"velocity":0.7716535433070866,"duration":0.140625},{"name":"E4","midi":64,"time":200.69062500000013,"velocity":0.7716535433070866,"duration":0.13645833333333712},{"name":"E4","midi":64,"time":201.13125000000014,"velocity":0.7716535433070866,"duration":0.171875},{"name":"E4","midi":64,"time":201.54270833333348,"velocity":0.7716535433070866,"duration":0.14791666666667425},{"name":"E6","midi":88,"time":201.95312500000014,"velocity":0.7716535433070866,"duration":0.17083333333332007},{"name":"B4","midi":71,"time":201.95833333333348,"velocity":0.7716535433070866,"duration":0.15312499999998863},{"name":"E4","midi":64,"time":202.3760416666668,"velocity":0.7716535433070866,"duration":0.18333333333333712},{"name":"E4","midi":64,"time":202.81145833333346,"velocity":0.7716535433070866,"duration":0.16458333333332575},{"name":"E4","midi":64,"time":203.24375000000012,"velocity":0.7716535433070866,"duration":0.13749999999998863},{"name":"B4","midi":71,"time":203.69270833333343,"velocity":0.7716535433070866,"duration":0.13229166666667425},{"name":"E4","midi":64,"time":204.14270833333345,"velocity":0.7716535433070866,"duration":0.140625},{"name":"E4","midi":64,"time":204.59791666666678,"velocity":0.7716535433070866,"duration":0.11250000000001137},{"name":"E4","midi":64,"time":204.99270833333347,"velocity":0.7716535433070866,"duration":0.13229166666667425},{"name":"B4","midi":71,"time":205.44479166666682,"velocity":0.7716535433070866,"duration":0.16562500000000568},{"name":"E4","midi":64,"time":205.91770833333348,"velocity":0.7716535433070866,"duration":0.16041666666666288},{"name":"E4","midi":64,"time":206.34479166666682,"velocity":0.7716535433070866,"duration":0.14791666666667425},{"name":"E4","midi":64,"time":206.78750000000016,"velocity":0.7716535433070866,"duration":0.14375000000001137},{"name":"B4","midi":71,"time":207.19062500000018,"velocity":0.7716535433070866,"duration":0.15208333333333712},{"name":"E4","midi":64,"time":207.64270833333353,"velocity":0.7716535433070866,"duration":0.12708333333333144},{"name":"E4","midi":64,"time":208.10520833333354,"velocity":0.7716535433070866,"duration":0.14479166666666288},{"name":"E4","midi":64,"time":208.52708333333354,"velocity":0.7716535433070866,"duration":0.11666666666667425},{"name":"E6","midi":88,"time":208.95000000000022,"velocity":0.7716535433070866,"duration":0.13958333333332007},{"name":"B4","midi":71,"time":208.97604166666687,"velocity":0.7716535433070866,"duration":0.11562499999999432},{"name":"E4","midi":64,"time":209.39895833333352,"velocity":0.7716535433070866,"duration":0.14895833333332575},{"name":"E4","midi":64,"time":209.82604166666684,"velocity":0.7716535433070866,"duration":0.13333333333332575},{"name":"E4","midi":64,"time":210.25937500000018,"velocity":0.7716535433070866,"duration":0.13749999999998863},{"name":"B4","midi":71,"time":210.67291666666682,"velocity":0.7716535433070866,"duration":0.140625},{"name":"E4","midi":64,"time":211.12083333333348,"velocity":0.7716535433070866,"duration":0.21041666666667425},{"name":"E4","midi":64,"time":211.56354166666682,"velocity":0.7716535433070866,"duration":0.13333333333332575},{"name":"E4","midi":64,"time":211.99479166666683,"velocity":0.7716535433070866,"duration":0.125},{"name":"B4","midi":71,"time":212.38125000000016,"velocity":0.7716535433070866,"duration":0.14791666666667425},{"name":"E4","midi":64,"time":212.80312500000016,"velocity":0.7716535433070866,"duration":0.1354166666666572},{"name":"E4","midi":64,"time":213.2645833333335,"velocity":0.7716535433070866,"duration":0.14479166666666288},{"name":"E4","midi":64,"time":213.70416666666682,"velocity":0.7716535433070866,"duration":0.15312499999998863},{"name":"B4","midi":71,"time":214.13333333333347,"velocity":0.7716535433070866,"duration":0.14375000000001137},{"name":"E4","midi":64,"time":214.55312500000014,"velocity":0.7716535433070866,"duration":0.16041666666666288},{"name":"E4","midi":64,"time":214.9947916666668,"velocity":0.7716535433070866,"duration":0.14791666666667425},{"name":"E4","midi":64,"time":215.42187500000014,"velocity":0.7716535433070866,"duration":0.14479166666666288},{"name":"E6","midi":88,"time":215.8104166666668,"velocity":0.7716535433070866,"duration":0.17604166666666288},{"name":"B4","midi":71,"time":215.82812500000014,"velocity":0.7716535433070866,"duration":0.14791666666667425},{"name":"E4","midi":64,"time":216.2447916666668,"velocity":0.7716535433070866,"duration":0.171875},{"name":"E4","midi":64,"time":216.68437500000013,"velocity":0.7716535433070866,"duration":0.15208333333333712},{"name":"E4","midi":64,"time":217.12708333333347,"velocity":0.7716535433070866,"duration":0.13645833333333712},{"name":"B4","midi":71,"time":217.5510416666668,"velocity":0.7716535433070866,"duration":0.12916666666666288},{"name":"E4","midi":64,"time":217.98333333333346,"velocity":0.7716535433070866,"duration":0.15208333333333712},{"name":"E4","midi":64,"time":218.4104166666668,"velocity":0.7716535433070866,"duration":0.19999999999998863},{"name":"E4","midi":64,"time":218.83020833333347,"velocity":0.7716535433070866,"duration":0.14687499999999432},{"name":"B4","midi":71,"time":219.24687500000013,"velocity":0.7716535433070866,"duration":0.15208333333333712},{"name":"E4","midi":64,"time":219.67708333333346,"velocity":0.7716535433070866,"duration":0.11250000000001137},{"name":"E4","midi":64,"time":220.1510416666668,"velocity":0.7716535433070866,"duration":0.15208333333333712},{"name":"E4","midi":64,"time":220.53750000000014,"velocity":0.7716535433070866,"duration":0.11562499999999432},{"name":"B4","midi":71,"time":220.9604166666668,"velocity":0.7716535433070866,"duration":0.14375000000001137},{"name":"E4","midi":64,"time":221.40000000000012,"velocity":0.7716535433070866,"duration":0.12916666666666288},{"name":"E4","midi":64,"time":221.84687500000013,"velocity":0.7716535433070866,"duration":0.13958333333332007},{"name":"E4","midi":64,"time":222.2572916666668,"velocity":0.7716535433070866,"duration":0.14479166666666288},{"name":"B4","midi":71,"time":222.68125000000012,"velocity":0.7716535433070866,"duration":0.1343750000000341},{"name":"E6","midi":88,"time":222.6979166666668,"velocity":0.7716535433070866,"duration":0.11250000000001137},{"name":"E4","midi":64,"time":223.13437500000015,"velocity":0.7716535433070866,"duration":0.15208333333333712},{"name":"E4","midi":64,"time":223.55625000000015,"velocity":0.7716535433070866,"duration":0.17604166666666288},{"name":"E4","midi":64,"time":223.98437500000014,"velocity":0.7716535433070866,"duration":0.125},{"name":"B4","midi":71,"time":224.37812500000015,"velocity":0.7716535433070866,"duration":0.13124999999999432},{"name":"E4","midi":64,"time":224.79166666666683,"velocity":0.7716535433070866,"duration":0.12916666666666288},{"name":"E4","midi":64,"time":225.2364583333335,"velocity":0.7716535433070866,"duration":0.1354166666666572},{"name":"E4","midi":64,"time":225.6708333333335,"velocity":0.7716535433070866,"duration":0.11666666666667425},{"name":"B4","midi":71,"time":226.06666666666683,"velocity":0.7716535433070866,"duration":0.12916666666666288},{"name":"E4","midi":64,"time":226.51041666666683,"velocity":0.7716535433070866,"duration":0.14270833333333144},{"name":"E4","midi":64,"time":226.96666666666684,"velocity":0.7716535433070866,"duration":0.11354166666666288},{"name":"E4","midi":64,"time":227.36354166666683,"velocity":0.7716535433070866,"duration":0.13333333333332575},{"name":"B4","midi":71,"time":227.74375000000015,"velocity":0.7716535433070866,"duration":0.14375000000001137},{"name":"E4","midi":64,"time":228.1864583333335,"velocity":0.7716535433070866,"duration":0.15625},{"name":"E4","midi":64,"time":228.63229166666682,"velocity":0.7716535433070866,"duration":0.15625},{"name":"E4","midi":64,"time":229.0552083333335,"velocity":0.7716535433070866,"duration":0.15416666666666856},{"name":"B4","midi":71,"time":229.41354166666684,"velocity":0.7716535433070866,"duration":0.14791666666664582},{"name":"E6","midi":88,"time":229.43750000000017,"velocity":0.7716535433070866,"duration":0.1260416666666515},{"name":"E4","midi":64,"time":229.87187500000016,"velocity":0.7716535433070866,"duration":0.14791666666667425},{"name":"E4","midi":64,"time":230.31875000000016,"velocity":0.7716535433070866,"duration":0.13645833333333712},{"name":"E4","midi":64,"time":230.7302083333335,"velocity":0.7716535433070866,"duration":0.13333333333332575},{"name":"B4","midi":71,"time":231.1114583333335,"velocity":0.7716535433070866,"duration":0.15312499999998863},{"name":"E4","midi":64,"time":231.55312500000016,"velocity":0.7716535433070866,"duration":0.14375000000001137},{"name":"E4","midi":64,"time":232.01875000000018,"velocity":0.7716535433070866,"duration":0.12812500000001137},{"name":"E4","midi":64,"time":232.45416666666685,"velocity":0.7716535433070866,"duration":0.15520833333332007},{"name":"B4","midi":71,"time":232.84791666666683,"velocity":0.7716535433070866,"duration":0.1614583333333428},{"name":"E4","midi":64,"time":233.29166666666686,"velocity":0.7716535433070866,"duration":0.16458333333332575},{"name":"E4","midi":64,"time":233.70312500000017,"velocity":0.7716535433070866,"duration":0.14375000000001137},{"name":"E4","midi":64,"time":234.1302083333335,"velocity":0.7716535433070866,"duration":0.12395833333332007},{"name":"B4","midi":71,"time":234.4989583333335,"velocity":0.7716535433070866,"duration":0.12395833333332007},{"name":"E4","midi":64,"time":234.91562500000015,"velocity":0.7716535433070866,"duration":0.13229166666667425},{"name":"E4","midi":64,"time":235.39687500000016,"velocity":0.7716535433070866,"duration":0.140625},{"name":"E4","midi":64,"time":235.76354166666684,"velocity":0.7716535433070866,"duration":0.1458333333333428},{"name":"B4","midi":71,"time":236.14895833333352,"velocity":0.7716535433070866,"duration":0.13645833333333712},{"name":"E6","midi":88,"time":236.19166666666686,"velocity":0.7716535433070866,"duration":0.22812500000000568},{"name":"E4","midi":64,"time":236.5968750000002,"velocity":0.7716535433070866,"duration":0.13229166666667425},{"name":"E4","midi":64,"time":236.9937500000002,"velocity":0.7716535433070866,"duration":0.14479166666666288},{"name":"E4","midi":64,"time":237.41145833333354,"velocity":0.7716535433070866,"duration":0.13229166666667425},{"name":"B4","midi":71,"time":237.80208333333354,"velocity":0.7716535433070866,"duration":0.16770833333333712},{"name":"E4","midi":64,"time":238.26041666666688,"velocity":0.7716535433070866,"duration":0.13229166666667425},{"name":"E4","midi":64,"time":238.70937500000022,"velocity":0.7716535433070866,"duration":0.10833333333332007},{"name":"E4","midi":64,"time":239.09270833333355,"velocity":0.7716535433070866,"duration":0.140625},{"name":"B4","midi":71,"time":239.5041666666669,"velocity":0.7716535433070866,"duration":0.18020833333332575},{"name":"E4","midi":64,"time":239.88020833333354,"velocity":0.7716535433070866,"duration":0.14895833333332575},{"name":"E4","midi":64,"time":240.36354166666686,"velocity":0.7716535433070866,"duration":0.14687499999999432},{"name":"E4","midi":64,"time":240.7875000000002,"velocity":0.7716535433070866,"duration":0.140625},{"name":"B4","midi":71,"time":241.1770833333335,"velocity":0.7716535433070866,"duration":0.17395833333333144},{"name":"E4","midi":64,"time":241.57708333333352,"velocity":0.7716535433070866,"duration":0.13645833333333712},{"name":"E4","midi":64,"time":242.0281250000002,"velocity":0.7716535433070866,"duration":0.15937500000001137},{"name":"E4","midi":64,"time":242.4343750000002,"velocity":0.7716535433070866,"duration":0.1458333333333428},{"name":"B4","midi":71,"time":242.8437500000002,"velocity":0.7716535433070866,"duration":0.13958333333332007},{"name":"E6","midi":88,"time":242.84791666666686,"velocity":0.7716535433070866,"duration":0.12395833333332007},{"name":"E4","midi":64,"time":243.28854166666684,"velocity":0.7716535433070866,"duration":0.16874999999998863},{"name":"E4","midi":64,"time":243.70416666666682,"velocity":0.7716535433070866,"duration":0.14479166666666288},{"name":"E4","midi":64,"time":244.13541666666683,"velocity":0.7716535433070866,"duration":0.14166666666667993},{"name":"B4","midi":71,"time":244.50312500000018,"velocity":0.7716535433070866,"duration":0.14375000000001137},{"name":"E4","midi":64,"time":244.94895833333354,"velocity":0.7716535433070866,"duration":0.13958333333332007},{"name":"E4","midi":64,"time":245.3802083333335,"velocity":0.7716535433070866,"duration":0.13333333333332575},{"name":"E4","midi":64,"time":245.79791666666685,"velocity":0.7716535433070866,"duration":0.13958333333332007},{"name":"B4","midi":71,"time":246.2145833333335,"velocity":0.7716535433070866,"duration":0.15625},{"name":"E4","midi":64,"time":246.6208333333335,"velocity":0.7716535433070866,"duration":0.13645833333333712},{"name":"E4","midi":64,"time":247.08437500000016,"velocity":0.7716535433070866,"duration":0.140625},{"name":"E4","midi":64,"time":247.51041666666683,"velocity":0.7716535433070866,"duration":0.14895833333332575},{"name":"B4","midi":71,"time":247.88437500000015,"velocity":0.7716535433070866,"duration":0.15937500000001137},{"name":"E4","midi":64,"time":248.32500000000016,"velocity":0.7716535433070866,"duration":0.1354166666666572},{"name":"E4","midi":64,"time":248.7645833333335,"velocity":0.7716535433070866,"duration":0.12812500000001137},{"name":"E4","midi":64,"time":249.1864583333335,"velocity":0.7716535433070866,"duration":0.14375000000001137},{"name":"B4","midi":71,"time":249.56875000000016,"velocity":0.7716535433070866,"duration":0.11979166666665719},{"name":"E6","midi":88,"time":249.5708333333335,"velocity":0.7716535433070866,"duration":0.17916666666664582},{"name":"E4","midi":64,"time":249.98750000000015,"velocity":0.7716535433070866,"duration":0.11666666666667425},{"name":"E4","midi":64,"time":250.39687500000016,"velocity":0.7716535433070866,"duration":0.10833333333332007},{"name":"E4","midi":64,"time":250.81354166666682,"velocity":0.7716535433070866,"duration":0.1354166666666572},{"name":"B4","midi":71,"time":251.21458333333348,"velocity":0.7716535433070866,"duration":0.13229166666667425},{"name":"E4","midi":64,"time":251.65000000000015,"velocity":0.7716535433070866,"duration":0.14895833333332575},{"name":"E4","midi":64,"time":252.0729166666668,"velocity":0.7716535433070866,"duration":0.14791666666667425},{"name":"E4","midi":64,"time":252.49583333333348,"velocity":0.7716535433070866,"duration":0.14687499999999432},{"name":"B4","midi":71,"time":252.8541666666668,"velocity":0.7716535433070866,"duration":0.140625},{"name":"E4","midi":64,"time":253.31458333333347,"velocity":0.7716535433070866,"duration":0.11979166666665719},{"name":"E4","midi":64,"time":253.7135416666668,"velocity":0.7716535433070866,"duration":0.13229166666667425},{"name":"E4","midi":64,"time":254.12395833333346,"velocity":0.7716535433070866,"duration":0.13333333333332575},{"name":"B4","midi":71,"time":254.52916666666678,"velocity":0.7716535433070866,"duration":0.13124999999999432},{"name":"E4","midi":64,"time":254.95520833333345,"velocity":0.7716535433070866,"duration":0.14895833333332575},{"name":"E4","midi":64,"time":255.3781250000001,"velocity":0.7716535433070866,"duration":0.13124999999999432},{"name":"E4","midi":64,"time":255.8052083333334,"velocity":0.7716535433070866,"duration":0.12083333333333712},{"name":"E7","midi":100,"time":256.16354166666673,"velocity":0.7716535433070866,"duration":0.09062499999998863},{"name":"B4","midi":71,"time":256.16354166666673,"velocity":0.7716535433070866,"duration":0.13229166666667425},{"name":"E4","midi":64,"time":256.6135416666667,"velocity":0.7716535433070866,"duration":0.1395833333333485},{"name":"E4","midi":64,"time":257.03854166666673,"velocity":0.7716535433070866,"duration":0.13854166666664014},{"name":"E4","midi":64,"time":257.45000000000005,"velocity":0.7716535433070866,"duration":0.12083333333333712},{"name":"B4","midi":71,"time":257.83333333333337,"velocity":0.7716535433070866,"duration":0.13229166666667425},{"name":"E4","midi":64,"time":258.28854166666673,"velocity":0.7716535433070866,"duration":0.12812500000001137},{"name":"E4","midi":64,"time":258.7385416666667,"velocity":0.7716535433070866,"duration":0.1572916666666515},{"name":"E4","midi":64,"time":259.16875000000005,"velocity":0.7716535433070866,"duration":0.12395833333334849},{"name":"B4","midi":71,"time":259.5864583333334,"velocity":0.7716535433070866,"duration":0.12812500000001137},{"name":"E4","midi":64,"time":260.0020833333334,"velocity":0.7716535433070866,"duration":0.13229166666667425},{"name":"E4","midi":64,"time":260.41458333333344,"velocity":0.7716535433070866,"duration":0.12291666666664014},{"name":"E4","midi":64,"time":260.83645833333344,"velocity":0.7716535433070866,"duration":0.15208333333333712},{"name":"B4","midi":71,"time":261.23541666666677,"velocity":0.7716535433070866,"duration":0.14791666666667425},{"name":"E4","midi":64,"time":261.6666666666668,"velocity":0.7716535433070866,"duration":0.13125000000002274},{"name":"E4","midi":64,"time":262.0864583333335,"velocity":0.7716535433070866,"duration":0.1395833333333485},{"name":"E4","midi":64,"time":262.5093750000002,"velocity":0.7716535433070866,"duration":0.125},{"name":"B4","midi":71,"time":262.92916666666684,"velocity":0.7716535433070866,"duration":0.1635416666666174},{"name":"E7","midi":100,"time":262.92916666666684,"velocity":0.7716535433070866,"duration":0.07604166666664014},{"name":"E4","midi":64,"time":263.36770833333344,"velocity":0.7716535433070866,"duration":0.15208333333333712},{"name":"E4","midi":64,"time":263.8041666666668,"velocity":0.7716535433070866,"duration":0.14375000000001137},{"name":"E4","midi":64,"time":264.2291666666668,"velocity":0.7716535433070866,"duration":0.12812500000001137},{"name":"B4","midi":71,"time":264.6385416666668,"velocity":0.7716535433070866,"duration":0.09583333333335986},{"name":"E4","midi":64,"time":265.00416666666683,"velocity":0.7716535433070866,"duration":0.140625},{"name":"E4","midi":64,"time":265.4093750000002,"velocity":0.7716535433070866,"duration":0.13333333333332575},{"name":"E4","midi":64,"time":265.8177083333335,"velocity":0.7716535433070866,"duration":0.16145833333331439},{"name":"B4","midi":71,"time":266.2239583333335,"velocity":0.7716535433070866,"duration":0.15208333333333712},{"name":"E4","midi":64,"time":266.62187500000016,"velocity":0.7716535433070866,"duration":0.140625},{"name":"E4","midi":64,"time":267.0656250000002,"velocity":0.7716535433070866,"duration":0.14375000000001137},{"name":"E4","midi":64,"time":267.4364583333335,"velocity":0.7716535433070866,"duration":0.14895833333332575},{"name":"B4","midi":71,"time":267.86145833333353,"velocity":0.7716535433070866,"duration":0.16354166666667425},{"name":"E4","midi":64,"time":268.27708333333356,"velocity":0.7716535433070866,"duration":0.14687500000002274},{"name":"E4","midi":64,"time":268.6927083333336,"velocity":0.7716535433070866,"duration":0.14479166666666288},{"name":"E4","midi":64,"time":269.10312500000026,"velocity":0.7716535433070866,"duration":0.14791666666667425},{"name":"E7","midi":100,"time":269.4843750000003,"velocity":0.7716535433070866,"duration":0.12395833333334849},{"name":"B4","midi":71,"time":269.50416666666695,"velocity":0.7716535433070866,"duration":0.14791666666667425},{"name":"E4","midi":64,"time":269.9114583333336,"velocity":0.7716535433070866,"duration":0.14791666666667425},{"name":"E4","midi":64,"time":270.3562500000003,"velocity":0.7716535433070866,"duration":0.14791666666667425},{"name":"E4","midi":64,"time":270.79062500000026,"velocity":0.7716535433070866,"duration":0.13333333333332575},{"name":"B4","midi":71,"time":271.1843750000003,"velocity":0.7716535433070866,"duration":0.16250000000002274},{"name":"E4","midi":64,"time":271.5968750000003,"velocity":0.7716535433070866,"duration":0.16041666666666288},{"name":"E4","midi":64,"time":272.0437500000003,"velocity":0.7716535433070866,"duration":0.13645833333333712},{"name":"E4","midi":64,"time":272.45208333333363,"velocity":0.7716535433070866,"duration":0.1395833333333485},{"name":"B4","midi":71,"time":272.860416666667,"velocity":0.7716535433070866,"duration":0.16041666666666288},{"name":"E4","midi":64,"time":273.2770833333337,"velocity":0.7716535433070866,"duration":0.16666666666668561},{"name":"E4","midi":64,"time":273.7270833333337,"velocity":0.7716535433070866,"duration":0.12812500000001137},{"name":"E4","midi":64,"time":274.12083333333374,"velocity":0.7716535433070866,"duration":0.13229166666667425},{"name":"B4","midi":71,"time":274.5104166666671,"velocity":0.7716535433070866,"duration":0.1552083333333485},{"name":"E4","midi":64,"time":274.91875000000044,"velocity":0.7716535433070866,"duration":0.15208333333333712},{"name":"E4","midi":64,"time":275.37187500000044,"velocity":0.7716535433070866,"duration":0.13749999999998863},{"name":"E4","midi":64,"time":275.8135416666671,"velocity":0.7716535433070866,"duration":0.15625},{"name":"B4","midi":71,"time":276.2010416666671,"velocity":0.7716535433070866,"duration":0.16041666666666288},{"name":"E7","midi":100,"time":276.2041666666671,"velocity":0.7716535433070866,"duration":0.11041666666665151},{"name":"E4","midi":64,"time":276.63020833333377,"velocity":0.7716535433070866,"duration":0.14895833333332575},{"name":"E4","midi":64,"time":277.0635416666671,"velocity":0.7716535433070866,"duration":0.15625},{"name":"E4","midi":64,"time":277.48437500000045,"velocity":0.7716535433070866,"duration":0.14895833333332575},{"name":"B4","midi":71,"time":277.8583333333338,"velocity":0.7716535433070866,"duration":0.12395833333334849},{"name":"E4","midi":64,"time":278.2906250000005,"velocity":0.7716535433070866,"duration":0.12812500000001137},{"name":"E4","midi":64,"time":278.74270833333384,"velocity":0.7716535433070866,"duration":0.14895833333332575},{"name":"E4","midi":64,"time":279.1593750000005,"velocity":0.7716535433070866,"duration":0.16041666666666288},{"name":"B4","midi":71,"time":279.5520833333338,"velocity":0.7716535433070866,"duration":0.14375000000001137},{"name":"E4","midi":64,"time":279.95104166666715,"velocity":0.7716535433070866,"duration":0.14479166666666288},{"name":"E4","midi":64,"time":280.38333333333384,"velocity":0.7716535433070866,"duration":0.13020833333331439},{"name":"E4","midi":64,"time":280.8343750000005,"velocity":0.7716535433070866,"duration":0.13229166666667425},{"name":"B4","midi":71,"time":281.20416666666716,"velocity":0.7716535433070866,"duration":0.1416666666666515},{"name":"E4","midi":64,"time":281.6343750000005,"velocity":0.7716535433070866,"duration":0.14270833333335986},{"name":"E4","midi":64,"time":282.0604166666672,"velocity":0.7716535433070866,"duration":0.14895833333332575},{"name":"E4","midi":64,"time":282.45937500000053,"velocity":0.7716535433070866,"duration":0.15312499999998863},{"name":"B4","midi":71,"time":282.84270833333386,"velocity":0.7716535433070866,"duration":0.17604166666666288},{"name":"E7","midi":100,"time":283.04583333333386,"velocity":0.7716535433070866,"duration":0.11562500000002274},{"name":"E4","midi":64,"time":283.23854166666723,"velocity":0.7716535433070866,"duration":0.13645833333333712},{"name":"E4","midi":64,"time":283.66562500000055,"velocity":0.7716535433070866,"duration":0.14479166666666288},{"name":"E4","midi":64,"time":284.12187500000056,"velocity":0.7716535433070866,"duration":0.12083333333333712},{"name":"B4","midi":71,"time":284.5291666666672,"velocity":0.7716535433070866,"duration":0.13020833333331439},{"name":"E4","midi":64,"time":284.94583333333384,"velocity":0.7716535433070866,"duration":0.13125000000002274},{"name":"E4","midi":64,"time":285.36145833333387,"velocity":0.7716535433070866,"duration":0.11770833333332575},{"name":"E4","midi":64,"time":285.79583333333386,"velocity":0.7716535433070866,"duration":0.14375000000001137},{"name":"B4","midi":71,"time":286.1958333333339,"velocity":0.7716535433070866,"duration":0.16458333333332575},{"name":"E4","midi":64,"time":286.59270833333386,"velocity":0.7716535433070866,"duration":0.1416666666666515},{"name":"E4","midi":64,"time":287.07395833333385,"velocity":0.7716535433070866,"duration":0.13229166666667425},{"name":"E4","midi":64,"time":287.49583333333385,"velocity":0.7716535433070866,"duration":0.13854166666664014},{"name":"B4","midi":71,"time":287.8500000000005,"velocity":0.7716535433070866,"duration":0.15625},{"name":"E4","midi":64,"time":288.3031250000005,"velocity":0.7716535433070866,"duration":0.13229166666667425},{"name":"E4","midi":64,"time":288.7281250000005,"velocity":0.7716535433070866,"duration":0.14270833333335986},{"name":"E4","midi":64,"time":289.1218750000005,"velocity":0.7716535433070866,"duration":0.12812500000001137},{"name":"B4","midi":71,"time":289.49583333333385,"velocity":0.7716535433070866,"duration":0.17604166666666288},{"name":"E7","midi":100,"time":289.53333333333387,"velocity":0.7716535433070866,"duration":0.09479166666665151},{"name":"E4","midi":64,"time":289.93541666666715,"velocity":0.7716535433070866,"duration":0.15208333333333712},{"name":"E4","midi":64,"time":290.40208333333385,"velocity":0.7716535433070866,"duration":0.12812500000001137},{"name":"E4","midi":64,"time":290.80833333333385,"velocity":0.7716535433070866,"duration":0.14375000000001137},{"name":"B4","midi":71,"time":291.2260416666672,"velocity":0.7716535433070866,"duration":0.11041666666665151},{"name":"E4","midi":64,"time":291.6312500000005,"velocity":0.7716535433070866,"duration":0.14479166666666288},{"name":"E4","midi":64,"time":292.0593750000005,"velocity":0.7716535433070866,"duration":0.140625},{"name":"E4","midi":64,"time":292.49270833333384,"velocity":0.7716535433070866,"duration":0.1416666666666515},{"name":"B4","midi":71,"time":292.88333333333384,"velocity":0.7716535433070866,"duration":0.16874999999998863},{"name":"E4","midi":64,"time":293.3593750000005,"velocity":0.7716535433070866,"duration":0.13333333333332575},{"name":"E4","midi":64,"time":293.81041666666715,"velocity":0.7716535433070866,"duration":0.14479166666666288},{"name":"E4","midi":64,"time":294.2406250000005,"velocity":0.7716535433070866,"duration":0.16041666666666288},{"name":"B4","midi":71,"time":294.60937500000045,"velocity":0.7716535433070866,"duration":0.16458333333332575},{"name":"E4","midi":64,"time":295.05937500000044,"velocity":0.7716535433070866,"duration":0.13645833333333712},{"name":"E4","midi":64,"time":295.52604166666714,"velocity":0.7716535433070866,"duration":0.11250000000001137},{"name":"E4","midi":64,"time":296.02604166666714,"velocity":0.7716535433070866,"duration":0.11145833333335986},{"name":"E6","midi":88,"time":296.7718750000005,"velocity":0.7716535433070866,"duration":0.10208333333332575},{"name":"B4","midi":71,"time":296.77604166666714,"velocity":0.7716535433070866,"duration":0.13229166666667425},{"name":"E4","midi":64,"time":297.3375000000005,"velocity":0.7716535433070866,"duration":0.13229166666667425},{"name":"E4","midi":64,"time":297.8312500000005,"velocity":0.7716535433070866,"duration":0.140625},{"name":"E4","midi":64,"time":298.2322916666672,"velocity":0.7716535433070866,"duration":0.13645833333333712},{"name":"B4","midi":71,"time":298.6354166666672,"velocity":0.7716535433070866,"duration":0.09375},{"name":"E4","midi":64,"time":299.04062500000055,"velocity":0.7716535433070866,"duration":0.13645833333333712},{"name":"E4","midi":64,"time":299.45937500000053,"velocity":0.7716535433070866,"duration":0.13645833333333712},{"name":"E4","midi":64,"time":299.91250000000053,"velocity":0.7716535433070866,"duration":0.12812500000001137},{"name":"B4","midi":71,"time":300.3979166666672,"velocity":0.7716535433070866,"duration":0.171875},{"name":"E4","midi":64,"time":300.8718750000005,"velocity":0.7716535433070866,"duration":0.12812500000001137},{"name":"E4","midi":64,"time":301.3125000000005,"velocity":0.7716535433070866,"duration":0.13333333333332575},{"name":"E4","midi":64,"time":301.71770833333386,"velocity":0.7716535433070866,"duration":0.11979166666668561},{"name":"B4","midi":71,"time":302.1041666666672,"velocity":0.7716535433070866,"duration":0.140625},{"name":"E4","midi":64,"time":302.52812500000056,"velocity":0.7716535433070866,"duration":0.13541666666668561},{"name":"E4","midi":64,"time":302.9708333333339,"velocity":0.7716535433070866,"duration":0.13645833333333712},{"name":"E4","midi":64,"time":303.4125000000006,"velocity":0.7716535433070866,"duration":0.13229166666667425},{"name":"E6","midi":88,"time":303.8739583333339,"velocity":0.7716535433070866,"duration":0.078125},{"name":"B4","midi":71,"time":303.9083333333339,"velocity":0.7716535433070866,"duration":0.17708333333331439},{"name":"E4","midi":64,"time":304.38854166666727,"velocity":0.7716535433070866,"duration":0.1395833333333485},{"name":"E4","midi":64,"time":304.8218750000006,"velocity":0.7716535433070866,"duration":0.12812500000001137},{"name":"E4","midi":64,"time":305.2260416666673,"velocity":0.7716535433070866,"duration":0.125},{"name":"B4","midi":71,"time":305.58645833333395,"velocity":0.7716535433070866,"duration":0.15208333333333712},{"name":"E4","midi":64,"time":305.9937500000006,"velocity":0.7716535433070866,"duration":0.13229166666667425},{"name":"E4","midi":64,"time":306.4395833333339,"velocity":0.7716535433070866,"duration":0.12812500000001137},{"name":"E4","midi":64,"time":306.8625000000006,"velocity":0.7716535433070866,"duration":0.1395833333333485},{"name":"B4","midi":71,"time":307.2958333333339,"velocity":0.7716535433070866,"duration":0.171875},{"name":"E4","midi":64,"time":307.7177083333339,"velocity":0.7716535433070866,"duration":0.15625},{"name":"E4","midi":64,"time":308.2354166666673,"velocity":0.7716535433070866,"duration":0.13645833333333712},{"name":"E4","midi":64,"time":308.639583333334,"velocity":0.7716535433070866,"duration":0.12395833333334849},{"name":"B4","midi":71,"time":309.06354166666733,"velocity":0.7716535433070866,"duration":0.14791666666667425},{"name":"E4","midi":64,"time":309.48333333333403,"velocity":0.7716535433070866,"duration":0.13229166666667425},{"name":"E4","midi":64,"time":309.9666666666674,"velocity":0.7716535433070866,"duration":0.12916666666666288},{"name":"E4","midi":64,"time":310.47916666666737,"velocity":0.7716535433070866,"duration":0.13854166666664014},{"name":"E6","midi":88,"time":311.00625000000065,"velocity":0.7716535433070866,"duration":0.09895833333331439},{"name":"B4","midi":71,"time":311.0156250000006,"velocity":0.7716535433070866,"duration":0.17916666666667425},{"name":"E4","midi":64,"time":311.561458333334,"velocity":0.7716535433070866,"duration":0.12916666666666288},{"name":"E4","midi":64,"time":312.0604166666673,"velocity":0.7716535433070866,"duration":0.13229166666667425},{"name":"E4","midi":64,"time":312.417708333334,"velocity":0.7716535433070866,"duration":0.13645833333333712},{"name":"B4","midi":71,"time":312.82708333333403,"velocity":0.7716535433070866,"duration":0.15208333333333712},{"name":"E4","midi":64,"time":313.24166666666736,"velocity":0.7716535433070866,"duration":0.13645833333333712},{"name":"E4","midi":64,"time":313.7031250000007,"velocity":0.7716535433070866,"duration":0.11250000000001137},{"name":"E4","midi":64,"time":314.09895833333405,"velocity":0.7716535433070866,"duration":0.140625},{"name":"B4","midi":71,"time":314.5291666666674,"velocity":0.7716535433070866,"duration":0.16354166666667425},{"name":"E4","midi":64,"time":315.02604166666737,"velocity":0.7716535433070866,"duration":0.1552083333333485},{"name":"E4","midi":64,"time":315.5114583333341,"velocity":0.7716535433070866,"duration":0.13541666666668561},{"name":"E4","midi":64,"time":315.9260416666674,"velocity":0.7716535433070866,"duration":0.14583333333331439},{"name":"B4","midi":71,"time":316.3218750000007,"velocity":0.7716535433070866,"duration":0.16041666666666288},{"name":"E4","midi":64,"time":316.71041666666736,"velocity":0.7716535433070866,"duration":0.15625},{"name":"E4","midi":64,"time":317.152083333334,"velocity":0.7716535433070866,"duration":0.1416666666666515},{"name":"E4","midi":64,"time":317.580208333334,"velocity":0.7716535433070866,"duration":0.15625},{"name":"E6","midi":88,"time":318.0625000000006,"velocity":0.7716535433070866,"duration":0.11145833333330302},{"name":"B4","midi":71,"time":318.0718750000006,"velocity":0.7716535433070866,"duration":0.16458333333332575},{"name":"E4","midi":64,"time":318.4802083333339,"velocity":0.7716535433070866,"duration":0.14583333333331439},{"name":"E4","midi":64,"time":318.9479166666672,"velocity":0.7716535433070866,"duration":0.12395833333334849},{"name":"E4","midi":64,"time":319.3625000000005,"velocity":0.7716535433070866,"duration":0.13854166666664014},{"name":"B4","midi":71,"time":319.7520833333338,"velocity":0.7716535433070866,"duration":0.14791666666667425},{"name":"E4","midi":64,"time":320.1718750000005,"velocity":0.7716535433070866,"duration":0.16874999999998863},{"name":"E4","midi":64,"time":320.6010416666672,"velocity":0.7716535433070866,"duration":0.13645833333333712},{"name":"E4","midi":64,"time":321.0031250000005,"velocity":0.7716535433070866,"duration":0.12291666666664014},{"name":"B4","midi":71,"time":321.51666666666716,"velocity":0.7716535433070866,"duration":0.16145833333331439},{"name":"E4","midi":64,"time":321.8791666666671,"velocity":0.7716535433070866,"duration":0.1395833333333485},{"name":"E4","midi":64,"time":322.32812500000045,"velocity":0.7716535433070866,"duration":0.11666666666667425},{"name":"E4","midi":64,"time":322.76354166666715,"velocity":0.7716535433070866,"duration":0.13229166666667425},{"name":"B4","midi":71,"time":323.2072916666672,"velocity":0.7716535433070866,"duration":0.14791666666667425},{"name":"E4","midi":64,"time":323.6031250000005,"velocity":0.7716535433070866,"duration":0.15208333333333712},{"name":"E4","midi":64,"time":324.0312500000005,"velocity":0.7716535433070866,"duration":0.14375000000001137},{"name":"E4","midi":64,"time":324.4947916666672,"velocity":0.7716535433070866,"duration":0.13125000000002274},{"name":"E6","midi":88,"time":325.33541666666724,"velocity":0.7716535433070866,"duration":0.11874999999997726},{"name":"B4","midi":71,"time":325.36354166666723,"velocity":0.7716535433070866,"duration":0.17916666666667425},{"name":"E4","midi":64,"time":326.1177083333339,"velocity":0.7716535433070866,"duration":0.14375000000001137},{"name":"E4","midi":64,"time":326.6125000000006,"velocity":0.7716535433070866,"duration":0.13020833333331439},{"name":"E4","midi":64,"time":327.01250000000056,"velocity":0.7716535433070866,"duration":0.14895833333332575},{"name":"B4","midi":71,"time":327.3645833333339,"velocity":0.7716535433070866,"duration":0.13020833333331439},{"name":"E4","midi":64,"time":327.8177083333339,"velocity":0.7716535433070866,"duration":0.15833333333335986},{"name":"E4","midi":64,"time":328.2708333333339,"velocity":0.7716535433070866,"duration":0.140625},{"name":"E4","midi":64,"time":328.72500000000053,"velocity":0.7716535433070866,"duration":0.13229166666667425},{"name":"B4","midi":71,"time":329.3468750000005,"velocity":0.7716535433070866,"duration":0.16770833333333712},{"name":"E4","midi":64,"time":329.80625000000055,"velocity":0.7716535433070866,"duration":0.140625},{"name":"E4","midi":64,"time":330.33437500000053,"velocity":0.7716535433070866,"duration":0.11666666666667425},{"name":"E4","midi":64,"time":330.70520833333387,"velocity":0.7716535433070866,"duration":0.14375000000001137},{"name":"B4","midi":71,"time":331.1145833333339,"velocity":0.7716535433070866,"duration":0.15625},{"name":"E4","midi":64,"time":331.5135416666672,"velocity":0.7716535433070866,"duration":0.2020833333333485},{"name":"E4","midi":64,"time":331.9854166666672,"velocity":0.7716535433070866,"duration":0.13229166666667425},{"name":"E4","midi":64,"time":332.42812500000053,"velocity":0.7716535433070866,"duration":0.12291666666664014},{"name":"B4","midi":71,"time":332.93645833333386,"velocity":0.7716535433070866,"duration":0.1645833333332689},{"name":"E6","midi":88,"time":332.96145833333384,"velocity":0.7716535433070866,"duration":0.11874999999997726},{"name":"E4","midi":64,"time":333.43229166666714,"velocity":0.7716535433070866,"duration":0.140625},{"name":"E4","midi":64,"time":333.8677083333338,"velocity":0.7716535433070866,"duration":0.14375000000001137},{"name":"E4","midi":64,"time":334.3302083333338,"velocity":0.7716535433070866,"duration":0.15416666666664014},{"name":"B4","midi":71,"time":334.74479166666714,"velocity":0.7716535433070866,"duration":0.16458333333332575},{"name":"E4","midi":64,"time":335.1520833333338,"velocity":0.7716535433070866,"duration":0.13125000000002274},{"name":"E4","midi":64,"time":335.5906250000005,"velocity":0.7716535433070866,"duration":0.14791666666667425},{"name":"E4","midi":64,"time":336.04479166666715,"velocity":0.7716535433070866,"duration":0.1395833333333485},{"name":"B4","midi":71,"time":336.5510416666672,"velocity":0.7716535433070866,"duration":0.15312499999998863},{"name":"E4","midi":64,"time":336.96666666666715,"velocity":0.7716535433070866,"duration":0.140625},{"name":"E4","midi":64,"time":337.40104166666714,"velocity":0.7716535433070866,"duration":0.13541666666668561},{"name":"E4","midi":64,"time":337.85208333333384,"velocity":0.7716535433070866,"duration":0.14895833333332575},{"name":"B4","midi":71,"time":338.26354166666715,"velocity":0.7716535433070866,"duration":0.16458333333332575},{"name":"E4","midi":64,"time":338.6989583333338,"velocity":0.7716535433070866,"duration":0.140625},{"name":"E4","midi":64,"time":339.1677083333338,"velocity":0.7716535433070866,"duration":0.11979166666668561},{"name":"E4","midi":64,"time":339.71979166666716,"velocity":0.7716535433070866,"duration":0.12812500000001137},{"name":"E6","midi":88,"time":340.3562500000005,"velocity":0.7716535433070866,"duration":0.13229166666667425},{"name":"B4","midi":71,"time":340.4406250000005,"velocity":0.7716535433070866,"duration":0.12395833333329165},{"name":"E4","midi":64,"time":340.8645833333338,"velocity":0.7716535433070866,"duration":0.13645833333333712},{"name":"E4","midi":64,"time":341.37604166666716,"velocity":0.7716535433070866,"duration":0.11874999999997726},{"name":"E4","midi":64,"time":341.8635416666671,"velocity":0.7716535433070866,"duration":0.1416666666666515},{"name":"B4","midi":71,"time":342.27500000000043,"velocity":0.7716535433070866,"duration":0.16458333333332575},{"name":"E4","midi":64,"time":342.71458333333374,"velocity":0.7716535433070866,"duration":0.1395833333333485},{"name":"E4","midi":64,"time":343.16875000000044,"velocity":0.7716535433070866,"duration":0.12812500000001137},{"name":"E4","midi":64,"time":343.63541666666714,"velocity":0.7716535433070866,"duration":0.1260416666666515},{"name":"B4","midi":71,"time":344.17708333333377,"velocity":0.7716535433070866,"duration":0.1729166666666515},{"name":"E4","midi":64,"time":344.63958333333375,"velocity":0.7716535433070866,"duration":0.14791666666667425},{"name":"E4","midi":64,"time":345.13020833333377,"velocity":0.7716535433070866,"duration":0.14375000000001137},{"name":"E4","midi":64,"time":345.61666666666713,"velocity":0.7716535433070866,"duration":0.14791666666667425},{"name":"B4","midi":71,"time":346.0552083333338,"velocity":0.7716535433070866,"duration":0.14791666666667425},{"name":"E4","midi":64,"time":346.48958333333377,"velocity":0.7716535433070866,"duration":0.14375000000001137},{"name":"E4","midi":64,"time":346.98750000000047,"velocity":0.7716535433070866,"duration":0.13229166666667425},{"name":"E4","midi":64,"time":347.48750000000047,"velocity":0.7716535433070866,"duration":0.16041666666666288},{"name":"E6","midi":88,"time":348.0354166666671,"velocity":0.7716535433070866,"duration":0.12187499999998863},{"name":"B4","midi":71,"time":348.04062500000043,"velocity":0.7716535433070866,"duration":0.15625},{"name":"E4","midi":64,"time":348.4958333333338,"velocity":0.7716535433070866,"duration":0.13541666666668561},{"name":"E4","midi":64,"time":349.00729166666713,"velocity":0.7716535433070866,"duration":0.12187499999998863},{"name":"E4","midi":64,"time":349.4302083333338,"velocity":0.7716535433070866,"duration":0.11874999999997726},{"name":"B4","midi":71,"time":349.8635416666671,"velocity":0.7716535433070866,"duration":0.13333333333332575},{"name":"E4","midi":64,"time":350.28333333333376,"velocity":0.7716535433070866,"duration":0.1395833333333485},{"name":"E4","midi":64,"time":350.74687500000044,"velocity":0.7716535433070866,"duration":0.12812500000001137},{"name":"E4","midi":64,"time":351.2645833333338,"velocity":0.7716535433070866,"duration":0.13229166666667425},{"name":"B4","midi":71,"time":351.8687500000005,"velocity":0.7716535433070866,"duration":0.12395833333334849},{"name":"E4","midi":64,"time":352.3541666666672,"velocity":0.7716535433070866,"duration":0.13645833333333712},{"name":"E4","midi":64,"time":352.7854166666672,"velocity":0.7716535433070866,"duration":0.11562500000002274},{"name":"E4","midi":64,"time":353.20937500000053,"velocity":0.7716535433070866,"duration":0.1395833333333485},{"name":"B4","midi":71,"time":353.62395833333386,"velocity":0.7716535433070866,"duration":0.125},{"name":"E4","midi":64,"time":354.14687500000053,"velocity":0.7716535433070866,"duration":0.11562500000002274},{"name":"E4","midi":64,"time":354.63229166666724,"velocity":0.7716535433070866,"duration":0.13020833333331439},{"name":"E4","midi":64,"time":355.21562500000056,"velocity":0.7716535433070866,"duration":0.09687500000001137},{"name":"B4","midi":71,"time":355.6729166666672,"velocity":0.7716535433070866,"duration":0.13541666666668561},{"name":"E7","midi":100,"time":355.67916666666724,"velocity":0.7716535433070866,"duration":0.15625},{"name":"E4","midi":64,"time":356.13541666666725,"velocity":0.7716535433070866,"duration":0.15208333333333712},{"name":"E4","midi":64,"time":356.63541666666725,"velocity":0.7716535433070866,"duration":0.12708333333335986},{"name":"E4","midi":64,"time":356.98750000000064,"velocity":0.7716535433070866,"duration":0.11354166666666288},{"name":"B4","midi":71,"time":357.392708333334,"velocity":0.7716535433070866,"duration":0.14479166666666288},{"name":"E4","midi":64,"time":357.83437500000065,"velocity":0.7716535433070866,"duration":0.16562499999997726},{"name":"E4","midi":64,"time":358.33125000000064,"velocity":0.7716535433070866,"duration":0.16458333333332575},{"name":"E4","midi":64,"time":358.80000000000064,"velocity":0.7716535433070866,"duration":0.12395833333334849},{"name":"B4","midi":71,"time":359.2135416666673,"velocity":0.7716535433070866,"duration":0.16562499999997726},{"name":"E4","midi":64,"time":359.68020833333395,"velocity":0.7716535433070866,"duration":0.12395833333334849},{"name":"E4","midi":64,"time":360.11770833333395,"velocity":0.7716535433070866,"duration":0.14583333333331439},{"name":"E4","midi":64,"time":360.5843750000006,"velocity":0.7716535433070866,"duration":0.14479166666666288},{"name":"B4","midi":71,"time":360.94270833333394,"velocity":0.7716535433070866,"duration":0.19999999999998863},{"name":"E4","midi":64,"time":361.39583333333394,"velocity":0.7716535433070866,"duration":0.17916666666667425},{"name":"E4","midi":64,"time":361.8750000000006,"velocity":0.7716535433070866,"duration":0.15416666666664014},{"name":"E4","midi":64,"time":362.3312500000006,"velocity":0.7716535433070866,"duration":0.14895833333332575},{"name":"B4","midi":71,"time":362.73437500000057,"velocity":0.7716535433070866,"duration":0.2041666666666515},{"name":"E7","midi":100,"time":362.8104166666672,"velocity":0.7716535433070866,"duration":0.11979166666668561},{"name":"E4","midi":64,"time":363.1802083333339,"velocity":0.7716535433070866,"duration":0.14270833333335986},{"name":"E4","midi":64,"time":363.64791666666724,"velocity":0.7716535433070866,"duration":0.15208333333333712},{"name":"E4","midi":64,"time":364.11354166666723,"velocity":0.7716535433070866,"duration":0.16041666666666288},{"name":"B4","midi":71,"time":364.56250000000057,"velocity":0.7716535433070866,"duration":0.13333333333332575},{"name":"E4","midi":64,"time":364.9458333333339,"velocity":0.7716535433070866,"duration":0.1395833333333485},{"name":"E4","midi":64,"time":365.41666666666725,"velocity":0.7716535433070866,"duration":0.12916666666666288},{"name":"E4","midi":64,"time":365.88541666666725,"velocity":0.7716535433070866,"duration":0.14895833333332575},{"name":"B4","midi":71,"time":366.34166666666727,"velocity":0.7716535433070866,"duration":0.15625},{"name":"E4","midi":64,"time":366.7531250000006,"velocity":0.7716535433070866,"duration":0.12812500000001137},{"name":"E4","midi":64,"time":367.1968750000006,"velocity":0.7716535433070866,"duration":0.13333333333332575},{"name":"E4","midi":64,"time":367.6572916666673,"velocity":0.7716535433070866,"duration":0.15625},{"name":"B4","midi":71,"time":368.1187500000006,"velocity":0.7716535433070866,"duration":0.13229166666667425},{"name":"E4","midi":64,"time":368.60416666666725,"velocity":0.7716535433070866,"duration":0.16770833333333712},{"name":"E4","midi":64,"time":369.1312500000006,"velocity":0.7716535433070866,"duration":0.140625},{"name":"E4","midi":64,"time":369.6364583333339,"velocity":0.7716535433070866,"duration":0.16041666666666288},{"name":"B4","midi":71,"time":370.0968750000006,"velocity":0.7716535433070866,"duration":0.1885416666666515},{"name":"E7","midi":100,"time":370.12187500000056,"velocity":0.7716535433070866,"duration":0.09895833333331439},{"name":"E4","midi":64,"time":370.58541666666724,"velocity":0.7716535433070866,"duration":0.1572916666666515},{"name":"E4","midi":64,"time":371.1333333333339,"velocity":0.7716535433070866,"duration":0.16250000000002274},{"name":"E4","midi":64,"time":371.69791666666725,"velocity":0.7716535433070866,"duration":0.1416666666666515},{"name":"B4","midi":71,"time":372.21354166666725,"velocity":0.7716535433070866,"duration":0.16770833333333712},{"name":"E4","midi":64,"time":372.7145833333339,"velocity":0.7716535433070866,"duration":0.17604166666666288},{"name":"E4","midi":64,"time":373.2677083333339,"velocity":0.7716535433070866,"duration":0.17604166666666288},{"name":"E4","midi":64,"time":373.83229166666723,"velocity":0.7716535433070866,"duration":0.15208333333333712},{"name":"B4","midi":71,"time":374.4364583333339,"velocity":0.7716535433070866,"duration":0.22083333333330302},{"name":"E7","midi":100,"time":374.48854166666723,"velocity":0.7716535433070866,"duration":0.13854166666664014},{"name":"E4","midi":64,"time":375.0291666666672,"velocity":0.7716535433070866,"duration":0.16666666666668561},{"name":"E4","midi":64,"time":375.6552083333339,"velocity":0.7716535433070866,"duration":0.16458333333332575},{"name":"E4","midi":64,"time":376.1729166666672,"velocity":0.7716535433070866,"duration":0.14791666666667425},{"name":"B4","midi":71,"time":376.7197916666672,"velocity":0.7716535433070866,"duration":0.17604166666666288},{"name":"E4","midi":64,"time":377.2145833333339,"velocity":0.7716535433070866,"duration":0.171875},{"name":"E4","midi":64,"time":377.7489583333339,"velocity":0.7716535433070866,"duration":0.20729166666666288},{"name":"E4","midi":64,"time":378.3031250000006,"velocity":0.7716535433070866,"duration":0.16354166666667425},{"name":"B4","midi":71,"time":378.7520833333339,"velocity":0.7716535433070866,"duration":0.16354166666667425},{"name":"E4","midi":64,"time":379.1843750000006,"velocity":0.7716535433070866,"duration":0.14791666666667425},{"name":"E4","midi":64,"time":379.70104166666727,"velocity":0.7716535433070866,"duration":0.16145833333331439},{"name":"E4","midi":64,"time":380.2020833333339,"velocity":0.7716535433070866,"duration":0.14479166666666288},{"name":"B4","midi":71,"time":380.63541666666725,"velocity":0.7716535433070866,"duration":0.18437499999998863},{"name":"E4","midi":64,"time":381.1187500000006,"velocity":0.7716535433070866,"duration":0.17708333333331439},{"name":"E4","midi":64,"time":381.70000000000056,"velocity":0.7716535433070866,"duration":0.13645833333333712},{"name":"E4","midi":64,"time":382.18125000000055,"velocity":0.7716535433070866,"duration":0.1729166666666515},{"name":"E7","midi":100,"time":382.66770833333385,"velocity":0.7716535433070866,"duration":0.11354166666666288},{"name":"B4","midi":71,"time":382.6791666666672,"velocity":0.7716535433070866,"duration":0.1624999999999659},{"name":"E4","midi":64,"time":383.20625000000047,"velocity":0.7716535433070866,"duration":0.16041666666666288},{"name":"E4","midi":64,"time":383.6739583333338,"velocity":0.7716535433070866,"duration":0.20833333333331439},{"name":"E4","midi":64,"time":384.20104166666715,"velocity":0.7716535433070866,"duration":0.16145833333331439},{"name":"B4","midi":71,"time":384.6802083333338,"velocity":0.7716535433070866,"duration":0.16041666666666288},{"name":"E4","midi":64,"time":385.1697916666671,"velocity":0.7716535433070866,"duration":0.17604166666666288},{"name":"E4","midi":64,"time":385.6958333333338,"velocity":0.7716535433070866,"duration":0.17916666666667425},{"name":"E4","midi":64,"time":386.18229166666714,"velocity":0.7716535433070866,"duration":0.16458333333332575},{"name":"B4","midi":71,"time":386.67500000000047,"velocity":0.7716535433070866,"duration":0.15416666666664014},{"name":"E4","midi":64,"time":387.11875000000043,"velocity":0.7716535433070866,"duration":0.14375000000001137},{"name":"E4","midi":64,"time":387.6625000000004,"velocity":0.7716535433070866,"duration":0.16145833333331439},{"name":"E4","midi":64,"time":388.1343750000004,"velocity":0.7716535433070866,"duration":0.18437499999998863},{"name":"B4","midi":71,"time":388.65729166666705,"velocity":0.7716535433070866,"duration":0.16041666666666288},{"name":"E4","midi":64,"time":389.1187500000004,"velocity":0.7716535433070866,"duration":0.1885416666666515},{"name":"E4","midi":64,"time":389.65416666666704,"velocity":0.7716535433070866,"duration":0.18020833333332575},{"name":"E4","midi":64,"time":390.15416666666704,"velocity":0.7716535433070866,"duration":0.15208333333333712},{"name":"E7","midi":100,"time":390.6020833333337,"velocity":0.7716535433070866,"duration":0.13854166666664014},{"name":"B4","midi":71,"time":390.68854166666705,"velocity":0.7716535433070866,"duration":0.14895833333332575},{"name":"E4","midi":64,"time":391.1968750000004,"velocity":0.7716535433070866,"duration":0.16041666666666288},{"name":"E4","midi":64,"time":391.6614583333337,"velocity":0.7716535433070866,"duration":0.08749999999997726},{"name":"E4","midi":64,"time":392.10729166666704,"velocity":0.7716535433070866,"duration":0.13645833333333712},{"name":"B4","midi":71,"time":392.58229166666706,"velocity":0.7716535433070866,"duration":0.12812500000001137},{"name":"E4","midi":64,"time":393.0812500000004,"velocity":0.7716535433070866,"duration":0.15625},{"name":"E4","midi":64,"time":393.62916666666706,"velocity":0.7716535433070866,"duration":0.14999999999997726},{"name":"E4","midi":64,"time":394.1614583333337,"velocity":0.7716535433070866,"duration":0.140625},{"name":"B4","midi":71,"time":394.651041666667,"velocity":0.7716535433070866,"duration":0.16458333333332575},{"name":"E4","midi":64,"time":395.14687500000036,"velocity":0.7716535433070866,"duration":0.13645833333333712},{"name":"E4","midi":64,"time":395.6656250000004,"velocity":0.7716535433070866,"duration":0.14895833333332575},{"name":"E4","midi":64,"time":396.1708333333337,"velocity":0.7716535433070866,"duration":0.13645833333333712},{"name":"B4","midi":71,"time":396.6500000000004,"velocity":0.7716535433070866,"duration":0.15208333333333712},{"name":"E4","midi":64,"time":397.18333333333374,"velocity":0.7716535433070866,"duration":0.17916666666667425},{"name":"E4","midi":64,"time":397.7531250000004,"velocity":0.7716535433070866,"duration":0.17604166666666288},{"name":"E4","midi":64,"time":398.43645833333375,"velocity":0.7716535433070866,"duration":0.14895833333332575},{"name":"B4","midi":71,"time":399.44687500000043,"velocity":0.7716535433070866,"duration":0.11666666666667425},{"name":"E7","midi":100,"time":399.4593750000004,"velocity":0.7716535433070866,"duration":0.11458333333337123}],"controlChanges":{},"instrumentNumber":-1}]}